<svg width="112" height="97" viewBox="0 0 112 97" fill="none" xmlns="http://www.w3.org/2000/svg">
<path d="M51.2705 0.146446C51.0753 -0.0488167 50.7587 -0.0488167 50.5634 0.146446L47.3815 3.32843C47.1862 3.52369 47.1862 3.84027 47.3815 4.03553C47.5767 4.2308 47.8933 4.2308 48.0886 4.03553L50.917 1.20711L53.7454 4.03553C53.9407 4.2308 54.2573 4.2308 54.4525 4.03553C54.6478 3.84027 54.6478 3.52369 54.4525 3.32843L51.2705 0.146446ZM50.917 41.5L51.417 41.5L51.417 0.5L50.917 0.5L50.417 0.5L50.417 41.5L50.917 41.5Z" fill="#2E2E2E"/>
<path d="M11.2652 64.1596C11.1982 64.1338 11.0973 64.0685 10.9625 63.9636C10.8277 63.8588 10.712 63.6804 10.6152 63.4283C10.5183 63.1629 10.4666 62.7969 10.4603 62.3303C10.4682 61.9302 10.4706 61.6168 10.4676 61.3901C10.4778 61.1633 10.4296 61.0506 10.323 61.0521C10.2163 61.0535 10.0111 61.163 9.70737 61.3804C9.41677 61.5844 9.08051 61.8623 8.69858 62.2142C8.31665 62.5661 7.92859 62.958 7.53441 63.3901C7.40308 63.5385 7.27166 63.6803 7.14014 63.8155C7.02178 63.9371 6.90288 64.0187 6.78343 64.0603C6.6638 64.0886 6.52318 64.0438 6.36157 63.926L6.13915 63.749C6.07159 63.6833 6.03069 63.6171 6.01645 63.5507C6.00203 63.4709 6.00753 63.3841 6.03292 63.2904L6.47499 61.9643C6.68179 61.4815 6.82375 61.1328 6.90085 60.9184C6.97777 60.6907 7.01586 60.5502 7.01514 60.4968C7.01424 60.4302 6.99388 60.4038 6.95406 60.4177C6.84759 60.4324 6.6885 60.5013 6.47682 60.6242C6.26495 60.7337 6.12641 60.8423 6.0612 60.9498C6.00787 60.9505 5.92869 61.0116 5.82366 61.1331C5.71863 61.2545 5.58684 61.3696 5.4283 61.4784C5.33715 61.6397 5.1533 61.8489 4.87676 62.106C4.61355 62.3629 4.35044 62.6265 4.08741 62.8968C3.91608 63.0458 3.7452 63.2281 3.57478 63.4438C3.41768 63.6592 3.28023 63.8478 3.16241 64.0094C3.05792 64.1708 2.98568 64.2518 2.94568 64.2524C2.77237 64.2547 2.61175 64.2102 2.46383 64.1189C2.32924 64.0274 2.22717 63.8754 2.15762 63.663C2.04789 63.4378 2.04364 63.1245 2.14488 62.7231C2.24593 62.3083 2.35869 61.7734 2.48315 61.1183C2.53377 60.9176 2.56511 60.7705 2.57718 60.677C2.58924 60.5835 2.60798 60.4899 2.63338 60.3962C2.67193 60.289 2.72975 60.1282 2.80685 59.9138C2.89728 59.6993 3.03293 59.3774 3.2138 58.9482C3.30369 58.6937 3.35449 58.5063 3.36619 58.3861C3.39105 58.2524 3.40311 58.1589 3.40239 58.1056C3.40058 57.9723 3.43238 57.8585 3.49777 57.7643C3.5765 57.6699 3.66892 57.6019 3.77503 57.5605C3.88115 57.5191 3.98105 57.511 4.07474 57.5364C4.22175 57.5611 4.3494 57.6327 4.45768 57.7513C4.5793 57.8696 4.64822 58.0354 4.66444 58.2485C4.67995 58.4083 4.6686 58.5551 4.63041 58.689C4.59204 58.8095 4.55358 58.9234 4.51503 59.0306L4.30237 59.5735C4.2377 59.7211 4.15394 59.9356 4.05108 60.217C3.94821 60.4984 3.85841 60.7597 3.78168 61.0007C3.70476 61.2285 3.66657 61.3623 3.66711 61.4023C3.68098 61.4421 3.72756 61.4348 3.80683 61.3804C3.88591 61.3127 3.98473 61.2247 4.10327 61.1164C4.23497 60.9946 4.36675 60.8795 4.49863 60.771C4.77499 60.5005 5.08486 60.243 5.42824 59.9983C5.78477 59.7401 6.12185 59.5222 6.43947 59.3445C6.75709 59.1669 7.00219 59.0502 7.17479 58.9945C7.40143 58.9915 7.5553 59.0294 7.63637 59.1083C7.73078 59.187 7.88609 59.3316 8.1023 59.542C8.19689 59.6341 8.25184 59.7533 8.26716 59.8998C8.28248 60.0463 8.27772 60.1864 8.25286 60.32C8.24025 60.3736 8.20206 60.5074 8.13829 60.7216C8.07434 60.9225 8.0103 61.1167 7.94617 61.3043C7.89538 61.4917 7.86998 61.5854 7.86998 61.5854C7.86998 61.5854 7.9424 61.5177 8.08725 61.3824C8.24542 61.2469 8.41684 61.1046 8.6015 60.9554C8.78598 60.7929 8.92434 60.671 9.01658 60.5897C9.53111 60.1827 9.98097 59.9233 10.3662 59.8114C10.7513 59.6995 11.0665 59.8352 11.3118 60.2186C11.4737 60.3631 11.5559 60.522 11.5582 60.6953C11.5739 60.8684 11.5847 61.1683 11.5904 61.5949C11.6061 61.7681 11.6223 61.9745 11.6389 62.2143C11.6554 62.4541 11.6718 62.6739 11.6878 62.8737C11.717 63.06 11.7452 63.173 11.7724 63.2126C11.8131 63.2654 11.8871 63.3111 11.9943 63.3496C12.1146 63.3746 12.2683 63.3992 12.4553 63.4234C12.6557 63.4473 12.7768 63.5323 12.8188 63.6785C12.8608 63.8246 12.776 63.9657 12.5645 64.1019C12.3662 64.2246 12.1469 64.281 11.9068 64.2709C11.6666 64.2608 11.4527 64.2237 11.2652 64.1596ZM13.1932 69.7939C12.9006 69.8512 12.7007 69.8606 12.5935 69.8221C12.4863 69.7835 12.3387 69.7189 12.1508 69.6281C12.0027 69.5234 11.8883 69.4449 11.8076 69.3927C11.7269 69.3404 11.6862 69.2877 11.6854 69.2343C11.6849 69.1943 11.6976 69.1475 11.7235 69.0938C11.7497 69.0534 11.7958 69.0128 11.8619 68.9719C11.9415 68.9442 12.048 68.9294 12.1813 68.9276C12.2754 68.9796 12.429 69.0042 12.6424 69.0013C12.869 68.9983 13.0086 68.9697 13.0612 68.9156C13.0612 68.9156 13.1207 68.8748 13.2396 68.7932C13.372 68.7248 13.5446 68.6691 13.7574 68.6262C14.168 68.4206 14.5312 68.1623 14.847 67.8513C15.1628 67.5404 15.464 67.1362 15.7506 66.639C15.8681 66.4507 15.9918 66.229 16.1216 65.9739C16.2517 65.7321 16.3418 65.4909 16.3919 65.2502C16.4949 64.9821 16.61 64.6205 16.7372 64.1654C16.8777 63.7101 16.9983 63.2618 17.099 62.8203C17.1995 62.3656 17.2549 62.0248 17.2651 61.798C17.335 61.0503 17.4523 60.362 17.6172 59.733C17.7951 59.0906 17.9455 58.3751 18.0681 57.5867C18.1456 57.399 18.2041 57.2915 18.2438 57.2643C18.2832 57.2238 18.3696 57.2026 18.5029 57.2008C18.6496 57.1988 18.7564 57.2107 18.8234 57.2365C18.9036 57.2487 18.9913 57.3275 19.0867 57.4729C19.2234 57.7244 19.2741 58.0238 19.2388 58.3709C19.2167 58.7046 19.1207 58.9993 18.9508 59.2549C18.82 59.4434 18.704 59.7383 18.6028 60.1397C18.5147 60.5276 18.428 61.0155 18.3426 61.6034C18.2799 61.8976 18.2113 62.2452 18.1367 62.6463C18.0753 63.0338 18.0078 63.4681 17.9344 63.9491C17.8828 64.0832 17.8123 64.2908 17.7228 64.5721C17.6331 64.84 17.576 65.0541 17.5515 65.2144C17.5389 65.2679 17.5003 65.3751 17.4358 65.536C17.3713 65.6969 17.3067 65.8511 17.2421 65.9987C17.1776 66.1596 17.1324 66.2669 17.1064 66.3206C16.6011 67.4075 16.019 68.2422 15.3602 68.8245C14.7014 69.4068 13.979 69.7299 13.1932 69.7939ZM14.6344 63.9739C14.4877 63.9759 14.3333 63.8979 14.1712 63.7401C14.0224 63.5821 13.9206 63.4568 13.8661 63.3642C13.8109 63.2316 13.7425 63.1059 13.6609 62.987C13.5793 62.8681 13.5173 62.7222 13.475 62.5495C13.446 62.3765 13.4564 62.163 13.5063 61.909C13.5573 61.7349 13.6272 61.4873 13.7162 61.1661C13.8184 60.8313 13.9268 60.4698 14.0416 60.0815C14.1696 59.6931 14.2978 59.3113 14.4261 58.9362C14.5675 58.5476 14.6962 58.2058 14.8122 57.9109C14.928 57.6026 15.0317 57.3812 15.1232 57.2466C15.2018 57.1389 15.2875 57.071 15.3805 57.0431C15.4868 57.015 15.5936 57.0269 15.701 57.0788C15.8082 57.1173 15.9027 57.2027 15.9845 57.335C16.1337 57.5196 16.1959 57.6788 16.171 57.8125C16.1461 57.9462 16.0297 58.2078 15.8216 58.5973C15.7703 58.7447 15.7058 58.9055 15.6281 59.0799C15.5503 59.241 15.5118 59.3482 15.5125 59.4015C15.4995 59.4284 15.4741 59.5221 15.4363 59.6826C15.4116 59.8296 15.3802 59.9701 15.342 60.1039C15.3038 60.2378 15.2647 60.305 15.2247 60.3055C15.1721 60.3596 15.1142 60.5137 15.051 60.7679C14.9876 61.0088 14.9313 61.2829 14.8821 61.5903C14.8327 61.8843 14.8029 62.1447 14.7927 62.3716C14.7822 62.5851 14.8037 62.6915 14.857 62.6907C15.2703 62.6851 15.6948 62.5194 16.1304 62.1934C16.5793 61.8673 17.0263 61.3945 17.4713 60.7751L17.8305 62.1904C17.6451 62.2862 17.4732 62.3886 17.3146 62.4974C17.1559 62.5929 17.0108 62.7082 16.8793 62.8433C16.84 62.8972 16.7477 62.9718 16.6023 63.0671C16.4569 63.1624 16.3114 63.2511 16.1658 63.333C16.0334 63.4015 15.9472 63.436 15.9072 63.4366C15.9072 63.4366 15.8873 63.4435 15.8475 63.4574C15.8208 63.4577 15.8079 63.4846 15.8086 63.5379C15.8089 63.5646 15.723 63.6191 15.5508 63.7014C15.3784 63.7704 15.1992 63.8329 15.0133 63.8887C14.8273 63.9446 14.701 63.973 14.6344 63.9739ZM68.5102 63.6234C68.3374 63.6658 68.1774 63.6679 68.0303 63.6299C67.8831 63.5919 67.7488 63.5271 67.6276 63.4354C67.5063 63.3437 67.3984 63.2518 67.3038 63.1597C67.209 63.0543 67.1811 62.9614 67.22 62.8808C67.2588 62.787 67.3248 62.7394 67.4181 62.7381C67.4714 62.7374 67.504 62.6836 67.5159 62.5768C67.541 62.4565 67.5647 62.2428 67.5872 61.9358C67.6114 61.7488 67.6425 61.5883 67.6807 61.4545C67.7321 61.3071 67.7574 61.2067 67.7567 61.1534C67.7694 61.1132 67.7813 61.0064 67.7923 60.8329C67.8164 60.6459 67.8543 60.4854 67.9058 60.3513C67.9559 60.1106 68.0317 59.8029 68.1333 59.4281C68.2347 59.0401 68.3363 58.6653 68.4381 58.3039C68.553 57.929 68.6424 57.6411 68.7064 57.4402C68.7311 57.2932 68.7885 57.1057 68.8788 56.8778C68.969 56.6499 69.0466 56.4688 69.1114 56.3346C69.2397 55.9595 69.407 55.5105 69.6132 54.9877C69.8328 54.4646 70.0524 53.9416 70.272 53.4186C70.4916 52.8956 70.6856 52.4529 70.8541 52.0906C71.0357 51.7148 71.1526 51.4865 71.2048 51.4058C71.31 51.2977 71.4361 51.2493 71.5829 51.2606C71.7431 51.2718 71.8975 51.3497 72.0461 51.4944C72.1681 51.6394 72.2236 51.7987 72.2126 51.9722C72.2014 52.1323 72.1171 52.3068 71.9597 52.4956C71.9076 52.5897 71.8492 52.7105 71.7846 52.858C71.7197 52.9923 71.6546 53.1065 71.5892 53.2007C71.4869 53.5221 71.3578 53.8372 71.202 54.1461C71.0595 54.4547 70.9042 54.8035 70.7361 55.1925C70.5679 55.5681 70.3875 56.0373 70.1951 56.5999C70.0786 56.8549 69.982 57.1095 69.9055 57.3639C69.8287 57.605 69.7642 57.7592 69.7117 57.8266C69.6357 58.121 69.5399 58.429 69.4242 58.7506C69.3084 59.0588 69.226 59.3733 69.177 59.694C69.177 59.694 69.2428 59.6265 69.3743 59.4913C69.5191 59.356 69.6902 59.187 69.8874 58.9843C70.3998 58.4173 70.9135 57.9503 71.4286 57.5833C71.957 57.2161 72.3944 57.0235 72.7409 57.0055C72.9273 56.9896 73.128 57.0335 73.3427 57.1373C73.5708 57.2409 73.7793 57.3714 73.9681 57.5289C74.1567 57.673 74.2855 57.8313 74.3546 58.0037C74.4645 58.2422 74.508 58.5016 74.4851 58.782C74.4754 59.0488 74.3993 59.3365 74.2568 59.6451C74.1275 59.9403 73.9449 60.2428 73.7091 60.5527C73.5658 60.808 73.3892 61.057 73.1791 61.2999C72.9822 61.5293 72.8112 61.6983 72.666 61.8069C72.5343 61.9287 72.4026 62.0505 72.2709 62.1723C72.1523 62.2806 72.0535 62.3686 71.9744 62.4363C71.8027 62.5587 71.664 62.6539 71.5583 62.722C71.4523 62.7768 71.3065 62.8388 71.1207 62.908C70.8435 63.1117 70.4588 63.2636 69.9668 63.3636C69.4748 63.4637 68.9893 63.5503 68.5102 63.6234ZM69.0163 62.5965C69.1097 62.5952 69.276 62.5729 69.5155 62.5297C69.7682 62.4863 70.0002 62.3831 70.2113 62.2202C70.8336 61.8918 71.3682 61.4911 71.8152 61.0184C72.262 60.5323 72.5955 60.0544 72.8158 59.5847C73.0493 59.1015 73.1506 58.7067 73.1198 58.4004C73.089 58.0942 72.8548 58.0307 72.4172 58.21C71.9796 58.3892 71.4517 58.7964 70.8336 59.4315C70.5439 59.7022 70.2678 59.9926 70.0053 60.3028C69.756 60.5996 69.5198 60.8828 69.2968 61.1525C69.2054 61.3004 69.1272 61.4282 69.062 61.5357C69.0101 61.6431 68.9782 61.7502 68.9663 61.8571C68.8663 62.3518 68.883 62.5983 69.0163 62.5965ZM80.4281 64.0219C80.293 63.8904 80.1572 63.7122 80.0208 63.4874C79.8843 63.2492 79.7739 62.9773 79.6897 62.6718C79.6616 62.5655 79.6463 62.419 79.6438 62.2324C79.6546 62.0455 79.6528 61.9122 79.6384 61.8324C79.5996 61.9263 79.5343 62.0271 79.4424 62.1351C79.3637 62.2295 79.2848 62.3106 79.2057 62.3783C79.1531 62.4324 79.0346 62.5406 78.8501 62.7032C78.6654 62.8523 78.4804 62.9749 78.295 63.0707C77.8589 63.3567 77.4943 63.5149 77.2014 63.5456C76.9217 63.576 76.6531 63.433 76.3955 63.1165C76.1798 62.946 76.0239 62.7548 75.9276 62.5428C75.8448 62.3305 75.8408 62.0372 75.9157 61.6628C75.9361 61.1959 75.9966 60.7417 76.0973 60.3003C76.1978 59.8455 76.4096 59.2426 76.7328 58.4915C77.0054 57.9411 77.2132 57.5382 77.3565 57.2829C77.4995 57.0143 77.5907 56.853 77.6299 56.7992C77.829 56.7298 77.9958 56.7342 78.1302 56.8124C78.2644 56.8772 78.3461 57.0028 78.3753 57.1891C78.4571 57.3213 78.4468 57.5481 78.3445 57.8696C78.2555 58.1908 78.0942 58.5864 77.8606 59.0562C77.6801 59.5121 77.5129 59.9677 77.359 60.4232C77.2185 60.8784 77.1371 61.2662 77.1148 61.5866C77.0925 61.9069 77.1751 62.0991 77.3626 62.1633C77.4835 62.2283 77.6899 62.2055 77.9818 62.0949C78.287 61.9841 78.6233 61.7128 78.9908 61.2811C79.3717 60.8492 79.7362 60.1976 80.0844 59.3261C80.1875 59.058 80.2643 58.8236 80.3149 58.6229C80.3653 58.4089 80.3955 58.1751 80.4054 57.9216C80.3766 57.762 80.3813 57.6219 80.4197 57.5014C80.4712 57.3674 80.5764 57.2526 80.7351 57.1571C80.7875 57.0897 80.86 57.0287 80.9526 56.9741C81.045 56.9062 81.105 56.9054 81.1326 56.9717L81.4523 56.9473C81.5054 56.9333 81.5392 56.9662 81.5536 57.046C81.5812 57.1123 81.6287 57.1716 81.6961 57.2241C81.8443 57.3421 81.8879 57.6015 81.8266 58.0024C81.7654 58.4032 81.5863 58.9657 81.2895 59.6898C81.0436 60.2399 80.8758 60.6555 80.7863 60.9367C80.7101 61.2178 80.6672 61.4917 80.6574 61.7586C80.6607 61.9985 80.7104 62.2246 80.8067 62.4366C80.9029 62.6487 81.0521 62.84 81.2545 63.0106C81.4024 63.1019 81.4838 63.2075 81.4988 63.3273C81.5271 63.4469 81.5356 63.5868 81.5245 63.747C81.4994 63.8673 81.4208 63.9684 81.2886 64.0502C81.1695 64.1185 81.03 64.1537 80.87 64.1559C80.71 64.1581 80.5627 64.1134 80.4281 64.0219ZM84.8641 65.0018C84.4233 64.9411 84.1211 64.7786 83.9575 64.5141C83.8074 64.2628 83.7687 63.8699 83.8415 63.3355C83.918 63.0811 83.9616 62.8539 83.9722 62.6537C83.996 62.44 84.0542 62.3059 84.1468 62.2513C84.1468 62.2513 84.1532 62.2312 84.166 62.191C84.1921 62.1507 84.1849 62.1108 84.1444 62.0713C84.142 61.898 84.1987 61.6572 84.3146 61.3489C84.3402 61.2686 84.3722 61.1748 84.4108 61.0676C84.4625 60.9469 84.4883 60.8865 84.4883 60.8865C84.4202 60.7808 84.419 60.6941 84.4848 60.6266C84.5506 60.559 84.6164 60.4981 84.6823 60.4439C84.7614 60.3761 84.7671 60.3027 84.6994 60.2236C84.672 60.1707 84.7037 60.0502 84.7945 59.8623C84.8851 59.6611 84.9889 59.453 85.106 59.238C85.2231 59.0231 85.3009 58.8553 85.3392 58.7348C85.3389 58.7082 85.3709 58.6144 85.4354 58.4535C85.4999 58.2926 85.5774 58.1049 85.6678 57.8903C85.7582 57.6757 85.8423 57.4812 85.9199 57.3068C86.0109 57.1322 86.0694 57.0181 86.0953 56.9644C86.2277 56.8959 86.1738 56.85 85.9334 56.8266C85.6931 56.8032 85.4397 56.7999 85.1732 56.8169C84.7597 56.8092 84.4262 56.7937 84.1725 56.7705C83.9321 56.747 83.7314 56.6898 83.5701 56.5986C83.4076 56.4141 83.3458 56.2816 83.3847 56.2011C83.4368 56.107 83.596 56.0515 83.8625 56.0346C84.0356 56.0189 84.1689 56.0104 84.2622 56.0092C84.3688 56.0077 84.5021 55.9992 84.6619 55.9837C84.8348 55.9547 85.101 55.9178 85.4604 55.8729L86.4793 55.7791L86.5346 55.4383C86.639 55.2635 86.7235 55.109 86.7884 54.9748C86.8664 54.8271 86.9311 54.6795 86.9824 54.5322C87.0337 54.3848 87.0717 54.2309 87.0962 54.0706C87.0962 54.0706 87.1547 53.9631 87.2718 53.7482C87.3887 53.5199 87.4589 53.2856 87.4823 53.0452C87.6387 52.7764 87.7754 52.5345 87.8925 52.3196C88.0094 52.0913 88.0808 51.9504 88.1068 51.8967C88.2518 51.7747 88.351 51.7133 88.4043 51.7126C88.471 51.7117 88.6052 51.7766 88.807 51.9072C88.9279 51.9722 89.0356 52.0508 89.1302 52.1428C89.2248 52.2349 89.2861 52.334 89.3143 52.4403C89.3422 52.5333 89.3035 52.6272 89.1981 52.7219C89.1721 52.7756 89.1335 52.8762 89.0821 53.0235C89.0306 53.1576 88.9922 53.2715 88.9668 53.3651C88.888 53.4596 88.7901 53.6142 88.673 53.8292C88.5691 54.0306 88.4986 54.2382 88.4615 54.4521C88.3579 54.6802 88.2607 54.8882 88.1699 55.0761C88.0789 55.2507 88.0068 55.3383 87.9534 55.3391C87.9819 55.472 88.0628 55.5376 88.1961 55.5358C88.3293 55.5206 88.5491 55.5043 88.8555 55.4868C89.1085 55.4567 89.2814 55.4277 89.3744 55.3998C89.4805 55.3584 89.6007 55.3701 89.7349 55.4349C89.8028 55.5273 89.8576 55.6333 89.8992 55.7527C89.9408 55.8722 89.949 55.9854 89.9238 56.0924C89.9118 56.1859 89.8593 56.2533 89.7666 56.2946C89.6999 56.2955 89.5604 56.3374 89.3482 56.4203C89.1491 56.4896 88.8964 56.5331 88.5899 56.5505L87.5314 56.6649L87.2006 57.3495C87.1096 57.524 87.0318 57.6851 86.9671 57.8327C86.9023 57.9669 86.8567 58.0475 86.8304 58.0745C86.8315 58.1545 86.7865 58.2752 86.6953 58.4364C86.6175 58.5975 86.5332 58.772 86.4424 58.9599C86.3655 59.1876 86.2749 59.3955 86.1708 59.5836C86.08 59.7715 86.0346 59.8655 86.0346 59.8655C85.9813 59.8662 85.9552 59.9066 85.9563 59.9866C86.0251 60.1456 86.0067 60.2659 85.9011 60.3473C85.835 60.3882 85.7758 60.4491 85.7236 60.5298C85.6845 60.597 85.665 60.6306 85.665 60.6306C85.719 60.6832 85.7266 60.7497 85.6877 60.8303C85.6621 60.9106 85.6233 60.9978 85.5712 61.0919C85.5727 61.1985 85.5414 61.3523 85.4775 61.5532C85.4268 61.7539 85.3694 61.9414 85.3051 62.1156C85.3216 62.3554 85.3371 62.5085 85.3513 62.575C85.3655 62.6415 85.3992 62.6677 85.4524 62.6536C85.5192 62.6661 85.5792 62.6653 85.6324 62.6512C85.6855 62.6371 85.7387 62.6298 85.7921 62.629C85.9776 62.5465 85.884 63.0145 85.5111 64.033C85.3023 64.3692 85.1589 64.6111 85.0809 64.7589C85.0031 64.9199 84.9308 65.0009 84.8641 65.0018ZM91.2492 63.7752C91.1022 63.7505 90.9479 63.6792 90.7863 63.5614C90.6378 63.4301 90.5025 63.2852 90.3803 63.1269C90.2713 62.955 90.1959 62.8027 90.1541 62.6699C90.1538 62.6432 90.1333 62.6102 90.0928 62.5707C90.0656 62.5311 90.052 62.5113 90.052 62.5113C89.9981 62.472 89.9624 62.2991 89.9449 61.9927C89.9406 61.6727 89.9558 61.3191 89.9905 60.932C90.0253 60.5448 90.0678 60.2375 90.1181 60.0101C90.1818 59.7959 90.2779 59.5079 90.4064 59.1462C90.5346 58.771 90.6434 58.4362 90.7328 58.1416L91.257 56.9744L90.4541 56.7653C90.3604 56.7399 90.2797 56.6876 90.2119 56.6086C90.1575 56.5293 90.13 56.463 90.1292 56.4097C90.1278 56.303 90.1861 56.1755 90.3041 56.0273C90.4219 55.8656 90.5075 55.7845 90.5608 55.7838C90.6276 55.7962 90.7477 55.8012 90.921 55.7989C91.1077 55.7963 91.2876 55.7872 91.4607 55.7716C91.6338 55.7559 91.7403 55.7411 91.7801 55.7272C91.8331 55.6998 91.886 55.6658 91.9388 55.6251C91.9914 55.571 92.0304 55.4971 92.0558 55.4034C92.1204 55.2559 92.1786 55.1218 92.2303 55.001C92.2819 54.867 92.3532 54.7194 92.4443 54.5581C92.5353 54.3835 92.6067 54.2359 92.6584 54.1152C92.7234 53.9943 92.8211 53.8263 92.9516 53.6111C93.017 53.5169 93.0887 53.4026 93.1669 53.2682C93.2451 53.1338 93.3436 53.0191 93.4623 52.9242C93.5808 52.8159 93.7002 52.7676 93.8204 52.7793C93.9537 52.7775 94.1215 52.8619 94.3238 53.0325C94.4323 53.1644 94.4937 53.2635 94.5079 53.33C94.5221 53.3965 94.4705 53.5239 94.3531 53.7121C94.2495 53.9402 94.1259 54.1686 93.9823 54.3972C93.8521 54.6257 93.7285 54.8541 93.6116 55.0823C93.4022 55.3785 93.3645 55.5457 93.4984 55.5839C93.6322 55.6221 94.0052 55.5904 94.6172 55.4887C95.0029 55.4168 95.2831 55.433 95.4579 55.5373C95.6325 55.6283 95.7346 55.7869 95.7644 56.0132C95.8087 56.3327 95.778 56.5264 95.6723 56.5945C95.5665 56.6626 95.2603 56.7001 94.7537 56.707C94.4344 56.7647 94.1616 56.8017 93.9351 56.8181C93.7085 56.8212 93.5418 56.8234 93.4352 56.8249C93.262 56.8406 93.1488 56.8488 93.0955 56.8495C93.0421 56.8502 92.9623 56.8646 92.856 56.8927C92.7497 56.9208 92.6704 56.9686 92.618 57.036C92.5787 57.0898 92.5331 57.1705 92.4812 57.2779C92.4286 57.3319 92.3505 57.473 92.2469 57.7011C92.1434 57.9292 92.0134 58.1776 91.857 58.4464C91.678 59.0089 91.5256 59.571 91.3998 60.1328C91.2739 60.6812 91.1745 61.2159 91.1016 61.737C91.0527 62.071 91.0626 62.3042 91.131 62.4366C91.1993 62.5557 91.3736 62.6267 91.654 62.6496C91.8008 62.6609 92.0341 62.6577 92.3539 62.6401C92.6869 62.6089 92.9463 62.5654 93.1322 62.5095C93.278 62.4409 93.4304 62.3721 93.5895 62.3033C93.7484 62.2211 93.8939 62.1391 94.0262 62.0573C94.1452 61.9891 94.2643 61.9208 94.3834 61.8525C94.5023 61.7709 94.5618 61.7301 94.5618 61.7301C94.627 61.6225 94.6999 61.5882 94.7804 61.6271C94.8609 61.666 94.929 61.7651 94.9844 61.9243C94.9866 62.0843 94.9555 62.2514 94.8912 62.4257C94.8269 62.5999 94.5831 62.8099 94.1597 63.0556C93.5648 63.4371 93.0146 63.6712 92.5091 63.7581C92.0167 63.8314 91.5967 63.8371 91.2492 63.7752ZM98.3812 63.0584C98.102 63.1155 97.9223 63.138 97.8421 63.1257C97.7751 63.1 97.6673 63.0214 97.5189 62.8901C97.3041 62.7863 97.1223 62.6554 96.9735 62.4974C96.838 62.3393 96.7358 62.174 96.6667 62.0015C96.6109 61.8156 96.5888 61.6626 96.6005 61.5424C96.6342 61.0752 96.7407 60.5737 96.9201 60.0379C97.0996 59.5021 97.3193 58.9858 97.5792 58.4888C97.8392 57.9919 98.1201 57.5681 98.422 57.2173C98.7371 56.853 99.0406 56.6155 99.3325 56.5049C99.5977 56.3946 99.8504 56.3512 100.091 56.3746C100.331 56.398 100.506 56.5223 100.616 56.7475C100.821 57.1314 100.778 57.3787 100.486 57.4894C100.446 57.4899 100.4 57.5105 100.347 57.5512C100.294 57.5786 100.268 57.619 100.268 57.6723C100.322 57.6983 100.469 57.7029 100.709 57.6863C100.948 57.6564 101.188 57.6132 101.427 57.5566C101.679 57.4865 101.845 57.4176 101.924 57.3498C102.004 57.3088 102.063 57.2879 102.103 57.2874C102.143 57.2869 102.243 57.2988 102.404 57.3233C102.631 57.3869 102.746 57.4654 102.747 57.5587C102.748 57.612 102.769 57.6651 102.809 57.7179C102.85 57.7573 102.897 57.7767 102.95 57.776C103.044 57.788 103.031 57.8482 102.912 57.9565C102.807 58.0646 102.623 58.2138 102.358 58.404C102.107 58.5675 101.949 58.6763 101.883 58.7305C101.83 58.7712 101.825 58.8647 101.867 59.0108C101.977 59.2626 101.987 59.5559 101.899 59.8904C101.81 60.225 101.648 60.5672 101.412 60.9171C101.177 61.267 100.888 61.5976 100.546 61.9089C100.217 62.2068 99.86 62.465 99.4762 62.6835C99.1057 62.8886 98.7407 63.0135 98.3812 63.0584ZM98.0293 62.1831C98.0827 62.1824 98.1756 62.1544 98.3082 62.0993C98.4406 62.0308 98.5466 61.9761 98.626 61.935C98.6786 61.8809 98.7445 61.82 98.8236 61.7523C98.9158 61.671 98.9885 61.6234 99.0416 61.6093C99.095 61.6086 99.1614 61.5877 99.2408 61.5466C99.3201 61.4922 99.432 61.3907 99.5767 61.242C99.7212 61.08 99.9113 60.8441 100.147 60.5342C100.41 60.2373 100.613 59.9679 100.756 59.7259C100.899 59.4706 100.936 59.2367 100.867 59.0243C100.853 58.9712 100.812 58.9384 100.745 58.926C100.692 58.9134 100.618 58.881 100.524 58.829C100.391 58.8308 100.264 58.7992 100.143 58.7341C100.035 58.6556 99.907 58.5573 99.7587 58.4393L99.4333 58.0437L99.098 58.3882C98.8876 58.6045 98.6653 58.9275 98.4311 59.3574C98.21 59.7737 98.0225 60.203 97.8685 60.6451C97.7143 61.0739 97.6255 61.4152 97.6023 61.6688C97.5917 61.869 97.6268 62.0019 97.7077 62.0674C97.7886 62.133 97.8958 62.1716 98.0293 62.1831ZM109.538 63.4272C109.405 63.429 109.264 63.3576 109.115 63.2129C108.98 63.068 108.857 62.8897 108.748 62.6778C108.651 62.4524 108.602 62.2398 108.599 62.0398C108.596 61.8398 108.638 61.4659 108.724 60.918C108.823 60.3699 108.942 59.8149 109.081 59.253C109.183 58.9049 109.214 58.7045 109.173 58.6517C109.133 58.5989 108.954 58.6747 108.636 58.879C108.451 58.9748 108.286 59.0771 108.14 59.1857C107.995 59.281 107.87 59.3894 107.765 59.5109C107.699 59.5651 107.6 59.6531 107.468 59.7749C107.337 59.8967 107.198 60.0119 107.053 60.1206C106.881 60.2562 106.664 60.4459 106.401 60.6895C106.137 60.933 105.874 61.1766 105.61 61.4202C105.36 61.6636 105.17 61.8529 105.038 61.988C105.012 62.0417 104.973 62.0889 104.92 62.1297C104.867 62.1704 104.808 62.1979 104.741 62.2121C104.674 62.213 104.601 62.2007 104.521 62.1751C104.373 62.1371 104.232 62.0523 104.097 61.9208C103.975 61.7891 103.913 61.6366 103.911 61.4633C103.909 61.33 103.959 61.1026 104.062 60.7812C104.164 60.4464 104.298 60.0446 104.465 59.5756C104.646 59.1064 104.852 58.6103 105.085 58.0871C105.124 58.0198 105.157 57.9394 105.182 57.8457C105.207 57.7387 105.226 57.6251 105.237 57.5049C105.262 57.3846 105.274 57.2711 105.273 57.1644C105.272 57.0978 105.278 57.031 105.29 56.9642C105.316 56.8838 105.341 56.8101 105.367 56.7431C105.406 56.6626 105.439 56.6088 105.465 56.5818C105.517 56.4744 105.61 56.4465 105.744 56.498C105.878 56.5362 105.992 56.628 106.088 56.7733C106.29 56.9573 106.393 57.1892 106.397 57.4692C106.414 57.749 106.352 58.0965 106.211 58.5118C106.159 58.6059 106.114 58.6998 106.075 58.7937C106.049 58.8741 106.024 58.9477 105.998 59.0148C105.972 59.0685 105.953 59.1154 105.94 59.1556C105.927 59.1824 105.92 59.1958 105.92 59.1958C105.974 59.1951 106.093 59.1335 106.278 59.011C106.463 58.8884 106.681 58.7521 106.932 58.6021C107.13 58.4527 107.302 58.317 107.447 58.195C107.605 58.0596 107.737 57.9578 107.843 57.8896C107.948 57.8082 108.014 57.7673 108.041 57.7669C108.094 57.7662 108.161 57.7453 108.24 57.7042C108.32 57.6632 108.386 57.6156 108.438 57.5615C108.491 57.5075 108.531 57.4803 108.557 57.4799C108.597 57.466 108.617 57.4591 108.617 57.4591C108.617 57.4591 108.644 57.4587 108.697 57.458C108.75 57.444 108.803 57.4099 108.856 57.3559C108.961 57.2744 109.101 57.2525 109.275 57.2902C109.448 57.3145 109.609 57.379 109.757 57.4837C109.906 57.5883 109.981 57.7073 109.982 57.8406C109.983 57.894 109.997 57.9404 110.024 57.9801C110.065 58.0062 110.085 58.0193 110.085 58.0193C110.191 58.0178 110.26 58.1836 110.292 58.5165C110.336 58.8493 110.307 59.1697 110.205 59.4778C110.207 59.6778 110.171 59.9183 110.094 60.1993C110.031 60.4802 109.975 60.7477 109.925 61.0017C109.823 61.3365 109.754 61.6308 109.717 61.8846C109.681 62.1385 109.677 62.3519 109.706 62.5248C109.735 62.6978 109.783 62.8371 109.851 62.9429C109.906 63.0355 109.908 63.1421 109.856 63.2628C109.804 63.3702 109.698 63.425 109.538 63.4272ZM2.80764 89.4765C2.69954 89.3713 2.61774 89.2391 2.56224 89.0798C2.52008 88.9204 2.50458 88.7606 2.51574 88.6004C2.5269 88.4403 2.55842 88.3065 2.61031 88.1991C2.60886 88.0925 2.62111 88.0123 2.64705 87.9586C2.68614 87.8914 2.69866 87.8312 2.68461 87.7781C2.67055 87.7249 2.68262 87.6314 2.72081 87.4975C2.75899 87.3637 2.79727 87.2365 2.83564 87.116C2.92608 86.9014 3.02263 86.6467 3.12531 86.352C3.22781 86.0439 3.32373 85.7425 3.41308 85.448C3.50243 85.1534 3.57899 84.899 3.64276 84.6848C3.70653 84.4706 3.74471 84.3367 3.75732 84.2832C3.75515 84.1232 3.86064 84.0351 4.07377 84.0189C4.23303 83.9634 4.35302 83.9618 4.43374 84.014C4.51427 84.0529 4.62264 84.1781 4.75886 84.3896C4.86696 84.4948 4.90913 84.6543 4.88535 84.868C4.86158 85.0816 4.77854 85.3495 4.63622 85.6714C4.58434 85.7788 4.51976 85.933 4.44248 86.1341C4.37853 86.335 4.33431 86.5156 4.30981 86.6759C4.25793 86.7833 4.19335 86.9375 4.11607 87.1386C4.05194 87.3261 3.99438 87.5069 3.94341 87.681C3.91764 87.748 3.89234 87.8484 3.86748 87.982C3.84244 88.1024 3.81092 88.2362 3.77291 88.3834C3.73472 88.5172 3.68302 88.6379 3.61781 88.7455C3.50523 89.2937 3.39624 89.6152 3.29085 89.71C3.19879 89.8046 3.03772 89.7268 2.80764 89.4765ZM4.63738 81.331C4.56982 81.2652 4.50856 81.1727 4.4536 81.0535C4.39846 80.9209 4.36351 80.8013 4.34873 80.6948C4.33377 80.575 4.34629 80.5149 4.38628 80.5143C4.49276 80.4995 4.61788 80.3845 4.76164 80.1692C4.9054 79.9539 4.96286 79.7664 4.93403 79.6068C4.93331 79.5535 4.95267 79.5066 4.99213 79.466C5.0314 79.4121 5.07761 79.3782 5.13076 79.3641C5.2893 79.2553 5.44244 79.2399 5.59017 79.3179C5.75106 79.3824 5.89962 79.5204 6.03583 79.7319C6.15925 79.9836 6.19547 80.1964 6.1445 80.3705C6.09334 80.5312 5.94976 80.7598 5.71376 81.0564C5.51739 81.3257 5.33273 81.4749 5.15977 81.5039C5.00015 81.5328 4.82602 81.4751 4.63738 81.331ZM13.3933 89.053C13.1267 89.0566 12.906 89.0063 12.7312 88.902C12.5563 88.7843 12.407 88.593 12.2834 88.328C12.2276 88.1421 12.1781 87.936 12.135 87.7099C12.1051 87.4703 12.0888 87.2505 12.0861 87.0505C12.0832 86.8372 12.1013 86.697 12.1404 86.6298C12.193 86.5757 12.2117 86.4821 12.1966 86.349C12.1946 86.2023 12.1925 86.049 12.1903 85.889C12.1734 85.6226 12.1047 85.4768 11.9844 85.4518C11.8772 85.4132 11.7177 85.4554 11.5061 85.5783C11.2681 85.7282 10.9575 85.9324 10.5743 86.191C10.1909 86.4362 9.78789 86.7083 9.36524 87.0074C8.95592 87.3063 8.56678 87.6183 8.19782 87.9433C7.90885 88.2673 7.73221 88.5164 7.6679 88.6906C7.61674 88.8513 7.53784 88.9324 7.43118 88.9338C7.32525 88.9886 7.23201 88.9965 7.15148 88.9576C7.08409 88.9052 6.98302 88.8265 6.84825 88.7217C6.75348 88.6163 6.6588 88.5176 6.56421 88.4255C6.46944 88.3201 6.40836 88.241 6.38097 88.188C6.38007 88.1213 6.39817 87.9811 6.43527 87.7672C6.47238 87.5534 6.51615 87.3394 6.56658 87.1254C6.63035 86.9112 6.67511 86.7705 6.70087 86.7035C6.76754 86.7026 6.81996 86.6352 6.85815 86.5014C6.90967 86.3673 6.98767 86.2196 7.09216 86.0581C7.11666 85.8978 7.18042 85.6836 7.28347 85.4155C7.39966 85.1339 7.50297 84.8858 7.5934 84.6712C7.77572 84.3487 7.89876 84.0804 7.96252 83.8661C8.03962 83.6517 8.08934 83.3844 8.11166 83.0641C8.09761 83.0109 8.11031 82.9641 8.14976 82.9235C8.18903 82.8697 8.23534 82.8424 8.28866 82.8416C8.39387 82.7335 8.52017 82.7051 8.66754 82.7565C8.81474 82.7945 8.94942 82.8927 9.07157 83.051C9.31589 83.3678 9.41373 83.6998 9.36511 84.0471C9.32963 84.381 9.12282 84.8638 8.74469 85.4957C8.65426 85.7103 8.58319 85.8779 8.53149 85.9986C8.49294 86.1058 8.47411 86.1928 8.47502 86.2594C8.47502 86.2594 8.54105 86.2119 8.6731 86.1167C8.81849 86.0214 8.97703 85.9126 9.14872 85.7902C9.33356 85.6544 9.47886 85.5524 9.58461 85.4843C9.65037 85.4167 9.80206 85.2947 10.0397 85.1181C10.2773 84.9415 10.5284 84.7714 10.7928 84.6078C11.0705 84.4307 11.2758 84.3279 11.4087 84.2995C11.5146 84.2447 11.6273 84.1965 11.7468 84.1549C11.8661 84.0999 11.9523 84.0721 12.0057 84.0714C12.1123 84.0699 12.2465 84.1281 12.4081 84.2459C12.5828 84.3502 12.7446 84.4814 12.8935 84.6394C13.0421 84.784 13.1305 84.9095 13.1586 85.0158C13.1593 85.0691 13.16 85.1225 13.1608 85.1758C13.1748 85.2289 13.1889 85.2821 13.2029 85.3352C13.2586 85.5078 13.2884 85.7408 13.2924 86.0341C13.3097 86.3272 13.3067 86.5939 13.2833 86.8343C13.2598 87.0746 13.2151 87.2152 13.149 87.2561C13.149 87.2561 13.1492 87.2761 13.1498 87.3161C13.1635 87.3426 13.197 87.3555 13.2503 87.3548C13.251 87.4081 13.2515 87.4414 13.2517 87.4548C13.185 87.4557 13.1592 87.516 13.1741 87.6358C13.1889 87.7423 13.2305 87.8618 13.299 87.9942C13.3808 88.1264 13.4622 88.232 13.5433 88.3109C13.7055 88.4687 13.7742 88.6211 13.7495 88.7681C13.7247 88.9018 13.6059 88.9968 13.3933 89.053ZM21.8648 89.2782C21.7585 89.3063 21.6187 89.3215 21.4454 89.3239C21.2719 89.3129 21.1183 89.295 20.9846 89.2701C20.8641 89.2317 20.8036 89.1925 20.803 89.1525C20.8021 89.0859 20.7683 89.053 20.7017 89.0539C20.7017 89.0539 20.668 89.0277 20.6006 88.9753C20.5466 88.9227 20.4592 88.8705 20.3385 88.8188C20.2159 88.6338 20.1532 88.4346 20.1503 88.2213C20.1473 87.9947 20.2025 87.6406 20.316 87.159C20.3514 86.8251 20.4728 86.4368 20.6802 85.9939C20.9007 85.5376 21.1678 85.0739 21.4814 84.6029C21.7951 84.132 22.1227 83.7075 22.4642 83.3295C22.8191 82.9513 23.1421 82.6736 23.433 82.4963C23.6171 82.3071 23.8424 82.204 24.1089 82.1871C24.3754 82.1701 24.6295 82.2267 24.8713 82.3568C25.0055 82.4216 25.1403 82.5265 25.2756 82.6713C25.4109 82.8162 25.5397 82.9744 25.662 83.1461C25.7844 83.3178 25.8867 83.4898 25.9691 83.662C26.0111 83.8081 26.0329 83.9412 26.0345 84.0612C26.0493 84.1676 26.0511 84.301 26.0399 84.4611C26.0421 84.6211 26.0253 84.8614 25.9897 85.1819C25.9263 85.4227 25.8702 85.7169 25.8216 86.0642C25.7863 86.4114 25.7704 86.7116 25.7738 86.965C25.7506 87.2186 25.7797 87.3983 25.8611 87.5038C25.9559 87.6092 26.0893 87.6141 26.2614 87.5184C26.4203 87.4362 26.5731 87.4008 26.72 87.4122C26.8666 87.4102 26.9805 87.4486 27.0616 87.5276C27.156 87.6063 27.2043 87.7256 27.2064 87.8856C27.2086 88.0456 27.1309 88.2133 26.9732 88.3888C26.8288 88.5508 26.644 88.6933 26.419 88.8164C26.2071 88.9259 26.0012 88.9821 25.8012 88.9848C25.6546 88.9868 25.5134 88.902 25.3777 88.7305C25.2419 88.5456 25.1189 88.3273 25.0088 88.0754C24.9119 87.8101 24.8218 87.5579 24.7385 87.319L24.6123 86.8607L23.7635 87.6923C23.5927 87.8813 23.4217 88.0569 23.2506 88.2193C23.0926 88.3681 22.9941 88.4761 22.955 88.5433C22.8899 88.6642 22.7649 88.7859 22.5799 88.9084C22.4082 89.0308 22.1698 89.154 21.8648 89.2782ZM21.9088 88.0975C22.1337 87.9611 22.391 87.7642 22.6809 87.5069C22.9706 87.2363 23.2533 86.9458 23.5292 86.6354C23.8048 86.3116 24.0341 86.0151 24.2172 85.7459C24.4396 85.4362 24.6091 85.1472 24.7255 84.879C24.8418 84.6107 24.925 84.3562 24.9751 84.1155C24.9198 83.9696 24.8311 83.8174 24.7089 83.6591C24.5866 83.4874 24.4786 83.3955 24.3851 83.3835C24.0918 83.3874 23.7811 83.5783 23.4528 83.9561C23.1377 84.3205 22.8298 84.718 22.5289 85.1488C22.4765 85.2162 22.4046 85.3238 22.3133 85.4717C22.2219 85.6197 22.1305 85.7609 22.039 85.8955C21.9606 86.0166 21.9084 86.0973 21.8823 86.1376C21.843 86.1915 21.7651 86.3459 21.6485 86.6009C21.5451 86.8423 21.4418 87.0904 21.3386 87.3451C21.2352 87.5865 21.184 87.7473 21.1851 87.8272C21.1862 87.9072 21.194 87.9938 21.2086 88.087C21.2365 88.1799 21.304 88.239 21.411 88.2642C21.5181 88.2894 21.684 88.2339 21.9088 88.0975ZM34.5945 89.0856C34.4217 89.1279 34.2617 89.1301 34.1145 89.0921C33.9673 89.0541 33.8331 88.9892 33.7119 88.8975C33.5906 88.8058 33.4827 88.7139 33.3881 88.6219C33.2933 88.5165 33.2654 88.4235 33.3043 88.343C33.343 88.2491 33.4091 88.2016 33.5024 88.2003C33.5557 88.1996 33.5883 88.1458 33.6002 88.039C33.6252 87.9186 33.649 87.7049 33.6715 87.3979C33.6956 87.2109 33.7268 87.0505 33.765 86.9166C33.8163 86.7692 33.8416 86.6689 33.8409 86.6156C33.8537 86.5754 33.8656 86.4685 33.8766 86.295C33.9007 86.108 33.9385 85.9475 33.9901 85.8135C34.0401 85.5728 34.116 85.265 34.2176 84.8903C34.319 84.5022 34.4206 84.1275 34.5224 83.7661C34.6373 83.3911 34.7267 83.1032 34.7907 82.9023C34.8153 82.7553 34.8728 82.5679 34.9631 82.34C35.0533 82.112 35.1309 81.931 35.1957 81.7967C35.324 81.4216 35.4912 80.9727 35.6975 80.4498C35.9171 79.9268 36.1367 79.4038 36.3563 78.8807C36.5759 78.3577 36.7699 77.915 36.9383 77.5527C37.1199 77.1769 37.2368 76.9486 37.2891 76.8679C37.3943 76.7598 37.5203 76.7114 37.6672 76.7228C37.8273 76.7339 37.9817 76.8119 38.1304 76.9565C38.2523 77.1015 38.3078 77.2608 38.2969 77.4343C38.2857 77.5945 38.2014 77.769 38.0439 77.9578C37.9919 78.0518 37.9335 78.1726 37.8688 78.3202C37.804 78.4544 37.7389 78.5686 37.6735 78.6629C37.5711 78.9843 37.4421 79.2994 37.2862 79.6082C37.1437 79.9168 36.9885 80.2656 36.8204 80.6546C36.6521 81.0303 36.4718 81.4994 36.2794 82.0621C36.1629 82.317 36.0663 82.5717 35.9897 82.8261C35.913 83.0671 35.8484 83.2214 35.796 83.2887C35.72 83.5831 35.6242 83.8911 35.5085 84.2127C35.3927 84.521 35.3103 84.8355 35.2613 85.1562C35.2613 85.1562 35.327 85.0886 35.4585 84.9535C35.6034 84.8182 35.7744 84.6492 35.9717 84.4465C36.4841 83.8795 36.9978 83.4125 37.5129 83.0454C38.0413 82.6782 38.4787 82.4856 38.8251 82.4676C39.0116 82.4517 39.2122 82.4957 39.427 82.5995C39.6551 82.703 39.8635 82.8336 40.0524 82.991C40.241 83.1351 40.3698 83.2934 40.4388 83.4658C40.5487 83.7043 40.5923 83.9638 40.5694 84.2441C40.5597 84.5109 40.4836 84.7987 40.3411 85.1073C40.2117 85.4024 40.0291 85.7049 39.7933 86.0148C39.6501 86.2701 39.4735 86.5192 39.2634 86.7621C39.0665 86.9914 38.8954 87.1604 38.7502 87.2691C38.6185 87.3909 38.4868 87.5127 38.3552 87.6344C38.2366 87.7427 38.1378 87.8307 38.0587 87.8985C37.887 88.0208 37.7483 88.1161 37.6425 88.1842C37.5366 88.2389 37.3908 88.3009 37.205 88.3701C36.9278 88.5739 36.5431 88.7258 36.0511 88.8258C35.5591 88.9258 35.0735 89.0124 34.5945 89.0856ZM35.1006 88.0586C35.1939 88.0573 35.3603 88.0351 35.5997 87.9918C35.8525 87.9484 36.0845 87.8453 36.2956 87.6824C36.9179 87.3539 37.4525 86.9533 37.8995 86.4805C38.3463 85.9944 38.6798 85.5165 38.9001 85.0468C39.1336 84.5636 39.2349 84.1689 39.2041 83.8626C39.1733 83.5563 38.9391 83.4928 38.5014 83.6721C38.0638 83.8514 37.536 84.2586 36.9179 84.8937C36.6282 85.1643 36.3521 85.4547 36.0896 85.765C35.8403 86.0617 35.6041 86.345 35.3811 86.6147C35.2897 86.7626 35.2114 86.8903 35.1462 86.9979C35.0943 87.1053 35.0625 87.2124 35.0506 87.3192C34.9506 87.814 34.9673 88.0604 35.1006 88.0586ZM43.1194 88.5499C42.863 88.3267 42.6665 88.096 42.53 87.8579C42.4067 87.6195 42.3083 87.2408 42.2345 86.7218C42.2046 86.4822 42.227 86.1685 42.3018 85.7808C42.3764 85.3797 42.484 84.9582 42.6247 84.5163C42.7654 84.0743 42.9266 83.6721 43.1084 83.3096C43.29 82.9338 43.4728 82.6513 43.6569 82.4621C43.8142 82.2599 43.9394 82.1516 44.0325 82.137C44.1388 82.1089 44.3261 82.153 44.5944 82.2694C44.7434 82.4407 44.8193 82.6264 44.822 82.8263C44.8247 83.0263 44.7478 83.254 44.5912 83.5095C44.3294 83.8731 44.1023 84.3296 43.9097 84.8789C43.7303 85.4147 43.6101 85.8964 43.5493 86.3239C43.4221 86.779 43.3663 87.0865 43.3818 87.2463C43.3973 87.4061 43.5187 87.5111 43.7461 87.5614C44.0001 87.6113 44.2988 87.5139 44.6422 87.2692C44.9854 87.0112 45.3207 86.6599 45.648 86.2154C45.9751 85.7576 46.2351 85.2607 46.4279 84.7247C46.5053 84.537 46.5623 84.3162 46.5989 84.0624C46.6488 83.8083 46.6996 83.621 46.7513 83.5002C46.8143 83.2327 46.905 83.0381 47.0234 82.9165C47.1416 82.7815 47.2672 82.7065 47.4004 82.6914C47.5333 82.6629 47.647 82.688 47.7414 82.7667C47.8621 82.8185 47.9364 82.8841 47.9641 82.9637C47.9917 83.03 47.9942 83.2167 47.9717 83.5237C47.9784 84.017 47.8774 84.4384 47.6688 84.7879C47.4602 85.1374 47.2852 85.5065 47.1438 85.8951C47.0276 86.1767 46.8519 86.4925 46.6166 86.8424C46.3946 87.1921 46.1456 87.5088 45.8694 87.7926C45.6065 88.0762 45.3492 88.273 45.0973 88.3831C44.7273 88.6282 44.3956 88.7527 44.1023 88.7566C43.8221 88.7471 43.4945 88.6782 43.1194 88.5499ZM50.9711 89.1836C50.3045 89.1926 49.8146 88.9592 49.5014 88.4834C49.4063 88.3514 49.3578 88.2187 49.356 88.0853C49.3674 87.9385 49.406 87.838 49.4719 87.7837C49.5512 87.7293 49.6452 87.7747 49.7538 87.9199C49.9419 88.0241 50.2093 88.0738 50.5559 88.0691C50.7292 88.0667 50.909 88.051 51.0953 88.0218C51.2814 87.9792 51.4674 87.9234 51.6531 87.8542C51.8518 87.7581 51.9841 87.6763 52.0498 87.6088C52.1154 87.5279 52.1012 87.4614 52.0071 87.4093L52.0271 87.4091C51.6792 87.3204 51.3239 87.1786 50.9612 86.9835C50.6117 86.7749 50.3087 86.5523 50.0521 86.3157C49.7954 86.0659 49.6456 85.8412 49.6029 85.6418C49.4907 85.2299 49.5116 84.8096 49.6658 84.3808C49.8199 83.9387 50.0413 83.549 50.33 83.2117C50.4358 83.1436 50.568 83.0618 50.7268 82.9663C50.8853 82.8575 51.0111 82.7958 51.1043 82.7812L51.1045 82.8012C51.3542 82.5311 51.658 82.3136 52.0158 82.1487C52.3869 81.9837 52.7782 81.8317 53.1897 81.6928L53.4891 81.6487C53.6488 81.6199 53.7819 81.6047 53.8886 81.6033C53.8752 81.6035 53.9021 81.6165 53.9691 81.6422C54.0359 81.6546 54.0961 81.6672 54.1496 81.6798C54.2302 81.7187 54.2971 81.7378 54.3504 81.7371C54.5241 81.7614 54.6852 81.8392 54.8336 81.9705C54.9821 82.1019 55.0976 82.2603 55.1801 82.4459C55.2758 82.6179 55.3114 82.7841 55.2869 82.9445C55.2636 83.1981 55.1867 83.4259 55.0561 83.6277C54.9388 83.8293 54.7937 83.9446 54.6208 83.9736C54.6472 83.9599 54.627 83.9402 54.56 83.9144C54.5061 83.8751 54.4456 83.836 54.3783 83.7969L54.3189 83.8377C54.3189 83.8377 54.312 83.8244 54.2984 83.7979C54.2978 83.758 54.2838 83.7115 54.2565 83.6585C54.2154 83.5791 54.1942 83.4927 54.1929 83.3993C54.1915 83.2927 54.1966 83.1793 54.2083 83.0591C54.233 82.9121 54.2318 82.8254 54.2048 82.7991C54.1911 82.7726 54.1042 82.7538 53.944 82.7427C53.7568 82.7052 53.484 82.7422 53.1254 82.8538C52.7803 82.9651 52.4889 83.1158 52.2515 83.3057C51.9607 83.4963 51.7165 83.6796 51.5189 83.8556C51.3211 84.0183 51.1633 84.1805 51.0454 84.3421C50.9274 84.4904 50.8231 84.6651 50.7325 84.8664C50.6671 84.9606 50.6084 85.0548 50.5563 85.1488C50.5174 85.2293 50.4984 85.3029 50.4993 85.3696C50.5013 85.5163 50.61 85.6681 50.8255 85.8252C51.0542 85.9688 51.3898 86.1376 51.8325 86.3316C52.1811 86.4736 52.4766 86.6296 52.7189 86.7996C52.9612 86.9697 53.1306 87.1674 53.227 87.3928C53.2544 87.4458 53.262 87.5123 53.2497 87.5925C53.2506 87.6592 53.2379 87.706 53.2116 87.733C53.2386 87.7593 53.2522 87.7792 53.2524 87.7925L53.2521 87.7725C53.361 87.931 53.3632 88.0977 53.2589 88.2725C53.1679 88.447 53.0034 88.6026 52.7652 88.7392C52.5402 88.8623 52.2615 88.9594 51.9291 89.0306L51.9491 89.0303C51.7765 89.086 51.6037 89.1283 51.4308 89.1573C51.2709 89.1728 51.1177 89.1816 50.9711 89.1836ZM55.5848 93.3814C55.2661 93.4791 54.913 93.4972 54.5254 93.4358C54.1514 93.3875 53.8232 93.2786 53.5409 93.1091C53.2453 92.9397 53.076 92.7487 53.0331 92.5359C53.0187 92.4561 53.0442 92.3691 53.1096 92.2748C53.1616 92.1808 53.2341 92.1131 53.3268 92.0719C53.4065 92.0441 53.4802 92.0698 53.5479 92.1489C53.6555 92.2141 53.8499 92.2915 54.1311 92.381C54.4125 92.4839 54.7261 92.4996 55.0718 92.4283C55.3776 92.3574 55.6751 92.1734 55.9644 91.8761C56.2671 91.5786 56.51 91.302 56.6932 91.0461C56.7977 90.8847 56.9738 90.5956 57.2215 90.1789C57.4692 89.7622 57.7231 89.3054 57.983 88.8085C58.2561 88.298 58.4831 87.8283 58.664 87.3991C58.7025 87.2919 58.7475 87.1646 58.7988 87.0172C58.8502 86.8699 58.9152 86.749 58.9939 86.6546C59.0717 86.4935 59.1364 86.3459 59.1879 86.2119C59.2526 86.0643 59.2912 85.9638 59.3039 85.9103C59.3163 85.8434 59.3745 85.7093 59.4784 85.5079C59.5824 85.3065 59.6796 85.1051 59.7703 84.9039C59.8342 84.703 59.9302 84.4083 60.0583 84.0199C60.1864 83.6314 60.3155 83.3163 60.4455 83.0745C60.6013 82.7657 60.7247 82.5174 60.8155 82.3295C60.9194 82.128 61.0311 82.0065 61.1505 81.9649C61.2693 81.8699 61.3486 81.8222 61.3886 81.8216C61.4419 81.8209 61.5425 81.8596 61.6902 81.9376C61.8524 82.0954 61.9545 82.254 61.9967 82.4135C62.0387 82.5596 62.0212 82.7465 61.9443 82.9742C61.8805 83.1884 61.7512 83.4835 61.5563 83.8596C61.4539 84.181 61.3379 84.4759 61.2082 84.7444C61.0917 84.9993 61.0006 85.1672 60.935 85.2481C60.8705 85.409 60.793 85.5901 60.7024 85.7913C60.6249 85.979 60.5539 86.1534 60.4894 86.3142C60.2567 86.8508 60.0559 87.2869 59.8871 87.6225C59.7183 87.9582 59.5692 88.2669 59.4396 88.5487C59.3101 88.8305 59.1746 89.159 59.033 89.5343C58.733 90.0317 58.4394 90.5024 58.152 90.9464C57.8782 91.4034 57.5839 91.8275 57.2692 92.2184C57.1375 92.3402 56.9727 92.4825 56.7749 92.6452C56.5771 92.8079 56.3725 92.9573 56.161 93.0936C55.9628 93.2296 55.7707 93.3255 55.5848 93.3814ZM58.2195 88.5452C58.0191 88.5213 57.8175 88.404 57.6147 88.1934C57.4251 87.9826 57.2754 87.758 57.1655 87.5194C57.0556 87.2809 57.0132 87.1081 57.0384 87.0011C57.0375 86.9344 57.0368 86.8811 57.0363 86.8411C57.0357 86.8011 57.0355 86.7811 57.0355 86.7811C56.9555 86.7822 56.8808 86.6832 56.8114 86.4841C56.7554 86.2849 56.7118 86.0254 56.6808 85.7058C56.6498 85.3862 56.6252 85.0465 56.607 84.6867C56.6021 84.3268 56.6109 83.9866 56.6332 83.6663C56.6834 83.4389 56.7068 83.1919 56.7032 82.9253C56.6994 82.6453 56.703 82.4252 56.7142 82.2651C56.698 82.0519 56.7161 81.9117 56.7685 81.8443C56.8207 81.7636 56.8733 81.7028 56.926 81.6621C57.2972 81.4971 57.5452 81.5937 57.67 81.9521C57.8081 82.2969 57.8503 82.9497 57.7966 83.9105C57.7772 84.4442 57.7844 84.9775 57.8183 85.5104C57.8522 86.0433 57.9318 86.5089 58.0573 86.9073C58.196 87.3054 58.3797 87.5763 58.6083 87.7199C58.7024 87.7719 58.75 87.8446 58.7513 87.938C58.7526 88.0313 58.7273 88.1316 58.6754 88.239C58.6233 88.3331 58.5511 88.4141 58.4586 88.482C58.3794 88.5364 58.2997 88.5575 58.2195 88.5452ZM72.4478 89.0524C72.2597 88.9482 72.1045 88.8103 71.9822 88.6386C71.8596 88.4536 71.7697 88.2148 71.7124 87.9222C71.6683 87.6161 71.6431 87.2364 71.637 86.7832C71.6337 86.5432 71.6307 86.3232 71.628 86.1232C71.6253 85.9232 71.624 85.8232 71.624 85.8232C71.624 85.8232 71.5585 85.9108 71.4275 86.0859C71.2965 86.2611 71.1397 86.4965 70.957 86.7924C70.6711 87.343 70.3773 87.8003 70.0756 88.1645C69.7736 88.5152 69.5497 88.7183 69.4038 88.7736C69.3375 88.8012 69.2376 88.8092 69.1041 88.7977C68.9704 88.7728 68.8299 88.7414 68.6827 88.7034C68.5487 88.6519 68.4279 88.5935 68.3203 88.5283C68.2128 88.4631 68.1451 88.3906 68.1174 88.311C68.0898 88.2447 68.0745 88.0982 68.0714 87.8716C68.0682 87.6316 68.0713 87.3716 68.0808 87.0914C68.1035 86.7977 68.1332 86.5306 68.17 86.2901C68.2065 86.0363 68.2508 85.8556 68.3026 85.7483C68.3021 85.7083 68.3082 85.6682 68.321 85.628C68.347 85.5743 68.3396 85.5211 68.2988 85.4683C68.2988 85.4683 68.3369 85.3211 68.4129 85.0267C68.5022 84.7321 68.6042 84.3841 68.7187 83.9825C68.8466 83.5807 68.9616 83.2058 69.0635 82.8577C69.1786 82.4961 69.262 82.2549 69.3137 82.1342C69.3123 82.0276 69.3241 81.9141 69.3491 81.7937C69.3875 81.6732 69.4063 81.5863 69.4056 81.5329C69.404 81.4129 69.4689 81.2854 69.6004 81.1502C69.746 81.0683 69.8591 81.0534 69.9399 81.1056C70.0337 81.1444 70.148 81.2162 70.2828 81.321C70.4179 81.4525 70.506 81.558 70.5471 81.6375C70.6015 81.7167 70.6031 81.8301 70.5517 81.9774C70.5137 82.1246 70.4303 82.3658 70.3015 82.7009C70.1722 82.996 70.0498 83.311 69.9343 83.646C69.8186 83.9676 69.7161 84.269 69.6265 84.5502C69.5501 84.8179 69.493 85.0254 69.4549 85.1726C69.4562 85.2659 69.4375 85.3595 69.3987 85.4534C69.3732 85.5337 69.3607 85.6006 69.3615 85.6539C69.322 85.6944 69.296 85.7415 69.2834 85.795C69.2841 85.8483 69.2848 85.9016 69.2855 85.955C69.2863 86.0083 69.2675 86.1019 69.2293 86.2357C69.191 86.3563 69.1728 86.4899 69.1748 86.6365C69.1249 86.8906 69.1535 87.0368 69.2607 87.0754C69.3811 87.1004 69.4942 87.0856 69.6002 87.0308C69.6394 86.9769 69.7248 86.8824 69.8563 86.7473C70.0012 86.612 70.1193 86.4704 70.2106 86.3225C70.2618 86.1617 70.3136 86.0544 70.3663 86.0003C70.4322 85.9461 70.4849 85.8987 70.5243 85.8582C70.5638 85.8176 70.5828 85.744 70.5814 85.6374C70.5806 85.584 70.6392 85.4766 70.757 85.315C70.888 85.1398 71.0253 84.9446 71.1691 84.7293C71.4426 84.2456 71.6117 83.9366 71.6766 83.8023C71.7807 83.6143 71.8852 83.4528 71.99 83.3181C72.108 83.1698 72.2123 82.9883 72.3027 82.7738C72.3546 82.6664 72.3936 82.5925 72.4197 82.5522C72.459 82.4983 72.5519 82.4704 72.6986 82.4684C72.8452 82.4664 72.9521 82.4783 73.0191 82.504C73.0861 82.5298 73.1406 82.6157 73.1826 82.7618C73.2905 82.8537 73.3519 82.9529 73.3667 83.0594C73.3813 83.1525 73.3892 83.2457 73.3904 83.3391C73.3378 83.3931 73.3054 83.4602 73.2932 83.5404C73.2941 83.6071 73.2945 83.6404 73.2945 83.6404C73.2951 83.6804 73.27 83.8007 73.2194 84.0014C73.1821 84.202 73.1181 84.3962 73.0273 84.5841C72.9268 85.0388 72.8467 85.5266 72.7871 86.0475C72.7273 86.555 72.7 86.9954 72.705 87.3687C72.7232 87.7285 72.766 87.9346 72.8334 87.987C72.9141 88.0393 73.0657 87.9106 73.2882 87.6008C73.524 87.291 73.7856 86.914 74.073 86.4701C74.1382 86.3625 74.2758 86.1873 74.4859 85.9445C74.6959 85.7016 74.8397 85.4863 74.9172 85.2986C74.9163 85.2319 74.9548 85.1247 75.0328 84.977C75.1106 84.8159 75.1884 84.6481 75.266 84.4737C75.3435 84.286 75.3814 84.1321 75.3798 84.0122C75.3661 83.9857 75.4311 83.8648 75.5749 83.6495C75.7186 83.4342 75.8549 83.159 75.9837 82.8239C76.0467 82.5563 76.1641 82.3614 76.3358 82.239C76.5208 82.1165 76.6869 82.0743 76.8341 82.1123C76.9811 82.1369 77.0362 82.2629 76.9993 82.4901C76.9388 82.9443 76.7926 83.473 76.5607 84.0762C76.342 84.6658 76.0834 85.2627 75.7849 85.8668C75.4996 86.4574 75.2133 86.9814 74.9262 87.4386C74.8208 87.5334 74.729 87.648 74.6508 87.7824C74.5724 87.9035 74.5336 87.9907 74.5343 88.044C74.5347 88.0707 74.4756 88.1381 74.3571 88.2464C74.2517 88.3412 74.1199 88.4563 73.9617 88.5918C73.8034 88.714 73.6382 88.8295 73.4664 88.9386C73.2949 89.0742 73.1359 89.1497 72.9894 89.165C72.8429 89.1804 72.6624 89.1428 72.4478 89.0524ZM79.3168 88.7792C79.1435 88.7816 79.003 88.7501 78.8955 88.6849C78.8012 88.6195 78.68 88.5278 78.5317 88.4098C78.2748 88.1466 78.0914 87.8958 77.9814 87.6572C77.8714 87.4054 77.8348 87.1658 77.8717 86.9386C77.9102 86.8314 77.9222 86.7313 77.9076 86.6381C77.9062 86.5315 77.9055 86.4781 77.9055 86.4781C77.8379 86.4124 77.8173 86.3727 77.8438 86.359C77.8701 86.3319 77.8963 86.2916 77.9222 86.2379C78.0022 86.2368 78.0279 86.1631 77.9992 86.0168C77.9711 85.9105 78.0213 85.6765 78.1497 85.3147C78.2781 84.953 78.4402 84.6107 78.6358 84.288C78.714 84.1536 78.8317 83.9787 78.9887 83.7632C79.1457 83.5344 79.316 83.3121 79.4997 83.0962C79.6967 82.8669 79.8742 82.6844 80.0324 82.5489C80.3619 82.2645 80.6524 82.0538 80.9039 81.9171C81.1554 81.7803 81.4273 81.6766 81.7197 81.606C82.0122 81.5353 82.2117 81.4993 82.3183 81.4979C82.4383 81.4962 82.5998 81.6007 82.8026 81.8113C83.1111 81.9405 83.3332 82.0975 83.4691 82.2823C83.6183 82.467 83.7153 82.739 83.7602 83.0985C83.8056 83.4979 83.7785 83.9583 83.6789 84.4797C83.5924 84.9876 83.2877 85.6251 82.7647 86.3923C82.4379 86.8767 82.1362 87.2409 81.8595 87.4846C81.5826 87.7151 81.2523 87.9462 80.8688 88.1781C80.5913 88.3686 80.3399 88.512 80.1145 88.6084C79.889 88.6915 79.6231 88.7484 79.3168 88.7792ZM81.2079 86.6334C81.523 86.2691 81.7717 85.9257 81.954 85.6032C82.1496 85.2805 82.3307 84.8713 82.4974 84.3757C82.5487 84.2283 82.5796 84.0479 82.59 83.8344C82.6003 83.6076 82.5908 83.401 82.5616 83.2147C82.5456 83.0149 82.4974 82.9022 82.417 82.8766C82.2558 82.7855 82.0621 82.7614 81.836 82.8045C81.6097 82.8343 81.3648 82.9643 81.1012 83.1945C80.6926 83.5468 80.3385 83.9849 80.039 84.509C79.7392 85.0198 79.4471 85.6038 79.1626 86.2611C78.9692 86.7437 78.9277 87.131 79.0384 87.4229C79.1621 87.7012 79.4101 87.7979 79.7824 87.7128C80.1677 87.6142 80.6429 87.2544 81.2079 86.6334ZM85.9848 88.5288C85.9199 88.663 85.8205 88.7044 85.6864 88.6529C85.5657 88.6012 85.465 88.5492 85.3843 88.4969C85.291 88.4982 85.2106 88.4726 85.1432 88.4202C85.0758 88.3678 85.0281 88.2884 85 88.1821C84.9722 88.1025 84.9643 88.0093 84.9762 87.9024C84.9879 87.7822 85.0128 87.6486 85.0508 87.5014C85.1019 87.3407 85.1529 87.1666 85.2037 86.9792C85.3044 86.5378 85.3734 86.2169 85.4107 86.0164C85.4479 85.8158 85.4856 85.642 85.5236 85.4948C85.5616 85.3476 85.612 85.1335 85.6749 84.8527C85.778 84.5846 85.8611 84.3234 85.9243 84.0692C85.9875 83.815 86.0841 83.5603 86.214 83.3052C86.3026 82.9573 86.4115 82.6291 86.5407 82.3207C86.683 81.9987 86.8193 81.7302 86.9498 81.5151C86.9759 81.4747 87.0218 81.4208 87.0876 81.3532C87.1667 81.2854 87.2329 81.2512 87.2862 81.2505C87.3914 81.1424 87.4842 81.1011 87.5646 81.1267C87.6581 81.1388 87.7722 81.1972 87.907 81.3021C88.0693 81.4732 88.132 81.6724 88.0951 81.8996C88.0715 82.1266 87.916 82.4621 87.6287 82.906C87.4743 83.3215 87.3325 83.6834 87.2034 83.9919C87.074 84.287 86.9845 84.5682 86.9348 84.8356C87.0786 84.6203 87.2359 84.4248 87.4069 84.2491C87.591 84.0599 87.7422 83.9045 87.8606 83.7829C88.1499 83.4856 88.387 83.2691 88.5719 83.1332C88.77 82.9972 89.0013 82.8407 89.2656 82.6638C89.4241 82.555 89.5762 82.4596 89.7217 82.3776C89.8671 82.2823 90.0262 82.2134 90.199 82.1711C90.3851 82.1286 90.5851 82.1258 90.7989 82.1629C90.9321 82.1478 91.0393 82.1864 91.1205 82.2786C91.2151 82.3707 91.2901 82.4963 91.3456 82.6556C91.4011 82.8148 91.437 83.001 91.4532 83.2142C91.1457 83.1517 90.8726 83.1687 90.6338 83.2653C90.395 83.3485 90.1897 83.4513 90.018 83.5737C89.8596 83.6958 89.7342 83.7909 89.6418 83.8588C89.4436 83.9948 89.1928 84.1782 88.8892 84.409C88.5854 84.6265 88.2823 84.8906 87.9799 85.2014C87.7435 85.4713 87.5399 85.7008 87.3691 85.8898C87.2117 86.0786 87.0806 86.2471 86.9759 86.3952C86.8846 86.5431 86.8134 86.6974 86.7622 86.8581C86.633 87.1666 86.4976 87.5018 86.3558 87.8637C86.214 88.2257 86.0903 88.4474 85.9848 88.5288ZM92.7974 88.8965C92.545 88.9666 92.3376 88.916 92.1753 88.7449C92.0263 88.5736 91.936 88.3081 91.9045 87.9485C91.8729 87.5889 91.9072 87.1617 92.0071 86.667C92.0716 86.5061 92.1229 86.352 92.1609 86.2049C92.1987 86.0443 92.217 85.9174 92.2157 85.8241C92.2406 85.6904 92.2913 85.4964 92.3678 85.242C92.4442 84.9742 92.5272 84.6997 92.6167 84.4185C92.7062 84.1373 92.7895 83.8895 92.8666 83.6751C92.9569 83.4471 93.015 83.3063 93.0409 83.2527C93.0943 83.2519 93.1403 83.2046 93.179 83.1108C93.2177 83.0169 93.2365 82.9233 93.2352 82.83C93.2338 82.7233 93.2521 82.6031 93.2903 82.4692C93.3418 82.3352 93.3939 82.2411 93.4465 82.1871C93.4456 82.1204 93.458 82.0469 93.4835 81.9665C93.5223 81.8727 93.5413 81.7991 93.5405 81.7457C93.5398 81.6924 93.5524 81.6389 93.5784 81.5852C93.6176 81.5313 93.6369 81.4777 93.6362 81.4244C93.7272 81.2498 93.8435 80.9749 93.985 80.5996C94.1398 80.2108 94.3007 79.7819 94.4676 79.3129C94.648 78.8438 94.815 78.3815 94.9689 77.926C95.1227 77.4706 95.2442 77.0889 95.3334 76.781C95.4357 76.4596 95.4864 76.2655 95.4855 76.1989C95.4841 76.0922 95.5097 76.0118 95.5623 75.9578C95.6149 75.9037 95.6945 75.876 95.8012 75.8746C95.8406 75.834 95.8869 75.8067 95.9401 75.7927C96.0065 75.7784 96.0664 75.7709 96.1198 75.7702C96.1198 75.7702 96.1468 75.7965 96.2008 75.8491C96.2549 75.9017 96.336 75.9806 96.4441 76.0859C96.552 76.1777 96.6134 76.2836 96.6284 76.4034C96.6567 76.523 96.6719 76.6628 96.6741 76.8228C96.6764 76.9961 96.6585 77.1497 96.6203 77.2836C96.5821 77.4174 96.5048 77.6118 96.3882 77.8668C96.2717 78.1217 96.0903 78.5175 95.8443 79.0543C95.7412 79.3223 95.6313 79.5772 95.5146 79.8188C95.3977 80.0471 95.3396 80.1879 95.3403 80.2412C95.341 80.2945 95.3155 80.3749 95.2636 80.4823C95.225 80.5895 95.1802 80.7234 95.129 80.8841C95.0771 80.9915 95.006 81.1525 94.9155 81.3671C94.8249 81.5683 94.7279 81.7896 94.6245 82.0311C94.5343 82.259 94.457 82.46 94.3927 82.6343C94.3282 82.7952 94.2961 82.8889 94.2965 82.9156C94.2972 82.9689 94.2913 83.0223 94.2786 83.0759C94.2794 83.1292 94.2534 83.1829 94.2008 83.2369C94.1475 83.2376 94.1147 83.2781 94.1025 83.3583C94.1034 83.4249 94.1038 83.4583 94.1038 83.4583C94.1056 83.5916 94.0038 83.9463 93.7982 84.5225C93.5948 85.2587 93.404 85.9346 93.2257 86.5504C93.0607 87.1661 92.9807 87.6605 92.9857 88.0338C92.9901 88.3538 92.9863 88.5672 92.9744 88.6741C92.9624 88.7676 92.9034 88.8417 92.7974 88.8965ZM100.693 88.5894C100.64 88.5901 100.559 88.5845 100.453 88.5727C100.359 88.5473 100.278 88.4883 100.21 88.3959C100.007 88.1587 99.8776 87.9604 99.8221 87.8011C99.7666 87.6419 99.7568 87.4087 99.7926 87.1015C99.8166 86.9011 99.8276 86.7276 99.8256 86.581C99.8367 86.4208 99.8483 86.2873 99.8602 86.1805C99.8061 86.1279 99.7067 86.1692 99.5618 86.3045C99.4301 86.4263 99.2455 86.5822 99.0081 86.7721C98.5619 87.2982 98.1606 87.7037 97.8045 87.9885C97.4615 88.2598 97.1506 88.4441 96.8719 88.5412C96.593 88.625 96.3267 88.6553 96.073 88.632C95.846 88.6084 95.6648 88.5176 95.5293 88.3594C95.3936 88.1879 95.304 87.9691 95.2604 87.703C95.2301 87.4367 95.2262 87.15 95.2487 86.843C95.2961 86.4024 95.3837 85.9811 95.5116 85.5794C95.6528 85.1774 95.8801 84.7276 96.1934 84.23C96.3364 83.9614 96.5262 83.6988 96.7627 83.4422C97.0124 83.1721 97.2826 82.9351 97.5732 82.7312C97.8769 82.5137 98.1682 82.3564 98.4469 82.2593C98.7519 82.1351 99.0643 82.0642 99.3841 82.0465C99.7037 82.0155 99.9907 82.0383 100.245 82.1149C100.406 82.1927 100.533 82.231 100.627 82.2297C100.733 82.2283 100.812 82.1605 100.864 82.0265C100.929 81.9189 100.994 81.758 101.057 81.5438C101.121 81.3163 101.198 81.1219 101.29 80.9606L101.712 79.6548C101.854 79.2928 102.008 78.9107 102.176 78.5084C102.344 78.106 102.544 77.6166 102.777 77.0401C102.997 76.6104 103.181 76.3612 103.326 76.2926C103.472 76.2106 103.639 76.2617 103.829 76.4458C103.978 76.6171 104.034 76.8164 103.997 77.0435C103.96 77.2574 103.844 77.6057 103.651 78.0883C103.559 78.2363 103.481 78.3773 103.417 78.5115C103.351 78.6324 103.261 78.827 103.144 79.0953C102.977 79.5109 102.822 79.8864 102.68 80.2217C102.537 80.5437 102.389 80.9124 102.235 81.3278C102.184 81.5419 102.114 81.7895 102.025 82.0707C101.948 82.3518 101.885 82.606 101.835 82.8334C101.798 83.0472 101.754 83.2479 101.703 83.4352C101.665 83.6091 101.62 83.6964 101.567 83.6971C101.462 83.8185 101.365 84.0332 101.275 84.3411C101.186 84.6357 101.11 84.9434 101.048 85.2643C100.999 85.585 100.956 85.8523 100.919 86.0661C100.894 86.2265 100.877 86.4334 100.867 86.6869C100.857 86.9404 100.854 87.1871 100.857 87.4271C100.86 87.6537 100.862 87.8137 100.864 87.907C100.868 88.2003 100.863 88.3871 100.851 88.4672C100.839 88.5474 100.786 88.5881 100.693 88.5894ZM96.4162 87.3873C96.6962 87.3835 96.9879 87.2595 97.2912 87.0154C97.608 86.7711 97.9243 86.5001 98.2403 86.2024C98.4378 86.0131 98.6477 85.7635 98.8702 85.4538C99.106 85.1439 99.3285 84.8342 99.5377 84.5247C99.7602 84.215 99.9365 83.9459 100.067 83.7174C100.197 83.4757 100.262 83.3281 100.261 83.2748C100.26 83.2081 100.199 83.1623 100.079 83.1372C99.9586 83.1122 99.8184 83.1008 99.6584 83.1029C99.5116 83.0916 99.3917 83.0999 99.2987 83.1278C99.0063 83.1984 98.7148 83.3357 98.4242 83.5397C98.147 83.7435 97.8444 84.0476 97.5165 84.4521C97.1757 84.8834 96.895 85.3273 96.6745 85.7836C96.4673 86.2398 96.3391 86.6216 96.29 86.9289C96.2408 87.2363 96.2829 87.3891 96.4162 87.3873Z" fill="black"/>
<path d="M24.2874 69.2835C24.1935 69.2448 24.0927 69.1795 23.9847 69.0876C23.8768 68.9957 23.7887 68.8902 23.7204 68.7711C23.6523 68.6654 23.6177 68.5725 23.6166 68.4925C23.6155 68.4125 23.646 68.1987 23.7079 67.8512C23.7701 67.517 23.8511 67.1025 23.9511 66.6078C24.0646 66.1262 24.1846 65.6312 24.311 65.1228C24.451 64.6275 24.5917 64.1856 24.7331 63.7969C24.7588 63.7299 24.8425 63.5088 24.9841 63.1335C25.1388 62.7447 25.2858 62.276 25.4251 61.7274C25.527 61.3793 25.6617 60.9841 25.829 60.5418C25.9964 60.0995 26.1704 59.6571 26.3511 59.2146C26.5316 58.7588 26.6795 58.3567 26.7948 58.0085C26.9101 57.6602 27.0063 57.3789 27.0834 57.1645C27.1736 56.9366 27.2251 56.7958 27.2377 56.7423C27.2632 56.662 27.3023 56.5948 27.3549 56.5407C27.4207 56.4732 27.4866 56.4189 27.5527 56.378C27.6187 56.3238 27.6716 56.2897 27.7114 56.2759C27.9505 56.206 28.1585 56.3031 28.3354 56.5674C28.4037 56.6865 28.4189 56.8263 28.3811 56.9869C28.3433 57.1474 28.2726 57.3484 28.1692 57.5898L28.0347 57.9916L28.7524 57.8219C28.8724 57.8203 29.0192 57.8249 29.1927 57.8359C29.3793 57.8334 29.5593 57.831 29.7326 57.8286C29.9059 57.8263 30.0328 57.8379 30.1131 57.8635C30.4333 57.8724 30.6541 57.9295 30.7755 58.0345C30.9103 58.1393 31.0255 58.2778 31.1212 58.4498C31.1887 58.5156 31.27 58.6078 31.3649 58.7266C31.4597 58.832 31.5145 58.9379 31.5293 59.0444C31.5857 59.2703 31.589 59.5169 31.5393 59.7843C31.5027 60.0381 31.4262 60.2925 31.3096 60.5475C31.2064 60.8022 31.0629 61.0375 30.8792 61.2534C30.7085 61.4557 30.5242 61.6249 30.326 61.7609C30.1934 61.8161 30.0742 61.8777 29.9685 61.9458C29.8625 62.0006 29.8096 62.028 29.8096 62.028C29.7971 62.0948 29.6519 62.2034 29.3739 62.3539C29.0958 62.491 28.7775 62.622 28.4192 62.7469C28.0608 62.8717 27.7486 62.956 27.4825 62.9996C27.3894 63.0142 27.2562 63.0293 27.0831 63.045C26.91 63.0607 26.7764 63.0425 26.6823 62.9904C26.5353 62.9658 26.4351 62.9538 26.3818 62.9545C26.3285 62.9552 26.3022 62.9823 26.3029 63.0356C26.2899 63.0624 26.2004 63.3437 26.0343 63.8793C25.8682 64.4149 25.6966 65.0373 25.5196 65.7465C25.2767 66.5232 25.0784 67.1392 24.9246 67.5947C24.7709 68.0635 24.649 68.4118 24.5587 68.6397C24.4818 68.8675 24.4239 69.0216 24.385 69.1021C24.3462 69.196 24.3137 69.2565 24.2874 69.2835ZM26.6871 61.8703C26.7282 61.9497 26.8552 61.9747 27.0682 61.9451C27.2943 61.902 27.5598 61.8184 27.8649 61.6943C28.183 61.5566 28.4943 61.4057 28.7988 61.2416C29.1031 61.0641 29.354 60.8874 29.5517 60.7113C29.8405 60.374 30.0763 60.0642 30.2591 59.7817C30.4418 59.4858 30.4659 59.2921 30.3313 59.2006C30.1817 58.9893 29.9071 58.893 29.5073 58.9118C29.1075 58.9305 28.6165 59.1039 28.0342 59.4318C27.8086 59.5148 27.6368 59.6239 27.5186 59.7588C27.4136 59.8802 27.3223 60.0348 27.2448 60.2226C27.1674 60.4103 27.0705 60.6383 26.9541 60.9066C26.8381 61.2015 26.7611 61.4226 26.7231 61.5698C26.6851 61.717 26.6731 61.8171 26.6871 61.8703ZM32.795 63.9877C32.7402 63.8817 32.6725 63.8026 32.5918 63.7504C32.5109 63.6848 32.47 63.6254 32.4693 63.572C32.4686 63.5187 32.4612 63.4655 32.4472 63.4123C32.4463 63.3457 32.4188 63.286 32.3647 63.2334C32.297 63.1543 32.3012 62.9743 32.3774 62.6932C32.4534 62.3988 32.582 62.0437 32.763 61.6279C32.9439 61.1987 33.1578 60.7491 33.4048 60.2791C33.51 60.1709 33.6147 60.0295 33.719 59.8548C33.8234 59.68 33.9018 59.5656 33.9544 59.5115C33.9537 59.4582 33.9731 59.4113 34.0125 59.3707C34.0518 59.3169 34.0981 59.2896 34.1514 59.2888L34.1498 59.1688C34.1489 59.1022 34.2073 58.9881 34.3252 58.8264C34.4563 58.6646 34.6139 58.4892 34.7981 58.3C34.982 58.0975 35.1728 57.9082 35.3704 57.7322C35.5679 57.5428 35.7327 57.4072 35.865 57.3254C36.1424 57.135 36.4275 57.0178 36.7203 56.9738C37.0264 56.9296 37.2872 56.9928 37.5029 57.1632C37.5434 57.2027 37.611 57.2684 37.7056 57.3605C37.8002 57.4525 37.9083 57.5577 38.0299 57.6761C38.1647 57.781 38.2995 57.8925 38.4345 58.0107L39.1834 58.6606L38.8369 59.6653C38.6709 60.201 38.6305 60.6682 38.7159 61.0671C38.8147 61.4658 38.9527 61.8106 39.13 62.1016C39.1987 62.2473 39.3339 62.3855 39.5357 62.5161C39.7508 62.6466 39.9518 62.7238 40.1389 62.748C40.2457 62.7599 40.3462 62.7985 40.4405 62.8639C40.5347 62.9293 40.5828 63.0353 40.5848 63.182C40.5866 63.3153 40.5614 63.4223 40.5091 63.503C40.4569 63.5837 40.3643 63.6383 40.2313 63.6668C39.7921 63.7261 39.3773 63.6251 38.9871 63.3637C38.6102 63.1021 38.2576 62.6668 37.9293 62.0579C37.8749 61.9786 37.7996 61.8329 37.7034 61.6209C37.6203 61.3953 37.5716 61.2493 37.5574 61.1828C37.505 61.2502 37.4067 61.3782 37.2626 61.5669C37.1183 61.7422 37.0067 61.8704 36.9278 61.9514C35.9942 62.9242 35.183 63.5819 34.4943 63.9246C33.8187 64.2538 33.2523 64.2748 32.795 63.9877ZM33.4997 62.858C33.501 62.9513 33.641 62.9494 33.9197 62.8523C34.2116 62.7417 34.5223 62.5508 34.852 62.2796C35.3001 61.8868 35.7476 61.4541 36.1945 60.9813C36.6548 60.5083 37.0223 60.07 37.2968 59.6662L37.727 58.9403C37.5895 58.6355 37.4401 58.4308 37.2787 58.3264C37.1304 58.2084 37.0029 58.1501 36.8962 58.1515C36.7229 58.1539 36.4651 58.3174 36.1228 58.6421C35.7939 58.9665 35.4397 59.398 35.0603 59.9366C34.6809 60.4751 34.3222 61.0667 33.9842 61.7113C33.8545 61.9798 33.7381 62.2414 33.6348 62.4961C33.5448 62.7374 33.4997 62.858 33.4997 62.858ZM46.0935 64.4874C46.0009 64.542 45.8739 64.5237 45.7127 64.4326C45.5648 64.3412 45.4162 64.2032 45.267 64.0186C45.1715 63.8599 45.1025 63.6874 45.06 63.5013C45.0308 63.315 45.0139 63.0552 45.0094 62.7219C45.0191 62.4551 45.0035 62.282 44.9624 62.2025C44.9346 62.1229 44.8615 62.1372 44.7429 62.2455C44.6242 62.3405 44.4202 62.5366 44.1309 62.8339C43.8021 63.1717 43.4856 63.436 43.1815 63.6268C42.8907 63.8174 42.6519 63.9074 42.4651 63.8965C42.3718 63.8978 42.2645 63.8526 42.1432 63.7609C42.0351 63.6557 41.9334 63.5304 41.8381 63.385C41.7426 63.2263 41.6605 63.0674 41.5916 62.9083C41.5077 62.6161 41.4893 62.243 41.5365 61.7889C41.5968 61.3214 41.6968 60.8333 41.8366 60.3247C41.9764 59.8161 42.1366 59.3339 42.3171 58.8781C42.5109 58.4221 42.7059 58.0527 42.9021 57.7701C43.1116 57.4872 43.2964 57.3447 43.4563 57.3425C43.563 57.3411 43.6571 57.3931 43.7385 57.4987C43.8333 57.6041 43.9288 57.7695 44.0252 57.9949C44.0798 58.0875 44.1009 58.1672 44.0885 58.234C44.0894 58.3007 44.0372 58.3814 43.9318 58.4762C43.8139 58.6378 43.6772 58.8797 43.5216 59.2018C43.3792 59.5238 43.2373 59.8724 43.0957 60.2477C42.9674 60.6228 42.8523 60.9844 42.7504 61.3324C42.6484 61.6805 42.579 61.9682 42.5421 62.1953C42.505 62.4092 42.5131 62.5158 42.5664 62.515C42.753 62.5125 42.972 62.4362 43.2233 62.2861C43.4878 62.1225 43.7385 61.9258 43.9754 61.6959C44.2516 61.4121 44.4941 61.1021 44.7029 60.7659C44.925 60.4295 45.1469 60.0732 45.3684 59.6968C45.5381 59.4278 45.7142 59.1321 45.8965 58.8096C46.0921 58.4869 46.2157 58.2585 46.2672 58.1245C46.4492 57.7753 46.586 57.5401 46.6777 57.4188C46.7692 57.2843 46.8813 57.1961 47.0141 57.1543C47.0808 57.1534 47.1408 57.1525 47.1941 57.1518C47.2608 57.1509 47.2941 57.1505 47.2941 57.1505C47.3743 57.1627 47.4684 57.2214 47.5765 57.3266C47.6839 57.3785 47.7446 57.431 47.7587 57.4842C47.7725 57.524 47.7799 57.5772 47.7808 57.6439C47.7293 57.778 47.6454 57.9791 47.529 58.2474C47.4258 58.5021 47.3483 58.6899 47.2966 58.8106C47.0511 59.3873 46.8054 59.9573 46.5597 60.5207C46.3272 61.0706 46.1614 61.6329 46.0625 62.2076C46.0384 62.3946 46.0347 62.6147 46.0515 62.8678C46.0814 63.1074 46.1238 63.2802 46.1785 63.3862C46.2196 63.4656 46.2675 63.5583 46.3223 63.6642C46.3902 63.7567 46.4647 63.8357 46.5456 63.9012C46.6666 63.9796 46.6878 64.066 46.6091 64.1604C46.5437 64.2546 46.4514 64.3359 46.3324 64.4042C46.2131 64.4591 46.1335 64.4869 46.0935 64.4874ZM50.0171 64.5542C49.7623 64.451 49.5204 64.3143 49.2914 64.144C49.0623 63.9604 48.9135 63.8091 48.8452 63.69C48.8436 63.57 48.8625 63.4898 48.902 63.4492C48.9413 63.3954 49.0543 63.3738 49.2411 63.3846C49.4411 63.3819 49.7615 63.4043 50.2021 63.4516C50.3621 63.4494 50.5619 63.4334 50.8015 63.4035C51.0412 63.3736 51.2606 63.3306 51.4599 63.2745C51.6724 63.2183 51.7915 63.15 51.8171 63.0697C51.8838 63.0688 51.8968 63.0486 51.8563 63.0091C51.8156 62.9564 51.7682 62.9037 51.7141 62.8511C51.6608 62.8518 51.6005 62.8326 51.5333 62.7935C51.466 62.7411 51.4056 62.7152 51.3523 62.716C51.3514 62.6493 51.2837 62.5769 51.1493 62.4987C51.028 62.407 50.9004 62.3354 50.7664 62.2839C50.4698 62.0479 50.2136 61.838 49.9977 61.6542C49.7817 61.4571 49.6999 61.3249 49.7523 61.2575C49.7516 61.2042 49.7513 61.1775 49.7513 61.1775C49.7511 61.1642 49.751 61.1575 49.751 61.1575C49.6577 61.1588 49.5492 61.0269 49.4256 60.7619C49.3153 60.4967 49.2587 60.2574 49.2559 60.0441C49.2537 59.8841 49.2976 59.6835 49.3877 59.4423C49.4776 59.1877 49.6007 58.926 49.7571 58.6572C49.9135 58.3884 50.0771 58.1662 50.2481 57.9905C50.485 57.7606 50.7817 57.5165 51.1383 57.2584C51.4946 56.9868 51.8447 56.7487 52.1887 56.544C52.5457 56.3259 52.8438 56.1818 53.0829 56.1119C53.3216 56.0153 53.541 55.9657 53.7409 55.9629C53.9542 55.9601 54.1415 56.0042 54.3028 56.0953C54.437 56.1602 54.5584 56.2586 54.6668 56.3904C54.7884 56.5088 54.8901 56.6341 54.9719 56.7663C55.0669 56.8851 55.1283 56.9909 55.1563 57.0839C55.1584 57.2438 55.1475 57.424 55.1236 57.6244C55.0995 57.8114 55.0617 57.9786 55.0104 58.1259C54.9724 58.2731 54.9067 58.3474 54.8134 58.3486C54.8134 58.3486 54.7935 58.3556 54.7537 58.3694C54.727 58.3698 54.7141 58.4033 54.715 58.47C54.7168 58.6033 54.6189 58.758 54.4213 58.934C54.1703 59.1108 53.9518 59.2204 53.7657 59.2629C53.5794 59.2921 53.4651 59.2203 53.4227 59.0475C53.382 58.9948 53.3547 58.9485 53.3408 58.9086C53.327 58.8688 53.2934 58.8493 53.24 58.85C53.24 58.85 53.2198 58.8303 53.1792 58.7908C53.1387 58.7514 53.1178 58.685 53.1165 58.5917C53.1158 58.5383 53.1352 58.4914 53.1746 58.4509C53.2139 58.397 53.2335 58.3701 53.2335 58.3701C53.3002 58.3691 53.3858 58.2946 53.4905 58.1465C53.595 57.9851 53.6861 57.8172 53.7637 57.6428C53.8545 57.4549 53.8994 57.3276 53.8985 57.2609C53.8975 57.1809 53.8835 57.1345 53.8567 57.1215C53.8431 57.1083 53.7831 57.1025 53.6764 57.1039C53.4908 57.1865 53.2656 57.2962 53.0008 57.4331C52.736 57.5701 52.4845 57.7068 52.2463 57.8434C52.0213 57.9664 51.8562 58.082 51.7509 58.1901C51.6989 58.2842 51.6664 58.3446 51.6534 58.3715C51.6402 58.385 51.607 58.3921 51.5537 58.3928C51.553 58.3395 51.5067 58.3668 51.4148 58.4747C51.336 58.5691 51.2312 58.7039 51.1002 58.879C50.9826 59.054 50.8649 59.2289 50.7473 59.4039C50.6428 59.5653 50.5645 59.6864 50.5122 59.7671C50.4859 59.7941 50.4537 59.8745 50.4155 60.0084C50.3904 60.1288 50.3786 60.2423 50.3801 60.3489C50.3289 60.5096 50.3371 60.6229 50.4047 60.6886C50.4721 60.741 50.6204 60.859 50.8495 61.0426C51.3209 61.3829 51.6914 61.6646 51.9611 61.8876C52.2308 62.1107 52.4333 62.2946 52.5686 62.4394C52.7039 62.5843 52.7857 62.7165 52.814 62.8361C53.0594 63.2329 53.1369 63.5385 53.0465 63.7531C52.9561 63.9677 52.7319 64.1574 52.3741 64.3222C52.2417 64.3907 52.0225 64.447 51.7164 64.4912C51.4103 64.5353 51.0972 64.5596 50.7773 64.5639C50.4575 64.5816 50.2041 64.5784 50.0171 64.5542ZM57.0052 63.8994C56.4824 63.6932 56.1384 63.4045 55.9734 63.0333C55.8215 62.6487 55.7868 62.0558 55.8693 61.2546C55.8903 60.8409 55.9 60.5674 55.8982 60.4341C55.8963 60.3008 55.8212 60.1685 55.6728 60.0371C55.632 59.9843 55.5577 59.912 55.4498 59.8201C55.3552 59.7281 55.3141 59.6486 55.3265 59.5818C55.312 59.4886 55.3173 59.3886 55.3425 59.2815C55.3675 59.1612 55.4067 59.1007 55.46 59.0999C55.5134 59.0992 55.5665 59.0852 55.6195 59.0578C55.6858 59.0302 55.7458 59.0294 55.7995 59.0553C55.8528 59.0546 55.9129 59.0605 55.9797 59.0729C56.0465 59.0853 56.0803 59.1182 56.0811 59.1715C56.1356 59.2641 56.2225 59.2763 56.3416 59.208C56.4605 59.1264 56.5848 58.9513 56.7145 58.6829C56.8449 58.4678 57.0153 58.2521 57.2258 58.0359C57.4495 57.8195 57.6669 57.6232 57.8778 57.447C58.102 57.2573 58.2868 57.1214 58.4324 57.0394C58.4987 57.0119 58.5982 56.9772 58.731 56.9354C58.8638 56.8936 59.0033 56.8584 59.1496 56.8297C59.3092 56.8009 59.4424 56.7924 59.5493 56.8043C59.7894 56.8144 59.9903 56.8783 60.1519 56.9961C60.3269 57.1138 60.4888 57.2516 60.6376 57.4096C60.8125 57.5272 60.9214 57.6858 60.9641 57.8852C61.0201 58.0845 61.0363 58.2976 61.0127 58.5246C60.9891 58.7516 60.932 58.9591 60.8412 59.147C60.803 59.2808 60.6918 59.4424 60.5077 59.6315C60.3236 59.8207 60.1127 60.0036 59.8751 60.1802C59.6374 60.3567 59.4192 60.4864 59.2203 60.5691C59.0475 60.6114 58.8213 60.6478 58.5417 60.6783C58.2754 60.7086 58.0223 60.7253 57.7823 60.7286C57.5555 60.7183 57.4018 60.6938 57.3213 60.6548C57.2272 60.6028 57.1549 60.6771 57.1043 60.8778C57.0537 61.0785 57.0176 61.3657 56.996 61.7394C56.9733 62.033 56.9762 62.2463 57.0046 62.3793C57.0331 62.5123 57.061 62.6052 57.0884 62.6582C57.183 62.7502 57.3113 62.8685 57.4733 63.013C57.6484 63.144 57.8886 63.1607 58.194 63.0632C58.4464 62.9931 58.6907 62.8165 58.9269 62.5332C59.1764 62.2498 59.4066 62.02 59.6176 61.8438C59.6697 61.7498 59.7556 61.6953 59.8754 61.6803C60.0084 61.6518 60.1485 61.6566 60.2956 61.6946C60.4436 61.7859 60.5051 61.8985 60.4802 62.0321C60.4685 62.1523 60.4044 62.3399 60.2879 62.5948C60.2491 62.6887 60.1574 62.8099 60.0128 62.9586C59.8812 63.0937 59.7298 63.2358 59.5585 63.3848C59.4003 63.5203 59.2551 63.6289 59.1229 63.7107C58.7258 63.9294 58.354 64.0478 58.0076 64.0658C57.661 64.0705 57.3268 64.0151 57.0052 63.8994ZM58.1301 59.8238C58.4225 59.7532 58.6552 59.7033 58.8281 59.6743C59.0011 59.6453 59.1667 59.5697 59.3251 59.4476C59.4833 59.3121 59.6799 59.0627 59.915 58.6995C59.9663 58.5521 59.9777 58.4053 59.949 58.259C59.9337 58.1125 59.899 58.013 59.845 57.9604C59.7232 57.8287 59.576 57.7907 59.4034 57.8464C59.244 57.8885 59.0916 57.9639 58.9464 58.0726C58.8536 58.1138 58.715 58.2157 58.5305 58.3782C58.3592 58.5272 58.1882 58.7029 58.0176 58.9052C57.8468 59.0942 57.7092 59.2695 57.6047 59.4309C57.5002 59.5923 57.4748 59.686 57.5285 59.7119C57.5026 59.7656 57.5764 59.798 57.7498 59.809C57.9367 59.8198 58.0634 59.8247 58.1301 59.8238Z" fill="#FF3B30"/>
</svg>
