<svg width="224" height="145" viewBox="0 0 224 145" fill="none" xmlns="http://www.w3.org/2000/svg">
<path d="M5.34638 29.0057C5.07858 28.9953 4.9102 28.9722 4.84122 28.9363C4.78556 28.8996 4.71253 28.7972 4.62214 28.629C4.50838 28.5157 4.43616 28.4266 4.40549 28.3617C4.38813 28.296 4.38449 28.2361 4.39455 28.1821C4.4611 28.178 4.52099 28.1744 4.57422 28.1711C4.62664 28.1546 4.6583 28.1259 4.66917 28.0852C4.66674 28.0453 4.68508 28.0174 4.7242 28.0017C4.77662 27.9851 4.82986 27.9819 4.8839 27.992C5.13758 27.9899 5.45213 27.8906 5.82754 27.694C6.21546 27.4834 6.62594 27.2046 7.05898 26.8577C7.50452 26.4966 7.93473 26.103 8.34961 25.677C8.66808 25.2035 8.89947 24.8354 9.04377 24.5728C9.18727 24.2969 9.26746 24.0783 9.28436 23.917C9.30044 23.7423 9.27156 23.5971 9.19772 23.4814C9.13801 23.3782 8.9426 23.35 8.6115 23.3969C8.2796 23.4305 7.91546 23.5929 7.5191 23.8842C6.96871 24.2784 6.52982 24.639 6.20243 24.9662C5.87505 25.2934 5.57671 25.6589 5.30742 26.0626C5.20906 26.2022 5.11231 26.3684 5.01719 26.5612C4.93537 26.7532 4.86525 26.9178 4.80681 27.0549C4.74837 27.192 4.71915 27.2606 4.71915 27.2606C4.72239 27.3139 4.64659 27.3853 4.49175 27.4748C4.35021 27.5636 4.22621 27.6112 4.11974 27.6177C4.06489 27.5943 3.98885 27.5522 3.89164 27.4913C3.80693 27.4164 3.74761 27.3198 3.7137 27.2016C3.61649 27.1408 3.5467 27.0916 3.50435 27.0541C3.46199 27.0166 3.43254 26.9716 3.41599 26.9192C3.39781 26.8402 3.41008 26.7125 3.45278 26.5362C3.49548 26.36 3.55206 26.0827 3.62253 25.7044C3.68131 25.3535 3.74594 24.9889 3.81641 24.6106C3.90018 24.2315 3.98055 23.906 4.0575 23.6341C4.13445 23.3623 4.19208 23.2118 4.23039 23.1828C4.23039 23.1828 4.25336 23.1213 4.2993 22.9983C4.34524 22.8752 4.36335 22.7339 4.35362 22.5742C4.37052 22.4128 4.40193 22.2707 4.44787 22.1477C4.50712 22.0238 4.53513 21.9353 4.53189 21.8821C4.58269 21.8389 4.65282 21.6743 4.74227 21.3884C4.83172 21.1024 4.94252 20.7283 5.07467 20.2661C5.07224 20.2262 5.11112 20.0969 5.19131 19.8783C5.2707 19.6463 5.36802 19.3799 5.48327 19.079C5.59772 18.7648 5.71176 18.444 5.8254 18.1165C5.95153 17.7748 6.05348 17.4748 6.13125 17.2162C6.27717 16.9802 6.38439 16.7667 6.4529 16.5755C6.5339 16.3702 6.61977 16.2447 6.7105 16.1991C6.77623 16.1818 6.85649 16.1836 6.95127 16.2045C7.05855 16.2113 7.16039 16.2385 7.25679 16.2861C7.3665 16.3328 7.45787 16.4074 7.5309 16.5098C7.57488 16.574 7.60514 16.6322 7.62169 16.6846C7.63824 16.7371 7.62436 16.8381 7.58004 16.9877C7.53491 17.1241 7.44262 17.3634 7.30318 17.7059C7.17623 18.0342 6.985 18.5134 6.72949 19.1434C6.40547 19.9646 6.14273 20.6953 5.94126 21.3354C5.7398 21.9755 5.5738 22.5399 5.44327 23.0288C5.31274 23.5176 5.19147 23.9391 5.07945 24.2932L5.00638 24.7385L5.47628 24.229C5.667 24.0704 5.87565 23.8774 6.10224 23.6499C6.32883 23.4223 6.53042 23.2231 6.70702 23.052C6.80863 22.9657 6.9435 22.8773 7.11165 22.7869C7.2923 22.6824 7.46711 22.5916 7.63607 22.5145C7.80503 22.4375 7.92903 22.3898 8.00807 22.3717C8.04719 22.3559 8.14579 22.3299 8.30387 22.2935C8.46195 22.2572 8.65412 22.2321 8.88037 22.2184C9.17316 22.2005 9.41011 22.2529 9.59123 22.3755C9.78565 22.4972 9.97829 22.6992 10.1691 22.9814C10.3325 23.252 10.4119 23.5678 10.4071 23.9287C10.4016 24.2764 10.315 24.6089 10.1473 24.9264C10.084 24.9837 10.0219 25.0609 9.96105 25.1581C9.89937 25.242 9.87015 25.3106 9.87339 25.3638C9.86575 25.4578 9.75773 25.6581 9.54931 25.9646C9.34008 26.2579 9.13004 26.5378 8.91919 26.8045C8.69503 27.0719 8.41764 27.3426 8.08701 27.6166C7.75557 27.8772 7.42292 28.1179 7.08905 28.3386C6.76768 28.5451 6.48964 28.6957 6.25495 28.7901C6.14929 28.8099 5.99786 28.8458 5.80066 28.8979C5.60265 28.9367 5.45123 28.9726 5.34638 29.0057ZM15.2974 28.0391C15.0325 28.2957 14.715 28.4553 14.3448 28.5179C13.9879 28.5797 13.6319 28.5479 13.277 28.4226C12.9213 28.284 12.6205 28.0618 12.3748 27.7562C12.1308 27.4772 11.9641 27.1534 11.8749 26.7848C11.7848 26.4029 11.7478 25.9042 11.7637 25.2888C11.772 24.7673 11.9068 24.2382 12.168 23.7013C12.4284 23.1511 12.7523 22.6572 13.1397 22.2195C13.5405 21.781 13.9423 21.4693 14.3451 21.2845C14.5366 21.1392 14.6994 21.0692 14.8332 21.0744C14.9796 21.0655 15.2 21.0655 15.4945 21.0742C15.803 21.0955 16.0329 21.1416 16.1841 21.2126C16.3487 21.2827 16.4816 21.3815 16.5829 21.5089C16.7947 21.6964 16.9399 21.8879 17.0186 22.0835C17.0965 22.2657 17.1411 22.45 17.1525 22.6364C17.1171 22.9324 16.9393 23.3039 16.6192 23.7508C16.3116 24.1837 15.8931 24.5498 15.3637 24.8492C15.0765 24.9602 14.7596 25.0195 14.4127 25.0273C14.0659 25.0351 13.7745 24.966 13.5385 24.8201C13.2792 24.729 13.114 24.7591 13.0431 24.9103C12.9713 25.0483 12.9184 25.3855 12.8843 25.9219C12.8618 26.4308 12.9245 26.801 13.0721 27.0325C13.219 27.2506 13.4068 27.3728 13.6354 27.3989C13.9049 27.436 14.1136 27.4633 14.2616 27.481C14.4221 27.4846 14.6114 27.413 14.8296 27.2661C15.0344 27.12 15.163 27.0387 15.2155 27.0222C15.2671 26.9923 15.3054 26.9633 15.3304 26.9351C15.3679 26.8927 15.4491 26.8009 15.5741 26.6597C15.6616 26.5609 15.7307 26.4899 15.7815 26.4467C15.8315 26.3902 15.8898 26.36 15.9563 26.3559C16.0229 26.3519 16.0848 26.3815 16.1421 26.4448C16.1986 26.4948 16.2542 26.5315 16.3091 26.5549C16.4422 26.5468 16.4737 26.625 16.4035 26.7896C16.3467 26.9533 16.2187 27.1548 16.0196 27.394C15.8196 27.6199 15.5789 27.8349 15.2974 28.0391ZM15.0198 23.8082C15.1621 23.7327 15.3095 23.6302 15.4619 23.5007C15.6135 23.3579 15.7381 23.2101 15.8356 23.0572C15.9457 22.8902 15.9975 22.7534 15.991 22.647C15.9796 22.4606 15.8838 22.3129 15.7035 22.2036C15.5224 22.0811 15.2616 22.0769 14.9213 22.1911C14.7773 22.24 14.617 22.3499 14.4404 22.521C14.263 22.6787 14.0935 22.856 13.9318 23.0529C13.7835 23.2489 13.6605 23.4234 13.563 23.5763C13.4787 23.7283 13.4507 23.8169 13.479 23.8419C13.5229 23.906 13.6393 23.9523 13.828 23.9809C14.016 23.9962 14.2227 23.9903 14.4481 23.9632C14.6869 23.9353 14.8774 23.8836 15.0198 23.8082ZM19.4476 29.9904C19.2754 30.0143 19.1108 29.9442 18.9539 29.7801C18.797 29.616 18.6618 29.3704 18.5484 29.0434C18.4491 28.7288 18.3861 28.3519 18.3593 27.9128C18.2729 27.3703 18.2773 26.6755 18.3726 25.8281C18.4672 24.9674 18.6288 24.0025 18.8576 22.9333C18.9422 22.5674 19.0685 22.1189 19.2365 21.5877C19.4045 21.0566 19.5796 20.5316 19.7617 20.0129C19.9572 19.4934 20.1309 19.0554 20.2828 18.6988C20.434 18.3289 20.5283 18.1228 20.5658 18.0805C20.6472 18.1022 20.6835 18.0399 20.6746 17.8935C20.673 17.8669 20.7201 17.7638 20.8161 17.5843C20.912 17.4048 21.0005 17.2124 21.0815 17.0071C21.2391 16.7437 21.4304 16.485 21.6554 16.2308C21.8795 15.9634 22.1124 15.7288 22.3539 15.5271C22.6079 15.3112 22.8389 15.1569 23.047 15.0641C23.2418 14.9721 23.439 14.92 23.6386 14.9078C23.8915 14.8924 24.1214 14.9385 24.3283 15.0462C24.5485 15.153 24.725 15.3092 24.8578 15.5148C24.9897 15.7072 25.0634 15.9298 25.0788 16.1827C25.0917 16.3956 25.0577 16.6047 24.9767 16.81C24.9489 17.0121 24.8821 17.2299 24.7761 17.4634C24.6826 17.6828 24.5816 17.8894 24.4732 18.083C24.3772 18.2625 24.2988 18.4008 24.2379 18.498C24.0706 18.6017 23.9266 18.6506 23.8061 18.6446C23.6855 18.6385 23.6556 18.5869 23.7165 18.4897C23.7132 18.4365 23.7225 18.3691 23.7442 18.2877C23.7793 18.2054 23.8007 18.1172 23.8083 18.0233C23.8067 17.9967 23.8284 17.9152 23.8736 17.7789C23.932 17.6417 23.9572 17.5066 23.9491 17.3735C24.0397 16.8871 24.0722 16.5445 24.0468 16.3457C24.0346 16.146 23.9686 16.0499 23.8489 16.0572C23.7815 16.0479 23.6767 16.081 23.5343 16.1565C23.392 16.2319 23.2638 16.3199 23.1496 16.4203C23.0347 16.5075 22.9793 16.5843 22.9834 16.6509C22.9858 16.6908 22.9874 16.7174 22.9882 16.7307C22.9475 16.7199 22.8279 16.8407 22.6296 17.0932C22.4437 17.3316 22.2345 17.6249 22.0019 17.973C21.7818 18.307 21.6 18.6119 21.4565 18.8878C21.3638 19.1206 21.2423 19.4285 21.092 19.8117C20.9417 20.1949 20.7712 20.6861 20.5806 21.2855L20.4501 21.7743L20.7719 21.7948C20.8792 21.8016 21.0452 21.7848 21.2698 21.7444C21.4936 21.6907 21.7108 21.6374 21.9213 21.5846C22.3697 21.4905 22.6891 21.471 22.8795 21.5262C23.0699 21.5814 23.2181 21.7126 23.3242 21.9199C23.4901 22.2304 23.397 22.4565 23.0449 22.5981C22.6921 22.7265 22.0116 22.8481 21.0033 22.9629C20.7888 22.9492 20.6021 22.9539 20.4432 22.977C20.2968 22.9859 20.1986 23.0186 20.1486 23.0751C20.097 23.1049 20.0327 23.2558 19.9557 23.5276C19.878 23.7862 19.7968 24.0983 19.7122 24.4641C19.6401 24.8158 19.5872 25.153 19.5534 25.4757C19.472 25.8947 19.4248 26.3251 19.4116 26.7667C19.3976 27.195 19.4086 27.5951 19.4446 27.9669C19.4798 28.3254 19.5301 28.6029 19.5955 28.7993C19.6948 29.1138 19.7306 29.3721 19.7028 29.5742C19.6883 29.7754 19.6033 29.9142 19.4476 29.9904ZM26.1778 27.3164C25.9016 27.3867 25.7231 27.4176 25.6425 27.4091C25.5743 27.3866 25.463 27.3132 25.3085 27.189C25.0891 27.0955 24.9013 26.9734 24.7452 26.8226C24.6024 26.671 24.4924 26.5107 24.4153 26.3418C24.3508 26.1587 24.3215 26.0068 24.3275 25.8863C24.3391 25.418 24.4218 24.9121 24.5757 24.3684C24.7296 23.8247 24.9246 23.2985 25.1608 22.7899C25.397 22.2812 25.6576 21.8446 25.9427 21.4799C26.2402 21.1012 26.5321 20.8496 26.8184 20.7253C27.0781 20.6026 27.3285 20.5473 27.5697 20.5593C27.8109 20.5714 27.9916 20.6873 28.1118 20.907C28.335 21.2808 28.3034 21.5299 28.0171 21.6542C27.9772 21.6566 27.9318 21.6794 27.881 21.7226C27.8294 21.7524 27.8052 21.794 27.8084 21.8472C27.8633 21.8706 28.0101 21.8683 28.2488 21.8404C28.4868 21.7992 28.7239 21.7447 28.9602 21.6769C29.209 21.5949 29.3713 21.5183 29.4471 21.4469C29.5245 21.4021 29.5832 21.3785 29.6231 21.376C29.6631 21.3736 29.7637 21.3808 29.925 21.3977C30.1553 21.4505 30.2733 21.5235 30.279 21.6166C30.2822 21.6699 30.3054 21.7219 30.3486 21.7727C30.391 21.8102 30.4387 21.8273 30.492 21.8241C30.586 21.8317 30.5763 21.8924 30.463 22.0062C30.363 22.1191 30.1856 22.2769 29.9308 22.4794C29.6876 22.6545 29.5344 22.7707 29.4711 22.828C29.4203 22.8711 29.4193 22.9647 29.4682 23.1087C29.59 23.355 29.6145 23.6474 29.5416 23.9858C29.4687 24.3242 29.323 24.6737 29.1045 25.0343C28.8861 25.3949 28.6131 25.7388 28.2857 26.066C27.9708 26.3791 27.6269 26.6538 27.2539 26.8902C26.8934 27.1126 26.5347 27.2546 26.1778 27.3164ZM25.785 26.4587C25.8382 26.4555 25.9298 26.4232 26.0596 26.3619C26.1886 26.2872 26.2919 26.2275 26.3693 26.1827C26.4193 26.1262 26.4822 26.0623 26.558 25.9909C26.6463 25.9054 26.7166 25.8543 26.7691 25.8378C26.8223 25.8345 26.8876 25.8105 26.965 25.7657C27.0417 25.7076 27.1487 25.6009 27.2862 25.4456C27.4228 25.277 27.6016 25.0323 27.8226 24.7116C28.0709 24.4027 28.261 24.1239 28.3928 23.8754C28.5238 23.6137 28.5495 23.3783 28.47 23.1694C28.4535 23.117 28.4115 23.0862 28.3442 23.0769C28.2901 23.0669 28.2149 23.038 28.1185 22.9905C27.9854 22.9986 27.8569 22.973 27.7331 22.9138C27.6218 22.8404 27.4893 22.7483 27.3356 22.6374L26.9919 22.2576L26.6732 22.6176C26.4732 22.8435 26.2664 23.1767 26.0528 23.6172C25.8516 24.0435 25.6846 24.4812 25.5516 24.9301C25.4179 25.3657 25.3454 25.7107 25.3342 25.9652C25.333 26.1657 25.3744 26.2967 25.4583 26.3584C25.5422 26.4201 25.6511 26.4535 25.785 26.4587ZM32.1359 27.2542C32.0774 27.3913 31.98 27.4373 31.8437 27.3922C31.7207 27.3463 31.6176 27.2991 31.5345 27.2507C31.4414 27.2564 31.3599 27.2346 31.2901 27.1855C31.2203 27.1363 31.1689 27.0593 31.1358 26.9544C31.1043 26.8762 31.092 26.7834 31.0988 26.6761C31.1048 26.5556 31.1233 26.4209 31.1543 26.272C31.1979 26.1091 31.2405 25.9328 31.2824 25.7433C31.3622 25.2976 31.4159 24.9737 31.4437 24.7717C31.4715 24.5696 31.5008 24.3942 31.5319 24.2453C31.5629 24.0965 31.6031 23.8803 31.6527 23.5968C31.7429 23.3241 31.8136 23.0593 31.8648 22.8024C31.9159 22.5455 32.0003 22.2866 32.118 22.0256C32.1901 21.6739 32.2834 21.3409 32.3978 21.0267C32.5248 20.6984 32.6483 20.4237 32.7684 20.2027C32.7926 20.1611 32.8359 20.1051 32.8984 20.0345C32.9742 19.9631 33.0388 19.9258 33.092 19.9225C33.192 19.8096 33.2827 19.764 33.3642 19.7857C33.4582 19.7934 33.5749 19.8464 33.7145 19.9447C33.8847 20.108 33.9568 20.304 33.9306 20.5327C33.9178 20.7605 33.7783 21.103 33.5123 21.56C33.3777 21.9823 33.2532 22.3505 33.1388 22.6647C33.0235 22.9656 32.9474 23.2508 32.9103 23.5202C33.0438 23.2984 33.1917 23.0957 33.3542 22.9121C33.5292 22.7144 33.6729 22.5521 33.7854 22.425C34.0603 22.1144 34.2869 21.8868 34.4651 21.7424C34.6567 21.5972 34.8803 21.4299 35.1359 21.2407C35.2891 21.1245 35.4365 21.022 35.578 20.9333C35.7187 20.8312 35.8744 20.7549 36.045 20.7045C36.2289 20.6532 36.4285 20.641 36.6439 20.668C36.7761 20.6466 36.885 20.68 36.9706 20.7683C37.0694 20.8558 37.1503 20.9778 37.2133 21.1343C37.2762 21.2907 37.3208 21.475 37.3471 21.6871C37.037 21.6392 36.7649 21.6692 36.5311 21.7769C36.2964 21.8713 36.0962 21.9837 35.9304 22.114C35.778 22.2435 35.6573 22.3444 35.5682 22.4166C35.3766 22.5619 35.1347 22.7569 34.8424 23.0018C34.5493 23.2334 34.259 23.5116 33.9715 23.8363C33.7482 24.1171 33.5556 24.3559 33.394 24.5527C33.2456 24.7488 33.1227 24.9232 33.0251 25.0761C32.9409 25.2282 32.877 25.3857 32.8335 25.5486C32.719 25.8628 32.5995 26.2041 32.475 26.5723C32.3505 26.9406 32.2375 27.1678 32.1359 27.2542ZM39.7276 26.7719C39.1956 26.5905 38.8384 26.3184 38.656 25.9555C38.4861 25.5784 38.4234 24.9878 38.468 24.1836C38.4695 23.7694 38.4661 23.4958 38.458 23.3627C38.4499 23.2296 38.3686 23.101 38.2141 22.9768C38.171 22.926 38.0933 22.8573 37.9812 22.7706C37.8823 22.6831 37.8376 22.6057 37.8468 22.5383C37.8278 22.446 37.8284 22.3458 37.8485 22.2377C37.8679 22.1163 37.9041 22.054 37.9574 22.0507C38.0106 22.0475 38.063 22.0309 38.1146 22.0011C38.1796 21.9704 38.2395 21.9668 38.2943 21.9901C38.3475 21.9869 38.4078 21.9899 38.4752 21.9992C38.5426 22.0084 38.5778 22.0397 38.5811 22.0929C38.64 22.1828 38.7273 22.1909 38.843 22.117C38.958 22.0299 39.0739 21.8492 39.1907 21.5749C39.3109 21.3538 39.4709 21.1304 39.6709 20.9045C39.8842 20.6777 40.092 20.4714 40.2944 20.2854C40.5093 20.0853 40.6875 19.9409 40.829 19.8521C40.894 19.8214 40.9918 19.7821 41.1224 19.7341C41.2531 19.686 41.3908 19.6443 41.5356 19.6087C41.6936 19.5724 41.8263 19.5576 41.9336 19.5644C42.174 19.5632 42.3777 19.6176 42.5447 19.7276C42.725 19.8368 42.8932 19.9669 43.0493 20.1177C43.2296 20.2269 43.3458 20.3801 43.3979 20.5773C43.4633 20.7737 43.4895 20.9858 43.4767 21.2137C43.4639 21.4416 43.4165 21.6515 43.3347 21.8435C43.3029 21.979 43.1995 22.1456 43.0245 22.3433C42.8495 22.5409 42.6475 22.7336 42.4185 22.9212C42.1895 23.1088 41.9776 23.2486 41.7828 23.3406C41.6123 23.3911 41.388 23.4381 41.1102 23.4817C40.8456 23.5246 40.5936 23.5533 40.354 23.5679C40.127 23.5683 39.9723 23.551 39.89 23.516C39.7936 23.4684 39.7249 23.5461 39.6838 23.7489C39.6427 23.9518 39.6202 24.2404 39.6163 24.6146C39.6075 24.909 39.6205 25.122 39.6552 25.2534C39.6899 25.3849 39.7222 25.4765 39.752 25.5281C39.8509 25.6156 39.9846 25.7276 40.1532 25.8643C40.3343 25.9869 40.5751 25.9922 40.8755 25.8804C41.1244 25.7985 41.36 25.6105 41.5826 25.3164C41.8184 25.0215 42.0375 24.7811 42.2399 24.5951C42.2875 24.4987 42.3708 24.4402 42.4897 24.4196C42.6212 24.3849 42.7614 24.383 42.9102 24.4141C43.0622 24.4983 43.129 24.6078 43.1105 24.7425C43.1045 24.8631 43.0493 25.0534 42.9449 25.3136C42.9107 25.4092 42.8248 25.5346 42.6873 25.69C42.5623 25.8311 42.4178 25.9802 42.2537 26.1371C42.1021 26.28 41.9622 26.3953 41.834 26.4833C41.4477 26.7205 41.0819 26.8564 40.7367 26.8907C40.3907 26.9118 40.0543 26.8722 39.7276 26.7719ZM40.6586 22.6476C40.9474 22.5633 41.1775 22.5025 41.3488 22.4654C41.5202 22.4282 41.6821 22.3449 41.8345 22.2154C41.9861 22.0726 42.1708 21.8142 42.3885 21.4403C42.4328 21.2906 42.4372 21.1434 42.4016 20.9986C42.3794 20.8531 42.3401 20.7553 42.2836 20.7053C42.1557 20.5795 42.0069 20.5485 41.8371 20.6122C41.6798 20.6619 41.5312 20.7444 41.3913 20.8598C41.3006 20.9054 41.1669 21.0137 40.9903 21.1848C40.8262 21.3417 40.6638 21.5253 40.5029 21.7354C40.3412 21.9323 40.212 22.1138 40.1153 22.28C40.0186 22.4462 39.9976 22.541 40.0525 22.5643C40.0291 22.6192 40.1043 22.648 40.2781 22.6508C40.4653 22.6527 40.5921 22.6517 40.6586 22.6476ZM49.9195 26.5319C49.8106 26.4985 49.6926 26.4255 49.5656 26.313C49.4377 26.1872 49.3285 26.0403 49.2382 25.8721C49.1478 25.704 49.0981 25.5467 49.0892 25.4003C49.1468 25.2499 49.2179 24.9917 49.3025 24.6259C49.3863 24.2468 49.4935 23.8128 49.624 23.324C49.7215 23.1711 49.7909 22.9932 49.8319 22.7903C49.8863 22.5867 49.9353 22.4033 49.9788 22.2404C50.0723 22.021 50.1821 21.7404 50.3082 21.3988C50.4336 21.0439 50.5522 20.6893 50.6643 20.3352C50.7888 19.967 50.897 19.6598 50.9888 19.4138C51.14 19.0439 51.2665 18.7089 51.3685 18.4088C51.4829 18.0946 51.5907 17.7808 51.6918 17.4674C51.8063 17.1532 51.9258 16.812 52.0503 16.4438C52.1873 16.0614 52.3239 15.6724 52.4601 15.2767C52.6096 14.8802 52.7349 14.5253 52.8361 14.2119C52.9497 13.8844 53.0158 13.6533 53.0343 13.5186C53.0278 13.4121 53.0429 13.331 53.0796 13.2753C53.1296 13.2189 53.1812 13.189 53.2345 13.1858C53.2844 13.1293 53.3361 13.0994 53.3893 13.0962C53.4417 13.0796 53.4945 13.0697 53.5478 13.0665C53.601 13.0633 53.7069 13.157 53.8655 13.3477C54.0373 13.5376 54.1281 13.7124 54.1378 13.8721C54.1508 14.0851 54.0686 14.4908 53.8914 15.0894C53.7274 15.6871 53.4818 16.37 53.1545 17.1379C52.762 18.1503 52.4454 18.9844 52.2049 19.6403C51.9635 20.2828 51.7993 20.767 51.7122 21.0929C51.6244 21.4055 51.595 21.5809 51.6241 21.6192C51.6241 21.6192 51.7148 21.5736 51.8963 21.4824C52.0769 21.3779 52.2688 21.2394 52.4721 21.0667C52.6136 20.9779 52.7672 20.8684 52.9329 20.7381C53.0987 20.6077 53.2581 20.4845 53.4113 20.3683C53.5638 20.2388 53.6924 20.1575 53.7972 20.1244C53.9505 20.0082 54.1107 19.8983 54.2781 19.7946C54.4446 19.6776 54.5529 19.5908 54.6029 19.5343C54.8226 19.4141 54.987 19.3707 55.0959 19.4041C55.2181 19.4368 55.3439 19.5293 55.4734 19.6817C55.6304 19.8458 55.6663 19.9972 55.5812 20.136C55.4954 20.2614 55.2859 20.4412 54.9528 20.6752C54.6839 20.8652 54.3571 21.0922 53.9724 21.356C53.6011 21.6191 53.268 21.8531 52.9732 22.0581C52.6918 22.2622 52.5323 22.3855 52.4948 22.4278C52.4948 22.4278 52.5541 22.5244 52.6728 22.7175C52.7914 22.9107 52.9088 23.0839 53.025 23.2371C53.1444 23.4435 53.2697 23.6363 53.4008 23.8153C53.5445 23.9802 53.6183 24.0959 53.6223 24.1625C53.7939 24.5661 54.0317 24.8522 54.3358 25.0207C54.64 25.1892 54.9473 25.1905 55.2578 25.0247C55.5175 24.902 55.7084 24.857 55.8306 24.8896C55.9661 24.9214 56.0654 25.0156 56.1283 25.172C56.1881 25.2753 56.2062 25.3543 56.1829 25.4092C56.172 25.4499 56.0916 25.555 55.9416 25.7244C55.7041 25.9927 55.4543 26.1682 55.1922 26.2509C54.9434 26.3329 54.7093 26.3271 54.4898 26.2336C54.291 26.2591 54.0371 26.1476 53.7281 25.8993C53.4183 25.6376 52.9691 25.1707 52.3805 24.4986C52.3772 24.4454 52.3462 24.3738 52.2873 24.2839C52.2408 24.1798 52.1882 24.0828 52.1293 23.9929C52.0696 23.8897 51.9961 23.7806 51.909 23.6657C51.821 23.5375 51.7771 23.4734 51.7771 23.4734C51.7738 23.4201 51.7502 23.3615 51.7062 23.2974C51.6622 23.2332 51.6041 23.1566 51.5319 23.0675C51.3149 23.0139 51.1643 23.0632 51.0801 23.2153C50.9958 23.3673 50.9053 23.5265 50.8086 23.6926C50.7526 23.8697 50.6811 24.1212 50.594 24.4471C50.5195 24.7589 50.4579 25.0632 50.4092 25.36C50.3738 25.656 50.3726 25.8565 50.4057 25.9613C50.4187 26.1743 50.3943 26.3227 50.3327 26.4066C50.2702 26.4772 50.1325 26.519 49.9195 26.5319ZM63.1512 25.5859C63.0181 25.5941 62.8739 25.5294 62.7186 25.3919C62.5766 25.2536 62.4459 25.0812 62.3264 24.8748C62.2195 24.6542 62.1599 24.4441 62.1478 24.2445C62.1356 24.0448 62.1595 23.6693 62.2194 23.118C62.2927 22.5659 62.3855 22.0059 62.4978 21.438C62.5832 21.0855 62.6044 20.8838 62.5612 20.833C62.518 20.7822 62.3428 20.8664 62.0356 21.0854C61.8549 21.1899 61.6946 21.2999 61.5547 21.4153C61.414 21.5173 61.294 21.6315 61.1949 21.7578C61.1316 21.8151 61.037 21.9076 60.9112 22.0355C60.7854 22.1634 60.6526 22.285 60.5127 22.4004C60.3478 22.5441 60.1395 22.7437 59.8879 22.9995C59.6363 23.2553 59.3848 23.511 59.1332 23.7668C58.8949 24.0218 58.7133 24.2198 58.5883 24.361C58.5649 24.4159 58.5278 24.4649 58.477 24.5081C58.4262 24.5512 58.3679 24.5815 58.3022 24.5988C58.2357 24.6029 58.1617 24.594 58.0802 24.5723C57.9314 24.5413 57.7863 24.4633 57.6452 24.3383C57.5173 24.2125 57.4481 24.0631 57.4375 23.8901C57.4294 23.757 57.4689 23.5275 57.5559 23.2016C57.6421 22.8624 57.7575 22.4547 57.9022 21.9783C58.0601 21.5012 58.2431 20.9958 58.4511 20.4622C58.4869 20.3932 58.5153 20.3113 58.5363 20.2165C58.5564 20.1084 58.5695 19.9941 58.5755 19.8735C58.5948 19.7521 58.6012 19.6382 58.5948 19.5317C58.5907 19.4652 58.5933 19.3982 58.6026 19.3309C58.6243 19.2494 58.6465 19.1746 58.669 19.1064C58.7041 19.0241 58.7341 18.9689 58.7591 18.9406C58.8059 18.8309 58.8974 18.7986 59.0338 18.8437C59.1693 18.8756 59.2881 18.9618 59.3901 19.1026C59.6011 19.2767 59.7151 19.5035 59.7321 19.783C59.7625 20.0617 59.717 20.4118 59.5957 20.8333C59.5482 20.9297 59.5073 21.0257 59.473 21.1213C59.4512 21.2027 59.4291 21.2775 59.4065 21.3457C59.3831 21.4006 59.366 21.4484 59.3551 21.4891C59.3435 21.5165 59.3376 21.5302 59.3376 21.5302C59.3908 21.527 59.507 21.4598 59.686 21.3287C59.865 21.1976 60.0765 21.0511 60.3205 20.8893C60.5112 20.7308 60.6761 20.5871 60.8152 20.4584C60.9668 20.3156 61.0938 20.2077 61.1962 20.1347C61.2978 20.0484 61.3619 20.0044 61.3886 20.0028C61.4418 19.9995 61.5071 19.9755 61.5845 19.9307C61.662 19.8859 61.7257 19.8353 61.7757 19.7788C61.8257 19.7223 61.864 19.6933 61.8906 19.6917C61.9297 19.6759 61.9493 19.6681 61.9493 19.6681C61.9493 19.6681 61.9759 19.6664 62.0291 19.6632C62.0815 19.6466 62.1327 19.6101 62.1827 19.5537C62.2843 19.4673 62.4229 19.4388 62.5983 19.4682C62.7729 19.4843 62.9367 19.5411 63.0896 19.6387C63.2425 19.7362 63.3229 19.8516 63.3311 19.9847C63.3343 20.0379 63.3504 20.0837 63.3795 20.122C63.421 20.1462 63.4418 20.1582 63.4418 20.1582C63.5483 20.1518 63.625 20.3141 63.6718 20.6452C63.732 20.9755 63.7182 21.2969 63.6304 21.6095C63.6425 21.8091 63.6172 22.0511 63.5543 22.3354C63.5048 22.619 63.4611 22.8888 63.4233 23.1449C63.3371 23.4841 63.2817 23.7813 63.2572 24.0366C63.2327 24.2919 63.239 24.5053 63.2761 24.6767C63.3133 24.8481 63.3684 24.985 63.4414 25.0874C63.5003 25.1773 63.5068 25.2838 63.4609 25.4068C63.4141 25.5165 63.3109 25.5762 63.1512 25.5859ZM67.3237 25.2718C67.1507 25.2823 67.0089 25.2575 66.8984 25.1975C66.8012 25.1366 66.6757 25.0507 66.522 24.9399C66.253 24.6891 66.0579 24.4472 65.9368 24.2141C65.815 23.9677 65.7671 23.7302 65.7933 23.5015C65.8267 23.3926 65.8339 23.292 65.815 23.1996C65.8085 23.0932 65.8052 23.0399 65.8052 23.0399C65.7346 22.9774 65.7122 22.9387 65.7381 22.9238C65.763 22.8956 65.7872 22.854 65.8106 22.7991C65.8905 22.7943 65.9126 22.7195 65.8771 22.5747C65.844 22.4698 65.883 22.2337 65.9942 21.8663C66.1055 21.4988 66.2511 21.1493 66.4313 20.8178C66.5031 20.6798 66.6123 20.4995 66.7591 20.2768C66.905 20.0409 67.0646 19.8107 67.238 19.5865C67.4238 19.348 67.5926 19.1574 67.7442 19.0146C68.0599 18.7149 68.3401 18.4908 68.5848 18.3423C68.8296 18.1938 69.0964 18.0774 69.3851 17.993C69.6738 17.9086 69.8714 17.8632 69.9779 17.8567C70.0977 17.8494 70.2639 17.9462 70.4765 18.147C70.7907 18.2614 71.02 18.4077 71.1644 18.5859C71.3222 18.7634 71.4319 19.0305 71.4937 19.3874C71.558 19.7842 71.5527 20.2454 71.4778 20.7709C71.4154 21.2823 71.1412 21.9335 70.655 22.7246C70.3515 23.2239 70.0673 23.6019 69.8024 23.8585C69.5367 24.1017 69.2177 24.3483 68.8456 24.598C68.5774 24.8013 68.3331 24.9565 68.1125 25.0634C67.8911 25.1571 67.6282 25.2265 67.3237 25.2718ZM69.1113 23.039C69.4088 22.6602 69.641 22.3054 69.8079 21.9747C69.9881 21.6431 70.1497 21.2258 70.2927 20.7229C70.337 20.5732 70.3594 20.3916 70.3597 20.1778C70.3592 19.9507 70.34 19.7449 70.302 19.5602C70.2766 19.3613 70.2231 19.2511 70.1416 19.2293C69.9763 19.1459 69.7817 19.131 69.5578 19.1847C69.3332 19.2251 69.0947 19.3665 68.8423 19.609C68.4508 19.9801 68.1178 20.4345 67.8433 20.9722C67.568 21.4966 67.3038 22.0938 67.0507 22.7637C66.8803 23.255 66.8572 23.6438 66.9815 23.9301C67.1183 24.2023 67.3706 24.2871 67.7384 24.1845C68.1187 24.0679 68.5763 23.686 69.1113 23.039ZM78.7562 24.2951C78.6506 24.3149 78.5072 24.2635 78.3261 24.1409C78.145 24.0184 77.9693 23.8755 77.7991 23.7122C77.6679 23.5331 77.5495 23.2331 77.4437 22.8121C77.3512 22.3903 77.2779 21.9539 77.2237 21.503C76.8734 22.1121 76.5566 22.6123 76.2732 23.0036C75.9898 23.3949 75.7281 23.7047 75.4882 23.933C75.2608 24.1472 75.0427 24.2941 74.8338 24.3736C74.7164 24.4208 74.6166 24.4269 74.5343 24.3919C74.4512 24.3435 74.3802 24.2743 74.3213 24.1844C74.2624 24.0945 74.1936 23.9518 74.1149 23.7562C74.0487 23.5465 74.0154 23.3281 74.0149 23.101C73.9713 22.8232 73.9252 22.5054 73.8767 22.1477C73.8415 21.7892 73.8067 21.4373 73.7724 21.0921C73.7505 20.7327 73.7377 20.4129 73.734 20.1326C73.7303 19.8523 73.7455 19.6644 73.7798 19.5688C73.7632 19.5164 73.7533 19.4635 73.7501 19.4103C73.7469 19.3571 73.7452 19.3305 73.7452 19.3305C73.7013 19.2663 73.6724 19.1212 73.6586 18.8949C73.6573 18.6546 73.6698 18.42 73.6959 18.1914C73.7221 17.9627 73.7468 17.8209 73.7702 17.7661C73.7936 17.7112 73.8244 17.6692 73.8627 17.6402C73.9143 17.6103 73.973 17.5867 74.0387 17.5694C74.2408 17.5971 74.3521 17.6705 74.3727 17.7895C74.4143 17.8137 74.4566 17.8512 74.4998 17.902C74.5422 17.9394 74.5895 17.9499 74.642 17.9334C74.6835 17.9576 74.7174 18.0757 74.7437 18.2878C74.7833 18.4992 74.8116 18.7446 74.8286 19.024C74.8234 19.1579 74.8311 19.2844 74.8517 19.4033C74.8723 19.5223 74.8721 19.6292 74.8512 19.724C74.8552 19.7905 74.8708 19.9365 74.8979 20.1619C74.9242 20.3741 74.9509 20.5928 74.9779 20.8183C74.9885 20.9913 74.996 21.2246 75.0005 21.5182C75.0042 21.7985 75.0118 22.0318 75.0231 22.2181C75.0792 22.4819 75.1231 22.6529 75.1545 22.7311C75.1985 22.7952 75.2588 22.7982 75.3354 22.7401C75.4136 22.7086 75.5428 22.5271 75.723 22.1955C75.9165 21.8632 76.1384 21.4489 76.3887 20.9528C76.5822 20.6204 76.7453 20.3366 76.8779 20.1015C77.023 19.8522 77.1447 19.6578 77.2431 19.5182C77.2636 19.1964 77.2861 18.9078 77.3106 18.6525C77.3485 18.3964 77.3708 18.2147 77.3776 18.1074C77.5526 17.9098 77.7125 17.7932 77.8572 17.7576C78.0012 17.7088 78.1254 17.7747 78.2299 17.9553C78.3663 18.0005 78.4514 18.0821 78.4853 18.2003C78.5317 18.3043 78.5461 18.4303 78.5284 18.5783C78.4865 18.7679 78.4442 18.9508 78.4015 19.1271C78.3721 19.3025 78.3364 19.485 78.2946 19.6746C78.2527 19.8641 78.231 20.166 78.2295 20.5802C78.2413 20.9936 78.2664 21.4062 78.3049 21.8179C78.3425 22.2164 78.394 22.5138 78.4594 22.7102C78.48 22.8291 78.5502 22.885 78.6699 22.8777C78.8022 22.8563 78.9629 22.753 79.152 22.5678C79.3387 22.3427 79.542 22.0632 79.7622 21.7292C79.9948 21.3811 80.1891 21.062 80.345 20.772C80.5144 20.4812 80.597 20.3025 80.5929 20.2359C80.5864 20.1295 80.6062 20.0147 80.6521 19.8917C80.6972 19.7554 80.7577 19.6515 80.8335 19.5801C80.8952 19.4962 80.9303 19.4139 80.9387 19.3332C80.9463 19.2393 80.9673 19.1445 81.0015 19.0489C81.0132 19.0215 81.0308 18.9803 81.0541 18.9255C81.0775 18.8706 81.0942 18.8162 81.1043 18.7621C81.0587 18.6714 81.0804 18.5899 81.1696 18.5177C81.2712 18.4314 81.3328 18.3475 81.3546 18.266C81.3707 18.0914 81.4378 17.9871 81.556 17.9532C81.6866 17.9051 81.8147 17.9241 81.9401 18.0099C82.0781 18.0817 82.159 18.2036 82.1828 18.3758C82.1925 18.5356 82.1535 18.7717 82.0657 19.0843C81.9911 19.3961 81.8779 19.7302 81.726 20.0868C81.5873 20.4425 81.4267 20.7662 81.2441 21.0579C81.1973 21.1676 81.1506 21.2773 81.1038 21.387C81.0704 21.4959 81.0057 21.6401 80.9098 21.8196C80.8138 21.9991 80.6429 22.2633 80.397 22.6122C80.3236 22.7236 80.2374 22.8424 80.1382 22.9686C80.0515 23.0808 79.9578 23.1866 79.857 23.2863C79.6486 23.5929 79.456 23.8317 79.2794 24.0027C79.1162 24.173 78.9418 24.2704 78.7562 24.2951ZM84.2756 23.9189C84.0744 23.9044 83.8928 23.7752 83.7311 23.5313C83.5818 23.2732 83.4873 23.0385 83.4477 22.8272C83.4546 22.7199 83.4585 22.5661 83.4597 22.3656C83.4742 22.1644 83.4882 21.9565 83.5019 21.7419C83.5397 21.4858 83.5943 21.1752 83.6655 20.8102C83.736 20.4319 83.8065 20.0536 83.877 19.6753C83.9607 19.2962 84.0344 18.9711 84.0981 18.7C84.1617 18.429 84.2052 18.2661 84.2286 18.2112C84.2887 18.1007 84.3935 18.0676 84.5432 18.1119C84.6928 18.1562 84.8174 18.2288 84.9171 18.3296C85.0034 18.4312 85.0577 18.5548 85.0799 18.7004C85.1155 18.8451 85.1085 19.0593 85.0589 19.3428C85.0227 19.6255 84.9414 20.0446 84.8149 20.6C84.7009 21.1412 84.6141 21.5807 84.5545 21.9182C84.5074 22.2417 84.5015 22.5827 84.5367 22.9412C84.511 23.397 84.4881 23.6789 84.468 23.787C84.447 23.8817 84.3829 23.9257 84.2756 23.9189ZM86.0863 15.8138C86.0355 15.857 85.9835 15.8802 85.9303 15.8835C85.8895 15.8726 85.8139 15.8371 85.7034 15.7771C85.6094 15.7694 85.486 15.7168 85.3331 15.6193C85.1927 15.5076 85.0657 15.3951 84.9519 15.2818C84.8506 15.1544 84.7992 15.0774 84.7976 15.0508C84.7762 14.9185 84.7727 14.7517 84.7871 14.5505C84.8141 14.3351 84.876 14.1443 84.9727 13.9781C85.0686 13.7986 85.216 13.6962 85.4148 13.6707C85.4681 13.6675 85.515 13.6713 85.5558 13.6822C85.5965 13.693 85.7191 13.7323 85.9236 13.8C86.0423 13.9932 86.1625 14.2129 86.2844 14.4593C86.4054 14.6924 86.4666 14.9291 86.4679 15.1695C86.4683 15.3965 86.3412 15.6113 86.0863 15.8138ZM94.0497 23.0232C93.7835 23.0394 93.5607 22.9995 93.3812 22.9036C93.2009 22.7943 93.0428 22.6103 92.9068 22.3514C92.8422 22.1683 92.783 21.9649 92.7293 21.741C92.6881 21.5031 92.6615 21.2843 92.6493 21.0847C92.6363 20.8717 92.6478 20.7308 92.6837 20.6618C92.7337 20.6053 92.7479 20.511 92.7265 20.3787C92.7176 20.2323 92.7083 20.0792 92.6986 19.9195C92.6691 19.6542 92.5936 19.5118 92.4722 19.4925C92.3633 19.4591 92.206 19.5087 92.0004 19.6415C91.7697 19.8024 91.4691 20.0211 91.0986 20.2975C90.7272 20.5605 90.3375 20.8514 89.9295 21.1702C89.5347 21.4881 89.1608 21.8181 88.8076 22.1602C88.5342 22.4974 88.3696 22.7546 88.3135 22.9316C88.27 23.0946 88.195 23.1793 88.0886 23.1858C87.9854 23.2455 87.8926 23.2578 87.8103 23.2228C87.7405 23.1736 87.6359 23.0998 87.4963 23.0014C87.3966 22.9006 87.2974 22.8065 87.1986 22.719C87.0989 22.6182 87.0342 22.542 87.0043 22.4904C87.0003 22.4239 87.0117 22.2829 87.0387 22.0675C87.0656 21.8522 87.0992 21.6364 87.1395 21.4202C87.1931 21.2032 87.2312 21.0606 87.2537 20.9925C87.3203 20.9884 87.3695 20.9186 87.4013 20.7831C87.4464 20.6468 87.5173 20.4955 87.6141 20.3293C87.631 20.168 87.6846 19.951 87.7748 19.6784C87.8776 19.3916 87.9691 19.1389 88.0492 18.9203C88.2161 18.5895 88.3263 18.3157 88.3799 18.0987C88.4468 17.8809 88.4838 17.6115 88.491 17.2904C88.4744 17.238 88.4849 17.1906 88.5224 17.1482C88.5591 17.0926 88.6041 17.0631 88.6573 17.0599C88.7573 16.9469 88.8821 16.9126 89.0317 16.9569C89.1806 16.9879 89.3197 17.0797 89.4492 17.2321C89.7082 17.5369 89.8216 17.8639 89.7895 18.2132C89.7698 18.5484 89.5861 19.0404 89.2382 19.6894C89.158 19.9081 89.0949 20.0789 89.049 20.2019C89.0155 20.3108 89.0009 20.3985 89.0049 20.4651C89.0049 20.4651 89.0686 20.4144 89.196 20.3132C89.3367 20.2111 89.49 20.0949 89.6557 19.9646C89.8339 19.8201 89.9742 19.7114 90.0766 19.6384C90.1391 19.5678 90.2849 19.4387 90.5139 19.2511C90.7429 19.0635 90.9857 18.8817 91.2421 18.7058C91.5111 18.5158 91.7113 18.4034 91.8427 18.3687C91.946 18.309 92.0562 18.2555 92.1736 18.2083C92.2901 18.1478 92.375 18.1159 92.4283 18.1126C92.5347 18.1061 92.6715 18.1579 92.8385 18.268C93.0179 18.3639 93.1858 18.4873 93.3419 18.6381C93.4972 18.7756 93.5914 18.8967 93.6245 19.0016C93.6277 19.0548 93.631 19.108 93.6342 19.1613C93.6508 19.2137 93.6673 19.2661 93.6839 19.3185C93.7476 19.4883 93.7884 19.7196 93.8063 20.0124C93.8374 20.3044 93.847 20.5709 93.8349 20.8121C93.8229 21.0533 93.7848 21.1959 93.7207 21.2399C93.7207 21.2399 93.7219 21.2598 93.7244 21.2997C93.7393 21.3255 93.7734 21.3368 93.8266 21.3336C93.8299 21.3868 93.8319 21.4201 93.8327 21.4334C93.7661 21.4375 93.7432 21.499 93.7638 21.6179C93.7836 21.7236 93.8308 21.8409 93.9054 21.97C93.9934 22.0982 94.0797 22.1998 94.1644 22.2748C94.3339 22.4248 94.4097 22.5738 94.392 22.7218C94.3735 22.8565 94.2594 22.957 94.0497 23.0232ZM97.9713 27.473C97.8258 27.4952 97.5975 27.4757 97.2865 27.4145C96.9889 27.3525 96.7648 27.2927 96.6144 27.2351C96.4333 27.1125 96.2493 26.9434 96.0625 26.7277C95.8757 26.512 95.7218 26.2876 95.6007 26.0545C95.4938 25.8339 95.4433 25.6633 95.4494 25.5427C95.4562 25.4355 95.5548 25.4094 95.7452 25.4646C95.9488 25.519 96.0872 25.5974 96.1602 25.6998C96.2889 25.8389 96.4372 25.9702 96.605 26.0935C96.7728 26.2169 96.9386 26.307 97.1023 26.3638C97.2669 26.4339 97.3953 26.4595 97.4877 26.4405C97.8172 26.367 98.0799 26.184 98.2758 25.8916C98.4858 25.6116 98.6648 25.2601 98.8127 24.837C98.9013 24.5377 98.9662 24.2867 99.0073 24.0838C99.0625 23.8934 99.1094 23.6768 99.148 23.434C99.2 23.1904 99.2596 22.8528 99.3268 22.4213C99.4174 21.9349 99.4766 21.5907 99.5044 21.3886C99.5446 21.1724 99.5627 21.031 99.5587 20.9645C99.5546 20.898 99.5318 20.8526 99.4903 20.8284C99.4903 20.8284 99.4066 20.8803 99.2393 20.984C99.0719 21.0877 98.885 21.1992 98.6786 21.3187C98.4854 21.4373 98.3377 21.5331 98.2352 21.6061C97.8699 21.7486 97.5084 21.8441 97.1506 21.8926C96.7929 21.9411 96.5122 21.9381 96.3085 21.8838C96.213 21.8495 96.1075 21.7624 95.9921 21.6225C95.89 21.4818 95.8004 21.3269 95.7233 21.158C95.6588 20.9749 95.6291 20.8164 95.6343 20.6825C95.6411 20.5752 95.6913 20.4119 95.7848 20.1925C95.8783 19.973 95.9843 19.7395 96.1028 19.4918C96.2346 19.2434 96.3489 19.036 96.4456 18.8698C96.5549 18.6895 96.6228 18.5986 96.6494 18.597C96.7026 18.5937 96.728 18.5721 96.7256 18.5322C96.7365 18.4915 96.7403 18.4445 96.7371 18.3912C96.7471 18.3372 96.8401 18.218 97.0158 18.0336C97.2041 17.8352 97.4565 17.5927 97.773 17.3063C98.2129 16.852 98.6123 16.5004 98.9711 16.2515C99.33 16.0026 99.6683 15.8551 99.9861 15.809C100.08 15.8166 100.167 15.818 100.247 15.8132C100.34 15.8075 100.387 15.8046 100.387 15.8046C100.387 15.8046 100.428 15.8288 100.511 15.8772C100.607 15.9115 100.73 15.9574 100.88 16.015C101.085 16.0827 101.273 16.2115 101.445 16.4014C101.616 16.578 101.756 16.7899 101.864 17.0371C101.985 17.2702 102.06 17.5061 102.088 17.7448C102.092 18.0384 102.043 18.3286 101.94 18.6154C101.851 18.9014 101.752 19.0409 101.645 19.0341C101.538 19.0273 101.408 19.082 101.254 19.1982C101.115 19.3136 101.046 19.3979 101.049 19.4511C101.053 19.5043 101.037 19.5721 101.002 19.6544C100.98 19.7358 100.901 19.8675 100.765 20.0495C100.756 20.1168 100.727 20.2989 100.678 20.5958C100.642 20.8785 100.595 21.202 100.537 21.5662C100.479 21.9303 100.426 22.2609 100.377 22.5577C100.341 22.8404 100.318 23.0221 100.31 23.1028C100.3 23.1568 100.274 23.2786 100.232 23.4682C100.203 23.6436 100.155 23.8469 100.089 24.078C100.036 24.3083 99.9759 24.5257 99.9082 24.7302C99.8785 25.1194 99.8227 25.41 99.7409 25.602C99.6732 25.8065 99.5531 26.0275 99.3805 26.2651C99.2012 26.61 98.9774 26.8841 98.7093 27.0875C98.4419 27.3041 98.196 27.4326 97.9713 27.473ZM96.7444 20.8153C96.7791 20.9468 96.9616 20.9824 97.2919 20.9222C97.6214 20.8487 97.9472 20.7153 98.2694 20.5221C98.5533 20.3578 98.8122 20.2218 99.046 20.1141C99.2799 20.0063 99.4382 19.8631 99.5208 19.6844C99.5926 19.5465 99.651 19.4094 99.6961 19.273C99.7413 19.1367 99.796 18.9397 99.8605 18.6819C99.8706 18.6279 99.9002 18.566 99.9494 18.4962C100.011 18.4123 100.068 18.3621 100.121 18.3455C100.173 18.329 100.226 18.3257 100.28 18.3358C100.348 18.345 100.429 18.3668 100.525 18.4011C100.59 18.3704 100.632 18.301 100.652 18.1929C100.686 18.084 100.685 17.9638 100.65 17.8324C100.631 17.74 100.557 17.6176 100.428 17.4652C100.298 17.3128 100.137 17.1957 99.9453 17.1139C99.7392 17.0196 99.5104 17.1003 99.2588 17.3561C99.0072 17.6118 98.699 17.9245 98.3341 18.294C98.045 18.5921 97.7701 18.9027 97.5092 19.2259C97.2484 19.549 97.0395 19.8489 96.8827 20.1256C96.7392 20.4015 96.6931 20.6314 96.7444 20.8153ZM108.836 22.0627C108.684 21.9784 108.543 21.8667 108.415 21.7276C108.285 21.5752 108.213 21.3793 108.198 21.1397C108.19 21.0066 108.203 20.7787 108.237 20.4561C108.271 20.1334 108.322 19.7696 108.391 19.3647C108.46 18.9598 108.53 18.5815 108.602 18.2298C108.721 17.9821 108.819 17.7357 108.898 17.4904C108.976 17.2452 109.014 17.096 109.011 17.0427C109.028 16.8814 109.05 16.6931 109.077 16.4777C109.117 16.2615 109.158 16.0653 109.201 15.889C109.244 15.7128 109.278 15.6105 109.303 15.5823C109.365 15.5117 109.443 15.4669 109.535 15.4479C109.626 15.4156 109.72 15.4233 109.817 15.4708C109.926 15.5043 110.011 15.5859 110.072 15.7158C110.228 15.8666 110.313 16.0551 110.327 16.2813C110.34 16.4943 110.286 16.8181 110.166 17.2529C110.062 17.5264 109.962 17.8464 109.864 18.2131C109.766 18.5797 109.68 18.9189 109.605 19.2307C109.543 19.5283 109.509 19.7308 109.502 19.8381L109.11 19.9822C109.323 19.7554 109.523 19.5229 109.708 19.2845C109.894 19.0328 110.029 18.8375 110.114 18.6988C110.321 18.3789 110.499 18.1143 110.646 17.9049C110.806 17.6815 111.011 17.4152 111.259 17.1062C111.506 16.7839 111.755 16.5818 112.003 16.4998C112.265 16.4038 112.469 16.3513 112.615 16.3424C112.911 16.3778 113.153 16.5167 113.342 16.759C113.543 16.9872 113.684 17.3392 113.767 17.8151C113.778 18.0014 113.771 18.2222 113.747 18.4775C113.736 18.732 113.73 18.8593 113.73 18.8593C113.73 18.8593 113.828 18.713 114.024 18.4206C114.233 18.1273 114.514 17.803 114.866 17.4476C115.108 17.2459 115.348 17.1244 115.586 17.0832C115.823 17.0287 116.04 17.0956 116.239 17.2839C116.596 17.4491 116.84 17.7215 116.97 18.1009C117.099 18.4671 117.155 18.9446 117.137 19.5334C117.118 19.8819 117.128 20.1418 117.165 20.3132C117.201 20.4713 117.251 20.6285 117.314 20.785C117.423 20.8318 117.45 20.9437 117.394 21.1207C117.337 21.2845 117.262 21.3692 117.169 21.3749C117.036 21.383 116.882 21.3657 116.705 21.323C116.542 21.2795 116.391 21.2019 116.25 21.0902C116.122 20.9644 116.052 20.7884 116.038 20.5621L115.962 19.3244C115.945 19.0316 115.917 18.7929 115.879 18.6082C115.854 18.4227 115.814 18.3116 115.758 18.2749C115.607 18.204 115.399 18.3034 115.135 18.5733C114.871 18.8432 114.592 19.2008 114.299 19.6461C114.005 20.0915 113.733 20.5489 113.481 21.0184C113.253 21.4464 113.108 21.6956 113.045 21.7662C112.995 21.8227 112.894 21.8088 112.742 21.7246C112.444 21.6493 112.25 21.5342 112.16 21.3793C112.083 21.2104 112.065 21.0178 112.105 20.8016C112.158 20.5713 112.219 20.2604 112.289 19.8687C112.372 19.4763 112.449 19.0976 112.52 18.7326C112.591 18.3543 112.634 18.0844 112.651 17.9231C112.591 17.8199 112.496 17.7923 112.366 17.8403C112.247 17.8742 112.125 17.9418 111.997 18.0431C111.844 18.1593 111.663 18.3706 111.455 18.6772C111.246 18.9838 111.034 19.3373 110.818 19.7379C110.674 20.0005 110.523 20.2635 110.365 20.5269C110.207 20.777 110.06 20.9996 109.925 21.1949C109.79 21.3901 109.672 21.5375 109.571 21.6372C109.403 21.9413 109.286 22.1087 109.221 22.1394C109.156 22.1701 109.028 22.1445 108.836 22.0627ZM120.496 21.8536C119.964 21.6722 119.607 21.4001 119.424 21.0372C119.254 20.6601 119.192 20.0695 119.236 19.2653C119.238 18.8511 119.235 18.5775 119.226 18.4444C119.218 18.3113 119.137 18.1827 118.982 18.0585C118.939 18.0077 118.862 17.939 118.75 17.8523C118.651 17.7648 118.606 17.6874 118.615 17.62C118.596 17.5277 118.597 17.4275 118.617 17.3194C118.636 17.198 118.672 17.1357 118.726 17.1324C118.779 17.1292 118.831 17.1126 118.883 17.0828C118.948 17.0521 119.008 17.0485 119.063 17.0718C119.116 17.0686 119.176 17.0716 119.244 17.0809C119.311 17.0901 119.346 17.1214 119.349 17.1746C119.408 17.2645 119.496 17.2725 119.611 17.1987C119.726 17.1116 119.842 16.9309 119.959 16.6566C120.079 16.4355 120.239 16.2121 120.439 15.9862C120.653 15.7594 120.86 15.5531 121.063 15.3671C121.278 15.167 121.456 15.0226 121.597 14.9338C121.662 14.9031 121.76 14.8638 121.891 14.8158C122.021 14.7677 122.159 14.726 122.304 14.6904C122.462 14.6541 122.595 14.6393 122.702 14.6461C122.942 14.6449 123.146 14.6993 123.313 14.8093C123.493 14.9185 123.662 15.0486 123.818 15.1994C123.998 15.3086 124.114 15.4618 124.166 15.659C124.232 15.8554 124.258 16.0675 124.245 16.2954C124.232 16.5233 124.185 16.7332 124.103 16.9252C124.071 17.0607 123.968 17.2273 123.793 17.425C123.618 17.6226 123.416 17.8153 123.187 18.0029C122.958 18.1905 122.746 18.3303 122.551 18.4223C122.381 18.4728 122.156 18.5198 121.879 18.5634C121.614 18.6063 121.362 18.635 121.122 18.6496C120.895 18.65 120.741 18.6327 120.658 18.5977C120.562 18.5501 120.493 18.6278 120.452 18.8306C120.411 19.0335 120.389 19.3221 120.385 19.6963C120.376 19.9907 120.389 20.2037 120.424 20.3351C120.458 20.4666 120.491 20.5582 120.52 20.6098C120.619 20.6973 120.753 20.8093 120.922 20.946C121.103 21.0686 121.343 21.0739 121.644 20.9621C121.893 20.8802 122.128 20.6922 122.351 20.3981C122.587 20.1032 122.806 19.8628 123.008 19.6768C123.056 19.5804 123.139 19.5219 123.258 19.5013C123.39 19.4666 123.53 19.4647 123.679 19.4958C123.831 19.58 123.897 19.6895 123.879 19.8242C123.873 19.9448 123.818 20.1351 123.713 20.3953C123.679 20.4909 123.593 20.6163 123.456 20.7717C123.331 20.9128 123.186 21.0619 123.022 21.2188C122.87 21.3617 122.731 21.477 122.602 21.565C122.216 21.8022 121.85 21.9381 121.505 21.9724C121.159 21.9935 120.823 21.9539 120.496 21.8536ZM121.427 17.7293C121.716 17.645 121.946 17.5842 122.117 17.5471C122.289 17.5099 122.45 17.4266 122.603 17.2971C122.755 17.1543 122.939 16.8959 123.157 16.522C123.201 16.3723 123.206 16.2251 123.17 16.0803C123.148 15.9348 123.108 15.837 123.052 15.787C122.924 15.6612 122.775 15.6302 122.605 15.6939C122.448 15.7436 122.3 15.8261 122.16 15.9415C122.069 15.9871 121.935 16.0954 121.759 16.2665C121.595 16.4234 121.432 16.607 121.271 16.8171C121.11 17.014 120.98 17.1955 120.884 17.3617C120.787 17.5279 120.766 17.6227 120.821 17.646C120.797 17.7009 120.873 17.7297 121.046 17.7325C121.234 17.7344 121.36 17.7334 121.427 17.7293ZM6.23925 54.198C6.09123 54.1803 5.93373 54.1164 5.76673 54.0064C5.61223 53.8822 5.47023 53.7439 5.34072 53.5915C5.22372 53.425 5.1412 53.2764 5.09317 53.1457C5.09155 53.1191 5.06956 53.0871 5.0272 53.0496C4.99816 53.0113 4.98363 52.9921 4.98363 52.9921C4.92796 52.9554 4.88416 52.7844 4.85221 52.4792C4.83276 52.1597 4.83125 51.8059 4.84767 51.4175C4.86409 51.0291 4.89204 50.7201 4.93149 50.4907C4.98507 50.2737 5.06746 49.9815 5.17867 49.614C5.28906 49.2333 5.38192 48.8937 5.45726 48.5952L5.92575 47.4045L5.11386 47.2336C5.01908 47.2126 4.93598 47.1642 4.86458 47.0884C4.80648 47.0118 4.77581 46.9469 4.77257 46.8937C4.76609 46.7872 4.81828 46.6571 4.92914 46.5034C5.03919 46.3364 5.12084 46.2513 5.17407 46.2481C5.24142 46.2573 5.36161 46.2567 5.53462 46.2462C5.72094 46.2348 5.9002 46.2172 6.07241 46.1934C6.24461 46.1695 6.35027 46.1497 6.38938 46.134C6.441 46.1041 6.49221 46.0676 6.54301 46.0245C6.593 45.968 6.62847 45.8923 6.64942 45.7976C6.70705 45.6471 6.75883 45.5104 6.80477 45.3874C6.8499 45.251 6.91418 45.1002 6.99762 44.9348C7.08025 44.7561 7.14453 44.6053 7.19047 44.4822C7.24972 44.3584 7.3394 44.186 7.45953 43.9649C7.5204 43.8677 7.5867 43.7501 7.65845 43.6122C7.7302 43.4742 7.82313 43.355 7.93723 43.2546C8.05053 43.1408 8.16747 43.087 8.28806 43.093C8.42114 43.0849 8.59277 43.1612 8.80294 43.3221C8.91751 43.4487 8.98348 43.5449 9.00084 43.6106C9.0182 43.6763 8.97266 43.806 8.86423 43.9996C8.77154 44.2324 8.65888 44.4663 8.52626 44.7015C8.40695 44.9358 8.2943 45.1698 8.1883 45.4033C7.99319 45.7091 7.96339 45.8778 8.09891 45.9097C8.23443 45.9415 8.60545 45.8922 9.21198 45.7617C9.59388 45.6717 9.87457 45.6746 10.0541 45.7706C10.2328 45.8532 10.3423 46.0068 10.3827 46.2315C10.4421 46.5484 10.4205 46.7434 10.3181 46.8165C10.2157 46.8895 9.91164 46.9414 9.40591 46.9722C9.08974 47.0449 8.81894 47.0948 8.5935 47.1218C8.36726 47.1356 8.2009 47.1458 8.09443 47.1522C7.92222 47.1761 7.80951 47.1896 7.75627 47.1929C7.70304 47.1961 7.62399 47.2143 7.51915 47.2474C7.4143 47.2805 7.33728 47.3319 7.2881 47.4017C7.25142 47.4574 7.2097 47.5401 7.16295 47.6498C7.11295 47.7063 7.04161 47.8509 6.94892 48.0836C6.85623 48.3163 6.73813 48.5706 6.59464 48.8465C6.44235 49.4168 6.31668 49.9855 6.21764 50.5526C6.11778 51.1064 6.04372 51.6452 5.99548 52.1691C5.9625 52.5051 5.98334 52.7375 6.05799 52.8666C6.13182 52.9823 6.30929 53.045 6.5904 53.0546C6.7376 53.059 6.97051 53.0448 7.2891 53.012C7.6202 52.9651 7.87729 52.9094 8.06037 52.8448C8.20271 52.7694 8.35171 52.6935 8.50736 52.6172C8.6622 52.5277 8.80374 52.4389 8.93196 52.3509C9.04769 52.2771 9.16341 52.2033 9.27914 52.1294C9.39405 52.0423 9.45151 51.9987 9.45151 51.9987C9.51157 51.8882 9.58274 51.8505 9.66503 51.8855C9.74731 51.9206 9.81993 52.0164 9.88289 52.1728C9.89262 52.3325 9.86947 52.5009 9.81347 52.678C9.75746 52.855 9.52381 53.0763 9.11252 53.3418C8.53632 53.7509 7.99779 54.0108 7.49692 54.1214C7.00855 54.218 6.58933 54.2435 6.23925 54.198ZM17.5302 53.0296C17.2072 53.2096 16.9106 53.2744 16.6404 53.224C16.3693 53.1604 16.1455 52.9937 15.9687 52.7239C15.8053 52.4534 15.7106 52.1051 15.6847 51.6793C15.6758 51.5329 15.6824 51.3121 15.7045 51.0168C15.7399 50.7208 15.7811 50.4111 15.8282 50.0876C15.8745 49.7508 15.9303 49.4602 15.9956 49.2158C16.0282 49.0936 16.0491 48.9988 16.0584 48.9315C16.081 48.8633 16.0656 48.8308 16.0124 48.8341C15.9592 48.8373 15.8946 48.8747 15.8188 48.9461C15.7563 49.0167 15.7063 49.0731 15.6689 49.1155C15.3907 49.3729 15.1024 49.6843 14.804 50.0498C14.519 50.4144 14.2544 50.7845 14.0101 51.1601C13.765 51.5223 13.5648 51.8551 13.4096 52.1584C13.2678 52.4609 13.2009 52.6787 13.209 52.8118C13.2211 53.0115 13.1298 53.1573 12.9351 53.2493C12.7403 53.3413 12.5669 53.3452 12.4148 53.2609C12.153 53.1299 11.9828 52.9667 11.9041 52.7711C11.8379 52.5614 11.8098 52.2091 11.8197 51.7142C11.8215 51.0863 11.8407 50.5241 11.8773 50.0276C11.9138 49.5312 11.9879 48.9923 12.0994 48.4111C12.2235 47.8158 12.3864 47.0913 12.5882 46.2374C12.7329 45.7611 12.8658 45.3122 12.9871 44.8907C13.1076 44.4559 13.2121 44.0888 13.3008 43.7896C13.4027 43.4895 13.465 43.3054 13.4875 43.2372C13.55 43.1666 13.6268 43.0016 13.7179 42.7423C13.8081 42.4696 13.8851 42.1978 13.9487 41.9267C14.0257 41.6549 14.0625 41.4924 14.0593 41.4391C14.0528 41.3327 14.0671 41.2383 14.1022 41.156C14.1364 41.0604 14.1785 40.9844 14.2285 40.9279C14.2785 40.8714 14.3223 40.822 14.3598 40.7796C14.3973 40.7373 14.416 40.7161 14.416 40.7161C14.4826 40.7121 14.5636 40.7272 14.6592 40.7614C14.7681 40.7949 14.8716 40.8487 14.9696 40.9228C15.0668 40.9837 15.132 41.0666 15.1651 41.1714C15.2696 41.3521 15.3279 41.5422 15.3401 41.7418C15.3514 41.9282 15.3057 42.1647 15.2029 42.4515C15.1135 42.7374 14.9507 43.1347 14.7145 43.6434C14.5267 44.0689 14.3596 44.5065 14.2134 44.9563C14.0671 45.406 13.9287 45.8753 13.7982 46.3641C13.7438 46.5678 13.6676 46.8529 13.5697 47.2196C13.4851 47.5854 13.3947 47.9649 13.2984 48.3582C13.2155 48.7506 13.1434 49.1023 13.0822 49.4133C13.0335 49.7101 13.0115 49.8984 13.0164 49.9783C13.0221 50.0715 13.0781 50.1148 13.1846 50.1083C13.2903 50.0885 13.3919 50.0022 13.4894 49.8493C13.5362 49.7396 13.6412 49.5996 13.8045 49.4294C13.9678 49.2591 14.0998 49.1242 14.2006 49.0246C14.3014 48.9249 14.4397 48.7829 14.6155 48.5986C14.7913 48.4142 14.9804 48.229 15.1828 48.043C15.3844 47.8438 15.5747 47.6786 15.7537 47.5474C15.9319 47.403 16.0743 47.3275 16.1807 47.3211C16.3537 47.3105 16.5175 47.3673 16.672 47.4915C16.8257 47.6024 16.9336 47.7294 16.9958 47.8725C17.0381 47.91 17.0813 47.9608 17.1253 48.0249C17.1684 48.0758 17.1975 48.1141 17.2124 48.1399C17.2822 48.189 17.2964 48.4219 17.255 48.8386C17.226 49.2411 17.1246 49.7682 16.9505 50.42C16.8607 50.9197 16.7864 51.345 16.7277 51.6959C16.6814 52.0327 16.7115 52.1978 16.8179 52.1913C16.8179 52.1913 16.882 52.1474 17.0103 52.0594C17.1518 51.9706 17.2996 51.8748 17.4536 51.7719C17.8242 51.4956 18.148 51.3289 18.425 51.272C18.7146 51.2009 18.8638 51.2386 18.8727 51.3849C18.876 51.4382 18.8592 51.4926 18.8226 51.5483C18.7851 51.5907 18.7679 51.6385 18.7712 51.6917C18.7712 51.6917 18.7716 51.6983 18.7724 51.7116C18.7724 51.7116 18.774 51.7383 18.7773 51.7915C18.7789 51.8181 18.6989 51.9299 18.5372 52.1267C18.3747 52.3103 18.1927 52.5017 17.9911 52.701C17.802 52.8861 17.6484 52.9957 17.5302 53.0296ZM20.5255 52.8272C20.4125 52.7272 20.3246 52.5989 20.2616 52.4425C20.2119 52.2852 20.1889 52.1263 20.1925 51.9658C20.1961 51.8053 20.2212 51.6702 20.268 51.5605C20.2615 51.454 20.27 51.3733 20.2933 51.3185C20.3292 51.2495 20.3389 51.1888 20.3223 51.1364C20.3058 51.084 20.3134 50.99 20.3452 50.8545C20.377 50.7189 20.4093 50.5901 20.4419 50.4679C20.5221 50.2493 20.6065 49.9903 20.6952 49.691C20.783 49.3785 20.8646 49.0729 20.9399 48.7745C21.0152 48.476 21.0797 48.2183 21.1333 48.0013C21.1868 47.7843 21.2187 47.6488 21.2287 47.5947C21.219 47.435 21.3202 47.342 21.5323 47.3158C21.6888 47.2528 21.8086 47.2455 21.8917 47.2939C21.974 47.329 22.0881 47.4489 22.2342 47.6537C22.3471 47.7537 22.3968 47.911 22.3831 48.1256C22.3695 48.3401 22.2992 48.6116 22.1722 48.9399C22.1255 49.0496 22.0683 49.2067 22.0006 49.4112C21.9462 49.6149 21.9105 49.7974 21.8936 49.9587C21.8469 50.0684 21.7897 50.2255 21.722 50.43C21.6668 50.6204 21.6178 50.8037 21.5751 50.9799C21.5526 51.0481 21.532 51.1495 21.5135 51.2843C21.4942 51.4056 21.469 51.5408 21.438 51.6896C21.4062 51.8251 21.3602 51.9481 21.3002 52.0586C21.2136 52.6116 21.12 52.9379 21.0192 53.0375C20.9317 53.1364 20.7671 53.0662 20.5255 52.8272ZM21.9683 44.6043C21.8977 44.5418 21.8322 44.4522 21.7716 44.3357C21.7103 44.2059 21.6697 44.0881 21.65 43.9825C21.6293 43.8635 21.639 43.8028 21.6789 43.8004C21.7846 43.7806 21.9041 43.6597 22.0376 43.4379C22.171 43.216 22.2195 43.0261 22.1832 42.868C22.18 42.8148 22.1971 42.767 22.2346 42.7246C22.2713 42.6689 22.3158 42.6328 22.3682 42.6163C22.5215 42.5001 22.6737 42.4774 22.825 42.5484C22.9887 42.6052 23.1436 42.736 23.2897 42.9409C23.4248 43.1864 23.4711 43.3974 23.4284 43.5736C23.3849 43.7366 23.2523 43.9717 23.0305 44.2791C22.8471 44.5574 22.6697 44.7152 22.4983 44.7523C22.3402 44.7887 22.1636 44.7393 21.9683 44.6043ZM25.8879 52.8613C25.2225 52.9018 24.7221 52.6918 24.3869 52.2314C24.2856 52.1039 24.2309 51.9737 24.2228 51.8406C24.2272 51.6934 24.261 51.5912 24.3243 51.5339C24.401 51.4758 24.497 51.5167 24.6123 51.6566C24.8051 51.7517 25.0746 51.7887 25.4206 51.7677C25.5936 51.7571 25.7725 51.7329 25.9572 51.6949C26.141 51.6436 26.3241 51.5791 26.5064 51.5012C26.7004 51.3959 26.8286 51.3079 26.8911 51.2373C26.9527 51.1534 26.9354 51.0877 26.839 51.0401L26.8589 51.0389C26.5073 50.9668 26.1457 50.8419 25.7742 50.6641C25.4152 50.4723 25.102 50.2643 24.8345 50.0401C24.5662 49.8026 24.4061 49.5853 24.354 49.3881C24.2224 48.982 24.2235 48.5612 24.3572 48.1256C24.4902 47.6767 24.693 47.2769 24.9655 46.9264C25.0679 46.8534 25.1961 46.7654 25.3502 46.6625C25.5034 46.5463 25.6262 46.4787 25.7185 46.4597L25.7197 46.4797C25.9564 46.1981 26.2495 45.9666 26.5991 45.785C26.962 45.6026 27.3457 45.4323 27.7502 45.2741L28.0472 45.2159C28.2053 45.1796 28.3376 45.1581 28.444 45.1517C28.4307 45.1525 28.4582 45.1642 28.5263 45.1867C28.5937 45.196 28.6544 45.2056 28.7084 45.2157C28.7907 45.2508 28.8585 45.2667 28.9117 45.2634C29.0863 45.2795 29.2509 45.3497 29.4054 45.4738C29.5599 45.598 29.6828 45.7508 29.774 45.9323C29.8776 46.0996 29.9211 46.2639 29.9042 46.4253C29.8929 46.6798 29.8269 46.9109 29.7059 47.1186C29.5983 47.3255 29.4588 47.4476 29.2874 47.4847C29.3132 47.4698 29.292 47.451 29.2239 47.4285C29.1682 47.3918 29.1059 47.3555 29.0369 47.3196L28.9795 47.3632C28.9795 47.3632 28.972 47.3503 28.9571 47.3245C28.9546 47.2846 28.9385 47.2388 28.9086 47.1872C28.8638 47.1098 28.8386 47.0245 28.8329 46.9313C28.8265 46.8248 28.8262 46.7113 28.8322 46.5907C28.8499 46.4427 28.8447 46.3562 28.8164 46.3312C28.8015 46.3054 28.7138 46.2907 28.5533 46.2871C28.3645 46.2585 28.0937 46.3084 27.7409 46.4368C27.4013 46.5643 27.1174 46.7285 26.8892 46.9295C26.6078 47.1336 26.3725 47.3283 26.1834 47.5134C25.9935 47.6853 25.8435 47.8547 25.7335 48.0217C25.6226 48.1754 25.5267 48.3549 25.4457 48.5602C25.3848 48.6574 25.3306 48.7542 25.283 48.8506C25.248 48.9329 25.2325 49.0073 25.2365 49.0739C25.2454 49.2203 25.3612 49.3668 25.5839 49.5136C25.819 49.6462 26.1623 49.7989 26.6136 49.9718C26.9686 50.0972 27.2711 50.239 27.5212 50.3975C27.7713 50.5559 27.9498 50.7454 28.0567 50.966C28.0866 51.0176 28.0973 51.0837 28.0889 51.1644C28.0929 51.2309 28.0824 51.2783 28.0574 51.3065C28.0857 51.3315 28.1002 51.3507 28.101 51.364L28.0998 51.344C28.216 51.4973 28.2261 51.6636 28.1302 51.8431C28.0476 52.0218 27.8905 52.185 27.6591 52.3327C27.4401 52.4662 27.1663 52.5764 26.8376 52.6632L26.8576 52.662C26.6878 52.7257 26.5172 52.7762 26.3459 52.8134C26.187 52.8364 26.0343 52.8524 25.8879 52.8613ZM36.6674 51.8642C36.4662 51.8498 36.2846 51.7206 36.1228 51.4766C35.9735 51.2186 35.8791 50.9839 35.8395 50.7726C35.8463 50.6653 35.8503 50.5114 35.8515 50.311C35.8659 50.1097 35.88 49.9018 35.8937 49.6873C35.9315 49.4311 35.9861 49.1206 36.0573 48.7556C36.1278 48.3773 36.1983 47.999 36.2687 47.6206C36.3525 47.2415 36.4262 46.9164 36.4899 46.6454C36.5535 46.3744 36.597 46.2114 36.6204 46.1566C36.6805 46.046 36.7853 46.0129 36.9349 46.0573C37.0846 46.1016 37.2092 46.1741 37.3089 46.2749C37.3952 46.3765 37.4495 46.5001 37.4717 46.6457C37.5072 46.7905 37.5002 47.0046 37.4507 47.2882C37.4145 47.5709 37.3332 47.99 37.2067 48.5453C37.0927 49.0866 37.0059 49.526 36.9463 49.8636C36.8992 50.1871 36.8933 50.528 36.9285 50.8866C36.9028 51.3423 36.8799 51.6242 36.8597 51.7323C36.8388 51.8271 36.7747 51.8711 36.6674 51.8642ZM38.4781 43.7592C38.4273 43.8024 38.3753 43.8256 38.3221 43.8288C38.2813 43.8179 38.2057 43.7825 38.0952 43.7224C38.0012 43.7148 37.8778 43.6622 37.7249 43.5646C37.5845 43.453 37.4574 43.3405 37.3437 43.2272C37.2424 43.0998 37.191 43.0227 37.1894 42.9961C37.1679 42.8639 37.1645 42.6971 37.1789 42.4958C37.2059 42.2805 37.2677 42.0897 37.3645 41.9235C37.4604 41.744 37.6078 41.6415 37.8066 41.6161C37.8598 41.6128 37.9068 41.6166 37.9476 41.6275C37.9883 41.6384 38.1109 41.6777 38.3154 41.7454C38.434 41.9385 38.5543 42.1583 38.6762 42.4047C38.7972 42.6377 38.8584 42.8745 38.8597 43.1148C38.8601 43.3419 38.7329 43.5567 38.4781 43.7592ZM40.6531 52.3228C40.3938 52.2318 40.1457 52.1066 39.9089 51.9474C39.6713 51.7748 39.5156 51.6307 39.4418 51.515C39.4345 51.3952 39.4496 51.3141 39.4871 51.2718C39.5238 51.2161 39.6357 51.1893 39.8228 51.1912C40.0224 51.1791 40.3435 51.1862 40.7859 51.2127C40.9456 51.203 41.1444 51.1775 41.3823 51.1363C41.6203 51.0951 41.8374 51.0418 42.0338 50.9764C42.2435 50.9102 42.3593 50.8364 42.381 50.7549C42.4476 50.7509 42.4596 50.7301 42.4173 50.6926C42.3741 50.6418 42.3243 50.5914 42.2678 50.5414C42.2146 50.5446 42.1535 50.5283 42.0845 50.4925C42.0147 50.4433 41.9532 50.4203 41.9 50.4235C41.8959 50.357 41.8249 50.2879 41.687 50.2161C41.5615 50.1302 41.4306 50.0647 41.2943 50.0196C40.9869 49.7979 40.7211 49.6003 40.4968 49.427C40.2717 49.2403 40.1838 49.1121 40.2329 49.0423C40.2297 48.9891 40.2281 48.9625 40.2281 48.9625C40.2273 48.9492 40.2269 48.9425 40.2269 48.9425C40.1337 48.9482 40.0191 48.8216 39.8831 48.5627C39.7605 48.303 39.6926 48.0667 39.6797 47.8537C39.67 47.694 39.7044 47.4916 39.783 47.2463C39.8607 46.9878 39.9713 46.7206 40.1148 46.4447C40.2583 46.1688 40.4113 45.9391 40.5738 45.7555C40.7996 45.5147 41.0844 45.2569 41.4284 44.9821C41.7715 44.6941 42.11 44.4397 42.4439 44.219C42.7902 43.9842 43.0812 43.8262 43.3167 43.7451C43.5506 43.6373 43.7673 43.5774 43.9669 43.5652C44.1799 43.5523 44.369 43.5875 44.5344 43.6709C44.6716 43.7294 44.7974 43.8219 44.912 43.9485C45.0391 44.061 45.1466 44.1813 45.2345 44.3096C45.335 44.4237 45.4014 44.5265 45.4336 44.618C45.4434 44.7777 45.441 44.9582 45.4265 45.1595C45.4113 45.3474 45.3815 45.5162 45.3372 45.6658C45.3061 45.8147 45.2441 45.8919 45.1509 45.8976C45.1509 45.8976 45.1313 45.9054 45.0922 45.9212C45.0656 45.9228 45.0543 45.9569 45.0584 46.0234C45.0665 46.1565 44.976 46.3157 44.7869 46.5008C44.5446 46.6892 44.3315 46.8091 44.1476 46.8603C43.9629 46.8983 43.8453 46.832 43.7948 46.6614C43.7516 46.6106 43.7222 46.5657 43.7065 46.5265C43.6907 46.4874 43.6562 46.4695 43.603 46.4727C43.603 46.4727 43.5818 46.454 43.5395 46.4165C43.4971 46.379 43.4731 46.3137 43.4674 46.2205C43.4642 46.1673 43.4813 46.1195 43.5188 46.0771C43.5555 46.0214 43.5738 45.9936 43.5738 45.9936C43.6404 45.9896 43.7224 45.9111 43.82 45.7582C43.9167 45.592 43.9997 45.42 44.0691 45.2421C44.1509 45.0501 44.1898 44.9209 44.1857 44.8543C44.1808 44.7745 44.1647 44.7287 44.1373 44.717C44.1231 44.7045 44.0629 44.7015 43.9564 44.708C43.7749 44.7992 43.5552 44.9194 43.2971 45.0687C43.039 45.218 42.7943 45.3665 42.5628 45.5142C42.3439 45.6477 42.1844 45.771 42.0844 45.8839C42.0368 45.9803 42.0072 46.0423 41.9955 46.0697C41.983 46.0838 41.9502 46.0925 41.8969 46.0957C41.8937 46.0425 41.8487 46.0719 41.762 46.1841C41.6879 46.2821 41.5895 46.4217 41.467 46.6028C41.3577 46.7831 41.2485 46.9634 41.1392 47.1437C41.0425 47.3099 40.9699 47.4345 40.9215 47.5176C40.8966 47.5459 40.8681 47.6278 40.8363 47.7633C40.817 47.8847 40.8106 47.9986 40.8171 48.1051C40.7735 48.268 40.7871 48.3807 40.8577 48.4432C40.9275 48.4924 41.0812 48.6033 41.3188 48.7758C41.8056 49.0935 42.189 49.3573 42.469 49.5674C42.7489 49.7774 42.9599 49.9516 43.1019 50.0899C43.2439 50.2282 43.3319 50.3564 43.3658 50.4745C43.6297 50.8592 43.7215 51.1609 43.6413 51.3795C43.5611 51.5981 43.3462 51.7982 42.9966 51.9798C42.8676 52.0544 42.6512 52.121 42.3475 52.1796C42.0439 52.2382 41.7323 52.2772 41.4129 52.2966C41.0943 52.3294 40.8411 52.3381 40.6531 52.3228ZM51.5831 50.8358C51.5399 50.7849 51.4959 50.7208 51.4512 50.6434C51.4197 50.5652 51.4023 50.4995 51.3991 50.4462C51.3975 50.4196 51.3888 50.3867 51.373 50.3476C51.3706 50.3077 51.3428 50.2893 51.2895 50.2926C51.2472 50.2551 51.2645 50.1004 51.3414 49.8286C51.4309 49.5426 51.5445 49.2151 51.6823 48.846C51.8335 48.4762 51.9854 48.1196 52.1382 47.7764C52.3034 47.419 52.4399 47.1368 52.5475 46.9299C52.6116 46.8859 52.6483 46.8303 52.6575 46.7629C52.6793 46.6814 52.6769 46.6415 52.6502 46.6431C52.6502 46.6431 52.6799 46.5812 52.7391 46.4574C52.8109 46.3194 52.8655 46.2293 52.903 46.1869C52.9981 45.9941 53.0666 45.8029 53.1085 45.6134C53.1496 45.4105 53.1527 45.2433 53.118 45.1119C53.0607 45.0486 52.9996 45.0323 52.9347 45.0629C52.8698 45.0936 52.8373 45.1089 52.8373 45.1089C52.7849 45.1255 52.7067 45.157 52.6026 45.2034C52.5111 45.2357 52.427 45.2809 52.3504 45.339C52.0573 45.5705 51.8571 45.6829 51.7498 45.6761C51.6417 45.6559 51.5114 45.4902 51.3589 45.1789C51.2967 45.0358 51.2703 44.9305 51.2795 44.8632C51.2888 44.7958 51.3375 44.7194 51.4258 44.6338C51.5266 44.5342 51.6228 44.4682 51.7143 44.4359C51.8051 44.3903 51.8758 44.346 51.9266 44.3028C52.0674 44.2007 52.1831 44.1269 52.2738 44.0813C52.3779 44.0349 52.4561 44.0034 52.5085 43.9868C52.8481 43.8593 53.1396 43.8215 53.3832 43.8735C53.6269 43.9254 53.8171 44.0875 53.9539 44.3597C54.154 44.5746 54.2629 44.8284 54.2807 45.1212C54.2978 45.4007 54.2245 45.7324 54.0608 46.1164L53.8794 46.428C53.821 46.5652 53.8117 46.6325 53.8517 46.6301C53.9049 46.6268 53.962 46.5766 54.0228 46.4794C54.0595 46.4237 54.1345 46.339 54.2478 46.2253C54.3611 46.1115 54.4377 46.0534 54.4776 46.051C54.4776 46.051 54.4905 46.0435 54.5163 46.0286C54.5554 46.0128 54.5722 45.9584 54.5665 45.8652C54.604 45.8229 54.6415 45.7805 54.679 45.7382C54.7298 45.695 54.7552 45.6734 54.7552 45.6734C54.8084 45.6702 54.9046 45.6042 55.0437 45.4755C55.1953 45.3327 55.3723 45.1683 55.5747 44.9823C55.7146 44.8669 55.8445 44.8056 55.9642 44.7983C56.2647 44.6865 56.5169 44.7713 56.7211 45.0528C56.9386 45.3334 57.0615 45.7066 57.0898 46.1724L56.7363 47.276L57.4014 46.3538C57.4748 46.2425 57.549 46.1445 57.624 46.0597C57.7123 45.9742 57.7881 45.9028 57.8514 45.8455C57.8723 45.7508 57.909 45.6951 57.9614 45.6785C58.0138 45.662 58.0401 45.6537 58.0401 45.6537C58.0401 45.6537 58.0534 45.6529 58.08 45.6513C58.1058 45.6363 58.1175 45.6089 58.1151 45.569C58.1784 45.5117 58.2487 45.4607 58.3261 45.4159C58.4027 45.3578 58.4527 45.3013 58.4761 45.2465C58.6967 45.1395 58.9022 45.1136 59.0925 45.1688C59.2821 45.2107 59.4519 45.3674 59.602 45.6387C59.7049 45.7928 59.7667 45.9293 59.7873 46.0482C59.8079 46.1672 59.8255 46.3465 59.8401 46.586C59.8256 46.7873 59.8087 46.9486 59.7894 47.07C59.7826 47.1773 59.7761 47.2912 59.7701 47.4118C59.7641 47.5324 59.7543 47.7 59.7406 47.9145C59.6939 48.0242 59.6675 48.1394 59.6615 48.26C59.6688 48.3798 59.6757 48.4929 59.6821 48.5993C59.6927 48.7724 59.7066 48.8917 59.724 48.9575C59.7405 49.0099 59.7954 49.0333 59.8885 49.0276C60.0724 48.9763 60.3196 48.8678 60.6301 48.7019C60.9531 48.522 61.19 48.3539 61.3408 48.1978C61.5291 47.9993 61.6964 47.8956 61.8428 47.8867C62.0017 47.8637 62.106 47.9308 62.1556 48.0881C62.1855 48.1397 62.1462 48.2623 62.0378 48.4559C61.9427 48.6487 61.8272 48.8361 61.6913 49.018C61.5687 49.1991 61.4742 49.2917 61.4077 49.2958C61.3677 49.2982 61.3236 49.3409 61.2752 49.424C61.226 49.4938 61.1694 49.5507 61.1053 49.5947C61.0178 49.6935 60.9299 49.7857 60.8416 49.8712C60.7666 49.9559 60.6759 50.0015 60.5694 50.008C60.5162 50.0113 60.4508 50.0353 60.3734 50.0801C60.3085 50.1107 60.2295 50.1289 60.1363 50.1346C60.0056 50.1826 59.7981 50.1752 59.5138 50.1124C59.2428 50.0487 59.0584 49.8729 58.9607 49.585C58.8986 49.4419 58.8378 49.2118 58.7784 48.8948C58.7182 48.5645 58.7046 48.2314 58.7376 47.8955C58.7763 47.6527 58.7962 47.431 58.7973 47.2306C58.7985 47.0302 58.8166 46.8888 58.8516 46.8065C58.8492 46.7666 58.8435 46.6734 58.8346 46.527C58.8249 46.3673 58.8001 46.2887 58.7601 46.2911C58.7069 46.2944 58.5865 46.4019 58.3991 46.6137C58.2241 46.8113 58.0124 47.0647 57.7641 47.3737C57.5291 47.6819 57.2948 48.0033 57.0614 48.3382C56.828 48.673 56.6391 48.9717 56.4948 49.2342C56.384 49.3879 56.2884 49.5741 56.2082 49.7927C56.1281 50.0113 56.0688 50.1351 56.0305 50.1642C55.9438 50.2763 55.8315 50.2965 55.6936 50.2248C55.5689 50.1522 55.4481 50.0327 55.3311 49.8662C55.2863 49.7887 55.2556 49.7238 55.2391 49.6714C55.2217 49.6057 55.2165 49.5191 55.2233 49.4119C55.2426 49.2905 55.2786 49.1146 55.3314 48.8843C55.3975 48.6532 55.4845 48.3273 55.5925 47.9066C55.7113 47.4452 55.813 47.0316 55.8976 46.6658C55.9947 46.2859 56.0432 46.0959 56.0432 46.0959C56.04 46.0427 55.9434 46.102 55.7535 46.2738C55.5628 46.4324 55.3413 46.6329 55.0889 46.8753C54.978 47.029 54.7917 47.2608 54.5301 47.5706C54.2684 47.8804 53.9826 48.2318 53.6726 48.6247C53.3625 49.0176 53.067 49.4296 52.7861 49.8608C52.4333 50.43 52.1808 50.7793 52.0284 50.9088C51.8893 51.0375 51.7408 51.0132 51.5831 50.8358ZM64.9696 55.3705C64.9579 55.3979 64.8964 55.3749 64.785 55.3016C64.687 55.2274 64.5878 55.1333 64.4873 55.0192C64.3877 54.9184 64.3421 54.8276 64.3505 54.747C64.2859 54.5639 64.2784 54.3306 64.3279 54.047C64.3916 53.776 64.5336 53.3666 64.7541 52.8189C64.8742 52.5978 64.9786 52.3377 65.0672 52.0384C65.1692 51.7383 65.2844 51.4374 65.413 51.1357C65.4722 51.0119 65.6028 50.7434 65.8048 50.3304C66.0067 49.9174 66.2187 49.4503 66.4408 48.9292C66.6762 48.4072 66.8666 47.9147 67.012 47.4517C66.6879 47.8321 66.3908 48.2175 66.1207 48.608C65.8498 48.9852 65.5948 49.2946 65.3557 49.5362C65.1299 49.7771 64.9101 49.8973 64.6964 49.897C64.5209 49.8676 64.331 49.819 64.1265 49.7513C63.9345 49.6695 63.7983 49.5175 63.718 49.2953C63.6469 49.0058 63.6043 48.6344 63.59 48.181C63.5891 47.7269 63.6339 47.0363 63.7243 46.1091C63.8033 45.6501 63.8421 45.3004 63.8408 45.06C63.852 44.8055 63.834 44.6196 63.7868 44.5023C63.7396 44.3849 63.6599 44.2829 63.5478 44.1962C63.365 44.0471 63.2633 43.913 63.2427 43.794C63.2346 43.661 63.3209 43.5422 63.5016 43.4377C63.777 43.3541 63.9754 43.322 64.0968 43.3413C64.2174 43.3473 64.3703 43.4449 64.5554 43.634C64.6724 43.8005 64.7757 43.9612 64.8653 44.116C64.9674 44.2567 65.0298 44.5134 65.0525 44.8861C65.0622 45.0458 65.0485 45.2603 65.0115 45.5297C64.9878 45.7984 64.9633 46.0536 64.9379 46.2956C64.9251 46.5235 64.9148 46.6844 64.9072 46.7784C64.8041 47.2789 64.7435 47.7101 64.7255 48.0718C64.7208 48.4328 64.7517 48.6112 64.8182 48.6072C65.0714 48.378 65.3097 48.1231 65.533 47.8423C65.7689 47.5474 66.0094 47.2189 66.2545 46.8567C66.5121 46.4803 66.7934 46.0557 67.0986 45.583C67.2046 45.3494 67.311 45.1226 67.4178 44.9023C67.5246 44.6821 67.6111 44.4564 67.6772 44.2253C67.7465 44.0474 67.8178 43.9028 67.8912 43.7915C67.9645 43.6802 68.0274 43.6162 68.0799 43.5997C68.1448 43.569 68.2251 43.5708 68.3206 43.6051C68.4295 43.6385 68.5255 43.6794 68.6086 43.7278C68.7042 43.762 68.7528 43.7925 68.7545 43.8191C68.7686 43.8316 68.8027 43.8429 68.8567 43.8529C68.9107 43.863 68.9648 43.8731 69.0188 43.8831C69.0854 43.8791 69.1199 43.897 69.1223 43.9369C69.1239 43.9636 69.0959 44.0521 69.0383 44.2025C68.994 44.3522 68.9376 44.5226 68.869 44.7138C68.813 44.8908 68.7629 45.0542 68.7186 45.2038C68.6734 45.3402 68.6583 45.4212 68.6733 45.447C68.7015 45.472 68.6876 45.5731 68.6316 45.7501C68.5748 45.9139 68.5059 46.0984 68.4249 46.3037C68.3572 46.5082 68.2949 46.6923 68.2381 46.8561C68.1317 47.3034 68.0054 47.7519 67.8592 48.2016C67.7121 48.638 67.5317 49.0765 67.3181 49.5169C67.248 49.6815 67.1432 49.935 67.0038 50.2774C66.8776 50.6191 66.7511 50.954 66.6241 51.2824C66.5113 51.6232 66.4202 51.8825 66.3509 52.0604C66.3042 52.1701 66.2345 52.3413 66.1418 52.5741C66.0632 52.8193 65.9725 53.0853 65.8698 53.3721C65.7803 53.658 65.6896 53.924 65.5978 54.1701C65.5067 54.4294 65.4386 54.6273 65.3935 54.7636C65.3822 55.0181 65.3337 55.2081 65.2478 55.3335C65.1946 55.3367 65.1347 55.3404 65.0682 55.3444C65.0024 55.3618 64.9696 55.3705 64.9696 55.3705Z" fill="black"/>
<path d="M76.1287 49.4212C75.9707 49.4576 75.796 49.4415 75.6048 49.373C75.4137 49.3045 75.2404 49.2015 75.0851 49.064C74.9431 48.9257 74.8473 48.7779 74.7976 48.6206C74.7274 48.3444 74.7396 47.9964 74.8342 47.5765C74.9414 47.1425 75.1006 46.6853 75.3117 46.2049C75.5354 45.7104 75.787 45.2343 76.0663 44.7764C76.359 44.3178 76.6619 43.9186 76.9752 43.579C77.301 43.2252 77.6066 42.9795 77.8921 42.8419C78.0328 42.7398 78.1423 42.673 78.2205 42.6415C78.3113 42.5959 78.404 42.5836 78.4988 42.6046C78.6069 42.6247 78.764 42.6819 78.9701 42.7762C79.1597 42.8181 79.3031 42.8695 79.4003 42.9304C79.4975 42.9912 79.6254 43.117 79.7839 43.3078C79.9025 43.5009 79.9946 43.6957 80.0599 43.8921C80.1253 44.0884 80.1857 44.3119 80.241 44.5623C80.3677 44.8885 80.421 45.1057 80.4009 45.2138C80.38 45.3086 80.3445 45.3842 80.2945 45.4407C80.1961 45.5802 80.1736 45.6484 80.2268 45.6452C80.2268 45.6452 80.2218 45.6722 80.2117 45.7262C80.2141 45.7661 80.1916 45.8343 80.144 45.9307C80.0687 46.2292 80.0141 46.5397 79.9803 46.8624C79.9591 47.1709 79.9811 47.4234 80.0465 47.6198C80.1708 47.9061 80.3743 48.0673 80.657 48.1035C80.9398 48.1398 81.2186 48.0026 81.4936 47.6919C81.6335 47.5766 81.7675 47.4749 81.8958 47.3869C82.0232 47.2857 82.0901 47.2883 82.0966 47.3947C82.0966 47.3947 82.1178 47.4135 82.1601 47.451C82.2017 47.4752 82.2491 47.4856 82.3023 47.4824C82.3689 47.4783 82.4104 47.5025 82.427 47.555C82.4568 47.6066 82.4613 47.6798 82.4403 47.7745C82.4319 47.8552 82.3976 47.9508 82.3376 48.0613C82.1501 48.2731 82.0584 48.4123 82.0624 48.4788C82.0624 48.4788 82.0374 48.5071 81.9874 48.5635C81.95 48.6059 81.8808 48.6769 81.78 48.7765C81.5494 48.9375 81.2477 49.0294 80.8751 49.052C80.5158 49.0739 80.2318 49.0178 80.0233 48.8835C79.8147 48.7493 79.6162 48.561 79.4278 48.3187C79.2527 48.0755 79.1329 47.8624 79.0683 47.6793L78.9563 47.4858L78.4005 47.9003C78.263 48.0556 78.1118 48.2051 77.9469 48.3487C77.7953 48.4915 77.6945 48.5912 77.6445 48.6477C77.6078 48.7033 77.5641 48.7527 77.5133 48.7959C77.4758 48.8383 77.4304 48.8611 77.3772 48.8643C77.324 48.8675 77.2774 48.8704 77.2375 48.8728C77.1975 48.8752 77.1776 48.8765 77.1776 48.8765C77.1808 48.9297 77.1183 49.0003 76.9901 49.0883C76.8752 49.1754 76.7328 49.2509 76.5631 49.3146C76.4066 49.3776 76.2618 49.4131 76.1287 49.4212ZM75.8635 48.3554C75.9433 48.3505 76.0794 48.2821 76.2718 48.1502C76.4766 48.0041 76.7002 47.8369 76.9425 47.6485C77.1981 47.4593 77.4205 47.2721 77.6096 47.0869C77.812 46.9009 77.9503 46.7589 78.0245 46.6609C78.0745 46.6044 78.1557 46.5126 78.2682 46.3856C78.3799 46.2452 78.4794 46.1256 78.5669 46.0267C78.852 45.6621 79.0418 45.2698 79.1365 44.85C79.2303 44.4168 79.1967 44.0849 79.0358 43.8542C78.9736 43.7111 78.9022 43.6353 78.8215 43.6268C78.7409 43.6184 78.5774 43.6751 78.331 43.797C78.1769 43.8999 77.9883 44.0917 77.7649 44.3724C77.5541 44.6391 77.3261 44.9535 77.081 45.3158C76.8484 45.6639 76.6299 46.0245 76.4255 46.3976C76.2212 46.7707 76.0551 47.1148 75.9273 47.4298C75.7996 47.7448 75.741 47.9888 75.7515 48.1618C75.7547 48.2151 75.7709 48.2608 75.7999 48.2991C75.8423 48.3366 75.8635 48.3554 75.8635 48.3554ZM88.3725 49.7176C88.2019 49.768 88.0539 49.7503 87.9285 49.6645C87.8171 49.5911 87.73 49.4762 87.667 49.3197C87.5419 49.0201 87.4418 48.6922 87.3667 48.3362C87.3041 47.9659 87.2776 47.6403 87.2872 47.3592L87.3016 46.9375L86.5607 47.6038C86.1325 48.0306 85.7108 48.3435 85.2954 48.5424C84.8934 48.7406 84.5327 48.8494 84.2132 48.8688C84.0652 48.8511 83.9156 48.8068 83.7643 48.7359C83.6131 48.6649 83.4739 48.5732 83.3468 48.4607C83.2331 48.3474 83.1389 48.2263 83.0642 48.0972C82.973 47.9158 82.931 47.6645 82.9382 47.3435C82.9587 47.0217 83.0174 46.6708 83.1145 46.2908C83.2241 45.8968 83.3611 45.5144 83.5256 45.1437C83.7025 44.7589 83.9089 44.4191 84.1447 44.1242C84.5434 43.432 84.9911 42.9973 85.488 42.8202C85.9848 42.643 86.4883 42.6858 86.9986 42.9486C87.3535 43.0739 87.5705 43.1275 87.6495 43.1093C87.7419 43.0903 87.8124 42.9324 87.8611 42.6356C87.9014 42.4194 87.9417 42.2032 87.9819 41.987C88.0214 41.7575 88.0897 41.4528 88.1867 41.0729C88.4579 40.0412 88.6958 39.2319 88.9005 38.645C89.1185 38.0573 89.3144 37.5445 89.4881 37.1065C89.6158 36.7914 89.7243 36.5978 89.8134 36.5256C89.915 36.4393 90.0194 36.3995 90.1267 36.4063C90.2731 36.3974 90.4094 36.4426 90.5357 36.5417C90.6619 36.6409 90.764 36.7816 90.8419 36.9639C90.9024 37.0804 90.9289 37.1857 90.9212 37.2797C90.9261 37.3595 90.8931 37.4751 90.8221 37.6263C90.6686 37.9563 90.4882 38.3947 90.2811 38.9416C90.0864 39.4745 89.8884 40.0609 89.6869 40.701C89.4988 41.3403 89.3235 41.9721 89.1612 42.5965C88.9988 43.2208 88.8653 43.77 88.7605 44.2439C88.6985 44.5415 88.648 44.9186 88.609 45.3752C88.5833 45.8309 88.5651 46.2995 88.5544 46.7811C88.5428 47.2493 88.5417 47.6702 88.5511 48.0436C88.573 48.403 88.6005 48.6351 88.6336 48.7399C88.7296 49.0012 88.7751 49.1988 88.7699 49.3327C88.778 49.4658 88.75 49.5543 88.6859 49.5983C88.6226 49.6556 88.5181 49.6954 88.3725 49.7176ZM84.8638 47.7071C85.0477 47.6558 85.2229 47.5717 85.3895 47.4547C85.5693 47.3369 85.7546 47.1987 85.9453 47.0402C86.3259 46.7097 86.6549 46.4092 86.9323 46.1385C87.2097 45.8678 87.3792 45.4701 87.4407 44.9454C87.452 44.6909 87.4132 44.4929 87.3244 44.3514C87.2482 44.1957 87.1261 44.0562 86.9583 43.9328C86.7921 43.8361 86.5701 43.8095 86.2922 43.8532C86.0269 43.8827 85.7559 44.0395 85.4793 44.3235C85.1777 44.6357 84.8889 45.0473 84.6128 45.5584C84.35 46.0687 84.1672 46.6876 84.0646 47.4152C84.0461 47.5499 84.0925 47.6539 84.2038 47.7273C84.3152 47.8006 84.5352 47.7939 84.8638 47.7071ZM91.0521 48.4524C90.9924 48.3491 90.921 48.2733 90.8379 48.225C90.754 48.1633 90.7104 48.1058 90.7072 48.0526C90.704 47.9994 90.6941 47.9465 90.6775 47.8941C90.6735 47.8276 90.6432 47.7693 90.5867 47.7193C90.5153 47.6435 90.511 47.4634 90.5739 47.1791C90.6359 46.8814 90.7475 46.5206 90.9087 46.0967C91.0691 45.6595 91.2615 45.2003 91.486 44.7191C91.586 44.6061 91.684 44.4599 91.7799 44.2804C91.8758 44.1009 91.9488 43.9829 91.9988 43.9265C91.9956 43.8732 92.0127 43.8254 92.0502 43.7831C92.0869 43.7274 92.1318 43.698 92.1851 43.6947L92.1778 43.5749C92.1737 43.5084 92.2267 43.3916 92.3368 43.2246C92.4601 43.0568 92.6093 42.8741 92.7843 42.6764C92.9584 42.4654 93.1401 42.2674 93.3292 42.0822C93.5174 41.8837 93.6757 41.7405 93.8039 41.6525C94.0721 41.4492 94.3513 41.3186 94.6417 41.2609C94.9453 41.2023 95.2089 41.2531 95.4324 41.4131C95.4747 41.4506 95.5453 41.5131 95.6442 41.6006C95.743 41.6881 95.856 41.7881 95.983 41.9005C96.1226 41.9989 96.2626 42.1039 96.403 42.2156L97.1817 42.8294L96.8831 43.8494C96.7426 44.3923 96.7243 44.861 96.8285 45.2554C96.946 45.6489 97.1001 45.9869 97.291 46.2691C97.3664 46.4115 97.508 46.5431 97.7158 46.664C97.9368 46.7842 98.1413 46.8519 98.3292 46.8671C98.4365 46.8739 98.5388 46.9078 98.636 46.9687C98.7332 47.0295 98.7863 47.1332 98.7952 47.2796C98.8033 47.4127 98.7831 47.5207 98.7348 47.6038C98.6864 47.6869 98.5965 47.7458 98.465 47.7806C98.0291 47.8605 97.61 47.7792 97.2079 47.5365C96.819 47.293 96.4462 46.8749 96.0895 46.2822C96.0314 46.2056 95.9493 46.0636 95.8432 45.8564C95.7496 45.635 95.6941 45.4914 95.6767 45.4257C95.6275 45.4955 95.5354 45.628 95.4004 45.8232C95.2645 46.0051 95.1591 46.1385 95.0841 46.2232C94.1975 47.2389 93.4184 47.9343 92.7466 48.3091C92.0873 48.6699 91.5225 48.7176 91.0521 48.4524ZM91.7027 47.2907C91.7084 47.3838 91.8481 47.3753 92.122 47.2651C92.4083 47.1408 92.7097 46.9355 93.0262 46.649C93.4552 46.2355 93.8817 45.7821 94.3059 45.2888C94.7433 44.7946 95.0896 44.3394 95.3448 43.9231L95.7402 43.1777C95.5885 42.8797 95.4295 42.6823 95.2633 42.5856C95.1096 42.4747 94.9796 42.4225 94.8731 42.429C94.7001 42.4395 94.4503 42.615 94.1237 42.9555C93.8104 43.2952 93.477 43.7429 93.1235 44.2988C92.77 44.8546 92.4396 45.4625 92.1325 46.1224C92.0156 46.3967 91.9117 46.6635 91.8206 46.9228C91.742 47.1681 91.7027 47.2907 91.7027 47.2907ZM100.851 47.9559C100.811 47.9716 100.744 47.969 100.65 47.9481C100.555 47.9271 100.46 47.8995 100.364 47.8653C100.269 47.831 100.207 47.8014 100.178 47.7764C100.122 47.7264 100.064 47.6498 100.004 47.5466C99.9577 47.4425 99.9484 47.2895 99.9761 47.0874C100.003 46.8721 100.12 46.5911 100.326 46.2446C100.384 46.1075 100.452 45.903 100.529 45.6312C100.606 45.3593 100.682 45.0742 100.757 44.7757C100.845 44.4631 100.921 44.1846 100.987 43.9402C101.065 43.695 101.122 43.5245 101.156 43.429C101.169 43.2011 101.146 43.0422 101.087 42.9523C101.04 42.8482 100.924 42.7952 100.737 42.7933C100.603 42.8014 100.496 42.7946 100.415 42.7728C100.347 42.7502 100.305 42.6192 100.291 42.3796C100.306 42.1917 100.345 42.0624 100.407 41.9918C100.482 41.9071 100.583 41.8141 100.711 41.7128C100.84 41.6382 100.97 41.5835 101.102 41.5488C101.246 41.5133 101.386 41.4981 101.52 41.5033C101.653 41.5085 101.763 41.5486 101.848 41.6236C101.944 41.6711 102.011 41.7873 102.049 41.972C102.086 42.1434 102.11 42.3222 102.122 42.5085C102.146 42.6941 102.168 42.833 102.187 42.9253C102.314 42.8108 102.485 42.6534 102.7 42.4533C102.927 42.2391 103.122 42.0402 103.284 41.8567C103.488 41.6973 103.732 41.5355 104.016 41.3713C104.299 41.1938 104.507 41.1009 104.64 41.0928C104.787 41.0839 104.936 41.1149 105.087 41.1859C105.237 41.2435 105.342 41.3239 105.402 41.4272C105.549 41.6453 105.621 41.8413 105.618 42.0151C105.629 42.1881 105.567 42.3723 105.432 42.5675C105.309 42.7486 105.15 42.8785 104.954 42.9572C104.772 43.0351 104.654 43.0757 104.601 43.0789C104.521 43.0838 104.418 43.03 104.291 42.9175C104.164 42.805 104.091 42.7092 104.073 42.6302C104.07 42.5903 103.986 42.6355 103.821 42.7658C103.667 42.882 103.496 43.0326 103.307 43.2178C103.117 43.3897 102.96 43.5462 102.835 43.6874C102.626 43.9807 102.409 44.3745 102.185 44.869C101.962 45.3636 101.698 45.9607 101.393 46.6605C101.253 47.003 101.158 47.296 101.106 47.5396C101.053 47.7699 100.968 47.9087 100.851 47.9559ZM112.017 47.9371C111.967 47.9936 111.822 48.0225 111.582 48.0238C111.354 48.0242 111.138 47.984 110.933 47.903C110.904 47.8647 110.855 47.8276 110.786 47.7917C110.716 47.7425 110.646 47.6867 110.575 47.6242C110.518 47.5609 110.468 47.5038 110.425 47.453C110.396 47.4147 110.325 47.3456 110.212 47.2456C110.098 47.1323 109.985 47.0257 109.872 46.9257C109.759 46.8257 109.681 46.7569 109.639 46.7194C109.579 46.6162 109.464 46.4896 109.295 46.3396C109.125 46.1763 108.962 46.026 108.807 45.8885C108.705 45.7611 108.605 45.6536 108.506 45.5661C108.408 45.4786 108.324 45.417 108.255 45.3811C108.185 45.3319 108.13 45.3085 108.09 45.311C108.09 45.311 108.069 45.3991 108.026 45.5753C107.996 45.7375 107.949 45.9474 107.884 46.2051C107.832 46.4487 107.774 46.6994 107.71 46.9571C107.658 47.2007 107.616 47.397 107.585 47.5458C107.503 47.7378 107.431 47.8691 107.369 47.9397C107.306 48.0103 107.222 48.0488 107.115 48.0553C106.969 48.0642 106.832 48.0058 106.704 47.88C106.589 47.7534 106.524 47.5636 106.509 47.3108C106.444 47.1277 106.486 46.7177 106.634 46.0809C106.783 45.444 107.02 44.6281 107.347 43.633C107.388 43.4302 107.442 43.2198 107.509 43.002C107.575 42.7709 107.63 42.5805 107.674 42.4309C107.781 41.9836 107.896 41.5692 108.019 41.1876C108.156 40.792 108.299 40.3959 108.448 39.9994C108.597 39.5896 108.75 39.1528 108.909 38.6889C109.014 38.4421 109.09 38.2638 109.137 38.1541C109.183 38.0311 109.236 37.9077 109.295 37.7838C109.353 37.6467 109.441 37.4476 109.559 37.1867C109.819 36.6232 110.026 36.1831 110.18 35.8665C110.334 35.5498 110.454 35.3155 110.538 35.1634C110.622 35.0114 110.696 34.9 110.758 34.8294C110.821 34.7588 110.898 34.7074 110.989 34.6751C111.081 34.6428 111.174 34.6371 111.269 34.6581C111.363 34.6657 111.445 34.7074 111.517 34.7832C111.63 34.8832 111.696 34.9927 111.717 35.1117C111.75 35.2165 111.732 35.3645 111.664 35.5557C111.609 35.7461 111.491 36.0137 111.312 36.3586C111.22 36.6046 111.144 36.7829 111.084 36.8934C111.024 37.0039 110.964 37.1145 110.904 37.225C110.844 37.3355 110.749 37.5283 110.619 37.8034C110.597 37.8849 110.562 37.9738 110.515 38.0702C110.467 38.1666 110.41 38.2168 110.343 38.2209C110.346 38.2608 110.331 38.3419 110.298 38.4641C110.265 38.5863 110.226 38.7023 110.179 38.812C110.148 38.9608 110.091 39.1246 110.009 39.3033C109.938 39.4678 109.887 39.6046 109.853 39.7135C109.796 39.8772 109.703 40.1033 109.574 40.3917C109.458 40.6793 109.341 40.9602 109.225 41.2345C109.12 41.4946 109.059 41.6987 109.041 41.8467C109.045 41.9 109.084 41.8909 109.16 41.8195C109.236 41.7481 109.319 41.6829 109.409 41.624C109.598 41.4522 109.815 41.2787 110.058 41.1036C110.314 40.9143 110.558 40.7526 110.79 40.6182C111.035 40.4697 111.236 40.3773 111.394 40.3409C111.591 40.2756 111.749 40.2392 111.868 40.2319C112.002 40.2238 112.136 40.2423 112.273 40.2875C112.382 40.3342 112.473 40.4021 112.545 40.4913C112.631 40.5795 112.704 40.682 112.765 40.7985C112.838 40.9142 112.894 41.0578 112.931 41.2292C112.938 41.349 112.904 41.5514 112.828 41.8366C112.752 42.1217 112.655 42.4015 112.538 42.6757C112.421 42.9367 112.298 43.1245 112.172 43.239C112.081 43.2846 112.01 43.329 111.96 43.3722C111.909 43.4154 111.883 43.4369 111.883 43.4369C111.887 43.4902 111.864 43.5583 111.816 43.6414C111.781 43.7237 111.711 43.7947 111.608 43.8544C111.558 43.9109 111.502 43.9811 111.441 44.065C111.379 44.1489 111.349 44.2108 111.352 44.2508C111.352 44.2508 111.353 44.2707 111.355 44.3106C111.357 44.3373 111.358 44.3506 111.358 44.3506C111.305 44.3538 111.227 44.3986 111.126 44.4849C111.037 44.5705 110.923 44.6709 110.783 44.7863C110.646 44.9416 110.544 45.0279 110.478 45.0453C110.426 45.0619 110.348 45.0933 110.244 45.1397C110.219 45.168 110.187 45.19 110.148 45.2057C110.122 45.2206 110.089 45.236 110.05 45.2517C110.024 45.2666 109.999 45.2816 109.973 45.2965C109.96 45.3106 109.955 45.331 109.956 45.3576C109.96 45.4108 110.027 45.5203 110.157 45.686C110.3 45.8376 110.464 46.008 110.649 46.1971C110.847 46.3854 111.032 46.5612 111.202 46.7244C111.385 46.8736 111.518 46.9724 111.601 47.0208C111.737 47.0659 111.836 47.1534 111.897 47.2832C111.971 47.3989 112.019 47.5229 112.04 47.6552C112.061 47.7742 112.053 47.8682 112.017 47.9371ZM109.406 44.5496C109.47 44.4923 109.603 44.3773 109.806 44.2046C110.009 44.0186 110.23 43.8181 110.471 43.6031C110.711 43.3748 110.925 43.1614 111.113 42.9629C111.314 42.7503 111.451 42.595 111.526 42.497C111.613 42.3981 111.696 42.2327 111.776 42.0008C111.855 41.7689 111.858 41.5884 111.783 41.4594C111.766 41.407 111.648 41.4409 111.428 41.5611C111.209 41.6814 110.957 41.8236 110.673 41.9878C110.455 42.1347 110.199 42.3239 109.906 42.5555C109.626 42.7863 109.361 43.0295 109.109 43.2853C108.871 43.5402 108.692 43.7849 108.573 44.0193C108.552 44.114 108.585 44.2189 108.672 44.3338C108.759 44.4487 108.871 44.5354 109.008 44.5938C109.145 44.639 109.277 44.6242 109.406 44.5496ZM120.473 46.4805C120.273 46.4927 120.079 46.3842 119.892 46.1552C119.717 45.9121 119.577 45.6 119.474 45.2189C119.383 44.8237 119.338 44.4123 119.339 43.9848C119.313 43.5589 119.312 43.2183 119.337 42.963C119.374 42.6936 119.411 42.4309 119.449 42.1748C119.484 42.0925 119.5 42.0247 119.497 41.9715C119.507 41.9174 119.515 41.8301 119.521 41.7095C119.54 41.5881 119.575 41.3857 119.624 41.1021C119.664 40.8726 119.705 40.6831 119.75 40.5334C119.794 40.3838 119.841 40.2807 119.891 40.2243C119.953 40.1404 120.037 40.0885 120.142 40.0687C120.247 40.0356 120.354 40.0358 120.463 40.0692C120.572 40.1027 120.663 40.1706 120.736 40.273C120.82 40.3347 120.869 40.4853 120.884 40.7249C120.911 40.9503 120.912 41.1907 120.887 41.446C120.862 41.688 120.813 41.8646 120.739 41.976C120.717 42.0441 120.694 42.2192 120.671 42.5011C120.662 42.7822 120.646 43.077 120.625 43.3855C120.617 43.6933 120.599 43.9415 120.57 44.1302C120.545 44.3722 120.576 44.564 120.665 44.7055C120.767 44.8462 120.934 44.8428 121.165 44.6951C121.409 44.5333 121.719 44.1404 122.095 43.5164C122.351 43.1001 122.544 42.7611 122.675 42.4993C122.806 42.2375 122.905 41.9977 122.972 41.7799C123.051 41.548 123.129 41.3028 123.207 41.0442C123.261 40.8272 123.31 40.6506 123.355 40.5143C123.413 40.3638 123.467 40.267 123.518 40.2238C123.607 40.1516 123.712 40.1185 123.833 40.1245C123.966 40.1297 124.116 40.1807 124.283 40.2775C124.452 40.4274 124.544 40.6156 124.557 40.8418C124.57 41.0547 124.507 41.3258 124.367 41.6549C124.273 41.8743 124.183 42.1536 124.097 42.4928C124.024 42.8312 123.965 43.1755 123.919 43.5255C123.886 43.8615 123.876 44.1359 123.889 44.3489C123.906 44.6151 123.949 44.7727 124.018 44.8219C124.101 44.857 124.195 44.8713 124.301 44.8648C124.461 44.8551 124.651 44.7834 124.869 44.6499C125.088 44.5163 125.329 44.2946 125.59 43.9848C125.703 43.8578 125.839 43.6758 125.998 43.439C126.156 43.189 126.308 42.9326 126.452 42.67C126.609 42.3933 126.734 42.1519 126.829 41.9458C126.936 41.7389 126.989 41.6088 126.985 41.5555C126.98 41.4757 127.033 41.3589 127.144 41.2052C127.218 41.0939 127.273 41.0104 127.309 40.9547C127.359 40.885 127.448 40.8127 127.577 40.7381C127.68 40.6784 127.773 40.666 127.855 40.7011C127.936 40.7229 128.027 40.7841 128.127 40.8849C128.196 40.9341 128.235 41.0119 128.241 41.1184C128.261 41.2241 128.276 41.3568 128.285 41.5165C128.254 41.6653 128.2 41.8623 128.121 42.1075C128.055 42.3387 127.975 42.5639 127.882 42.7833C127.801 42.9886 127.729 43.1332 127.668 43.2172C127.618 43.2736 127.53 43.3791 127.406 43.5336C127.281 43.6748 127.17 43.8285 127.074 43.9947C126.765 44.4142 126.542 44.6883 126.402 44.817C126.263 44.9457 126.144 45.0665 126.044 45.1795C125.781 45.476 125.502 45.7067 125.204 45.8718C124.906 46.0235 124.618 46.1079 124.338 46.1249C124.072 46.1411 123.842 46.0883 123.647 45.9666C123.222 45.7788 122.994 45.432 122.963 44.9263C122.956 44.8198 122.931 44.7279 122.886 44.6504C122.854 44.5589 122.837 44.5131 122.837 44.5131C122.784 44.5164 122.712 44.5341 122.62 44.5664C122.542 44.5979 122.461 44.6963 122.378 44.8617C122.272 45.0953 122.093 45.3399 121.841 45.5957C121.602 45.8373 121.355 46.0461 121.098 46.222C120.841 46.3846 120.632 46.4708 120.473 46.4805ZM130.965 46.1622C130.86 46.1953 130.721 46.2171 130.548 46.2276C130.374 46.2249 130.22 46.2142 130.085 46.1957C129.963 46.1631 129.901 46.1268 129.898 46.0869C129.894 46.0203 129.859 45.9891 129.792 45.9931C129.792 45.9931 129.757 45.9686 129.688 45.9194C129.631 45.8694 129.541 45.8214 129.418 45.7755C129.287 45.5964 129.215 45.4005 129.202 45.1875C129.188 44.9613 129.227 44.6049 129.317 44.1185C129.337 43.7834 129.44 43.3897 129.626 42.9376C129.825 42.4713 130.07 41.9955 130.361 41.5103C130.652 41.025 130.959 40.5856 131.282 40.1918C131.619 39.7973 131.928 39.5046 132.211 39.3138C132.386 39.1161 132.606 39.0025 132.871 38.973C133.137 38.9435 133.393 38.988 133.641 39.1065C133.778 39.1649 133.918 39.2633 134.06 39.4016C134.202 39.5399 134.338 39.6919 134.468 39.8576C134.598 40.0233 134.709 40.1903 134.799 40.3584C134.848 40.5024 134.876 40.6342 134.883 40.754C134.903 40.8597 134.911 40.9928 134.908 41.1533C134.917 41.313 134.912 41.5538 134.891 41.8756C134.839 42.1192 134.797 42.4156 134.765 42.7649C134.746 43.1134 134.745 43.414 134.76 43.6669C134.749 43.9214 134.786 44.0994 134.873 44.201C134.972 44.3018 135.106 44.3004 135.273 44.1967C135.428 44.1071 135.579 44.0645 135.726 44.0689C135.873 44.06 135.988 44.093 136.073 44.168C136.171 44.2422 136.225 44.3591 136.235 44.5188C136.244 44.6785 136.175 44.8498 136.025 45.0325C135.889 45.2011 135.711 45.3522 135.492 45.4858C135.286 45.6052 135.082 45.671 134.883 45.6832C134.736 45.6921 134.591 45.6141 134.448 45.4492C134.303 45.2709 134.17 45.0587 134.048 44.8123C133.939 44.5518 133.837 44.3042 133.743 44.0695L133.595 43.6176L132.786 44.4884C132.625 44.6852 132.462 44.8688 132.299 45.039C132.148 45.1951 132.055 45.3077 132.019 45.3767C131.96 45.5005 131.841 45.628 131.661 45.7591C131.496 45.8894 131.264 46.0238 130.965 46.1622ZM130.953 44.9807C131.171 44.8339 131.419 44.6251 131.696 44.3544C131.973 44.0704 132.241 43.7668 132.502 43.4437C132.762 43.1073 132.977 42.8003 133.148 42.5228C133.355 42.2029 133.511 41.9062 133.614 41.6328C133.718 41.3593 133.789 41.1012 133.828 40.8584C133.765 40.7152 133.67 40.5674 133.54 40.415C133.41 40.2493 133.298 40.1626 133.204 40.155C132.911 40.1728 132.61 40.3782 132.299 40.7711C132.002 41.1499 131.713 41.5615 131.433 42.006C131.384 42.0758 131.317 42.1868 131.233 42.3388C131.149 42.4909 131.064 42.6363 130.979 42.7751C130.906 42.8997 130.858 42.9828 130.834 43.0244C130.797 43.08 130.727 43.2379 130.622 43.4981C130.53 43.7441 130.439 43.9968 130.348 44.2562C130.256 44.5022 130.212 44.6652 130.217 44.745C130.222 44.8249 130.234 44.911 130.253 45.0033C130.285 45.0949 130.355 45.1507 130.464 45.1708C130.572 45.191 130.735 45.1276 130.953 44.9807ZM137.578 45.3988C137.44 45.3271 137.335 45.2533 137.264 45.1775C137.192 45.1017 137.152 44.9906 137.143 44.8442C137.131 44.6446 137.145 44.4367 137.186 44.2205C137.225 43.991 137.265 43.7682 137.305 43.552C137.317 43.3108 137.336 43.0692 137.361 42.8272C137.399 42.5711 137.478 42.3326 137.598 42.1115C137.714 41.5969 137.836 41.0885 137.966 40.5863C138.095 40.0709 138.203 39.5433 138.29 39.0037C138.434 38.5007 138.56 38.0589 138.671 37.6781C138.794 37.2833 138.944 36.7866 139.121 36.188C139.22 35.848 139.299 35.4892 139.356 35.1117C139.426 34.7201 139.544 34.3656 139.712 34.0481C139.784 33.9235 139.838 33.82 139.873 33.7377C139.921 33.6413 139.969 33.5516 140.017 33.4685C140.027 33.4145 140.065 33.3787 140.131 33.3614C140.21 33.3432 140.297 33.3446 140.392 33.3655C140.486 33.3865 140.562 33.4286 140.62 33.4919C140.659 33.4762 140.708 33.5133 140.767 33.6032C140.838 33.679 140.904 33.7685 140.964 33.8717C141.023 33.975 141.049 34.0669 141.04 34.1476C141.044 34.2008 141.035 34.2748 141.014 34.3696C141.006 34.4636 140.978 34.5521 140.93 34.6352C140.88 34.6917 140.831 34.7748 140.785 34.8845C140.75 34.9801 140.692 35.1172 140.609 35.2959C140.567 35.4721 140.531 35.6546 140.502 35.8434C140.473 36.0188 140.43 36.1818 140.372 36.3322C140.328 36.4952 140.271 36.6523 140.2 36.8035C140.143 36.954 140.103 37.0766 140.082 37.1714C140.008 37.4832 139.913 37.7895 139.798 38.0904C139.696 38.3905 139.608 38.7097 139.535 39.0481C139.462 39.3732 139.389 39.7116 139.317 40.0633C139.244 40.4017 139.13 40.7292 138.976 41.0458C138.892 41.1979 138.836 41.3882 138.81 41.6169C138.784 41.8456 138.758 42.0743 138.732 42.303C138.667 42.5474 138.607 42.7781 138.554 42.9951C138.512 43.1979 138.494 43.326 138.497 43.3792C138.435 43.6769 138.393 43.9733 138.371 44.2685C138.361 44.5497 138.309 44.7999 138.216 45.0193C138.211 45.1532 138.191 45.2613 138.156 45.3436C138.121 45.4259 138.057 45.4765 137.964 45.4955C137.871 45.5012 137.742 45.469 137.578 45.3988ZM141.008 45.1499C140.955 45.1531 140.887 45.1439 140.806 45.1221C140.737 45.0862 140.702 45.0683 140.702 45.0683C140.699 45.0151 140.675 44.9497 140.63 44.8723C140.599 44.7941 140.582 44.7283 140.578 44.6751C140.482 44.6276 140.425 44.5776 140.409 44.5251C140.392 44.4594 140.405 44.3517 140.449 44.2021C140.521 44.0641 140.615 43.8447 140.73 43.5438C140.844 43.2296 140.964 42.895 141.09 42.5401C141.214 42.1718 141.332 41.8107 141.444 41.4565C141.556 41.1024 141.652 40.8027 141.73 40.5575C141.808 40.299 141.852 40.1427 141.862 40.0886C141.859 40.0354 141.875 39.9676 141.91 39.8853C141.945 39.8031 141.987 39.7337 142.037 39.6772C142.138 39.5776 142.251 39.564 142.375 39.6366C142.499 39.6958 142.606 39.8095 142.697 39.9777C142.8 40.1317 142.857 40.3085 142.869 40.5082C142.875 40.6013 142.823 40.8449 142.713 41.239C142.603 41.6197 142.451 42.0765 142.256 42.6093C142.075 43.1413 141.867 43.6816 141.633 44.2302C141.457 44.6283 141.346 44.8822 141.299 44.9919C141.251 45.0883 141.154 45.141 141.008 45.1499ZM143.482 37.4052C143.322 37.4149 143.145 37.3656 142.952 37.2571C142.771 37.1346 142.608 36.9842 142.464 36.806C142.332 36.6136 142.26 36.4177 142.247 36.218C142.243 36.1515 142.278 36.0559 142.35 35.9313C142.423 35.8066 142.495 35.682 142.568 35.5573C142.64 35.4327 142.676 35.3571 142.674 35.3304C142.781 35.324 142.861 35.3258 142.915 35.3358C142.982 35.3318 143.063 35.3535 143.159 35.4011C143.326 35.7249 143.522 35.9868 143.748 36.1867C143.987 36.3859 144.112 36.5587 144.12 36.7051C144.138 36.9979 144.123 37.1858 144.075 37.2689C144.025 37.3387 143.828 37.3841 143.482 37.4052ZM152.09 44.9359C151.922 45.0263 151.724 45.0717 151.497 45.0722C151.27 45.0727 150.959 45.0181 150.565 44.9085C150.539 44.9102 150.477 44.8872 150.381 44.8396C150.298 44.7912 150.207 44.73 150.109 44.6558C150.023 44.5675 149.951 44.4717 149.891 44.3685C149.66 44.0754 149.545 43.6281 149.549 43.0268C149.552 42.4255 149.695 41.6955 149.977 40.8368C150.058 40.6315 150.182 40.3701 150.35 40.0527C150.531 39.7344 150.707 39.4432 150.878 39.179C151.061 38.9006 151.191 38.7391 151.269 38.6943C151.269 38.6943 151.34 38.6632 151.484 38.6011C151.627 38.5389 151.808 38.4411 152.027 38.3075C152.092 38.2768 152.163 38.2458 152.241 38.2143C152.333 38.182 152.425 38.1563 152.517 38.1374C152.61 38.1184 152.689 38.1135 152.757 38.1228C153.024 38.1199 153.303 38.2031 153.594 38.3724C153.897 38.5276 154.149 38.7193 154.35 38.9475C154.55 39.1624 154.622 39.3584 154.566 39.5354C154.568 39.562 154.531 39.6177 154.456 39.7024C154.393 39.773 154.318 39.8511 154.23 39.9366C154.154 40.008 154.091 40.0786 154.042 40.1484C153.981 40.2323 153.889 40.2712 153.769 40.2652C153.662 40.2584 153.559 40.2112 153.46 40.1238C153.373 40.0221 153.319 39.8919 153.296 39.733C153.263 39.6282 153.157 39.5344 152.978 39.4518C152.813 39.3684 152.73 39.3266 152.73 39.3266C152.623 39.3331 152.476 39.4423 152.289 39.654C152.114 39.8517 151.942 40.0893 151.771 40.3668C151.546 40.621 151.358 40.9197 151.205 41.2629C151.051 41.5929 150.93 41.9075 150.842 42.2067C150.765 42.4919 150.711 42.6956 150.678 42.8178C150.633 42.9541 150.638 43.1408 150.692 43.378C150.747 43.6151 150.802 43.7587 150.859 43.8086C150.914 43.832 151.047 43.8306 151.259 43.8043C151.485 43.7772 151.749 43.7344 152.053 43.6758C152.356 43.6039 152.652 43.5258 152.94 43.4414C153.229 43.3571 153.464 43.2693 153.646 43.1781C153.889 43.003 154.103 42.8965 154.287 42.8585C154.472 42.8205 154.612 42.812 154.707 42.833C154.856 42.8773 154.947 42.9452 154.98 43.0368C155.012 43.1283 154.985 43.2368 154.899 43.3622C154.813 43.4744 154.66 43.5972 154.441 43.7308C154.234 43.8502 154.049 43.9818 153.884 44.1254C153.731 44.2549 153.657 44.3529 153.661 44.4194C153.608 44.4227 153.549 44.4463 153.485 44.4903C153.434 44.5201 153.387 44.5296 153.347 44.5187C153.32 44.5204 153.215 44.5468 153.031 44.5981C152.847 44.6494 152.657 44.7077 152.46 44.7731C152.277 44.8377 152.154 44.8919 152.09 44.9359ZM157.347 44.0548C157.254 44.0737 157.155 44.0798 157.047 44.073C156.953 44.052 156.857 44.0111 156.759 43.9503C156.646 43.8503 156.568 43.7749 156.525 43.7241C156.481 43.66 156.462 43.561 156.467 43.4271C156.486 43.2924 156.52 43.0832 156.569 42.7997C156.623 42.5827 156.685 42.2851 156.755 41.9067C156.825 41.5151 156.902 41.1297 156.985 40.7506C157.012 40.5353 157.052 40.3124 157.105 40.0821C157.171 39.851 157.238 39.6399 157.307 39.4487C157.374 39.2442 157.425 39.0875 157.458 38.9786C157.542 38.5995 157.622 38.2673 157.698 37.9822C157.788 37.6962 157.895 37.3691 158.019 37.0008C158.143 36.6193 158.293 36.1159 158.468 35.4908C158.712 34.6744 158.895 34.0555 159.016 33.634C159.15 33.1984 159.245 32.8854 159.3 32.695C159.368 32.4905 159.412 32.3343 159.432 32.2262C159.425 32.1197 159.447 32.0382 159.497 31.9817C159.56 31.9245 159.638 31.893 159.732 31.8873C159.918 31.876 160.07 31.9602 160.188 32.14C160.318 32.3058 160.404 32.5142 160.446 32.7655C160.488 33.0034 160.461 33.2321 160.368 33.4515C160.184 33.9436 159.993 34.5297 159.794 35.2097C159.594 35.8764 159.4 36.536 159.213 37.1886C159.025 37.8279 158.844 38.3732 158.671 38.8246C158.675 38.8778 158.66 38.9722 158.628 39.1077C158.597 39.2432 158.557 39.3658 158.511 39.4756C158.464 39.5853 158.417 39.6883 158.369 39.7847C158.335 39.8803 158.318 39.9281 158.318 39.9281C158.321 39.9813 158.307 40.0824 158.276 40.2312C158.245 40.38 158.203 40.5629 158.149 40.7799C158.106 40.9429 158.052 41.1532 157.987 41.4109C157.936 41.6679 157.903 41.8836 157.886 42.0583C157.946 41.9344 158.074 41.7463 158.273 41.4937C158.471 41.2412 158.658 41.0228 158.834 40.8384C159.036 40.6391 159.263 40.4183 159.515 40.1758C159.767 39.9333 159.97 39.754 160.123 39.6378C160.277 39.5216 160.411 39.42 160.526 39.3328C160.653 39.2315 160.717 39.1809 160.717 39.1809C160.714 39.1277 160.732 39.0998 160.772 39.0974C160.824 39.0809 160.877 39.071 160.93 39.0677C160.984 39.0645 161.01 39.0562 161.009 39.0429C161.021 39.0288 161.026 38.9951 161.023 38.9419C161.019 38.8753 161.088 38.811 161.231 38.7488C161.388 38.6859 161.565 38.635 161.763 38.5962C161.974 38.5433 162.145 38.5128 162.279 38.5047C162.438 38.495 162.567 38.5206 162.664 38.5815C162.761 38.6423 162.89 38.7814 163.05 38.9988C163.223 39.202 163.338 39.4554 163.397 39.7591C163.468 40.0486 163.46 40.3564 163.373 40.6822C163.379 40.7887 163.369 40.943 163.341 41.145C163.326 41.333 163.325 41.5334 163.338 41.7464L163.257 42.3925L163.576 42.373C163.683 42.3665 163.784 42.3804 163.879 42.4147C163.974 42.4356 164.021 42.4461 164.021 42.4461C164.078 42.4961 164.134 42.5461 164.191 42.5961C164.246 42.6328 164.301 42.6495 164.354 42.6462C164.514 42.6365 164.578 42.6994 164.546 42.8349C164.513 42.9571 164.42 43.0763 164.267 43.1925C163.961 43.4249 163.674 43.5492 163.408 43.5654C163.155 43.5808 162.916 43.4885 162.69 43.2886C162.463 43.0753 162.315 42.8305 162.245 42.5543C162.174 42.278 162.18 41.9237 162.26 41.4914C162.278 40.9026 162.278 40.4751 162.262 40.2089C162.258 39.9286 162.183 39.7929 162.037 39.8018C161.904 39.8099 161.677 39.9173 161.355 40.1238C161.033 40.3171 160.675 40.5794 160.281 40.9106C159.887 41.2418 159.502 41.6059 159.125 42.0029C158.749 42.3998 158.44 42.806 158.198 43.2215C158.05 43.4309 157.908 43.6198 157.771 43.7885C157.634 43.9438 157.492 44.0325 157.347 44.0548ZM166.05 43.8855C165.99 43.7822 165.919 43.7064 165.836 43.6581C165.752 43.5964 165.708 43.5389 165.705 43.4857C165.702 43.4324 165.692 43.3796 165.675 43.3272C165.671 43.2607 165.641 43.2024 165.585 43.1524C165.513 43.0766 165.509 42.8965 165.572 42.6122C165.634 42.3145 165.745 41.9537 165.906 41.5298C166.067 41.0926 166.259 40.6334 166.484 40.1522C166.584 40.0392 166.682 39.893 166.778 39.7135C166.874 39.534 166.947 39.416 166.997 39.3596C166.993 39.3063 167.01 39.2585 167.048 39.2162C167.085 39.1605 167.13 39.131 167.183 39.1278L167.176 39.008C167.172 38.9415 167.225 38.8247 167.335 38.6577C167.458 38.4899 167.607 38.3072 167.782 38.1095C167.956 37.8985 168.138 37.7004 168.327 37.5153C168.515 37.3168 168.673 37.1736 168.802 37.0856C169.07 36.8823 169.349 36.7517 169.639 36.694C169.943 36.6354 170.207 36.6862 170.43 36.8462C170.473 36.8837 170.543 36.9462 170.642 37.0337C170.741 37.1212 170.854 37.2212 170.981 37.3336C171.12 37.432 171.26 37.537 171.401 37.6487L172.179 38.2625L171.881 39.2825C171.74 39.8254 171.722 40.2941 171.826 40.6885C171.944 41.082 172.098 41.42 172.289 41.7022C172.364 41.8446 172.506 41.9762 172.714 42.0971C172.935 42.2172 173.139 42.2849 173.327 42.3002C173.434 42.307 173.537 42.3409 173.634 42.4018C173.731 42.4626 173.784 42.5663 173.793 42.7127C173.801 42.8457 173.781 42.9538 173.733 43.0369C173.684 43.12 173.594 43.1789 173.463 43.2137C173.027 43.2936 172.608 43.2123 172.206 42.9696C171.817 42.7261 171.444 42.308 171.087 41.7153C171.029 41.6387 170.947 41.4967 170.841 41.2894C170.747 41.0681 170.692 40.9245 170.675 40.8588C170.625 40.9286 170.533 41.0611 170.398 41.2563C170.262 41.4382 170.157 41.5716 170.082 41.6563C169.195 42.672 168.416 43.3673 167.744 43.7422C167.085 44.1029 166.52 44.1507 166.05 43.8855ZM166.701 42.7238C166.706 42.8169 166.846 42.8084 167.12 42.6982C167.406 42.5739 167.707 42.3686 168.024 42.0821C168.453 41.6686 168.88 41.2152 169.304 40.7218C169.741 40.2277 170.087 39.7724 170.343 39.3562L170.738 38.6108C170.586 38.3128 170.427 38.1154 170.261 38.0186C170.107 37.9078 169.977 37.8556 169.871 37.8621C169.698 37.8726 169.448 38.0481 169.122 38.3886C168.808 38.7283 168.475 39.176 168.121 39.7319C167.768 40.2877 167.437 40.8956 167.13 41.5555C167.013 41.8298 166.909 42.0966 166.818 42.3559C166.74 42.6012 166.701 42.7238 166.701 42.7238ZM175.629 43.4024C175.427 43.3879 175.246 43.2587 175.084 43.0147C174.935 42.7567 174.84 42.522 174.801 42.3107C174.808 42.2034 174.812 42.0495 174.813 41.8491C174.827 41.6478 174.841 41.4399 174.855 41.2254C174.893 40.9692 174.947 40.6587 175.019 40.2937C175.089 39.9154 175.16 39.5371 175.23 39.1587C175.314 38.7796 175.388 38.4545 175.451 38.1835C175.515 37.9125 175.558 37.7495 175.582 37.6947C175.642 37.5841 175.747 37.551 175.896 37.5954C176.046 37.6397 176.171 37.7122 176.27 37.813C176.357 37.9146 176.411 38.0382 176.433 38.1838C176.469 38.3286 176.462 38.5427 176.412 38.8263C176.376 39.109 176.294 39.5281 176.168 40.0834C176.054 40.6247 175.967 41.0641 175.908 41.4017C175.861 41.7252 175.855 42.0662 175.89 42.4247C175.864 42.8804 175.841 43.1623 175.821 43.2704C175.8 43.3652 175.736 43.4092 175.629 43.4024ZM177.439 35.2973C177.389 35.3405 177.337 35.3637 177.283 35.3669C177.243 35.356 177.167 35.3206 177.057 35.2605C176.963 35.2529 176.839 35.2003 176.686 35.1027C176.546 34.9911 176.419 34.8786 176.305 34.7653C176.204 34.6379 176.152 34.5608 176.151 34.5342C176.129 34.402 176.126 34.2352 176.14 34.0339C176.167 33.8186 176.229 33.6278 176.326 33.4616C176.422 33.2821 176.569 33.1796 176.768 33.1542C176.821 33.1509 176.868 33.1547 176.909 33.1656C176.95 33.1765 177.072 33.2158 177.277 33.2835C177.395 33.4766 177.516 33.6964 177.637 33.9428C177.759 34.1758 177.82 34.4126 177.821 34.6529C177.821 34.88 177.694 35.0948 177.439 35.2973Z" fill="#FF3B30"/>
<path d="M222.958 133.681C223.168 133.502 223.193 133.187 223.014 132.977L220.094 129.553C219.915 129.343 219.599 129.318 219.389 129.497C219.179 129.676 219.154 129.992 219.333 130.202L221.929 133.245L218.886 135.841C218.676 136.02 218.651 136.336 218.83 136.546C219.009 136.756 219.325 136.781 219.535 136.602L222.958 133.681ZM109.332 89L108.998 89.3722C123.896 102.733 137.109 112.647 154.208 119.815C171.302 126.982 192.247 131.391 222.594 133.8L222.634 133.301L222.673 132.803C192.38 130.399 171.552 126.002 154.595 118.893C137.643 111.786 124.526 101.955 109.666 88.6278L109.332 89Z" fill="#2E2E2E"/>
</svg>
