<svg width="704" height="108" viewBox="0 0 704 108" fill="none" xmlns="http://www.w3.org/2000/svg">
<line x1="350.091" x2="350.091" y2="50" stroke="#F22E62" stroke-width="0.5"/>
<line x1="701.841" y1="50.25" x2="1.84106" y2="50.25" stroke="#F22E62" stroke-width="0.5"/>
<path d="M1.66429 107.735C1.76192 107.833 1.92021 107.833 2.01784 107.735L3.60883 106.144C3.70646 106.047 3.70646 105.889 3.60883 105.791C3.5112 105.693 3.35291 105.693 3.25528 105.791L1.84106 107.205L0.426851 105.791C0.32922 105.693 0.170929 105.693 0.0732975 105.791C-0.0243336 105.889 -0.0243336 106.047 0.0732975 106.144L1.66429 107.735ZM1.84106 50H1.59106L1.59106 107.559H1.84106H2.09106L2.09106 50H1.84106Z" fill="#F22E62"/>
<path d="M176.664 107.735C176.762 107.833 176.92 107.833 177.018 107.735L178.609 106.144C178.706 106.047 178.706 105.889 178.609 105.791C178.511 105.693 178.353 105.693 178.255 105.791L176.841 107.205L175.427 105.791C175.329 105.693 175.171 105.693 175.073 105.791C174.976 105.889 174.976 106.047 175.073 106.144L176.664 107.735ZM176.841 50H176.591V107.559H176.841H177.091V50H176.841Z" fill="#F22E62"/>
<path d="M349.664 107.735C349.762 107.833 349.92 107.833 350.018 107.735L351.609 106.144C351.706 106.047 351.706 105.889 351.609 105.791C351.511 105.693 351.353 105.693 351.255 105.791L349.841 107.205L348.427 105.791C348.329 105.693 348.171 105.693 348.073 105.791C347.976 105.889 347.976 106.047 348.073 106.144L349.664 107.735ZM349.841 50H349.591V107.559H349.841H350.091V50H349.841Z" fill="#F22E62"/>
<path d="M526.664 107.735C526.762 107.833 526.92 107.833 527.018 107.735L528.609 106.144C528.706 106.047 528.706 105.889 528.609 105.791C528.511 105.693 528.353 105.693 528.255 105.791L526.841 107.205L525.427 105.791C525.329 105.693 525.171 105.693 525.073 105.791C524.976 105.889 524.976 106.047 525.073 106.144L526.664 107.735ZM526.841 50H526.591V107.559H526.841H527.091V50H526.841Z" fill="#F22E62"/>
<path d="M701.664 107.735C701.762 107.833 701.92 107.833 702.018 107.735L703.609 106.144C703.706 106.047 703.706 105.889 703.609 105.791C703.511 105.693 703.353 105.693 703.255 105.791L701.841 107.205L700.427 105.791C700.329 105.693 700.171 105.693 700.073 105.791C699.976 105.889 699.976 106.047 700.073 106.144L701.664 107.735ZM701.841 50H701.591V107.559H701.841H702.091V50H701.841Z" fill="#F22E62"/>
</svg>
