<svg width="141" height="66" viewBox="0 0 141 66" fill="none" xmlns="http://www.w3.org/2000/svg">
<path d="M55.0747 22.2507C54.9954 22.3051 54.9019 22.2931 54.7942 22.2145C54.6998 22.1358 54.5578 21.991 54.3683 21.7803C54.2735 21.6749 54.212 21.5624 54.1837 21.4427C54.1554 21.3231 54.159 21.0964 54.1945 20.7625C54.2458 20.6151 54.2706 20.4748 54.2688 20.3415C54.2803 20.208 54.2857 20.1146 54.285 20.0612C54.2839 19.9812 54.3013 19.7943 54.3374 19.5005C54.3867 19.2064 54.4359 18.8991 54.4849 18.5784C54.5337 18.2444 54.5769 17.9904 54.6146 17.8166C54.6144 17.8032 54.6206 17.7698 54.6332 17.7163C54.6458 17.6628 54.6585 17.6159 54.6713 17.5758C54.6963 17.4554 54.7275 17.295 54.7648 17.0945C54.8154 16.8937 54.8587 16.6465 54.8947 16.3526C54.9969 16.0179 55.0791 15.6901 55.1414 15.3692C55.2169 15.0348 55.2538 14.8076 55.2522 14.6876C55.2489 14.4476 55.3399 14.2731 55.5251 14.1639C55.5376 14.097 55.5762 13.9965 55.641 13.8623C55.7057 13.7147 55.7641 13.5939 55.8161 13.4999C56.0725 12.7363 56.2843 12.1334 56.4517 11.6911C56.6189 11.2354 56.7935 10.8397 56.9756 10.5039C57.0526 10.2761 57.1361 10.0417 57.2261 9.80041C57.3295 9.55899 57.4337 9.37089 57.5385 9.23612C57.6028 9.0619 57.7531 8.83984 57.9895 8.56995C58.2257 8.28672 58.4754 8.01664 58.7386 7.75972C59.0016 7.48946 59.2122 7.28659 59.3704 7.1511C59.6617 7.00047 59.8937 6.89731 60.0663 6.84163C60.2389 6.78596 60.4651 6.75622 60.7451 6.75242C60.9984 6.74899 61.1655 6.78006 61.2464 6.84563C61.3405 6.8977 61.4752 7.00255 61.6507 7.16018C61.8401 7.35763 61.9486 7.48951 61.9761 7.55581C62.0037 7.62211 62.0187 7.74858 62.0213 7.93523C61.997 8.10891 61.9267 8.33655 61.8105 8.61815C61.7075 8.88624 61.5908 9.13451 61.4606 9.36296C61.3435 9.5779 61.245 9.69258 61.1652 9.707C61.006 9.7625 60.8858 9.75079 60.8047 9.67188C60.7368 9.57946 60.7015 9.43326 60.6988 9.23328C60.6975 9.13995 60.6696 9.05366 60.6152 8.97439C60.574 8.8816 60.5533 8.83521 60.5533 8.83521C60.5528 8.79522 60.5586 8.72847 60.5706 8.63496C60.5958 8.52794 60.6345 8.42741 60.6866 8.33336C60.7514 8.19914 60.7634 8.09897 60.7225 8.03285C60.6949 7.96655 60.6081 7.95439 60.462 7.99638C60.4223 8.02358 60.3168 8.10502 60.1452 8.24069C59.9737 8.37636 59.7892 8.53221 59.5915 8.70824C59.4071 8.87076 59.2425 9.02634 59.0978 9.17498C58.9532 9.32362 58.8811 9.41794 58.8816 9.45794C58.8816 9.45794 58.8558 9.51829 58.8041 9.639C58.7522 9.74638 58.6541 9.88773 58.5098 10.063C58.4183 10.1976 58.3334 10.3321 58.2552 10.4665C58.1902 10.5874 58.1579 10.6612 58.1582 10.6879C58.159 10.7412 58.1531 10.8013 58.1407 10.8681C58.1414 10.9214 58.1084 10.9486 58.0418 10.9495C58.0418 10.9495 58.0226 11.0097 57.9842 11.1303C57.9459 11.2508 57.8746 11.4051 57.7705 11.5932C57.719 11.7272 57.6542 11.8681 57.5762 12.0159C57.498 12.1503 57.4326 12.2445 57.38 12.2986L57.4 12.2983C57.4 12.2983 57.3678 12.3854 57.3035 12.5596C57.2524 12.7203 57.1947 12.8945 57.1306 13.082C57.0663 13.2562 57.0343 13.3567 57.0347 13.3833C57.0354 13.4367 57.1291 13.4621 57.3157 13.4595C57.5157 13.4568 57.7488 13.4337 58.0149 13.39C58.2808 13.3331 58.52 13.2765 58.7326 13.2203C58.9186 13.1644 59.0448 13.1361 59.1115 13.1352C59.1782 13.1343 59.3118 13.1591 59.5126 13.2097C59.6201 13.2749 59.7081 13.3738 59.7766 13.5062C59.8582 13.6251 59.9132 13.7443 59.9415 13.864C59.9829 13.9701 59.984 14.0501 59.9447 14.1039C59.9321 14.1575 59.7864 14.2328 59.5077 14.3299C59.229 14.427 58.9501 14.5041 58.6708 14.5613C58.4315 14.6178 58.1391 14.6818 57.7933 14.7532C57.4476 14.8245 57.1418 14.8887 56.8758 14.9456C56.6233 15.0024 56.4972 15.0508 56.4978 15.0908C56.4445 15.0915 56.3982 15.1255 56.3591 15.1927C56.3199 15.2465 56.3005 15.2935 56.3011 15.3335C56.3036 15.5201 56.2788 15.6605 56.2268 15.7545C56.2012 15.8349 56.1567 15.9955 56.0933 16.2364C56.0299 16.4772 55.9602 16.7449 55.8841 17.0393C55.8215 17.3335 55.7651 17.6009 55.715 17.8416C55.6783 18.0822 55.6604 18.2424 55.6615 18.3224C55.5828 18.4168 55.5378 18.5374 55.5264 18.6843C55.5149 18.8178 55.5098 18.9379 55.5113 19.0445C55.4594 19.1519 55.4274 19.2523 55.4154 19.3458C55.4031 19.426 55.3974 19.4928 55.3981 19.5461C55.3983 19.5594 55.3986 19.5861 55.3992 19.6261C55.3997 19.6661 55.3936 19.7062 55.3808 19.7463C55.3693 19.8798 55.3516 20.0534 55.3278 20.2671C55.3176 20.4939 55.3139 20.714 55.3168 20.9273L55.2647 21.5081C55.2537 21.6816 55.2357 21.8285 55.2106 21.9489C55.1858 22.0825 55.1405 22.1832 55.0747 22.2507ZM65.1848 19.9534C65.0497 19.8219 64.9139 19.6438 64.7775 19.4189C64.641 19.1807 64.5306 18.9089 64.4464 18.6033C64.4183 18.497 64.403 18.3506 64.4005 18.1639C64.4113 17.9771 64.4095 17.8438 64.3951 17.764C64.3563 17.8578 64.291 17.9587 64.1991 18.0666C64.1204 18.161 64.0415 18.2421 63.9624 18.3099C63.9098 18.3639 63.7913 18.4722 63.6068 18.6347C63.4221 18.7839 63.2371 18.9064 63.0517 19.0023C62.6156 19.2882 62.251 19.4465 61.9581 19.4771C61.6784 19.5076 61.4098 19.3646 61.1522 19.048C60.9365 18.8776 60.7806 18.6864 60.6843 18.4743C60.6015 18.2621 60.5975 17.9688 60.6724 17.5944C60.6928 17.1274 60.7533 16.6732 60.854 16.2318C60.9545 15.7771 61.1663 15.1742 61.4895 14.423C61.7621 13.8726 61.97 13.4698 62.1132 13.2145C62.2562 12.9458 62.3474 12.7846 62.3866 12.7307C62.5857 12.6613 62.7525 12.6658 62.8869 12.7439C63.0211 12.8088 63.1028 12.9344 63.132 13.1206C63.2138 13.2529 63.2035 13.4797 63.1012 13.8011C63.0122 14.1224 62.8509 14.5179 62.6173 14.9878C62.4368 15.4436 62.2696 15.8993 62.1157 16.3547C61.9752 16.81 61.8938 17.1978 61.8715 17.5181C61.8492 17.8385 61.9318 18.0307 62.1193 18.0948C62.2402 18.1599 62.4466 18.1371 62.7385 18.0264C63.0437 17.9156 63.38 17.6444 63.7475 17.2127C64.1284 16.7808 64.4929 16.1291 64.8411 15.2577C64.9442 14.9896 65.021 14.7552 65.0716 14.5545C65.122 14.3404 65.1522 14.1067 65.1621 13.8532C65.1333 13.6936 65.138 13.5535 65.1764 13.433C65.2279 13.2989 65.3331 13.1841 65.4918 13.0887C65.5442 13.0213 65.6167 12.9603 65.7093 12.9057C65.8017 12.8378 65.8617 12.8369 65.8893 12.9032L66.209 12.8789C66.2621 12.8649 66.2959 12.8977 66.3103 12.9775C66.3379 13.0438 66.3854 13.1032 66.4528 13.1556C66.6011 13.2736 66.6446 13.5331 66.5833 13.9339C66.5221 14.3348 66.343 14.8973 66.0462 15.6214C65.8003 16.1714 65.6326 16.5871 65.543 16.8683C65.4668 17.1494 65.4239 17.4233 65.4142 17.6901C65.4174 17.9301 65.4671 18.1561 65.5634 18.3682C65.6596 18.5802 65.8088 18.7715 66.0112 18.9421C66.1591 19.0335 66.2405 19.1391 66.2555 19.2589C66.2838 19.3785 66.2924 19.5184 66.2812 19.6786C66.2562 19.7989 66.1775 19.9 66.0453 19.9818C65.9262 20.0501 65.7867 20.0853 65.6267 20.0875C65.4667 20.0896 65.3194 20.045 65.1848 19.9534ZM69.7281 19.9919C69.1415 19.9998 68.6585 19.7863 68.2793 19.3514C67.8998 18.9032 67.7123 18.3457 67.7166 17.6789C67.7367 17.1986 67.8231 16.684 67.9757 16.1353C68.1414 15.573 68.3608 15.0366 68.6339 14.5262C68.9068 14.0024 69.2073 13.545 69.5354 13.1538C69.8634 12.7627 70.2064 12.4847 70.5642 12.3198C70.6966 12.2513 70.8358 12.1961 70.982 12.1541C71.1414 12.112 71.3011 12.0898 71.4611 12.0876C71.6077 12.0856 71.7614 12.1102 71.9221 12.1614C72.0827 12.1992 72.2166 12.2441 72.324 12.296C72.5519 12.3862 72.7268 12.4972 72.8486 12.6289C72.9704 12.7606 73.0798 12.9658 73.1769 13.2445C73.2204 13.4972 73.2428 13.677 73.2443 13.7836C73.2457 13.8903 73.2145 14.0507 73.1508 14.2649C72.9973 14.747 72.7962 15.1631 72.5476 15.5132C72.299 15.8633 71.963 16.1612 71.5397 16.407C71.4339 16.4751 71.308 16.5301 71.1619 16.5721C71.0289 16.6006 70.8891 16.6158 70.7424 16.6178C70.4758 16.6214 70.2152 16.5783 69.9606 16.4884C69.7192 16.385 69.5238 16.2343 69.3744 16.0363L69.2323 15.8782L69.1745 16.039C69.046 16.4008 68.9439 16.7355 68.868 17.0432C68.8055 17.3508 68.776 17.6312 68.7794 17.8845C68.7816 18.0445 68.797 18.1976 68.8257 18.3439C68.8677 18.49 68.9227 18.616 68.9908 18.7217C69.0452 18.801 69.1327 18.8598 69.2532 18.8982C69.3869 18.923 69.5271 18.9345 69.6737 18.9325C69.7671 18.9312 69.8604 18.93 69.9537 18.9287C70.0602 18.9139 70.1598 18.8859 70.2526 18.8446C70.4782 18.7616 70.657 18.6725 70.789 18.5773C70.9344 18.482 71.0797 18.38 71.2249 18.2714L71.3044 18.2303L71.2844 18.2306C71.4433 18.1484 71.5822 18.0665 71.7011 17.9849C71.8333 17.9031 71.8994 17.8622 71.8994 17.8622C71.9528 17.8615 72.0056 17.8274 72.0581 17.7601C72.164 17.7053 72.2976 17.7235 72.4588 17.8146C72.6334 17.9056 72.7217 18.0244 72.7237 18.1711C72.7113 18.2379 72.6527 18.3454 72.548 18.4935C72.4432 18.6283 72.3249 18.7565 72.1932 18.8783C72.0749 18.9999 71.9758 19.068 71.896 19.0824C71.8828 19.0959 71.8365 19.1232 71.7571 19.1643C71.6774 19.192 71.6245 19.2194 71.5982 19.2464L71.6182 19.2462C71.5003 19.4078 71.3814 19.4894 71.2614 19.491L71.1015 19.4932C71.0494 19.5872 70.8775 19.6962 70.5858 19.8202C70.294 19.9308 70.0081 19.9881 69.7281 19.9919ZM70.5684 15.5801C70.8083 15.5768 71.0141 15.5073 71.1856 15.3717C71.3703 15.2225 71.5281 15.0603 71.659 14.8852C71.9208 14.5216 72.0694 14.1729 72.1049 13.8391C72.1535 13.4917 72.1103 13.2523 71.9751 13.1208C71.8946 13.0818 71.821 13.0628 71.7544 13.0637C71.7008 13.0511 71.5878 13.0727 71.4152 13.1283C71.2956 13.1566 71.1303 13.2589 70.9193 13.4351C70.7084 13.6113 70.4977 13.8075 70.2872 14.0237C70.0901 14.2397 69.9393 14.4218 69.8346 14.5699L69.5803 14.9934C69.6864 14.952 69.7862 14.9306 69.8795 14.9293C69.986 14.9146 70.046 14.9204 70.0597 14.9469C70.0614 15.0669 70.0829 15.1799 70.1243 15.286C70.1789 15.3787 70.2399 15.4512 70.3073 15.5036C70.388 15.5558 70.475 15.5813 70.5684 15.5801ZM74.618 18.9255C74.4836 18.8473 74.3825 18.7686 74.3148 18.6896C74.247 18.6105 74.2122 18.4976 74.2102 18.3509C74.2075 18.151 74.2313 17.9439 74.2818 17.7299C74.332 17.5025 74.3824 17.2818 74.4328 17.0678C74.4562 16.8275 74.4863 16.587 74.523 16.3465C74.5729 16.0925 74.6631 15.8579 74.7935 15.6428C74.9333 15.1342 75.0798 14.6321 75.2331 14.1367C75.3862 13.6279 75.5192 13.106 75.6319 12.5711C75.7986 12.0755 75.946 11.6401 76.0743 11.265C76.2157 10.8764 76.3891 10.3873 76.5944 9.79783C76.7099 9.4629 76.8051 9.10824 76.88 8.73386C76.9681 8.34596 77.1034 7.99743 77.2859 7.68826C77.3643 7.56718 77.4229 7.46638 77.4618 7.38585C77.5139 7.2918 77.566 7.20442 77.6183 7.1237C77.6309 7.07019 77.6704 7.03632 77.7369 7.02208C77.8167 7.00767 77.9035 7.01316 77.9971 7.03856C78.0908 7.06396 78.1648 7.10962 78.219 7.17556C78.2588 7.16169 78.306 7.20105 78.3606 7.29365C78.4284 7.37274 78.4896 7.46525 78.5444 7.57119C78.5992 7.67712 78.6205 7.77017 78.6082 7.85035C78.6089 7.90367 78.5966 7.97718 78.5712 8.07087C78.5591 8.16437 78.527 8.25148 78.4747 8.3322C78.4221 8.38625 78.3699 8.46697 78.318 8.57435C78.2793 8.66821 78.2144 8.80244 78.1234 8.97702C78.0725 9.15106 78.0282 9.33168 77.9908 9.51887C77.9531 9.69273 77.902 9.85344 77.8373 10.001C77.7861 10.1617 77.7216 10.3159 77.6436 10.4637C77.5789 10.6112 77.5338 10.7318 77.5084 10.8255C77.4193 11.1334 77.31 11.4349 77.1807 11.7301C77.0647 12.025 76.9623 12.3397 76.8735 12.6743C76.7845 12.9955 76.6957 13.3301 76.607 13.678C76.5182 14.0126 76.3892 14.3344 76.2201 14.6433C76.1288 14.7913 76.0646 14.9788 76.0277 15.206C75.9908 15.4332 75.9539 15.6604 75.9169 15.8876C75.8402 16.1286 75.7699 16.3563 75.7062 16.5705C75.6556 16.7712 75.6306 16.8982 75.6313 16.9515C75.5553 17.2459 75.4993 17.5401 75.4633 17.8339C75.4404 18.1142 75.3771 18.3618 75.2733 18.5765C75.2618 18.71 75.2366 18.8171 75.1977 18.8976C75.1588 18.9781 75.0927 19.0257 74.9996 19.0403C74.9063 19.0416 74.7791 19.0033 74.618 18.9255ZM83.6997 21.7426C83.606 21.7172 83.5053 21.6652 83.3975 21.5867C83.29 21.5215 83.2358 21.4622 83.2351 21.4089C83.2472 21.3154 83.266 21.2284 83.2916 21.1481C83.3173 21.0811 83.3364 21.0141 83.3489 20.9473C83.3737 20.8136 83.3849 20.6534 83.3824 20.4668C83.38 20.2935 83.3955 19.9599 83.4288 19.4661C83.4616 18.9322 83.4888 18.4852 83.5106 18.1248C83.5457 17.7643 83.5814 17.4438 83.6176 17.1633C83.6536 16.8694 83.6963 16.5755 83.7456 16.2815C83.8083 15.9873 83.8836 15.6395 83.9715 15.2383C84.032 14.7841 84.0282 14.5041 83.9601 14.3984C83.9054 14.2925 83.8046 14.2338 83.6577 14.2225C83.404 14.1992 83.1769 14.1623 82.9762 14.1117C82.7886 14.0476 82.6671 13.9359 82.6116 13.7766C82.4765 13.6451 82.4417 13.5389 82.5073 13.458C82.5728 13.3771 82.7053 13.3153 82.9048 13.2726C83.1174 13.2164 83.3437 13.1933 83.5839 13.2034C83.8104 13.187 83.9835 13.1713 84.1033 13.1563C84.2363 13.1279 84.342 13.0598 84.4206 12.952C84.4989 12.8309 84.5762 12.6299 84.6524 12.3488C84.6774 12.2285 84.7219 12.0612 84.7856 11.847C84.8627 11.6326 84.9268 11.4383 84.9777 11.2643C85.042 11.0901 85.0742 11.003 85.0742 11.003C85.1929 10.908 85.2513 10.7872 85.2493 10.6406C85.2601 10.4537 85.3434 10.2059 85.4992 9.89711C85.6682 9.57479 85.9355 9.12446 86.301 8.54612C86.7463 7.95336 87.1467 7.48789 87.5022 7.1497C87.871 6.81134 88.3015 6.59882 88.7937 6.51214C88.8466 6.48475 88.9664 6.46979 89.1531 6.46726C89.3397 6.46473 89.4664 6.46301 89.5331 6.46211C89.8132 6.47164 90.0072 6.52235 90.1152 6.61423C90.2231 6.70611 90.3386 6.86456 90.4616 7.08958C90.5706 7.26145 90.5872 7.50124 90.5114 7.80897C90.4487 8.10318 90.3651 8.331 90.2606 8.49243C90.1954 8.59999 90.0971 8.72133 89.9656 8.85646C89.8474 8.99141 89.729 9.11303 89.6105 9.22131C89.5051 9.31608 89.4257 9.36383 89.3724 9.36455C89.3057 9.36546 89.2388 9.34636 89.1716 9.30727C89.1175 9.25466 89.0638 9.22206 89.0102 9.20945C88.8895 9.15775 88.8683 9.06469 88.9465 8.93029C89.0245 8.78255 89.1092 8.64139 89.2007 8.5068C89.3314 8.30501 89.4158 8.14385 89.4542 8.02332C89.4926 7.90279 89.5045 7.79595 89.4899 7.70281C89.4753 7.60966 89.4471 7.4967 89.4053 7.36392L89.5877 7.54147C89.4936 7.4894 89.3867 7.47085 89.2669 7.48581C89.1471 7.50077 89.0142 7.53591 88.8683 7.59122C88.6168 7.72798 88.4121 7.87743 88.2543 8.03959C88.0963 8.18841 87.9647 8.31687 87.8595 8.42498C87.5433 8.70929 87.288 9.05278 87.0934 9.45546C86.8988 9.85813 86.7173 10.234 86.5486 10.5829C86.4968 10.6903 86.4061 10.8916 86.2768 11.1867C86.1606 11.4683 86.0509 11.7365 85.9477 11.9912C85.8576 12.2325 85.7672 12.447 85.6764 12.635C85.5854 12.8095 85.5402 12.9168 85.5407 12.9568C85.502 13.0507 85.5226 13.0971 85.6026 13.096C85.696 13.0947 85.8758 13.0856 86.1423 13.0687C86.7945 12.9798 87.2808 12.9532 87.6014 12.9889C87.935 13.011 88.13 13.1284 88.1862 13.341C88.4172 13.6579 88.3866 13.8583 88.0943 13.9423C87.8153 14.0128 87.2965 14.1065 86.538 14.2234C86.3249 14.2396 86.1117 14.2559 85.8986 14.2721C85.6853 14.275 85.5454 14.2836 85.4789 14.2978C85.4258 14.3118 85.3727 14.3326 85.3197 14.36C85.2668 14.3873 85.2086 14.5215 85.1452 14.7624C85.1338 14.9092 85.1096 15.0895 85.0725 15.3034C85.0486 15.5037 85.0312 15.6973 85.0204 15.8842C84.9692 16.0449 84.9315 16.2121 84.9072 16.3857C84.8962 16.5592 84.8583 16.7131 84.7934 16.8473C84.7234 17.5817 84.6793 18.2623 84.6611 18.8893C84.6427 19.5029 84.6099 20.0301 84.5625 20.4708C84.5285 20.9113 84.4264 21.2527 84.2564 21.495C84.1645 21.6029 84.0656 21.6843 83.9597 21.7391C83.8672 21.807 83.7806 21.8082 83.6997 21.7426ZM90.3706 19.532C90.1975 19.5476 90.0573 19.5362 89.9501 19.4977C89.8427 19.4458 89.7084 19.3742 89.5472 19.2831C89.2508 19.0604 89.0278 18.8368 88.878 18.6121C88.7414 18.3739 88.6783 18.1414 88.6886 17.9146C88.7136 17.7943 88.7121 17.6876 88.6842 17.5946C88.6696 17.5015 88.6623 17.4549 88.6623 17.4549C88.5814 17.3893 88.5542 17.3497 88.5807 17.336C88.607 17.309 88.6265 17.2687 88.6391 17.2152C88.7454 17.1871 88.7577 17.1136 88.6761 16.9947C88.6346 16.8886 88.6514 16.6483 88.7263 16.2739C88.8144 15.886 88.9295 15.5245 89.0716 15.1892C89.1363 15.0416 89.227 14.847 89.3437 14.6054C89.4738 14.3636 89.6172 14.1217 89.7739 13.8795C89.9305 13.624 90.0744 13.4221 90.2058 13.2736C90.4946 12.9363 90.7512 12.6862 90.9757 12.5231C91.2133 12.3465 91.478 12.2029 91.7699 12.0923C92.0351 11.982 92.2276 11.9194 92.3474 11.9045C92.4672 11.8895 92.6349 11.9672 92.8506 12.1377C93.1718 12.2266 93.4136 12.3567 93.576 12.5279C93.7515 12.6855 93.8882 12.937 93.9862 13.2824C94.0981 13.6675 94.1377 14.1271 94.1049 14.6609C94.0853 15.1812 93.8678 15.8575 93.4524 16.6899C93.2061 17.2133 92.9581 17.61 92.7085 17.8801C92.4721 18.15 92.1826 18.434 91.8399 18.732C91.5895 18.9487 91.3585 19.1185 91.1468 19.2414C90.9351 19.3643 90.6764 19.4611 90.3706 19.532ZM91.9382 17.1305C92.1994 16.7269 92.4011 16.3575 92.5432 16.0222C92.6985 15.6734 92.8193 15.2384 92.9056 14.7171C92.9303 14.5701 92.9345 14.3901 92.9183 14.1769C92.9019 13.9505 92.8657 13.7443 92.8099 13.5583C92.7673 13.3722 92.706 13.273 92.6258 13.2608C92.4516 13.1965 92.2583 13.1991 92.0459 13.2687C91.8333 13.3249 91.6021 13.488 91.3524 13.7581C91.1294 14.0278 90.9268 14.3306 90.7447 14.6664C90.5759 15.0021 90.4209 15.3709 90.2797 15.7728C90.1384 16.1748 90.0042 16.6033 89.8771 17.0584C89.7506 17.5668 89.7625 17.9534 89.9128 18.218C90.0764 18.4825 90.3373 18.5456 90.6954 18.4074C91.0534 18.2559 91.4677 17.8303 91.9382 17.1305ZM95.7731 18.8786C95.6518 18.787 95.5639 18.6948 95.5093 18.6022C95.468 18.5094 95.4656 18.3294 95.502 18.0623C95.5369 17.6884 95.5858 17.361 95.6487 17.0802C95.7113 16.786 95.7868 16.4516 95.8751 16.077C95.8996 15.9167 95.9692 15.6424 96.0839 15.2541C96.212 14.8657 96.3663 14.4435 96.5468 13.9877C96.7273 13.5319 96.9082 13.1027 97.0894 12.7002C97.2705 12.2844 97.4263 11.9756 97.5569 11.7738C97.6625 11.6924 97.7887 11.6573 97.9355 11.6687C98.0957 11.6798 98.2298 11.738 98.3379 11.8432C98.4862 11.9612 98.5091 12.1743 98.4066 12.4824C98.3172 12.7769 98.1236 13.2463 97.8256 13.8904C97.6705 14.2525 97.5542 14.5274 97.4768 14.7152C97.3991 14.8896 97.3672 14.9967 97.3811 15.0365C97.3948 15.063 97.4545 15.0422 97.5603 14.9741C97.6383 14.8263 97.7827 14.6577 97.9935 14.4681C98.2041 14.2653 98.4281 14.0689 98.6655 13.879C98.903 13.6891 99.1274 13.5193 99.3387 13.3698C99.55 13.2203 99.6954 13.1249 99.7749 13.0839C99.8806 13.0158 99.9999 12.9608 100.133 12.919C100.279 12.8637 100.378 12.8223 100.431 12.7949C100.736 12.6441 101.048 12.5866 101.369 12.6222C101.689 12.6579 101.891 12.7751 101.974 12.974C101.988 13.0805 102.029 13.16 102.097 13.2124C102.178 13.2646 102.218 13.2908 102.218 13.2908C102.271 13.29 102.298 13.3097 102.299 13.3497C102.313 13.3895 102.32 13.4094 102.32 13.4094C102.321 13.5027 102.248 13.5637 102.102 13.5924C101.969 13.6075 101.796 13.6232 101.583 13.6394C101.409 13.6551 101.257 13.6905 101.124 13.7456C100.991 13.8008 100.832 13.8696 100.647 13.9521C100.144 14.2523 99.6613 14.5455 99.1985 14.8318C98.749 15.118 98.3141 15.4972 97.8938 15.9696C97.8019 16.0776 97.7103 16.2055 97.619 16.3534C97.5277 16.5013 97.4298 16.6627 97.3255 16.8374C97.2598 16.905 97.1951 17.0525 97.1315 17.2801C97.0679 17.5076 97.0109 17.7284 96.9605 17.9425C96.9232 18.143 96.9048 18.2632 96.9054 18.3032C96.9054 18.3032 96.8863 18.3702 96.8481 18.504C96.8097 18.6246 96.7447 18.7455 96.653 18.8667C96.4959 19.0822 96.364 19.1907 96.2573 19.1921C96.1507 19.1936 95.9893 19.0891 95.7731 18.8786Z" fill="black"/>
<path d="M107.664 18.7774C107.555 18.6722 107.474 18.54 107.418 18.3807C107.376 18.2213 107.36 18.0615 107.372 17.9013C107.383 17.7411 107.414 17.6074 107.466 17.5C107.465 17.3933 107.477 17.3132 107.503 17.2595C107.542 17.1923 107.555 17.1321 107.541 17.0789C107.526 17.0258 107.539 16.9323 107.577 16.7984C107.615 16.6646 107.653 16.5374 107.692 16.4168C107.782 16.2023 107.879 15.9476 107.981 15.6528C108.084 15.3448 108.18 15.0434 108.269 14.7489C108.358 14.4543 108.435 14.1999 108.499 13.9857C108.562 13.7715 108.601 13.6376 108.613 13.5841C108.611 13.4241 108.717 13.336 108.93 13.3198C109.089 13.2643 109.209 13.2626 109.29 13.3149C109.37 13.3538 109.479 13.479 109.615 13.6905C109.723 13.7957 109.765 13.9552 109.741 14.1688C109.717 14.3825 109.634 14.6503 109.492 14.9723C109.44 15.0797 109.376 15.2339 109.298 15.435C109.234 15.6359 109.19 15.8165 109.166 15.9768C109.114 16.0842 109.049 16.2384 108.972 16.4395C108.908 16.627 108.85 16.8078 108.799 16.9819C108.774 17.0489 108.748 17.1492 108.723 17.2829C108.698 17.4033 108.667 17.5371 108.629 17.6842C108.591 17.8181 108.539 17.9388 108.474 18.0464C108.361 18.5946 108.252 18.9161 108.147 19.0109C108.055 19.1055 107.894 19.0277 107.664 18.7774ZM109.493 10.6319C109.426 10.5661 109.364 10.4736 109.31 10.3543C109.254 10.2217 109.219 10.1022 109.205 9.99574C109.19 9.87593 109.202 9.81575 109.242 9.81521C109.349 9.80043 109.474 9.68539 109.618 9.47009C109.761 9.25479 109.819 9.06732 109.79 8.9077C109.789 8.85437 109.809 8.80744 109.848 8.7669C109.887 8.71303 109.934 8.67907 109.987 8.66501C110.145 8.55619 110.298 8.54077 110.446 8.61878C110.607 8.68327 110.756 8.82127 110.892 9.03278C111.015 9.28446 111.051 9.49732 111 9.67136C110.949 9.83207 110.806 10.0607 110.57 10.3573C110.373 10.6266 110.189 10.7758 110.016 10.8048C109.856 10.8336 109.682 10.776 109.493 10.6319ZM116.299 19.1004C116.246 19.1011 116.166 19.0955 116.059 19.0836C115.965 19.0582 115.884 18.9993 115.817 18.9069C115.613 18.6696 115.484 18.4714 115.428 18.3121C115.373 18.1529 115.363 17.9196 115.399 17.6125C115.423 17.4121 115.434 17.2386 115.432 17.092C115.443 16.9318 115.455 16.7983 115.466 16.6915C115.412 16.6389 115.313 16.6802 115.168 16.8155C115.036 16.9373 114.852 17.0932 114.614 17.2831C114.168 17.8092 113.767 18.2146 113.411 18.4995C113.068 18.7708 112.757 18.9551 112.478 19.0522C112.199 19.136 111.933 19.1663 111.679 19.143C111.452 19.1194 111.271 19.0286 111.136 18.8704C111 18.6989 110.91 18.4801 110.867 18.214C110.836 17.9477 110.833 17.661 110.855 17.354C110.902 16.9134 110.99 16.4921 111.118 16.0904C111.259 15.6884 111.486 15.2386 111.8 14.741C111.943 14.4724 112.133 14.2098 112.369 13.9532C112.619 13.6831 112.889 13.4461 113.179 13.2421C113.483 13.0247 113.774 12.8674 114.053 12.7703C114.358 12.6461 114.671 12.5752 114.99 12.5575C115.31 12.5265 115.597 12.5493 115.851 12.6259C116.012 12.7037 116.14 12.742 116.233 12.7407C116.34 12.7393 116.419 12.6715 116.47 12.5375C116.535 12.4299 116.6 12.269 116.664 12.0548C116.727 11.8273 116.805 11.6329 116.896 11.4716L117.318 10.1658C117.46 9.8038 117.615 9.42166 117.783 9.01935C117.951 8.61704 118.151 8.12761 118.383 7.55108C118.604 7.12138 118.787 6.8722 118.933 6.80356C119.078 6.72158 119.246 6.77264 119.435 6.95676C119.584 7.12809 119.64 7.32735 119.603 7.55454C119.566 7.76839 119.451 8.11666 119.257 8.59932C119.166 8.74724 119.088 8.88831 119.023 9.02254C118.958 9.14343 118.867 9.33801 118.751 9.60628C118.583 10.0219 118.428 10.3974 118.286 10.7327C118.144 11.0546 117.995 11.4234 117.841 11.8388C117.79 12.0529 117.72 12.3005 117.631 12.5817C117.555 12.8628 117.492 13.117 117.441 13.3444C117.404 13.5582 117.36 13.7588 117.309 13.9462C117.272 14.1201 117.226 14.2074 117.173 14.2081C117.068 14.3295 116.971 14.5442 116.882 14.8521C116.792 15.1467 116.716 15.4544 116.654 15.7753C116.605 16.096 116.562 16.3632 116.525 16.5771C116.501 16.7374 116.483 16.9444 116.473 17.1979C116.464 17.4513 116.46 17.6981 116.463 17.9381C116.467 18.1647 116.469 18.3247 116.47 18.418C116.474 18.7113 116.47 18.8981 116.458 18.9782C116.445 19.0584 116.393 19.0991 116.299 19.1004ZM112.023 17.8983C112.302 17.8945 112.594 17.7705 112.898 17.5264C113.214 17.282 113.531 17.0111 113.847 16.7134C114.044 16.5241 114.254 16.2745 114.477 15.9648C114.712 15.6549 114.935 15.3452 115.144 15.0357C115.366 14.726 115.543 14.4569 115.673 14.2284C115.803 13.9866 115.868 13.8391 115.867 13.7858C115.866 13.7191 115.806 13.6732 115.685 13.6482C115.565 13.6232 115.425 13.6117 115.265 13.6139C115.118 13.6026 114.998 13.6109 114.905 13.6388C114.613 13.7094 114.321 13.8467 114.031 14.0507C113.753 14.2545 113.451 14.5586 113.123 14.9631C112.782 15.3944 112.501 15.8382 112.281 16.2946C112.074 16.7508 111.945 17.1326 111.896 17.4399C111.847 17.7473 111.889 17.9001 112.023 17.8983ZM120.954 19.2973C120.367 19.3053 119.884 19.0918 119.505 18.6569C119.126 18.2087 118.938 17.6511 118.942 16.9844C118.962 16.504 119.049 15.9895 119.201 15.4407C119.367 14.8784 119.587 14.3421 119.86 13.8316C120.133 13.3079 120.433 12.8504 120.761 12.4593C121.089 12.0681 121.432 11.7901 121.79 11.6253C121.922 11.5568 122.062 11.5016 122.208 11.4596C122.367 11.4174 122.527 11.3953 122.687 11.3931C122.834 11.3911 122.987 11.4157 123.148 11.4668C123.308 11.5047 123.442 11.5495 123.55 11.6014C123.778 11.6917 123.953 11.8026 124.074 11.9343C124.196 12.066 124.306 12.2712 124.403 12.5499C124.446 12.8027 124.469 12.9824 124.47 13.0891C124.471 13.1957 124.44 13.3562 124.377 13.5704C124.223 14.0525 124.022 14.4686 123.773 14.8187C123.525 15.1687 123.189 15.4667 122.765 15.7124C122.66 15.7805 122.534 15.8356 122.388 15.8776C122.255 15.906 122.115 15.9213 121.968 15.9232C121.702 15.9269 121.441 15.8837 121.186 15.7938C120.945 15.6904 120.75 15.5397 120.6 15.3417L120.458 15.1836L120.4 15.3444C120.272 15.7062 120.17 16.041 120.094 16.3487C120.031 16.6562 120.002 16.9367 120.005 17.19C120.007 17.35 120.023 17.5031 120.051 17.6494C120.093 17.7955 120.148 17.9214 120.217 18.0272C120.271 18.1065 120.358 18.1653 120.479 18.2036C120.613 18.2285 120.753 18.2399 120.899 18.2379C120.993 18.2367 121.086 18.2354 121.179 18.2341C121.286 18.2194 121.386 18.1913 121.478 18.1501C121.704 18.067 121.883 17.9779 122.015 17.8828C122.16 17.7875 122.305 17.6855 122.451 17.5769L122.53 17.5358L122.51 17.536C122.669 17.4539 122.808 17.372 122.927 17.2904C123.059 17.2086 123.125 17.1677 123.125 17.1677C123.179 17.1669 123.231 17.1329 123.284 17.0655C123.39 17.0107 123.523 17.0289 123.685 17.1201C123.859 17.2111 123.947 17.3299 123.949 17.4765C123.937 17.5434 123.878 17.6508 123.774 17.7989C123.669 17.9337 123.551 18.062 123.419 18.1838C123.301 18.3054 123.202 18.3734 123.122 18.3878C123.109 18.4013 123.062 18.4286 122.983 18.4697C122.903 18.4975 122.85 18.5249 122.824 18.5519L122.844 18.5516C122.726 18.7132 122.607 18.7948 122.487 18.7965L122.327 18.7986C122.275 18.8927 122.103 19.0017 121.812 19.1257C121.52 19.2363 121.234 19.2935 120.954 19.2973ZM121.794 14.8855C122.034 14.8823 122.24 14.8128 122.411 14.6771C122.596 14.5279 122.754 14.3658 122.885 14.1907C123.147 13.8271 123.295 13.4784 123.331 13.1445C123.379 12.7972 123.336 12.5577 123.201 12.4262C123.12 12.3873 123.047 12.3683 122.98 12.3692C122.927 12.3566 122.814 12.3781 122.641 12.4338C122.521 12.4621 122.356 12.5643 122.145 12.7406C121.934 12.9168 121.723 13.113 121.513 13.3292C121.316 13.5452 121.165 13.7273 121.06 13.8754L120.806 14.2988C120.912 14.2574 121.012 14.2361 121.105 14.2348C121.212 14.22 121.272 14.2259 121.285 14.2523C121.287 14.3723 121.309 14.4854 121.35 14.5915C121.405 14.6841 121.466 14.7566 121.533 14.809C121.614 14.8613 121.701 14.8868 121.794 14.8855ZM126.767 18.4984C126.608 18.5272 126.434 18.5029 126.246 18.4255C126.059 18.348 125.891 18.2369 125.742 18.0923C125.607 17.9474 125.518 17.7953 125.476 17.6358C125.419 17.3566 125.447 17.0095 125.562 16.5946C125.689 16.1662 125.87 15.717 126.103 15.2471C126.35 14.7637 126.624 14.3 126.925 13.8559C127.239 13.4116 127.56 13.0272 127.889 12.7027C128.231 12.3647 128.548 12.1337 128.84 12.0097C128.985 11.9144 129.098 11.8529 129.177 11.8251C129.27 11.7839 129.363 11.7759 129.457 11.8013C129.564 11.8266 129.718 11.8911 129.92 11.9951C130.107 12.0459 130.248 12.104 130.342 12.1694C130.436 12.2348 130.558 12.3665 130.707 12.5645C130.817 12.763 130.899 12.9619 130.955 13.1611C131.012 13.3604 131.061 13.5864 131.105 13.8392C131.216 14.171 131.259 14.3905 131.234 14.4975C131.208 14.5912 131.169 14.6651 131.117 14.7191C131.012 14.8539 130.986 14.9209 131.039 14.9202C131.039 14.9202 131.033 14.9469 131.02 15.0004C131.021 15.0404 130.995 15.1074 130.943 15.2015C130.854 15.4961 130.785 15.8037 130.736 16.1244C130.7 16.4316 130.71 16.6848 130.766 16.8841C130.877 17.1759 131.072 17.3466 131.353 17.3961C131.634 17.4457 131.919 17.3218 132.208 17.0245C132.353 16.9159 132.492 16.8206 132.624 16.7388C132.756 16.6437 132.823 16.6495 132.824 16.7561C132.824 16.7561 132.845 16.7759 132.885 16.8153C132.926 16.8414 132.972 16.8541 133.026 16.8534C133.092 16.8525 133.133 16.8786 133.147 16.9318C133.174 16.9847 133.175 17.0581 133.15 17.1518C133.138 17.2319 133.099 17.3258 133.034 17.4334C132.836 17.6361 132.738 17.7707 132.739 17.8374C132.739 17.8374 132.713 17.8644 132.66 17.9185C132.621 17.959 132.548 18.0267 132.443 18.1214C132.205 18.2713 131.899 18.3488 131.526 18.3539C131.166 18.3588 130.885 18.2892 130.683 18.1453C130.481 18.0014 130.292 17.8039 130.115 17.5529C129.952 17.3018 129.842 17.0833 129.786 16.8973L129.683 16.6987L129.109 17.0865C128.964 17.2352 128.806 17.3773 128.634 17.513C128.476 17.6485 128.371 17.7433 128.318 17.7973C128.279 17.8512 128.233 17.8985 128.18 17.9392C128.141 17.9797 128.094 18.0004 128.041 18.0011C127.988 18.0018 127.941 18.0025 127.901 18.003C127.861 18.0035 127.841 18.0038 127.841 18.0038C127.842 18.0571 127.776 18.1247 127.644 18.2065C127.525 18.2881 127.379 18.3568 127.206 18.4125C127.047 18.468 126.901 18.4966 126.767 18.4984ZM126.553 17.4212C126.633 17.4201 126.772 17.3582 126.97 17.2355C127.182 17.0993 127.413 16.9428 127.664 16.7661C127.928 16.5892 128.159 16.4127 128.357 16.2367C128.568 16.0604 128.713 15.9251 128.791 15.8307C128.844 15.7767 128.93 15.6888 129.048 15.5672C129.166 15.4323 129.271 15.3175 129.363 15.2229C129.665 14.8721 129.873 14.4893 129.988 14.0743C130.102 13.6461 130.084 13.313 129.934 13.075C129.879 12.9291 129.811 12.85 129.731 12.8377C129.651 12.8255 129.485 12.8744 129.233 12.9845C129.074 13.08 128.877 13.2627 128.64 13.5326C128.417 13.7889 128.175 14.0923 127.913 14.4425C127.664 14.7793 127.429 15.1291 127.207 15.4922C126.985 15.8552 126.803 16.1911 126.66 16.4997C126.518 16.8083 126.448 17.0493 126.45 17.2226C126.451 17.2759 126.465 17.3224 126.492 17.362C126.533 17.4015 126.553 17.4212 126.553 17.4212ZM135.575 18.759C134.908 18.7681 134.418 18.5347 134.105 18.0589C134.01 17.9268 133.962 17.7941 133.96 17.6608C133.971 17.514 134.01 17.4135 134.076 17.3592C134.155 17.3048 134.249 17.3502 134.358 17.4954C134.546 17.5995 134.813 17.6493 135.16 17.6446C135.333 17.6422 135.513 17.6264 135.699 17.5972C135.885 17.5547 136.071 17.4989 136.257 17.4297C136.456 17.3336 136.588 17.2518 136.654 17.1843C136.719 17.1034 136.705 17.0369 136.611 16.9848L136.631 16.9845C136.283 16.8959 135.928 16.7541 135.565 16.559C135.216 16.3503 134.913 16.1278 134.656 15.8912C134.399 15.6413 134.249 15.4167 134.207 15.2173C134.095 14.8054 134.115 14.3851 134.27 13.9563C134.424 13.5142 134.645 13.1245 134.934 12.7872C135.04 12.7191 135.172 12.6373 135.331 12.5418C135.489 12.4329 135.615 12.3712 135.708 12.3566L135.708 12.3766C135.958 12.1066 136.262 11.8891 136.62 11.7242C136.991 11.5592 137.382 11.4072 137.794 11.2683L138.093 11.2242C138.253 11.1954 138.386 11.1802 138.492 11.1788C138.479 11.179 138.506 11.1919 138.573 11.2177C138.64 11.2301 138.7 11.2426 138.753 11.2552C138.834 11.2942 138.901 11.3133 138.954 11.3125C139.128 11.3368 139.289 11.4147 139.437 11.546C139.586 11.6773 139.701 11.8358 139.784 12.0213C139.88 12.1934 139.915 12.3596 139.891 12.5199C139.868 12.7736 139.791 13.0013 139.66 13.2031C139.543 13.4047 139.398 13.5201 139.225 13.5491C139.251 13.5354 139.231 13.5157 139.164 13.4899C139.11 13.4506 139.049 13.4114 138.982 13.3723L138.923 13.4132C138.923 13.4132 138.916 13.3999 138.902 13.3734C138.902 13.3334 138.888 13.2869 138.86 13.234C138.819 13.1545 138.798 13.0681 138.797 12.9748C138.795 12.8682 138.8 12.7547 138.812 12.6346C138.837 12.4876 138.836 12.4009 138.809 12.3746C138.795 12.3481 138.708 12.3293 138.548 12.3181C138.361 12.2807 138.088 12.3177 137.729 12.4292C137.384 12.5406 137.093 12.6912 136.855 12.8811C136.565 13.0718 136.32 13.2551 136.123 13.4311C135.925 13.5938 135.767 13.756 135.649 13.9176C135.531 14.0659 135.427 14.2406 135.336 14.4419C135.271 14.5361 135.212 14.6302 135.16 14.7243C135.121 14.8048 135.102 14.8784 135.103 14.9451C135.105 15.0917 135.214 15.2436 135.429 15.4007C135.658 15.5443 135.994 15.7131 136.436 15.9071C136.785 16.049 137.08 16.2051 137.323 16.3751C137.565 16.5452 137.734 16.7429 137.831 16.9683C137.858 17.0212 137.866 17.0878 137.854 17.168C137.854 17.2347 137.842 17.2815 137.815 17.3085C137.842 17.3348 137.856 17.3546 137.856 17.368L137.856 17.348C137.965 17.5065 137.967 17.6732 137.863 17.8479C137.772 18.0225 137.607 18.1781 137.369 18.3147C137.144 18.4377 136.865 18.5348 136.533 18.606L136.553 18.6058C136.38 18.6614 136.208 18.7038 136.035 18.7328C135.875 18.7483 135.722 18.757 135.575 18.759Z" fill="#FF3B30"/>
<path d="M1.42066 34.5086C1.14924 34.4578 0.888 34.6366 0.837158 34.908L0.00870514 39.3311C-0.0421295 39.6025 0.136688 39.8638 0.408112 39.9146C0.679535 39.9655 0.940773 39.7866 0.991615 39.5152L1.72802 35.5836L5.65965 36.32C5.93107 36.3708 6.19231 36.192 6.24315 35.9206C6.29399 35.6492 6.11517 35.3879 5.84375 35.3371L1.42066 34.5086ZM85.3286 35.0001L84.8684 34.8045C76.421 54.6808 62.5955 64.7692 47.4908 64.9006C32.3583 65.0321 15.7441 55.175 1.74121 34.7177L1.32861 35.0001L0.916016 35.2825C15.0239 55.8933 31.9097 66.0361 47.4995 65.9005C63.1171 65.7647 77.2362 55.3191 85.7888 35.1957L85.3286 35.0001Z" fill="#2E2E2E"/>
</svg>
