<svg width="263" height="57" viewBox="0 0 263 57" fill="none" xmlns="http://www.w3.org/2000/svg">
<path d="M4.51036 25.5105C4.33735 25.5211 4.19558 25.4963 4.08506 25.4362C3.98785 25.3754 3.8624 25.2895 3.70871 25.1786C3.43963 24.9279 3.24457 24.6859 3.12351 24.4529C3.00164 24.2065 2.95378 23.9689 2.97993 23.7403C3.01338 23.6314 3.02061 23.5307 3.00163 23.4384C2.99514 23.3319 2.9919 23.2787 2.9919 23.2787C2.9213 23.2162 2.89891 23.1775 2.92472 23.1626C2.94971 23.1343 2.9739 23.0928 2.99728 23.0379C3.07713 23.0331 3.09929 22.9582 3.06376 22.8135C3.03066 22.7086 3.06971 22.4725 3.18091 22.105C3.29212 21.7376 3.43781 21.3881 3.61799 21.0565C3.68974 20.9186 3.79898 20.7383 3.94572 20.5156C4.09165 20.2796 4.25129 20.0495 4.42464 19.8252C4.6105 19.5868 4.77922 19.3962 4.93082 19.2534C5.24652 18.9537 5.52675 18.7295 5.77151 18.5811C6.01627 18.4326 6.28302 18.3161 6.57176 18.2318C6.8605 18.1474 7.0581 18.102 7.16457 18.0955C7.28435 18.0882 7.45054 18.1849 7.66314 18.3857C7.97734 18.5002 8.20666 18.6465 8.35109 18.8247C8.50883 19.0021 8.61861 19.2693 8.68041 19.6262C8.74465 20.023 8.73934 20.4842 8.66448 21.0097C8.60211 21.5211 8.32785 22.1723 7.8417 22.9633C7.53816 23.4627 7.25394 23.8407 6.98904 24.0973C6.72334 24.3405 6.4044 24.587 6.03222 24.8368C5.76409 25.0401 5.51973 25.1953 5.29916 25.3022C5.07777 25.3958 4.81484 25.4653 4.51036 25.5105ZM6.29796 23.2777C6.59548 22.899 6.82768 22.5442 6.99455 22.2134C7.17473 21.8819 7.33634 21.4646 7.47936 20.9617C7.52368 20.812 7.54602 20.6303 7.54636 20.4166C7.54589 20.1895 7.52667 19.9836 7.48871 19.7989C7.46325 19.6001 7.40978 19.4898 7.3283 19.4681C7.16293 19.3846 6.96833 19.3698 6.74451 19.4235C6.51989 19.4639 6.28137 19.6053 6.02898 19.8477C5.63748 20.2189 5.30448 20.6733 5.02999 21.211C4.75469 21.7354 4.49049 22.3325 4.23741 23.0025C4.06696 23.4937 4.04388 23.8825 4.16818 24.1688C4.30498 24.441 4.55726 24.5258 4.92505 24.4233C5.30532 24.3066 5.76296 23.9248 6.29796 23.2777ZM11.8691 24.1407C11.7711 24.0665 11.6368 23.8343 11.466 23.4439C11.3086 23.0528 11.1472 22.5951 10.9817 22.0708C10.8287 21.5325 10.6985 21.0395 10.5911 20.5918C10.5216 20.3289 10.448 20.1063 10.3701 19.924C10.3055 19.741 10.2496 19.5907 10.2024 19.4734C10.1212 19.2379 10.0891 19.0395 10.106 18.8781C10.1229 18.7168 10.2084 18.5847 10.3624 18.4818C10.4265 18.4379 10.5047 18.4064 10.5971 18.3874C10.7019 18.3543 10.7814 18.3428 10.8354 18.3528C10.9984 18.3964 11.1598 18.6336 11.3196 19.0647C11.4786 19.4825 11.6328 20.0408 11.7823 20.7397C11.8606 21.149 11.9486 21.4977 12.0463 21.7856C12.144 22.0735 12.1945 22.2441 12.1977 22.2973C12.2574 22.4006 12.3238 22.5034 12.3968 22.6058C12.4824 22.6941 12.5751 22.6818 12.6751 22.5688C12.7251 22.5123 12.8243 22.3861 12.9726 22.19C13.1343 21.9932 13.2885 21.7834 13.4352 21.5608C13.692 21.1711 13.893 20.8516 14.0381 20.6023C14.1965 20.3522 14.3741 20.0876 14.5708 19.8085C14.6559 19.6697 14.7534 19.5169 14.8635 19.3499C14.9735 19.1829 15.0844 19.0292 15.1961 18.8888C15.3202 18.7343 15.4348 18.6405 15.5396 18.6074C15.8558 18.5347 16.0328 18.5907 16.0708 18.7754C16.1088 18.9601 16.006 19.2469 15.7625 19.6357C15.6658 19.8019 15.5886 19.9602 15.531 20.1107C15.4858 20.247 15.4383 20.3434 15.3883 20.3999C15.2948 20.6193 15.145 20.9023 14.939 21.2488C14.7322 21.582 14.5309 21.8948 14.335 22.1872C14.1382 22.4664 14.0024 22.6483 13.9274 22.733C13.8774 22.7895 13.7637 22.8966 13.5863 23.0543C13.4222 23.2113 13.2672 23.4077 13.1213 23.6437C12.8205 23.9692 12.579 24.171 12.3967 24.2488C12.2144 24.3267 12.0386 24.2907 11.8691 24.1407ZM18.8153 25.0001C18.2297 25.0358 17.7373 24.8453 17.3379 24.4288C16.9377 23.999 16.724 23.451 16.6967 22.7848C16.6942 22.304 16.7562 21.786 16.8826 21.2306C17.0216 20.6611 17.2154 20.115 17.4641 19.5922C17.712 19.0562 17.9905 18.585 18.2998 18.1788C18.609 17.7726 18.9384 17.4787 19.288 17.2971C19.417 17.2225 19.5535 17.1607 19.6975 17.1119C19.8548 17.0622 20.0133 17.0326 20.173 17.0228C20.3194 17.0139 20.474 17.0312 20.637 17.0747C20.7991 17.1049 20.935 17.1434 21.0447 17.1902C21.2767 17.2695 21.4566 17.3721 21.5844 17.4979C21.7123 17.6237 21.8314 17.8235 21.9415 18.0973C21.9969 18.3478 22.0278 18.5262 22.0342 18.6327C22.0407 18.7391 22.0172 18.9009 21.9636 19.1179C21.8331 19.6067 21.6519 20.0318 21.4201 20.3933C21.1883 20.7547 20.8668 21.0681 20.4555 21.3336C20.3531 21.4067 20.2299 21.4676 20.0859 21.5164C19.9545 21.5512 19.8155 21.573 19.6691 21.5819C19.403 21.5981 19.1406 21.5673 18.8821 21.4896C18.636 21.3977 18.4337 21.2564 18.2752 21.0657L18.1257 20.9145L18.0755 21.0778C17.9643 21.4453 17.8781 21.7845 17.8169 22.0954C17.769 22.4056 17.7528 22.6871 17.7682 22.9399C17.7779 23.0996 17.8005 23.2519 17.836 23.3967C17.8849 23.5406 17.9458 23.6638 18.0188 23.7662C18.0769 23.8428 18.1671 23.8975 18.2893 23.9301C18.424 23.9486 18.5646 23.9534 18.711 23.9445C18.8041 23.9388 18.8973 23.9331 18.9904 23.9275C19.0961 23.9077 19.1943 23.875 19.285 23.8294C19.5064 23.7358 19.6808 23.6383 19.8082 23.537C19.9489 23.435 20.0893 23.3262 20.2292 23.2109L20.3066 23.1661L20.2866 23.1673C20.4415 23.0777 20.5764 22.9893 20.6913 22.9022C20.8195 22.8142 20.8836 22.7703 20.8836 22.7703C20.9368 22.767 20.9881 22.7305 21.0372 22.6607C21.1405 22.601 21.2748 22.6129 21.4401 22.6963C21.6188 22.7789 21.7126 22.8934 21.7215 23.0398C21.7123 23.1072 21.6589 23.2173 21.5613 23.3702C21.463 23.5098 21.3509 23.6435 21.2251 23.7714C21.1126 23.8984 21.0168 23.9711 20.9378 23.9892C20.9253 24.0033 20.8803 24.0328 20.8029 24.0776C20.7247 24.1091 20.6731 24.1389 20.6481 24.1672L20.668 24.166C20.558 24.3329 20.4431 24.4201 20.3233 24.4274L20.1636 24.4371C20.116 24.5335 19.9495 24.6505 19.664 24.7881C19.3777 24.9124 19.0948 24.9831 18.8153 25.0001ZM19.4462 20.5535C19.6858 20.5389 19.888 20.4598 20.0529 20.3162C20.2303 20.1585 20.3803 19.9891 20.5028 19.8079C20.7471 19.4324 20.8791 19.077 20.8988 18.7419C20.931 18.3926 20.8764 18.1555 20.7352 18.0305C20.653 17.9955 20.5785 17.98 20.512 17.984C20.458 17.9739 20.3461 18.0008 20.1763 18.0646C20.0581 18.0985 19.8978 18.2084 19.6954 18.3944C19.493 18.5804 19.2918 18.7863 19.0919 19.0122C18.9052 19.2373 18.7631 19.4263 18.6655 19.5792L18.4316 20.0142C18.5356 19.9678 18.6342 19.9418 18.7274 19.9361C18.833 19.9163 18.8933 19.9193 18.9082 19.9451C18.9155 20.0649 18.9424 20.1768 18.9888 20.2808C19.0477 20.3708 19.112 20.4403 19.1818 20.4895C19.2649 20.5379 19.3531 20.5592 19.4462 20.5535ZM24.5672 23.9686C24.528 23.9843 24.4611 23.9817 24.3663 23.9608C24.2715 23.9398 24.1763 23.9122 24.0808 23.878C23.9852 23.8437 23.9232 23.8141 23.895 23.7891C23.8385 23.7391 23.7804 23.6625 23.7207 23.5593C23.6743 23.4552 23.665 23.3022 23.6928 23.1001C23.7197 22.8848 23.8362 22.6038 24.0422 22.2573C24.1006 22.1202 24.1683 21.9157 24.2453 21.6439C24.3222 21.372 24.3984 21.0869 24.4737 20.7884C24.5615 20.4758 24.6381 20.1973 24.7033 19.9529C24.7819 19.7077 24.8383 19.5373 24.8726 19.4417C24.8854 19.2138 24.8624 19.0549 24.8035 18.965C24.7571 18.8609 24.6403 18.8079 24.4532 18.806C24.3201 18.8141 24.2128 18.8073 24.1313 18.7855C24.0632 18.7629 24.0218 18.6319 24.0072 18.3923C24.0225 18.2044 24.0613 18.0751 24.1238 18.0045C24.1988 17.9198 24.3 17.8268 24.4274 17.7255C24.5565 17.6509 24.6867 17.5962 24.8182 17.5615C24.963 17.526 25.1023 17.5108 25.2362 17.516C25.3701 17.5212 25.4794 17.5613 25.5641 17.6363C25.6605 17.6838 25.7277 17.8 25.7657 17.9847C25.8028 18.1561 25.8271 18.3349 25.8384 18.5213C25.8631 18.7068 25.8849 18.8457 25.9039 18.938C26.0305 18.8235 26.2012 18.6661 26.4161 18.466C26.6435 18.2518 26.8385 18.0529 27.0009 17.8694C27.205 17.71 27.4489 17.5482 27.7328 17.384C28.0159 17.2065 28.2239 17.1137 28.357 17.1055C28.5034 17.0966 28.6522 17.1276 28.8035 17.1986C28.954 17.2562 29.059 17.3366 29.1188 17.4399C29.2656 17.658 29.3377 17.854 29.3349 18.0278C29.3454 18.2008 29.2832 18.385 29.1481 18.5802C29.0256 18.7613 28.8665 18.8912 28.6709 18.9699C28.4887 19.0478 28.3709 19.0884 28.3177 19.0916C28.2378 19.0965 28.1344 19.0427 28.0073 18.9302C27.8802 18.8177 27.8076 18.7219 27.7894 18.6429C27.787 18.603 27.7029 18.6482 27.5372 18.7785C27.384 18.8947 27.2128 19.0453 27.0237 19.2305C26.8338 19.4024 26.6764 19.5589 26.5514 19.7001C26.3422 19.9934 26.1257 20.3872 25.902 20.8818C25.6783 21.3763 25.4141 21.9734 25.1094 22.6732C24.97 23.0157 24.8743 23.3087 24.8223 23.5523C24.7696 23.7826 24.6845 23.9214 24.5672 23.9686ZM32.4383 25.1123C31.995 25.0725 31.6854 24.9244 31.5095 24.6679C31.3477 24.424 31.2906 24.0334 31.338 23.4962C31.4025 23.2385 31.4353 23.0094 31.4364 22.8089C31.4501 22.5944 31.5018 22.4576 31.5918 22.3987C31.5918 22.3987 31.5972 22.3784 31.6081 22.3376C31.6323 22.2961 31.6232 22.2566 31.5808 22.2191C31.5703 22.046 31.6156 21.8028 31.7167 21.4894C31.7385 21.408 31.7661 21.3128 31.7995 21.2039C31.8455 21.0809 31.8684 21.0194 31.8684 21.0194C31.7954 20.9169 31.7901 20.8304 31.8526 20.7598C31.9151 20.6892 31.978 20.6253 32.0413 20.568C32.1171 20.4966 32.1193 20.423 32.0479 20.3472C32.0181 20.2956 32.044 20.1738 32.1258 19.9818C32.2068 19.7765 32.3008 19.5637 32.4076 19.3435C32.5144 19.1233 32.5841 18.952 32.6167 18.8298C32.6151 18.8032 32.6427 18.708 32.6995 18.5443C32.7563 18.3805 32.8249 18.1893 32.905 17.9707C32.9852 17.7521 33.06 17.5539 33.1293 17.376C33.2119 17.1973 33.2649 17.0805 33.2883 17.0257C33.4174 16.951 33.3613 16.9077 33.1201 16.8957C32.8789 16.8836 32.6257 16.8924 32.3603 16.9219C31.9469 16.9337 31.613 16.934 31.3585 16.9228C31.1173 16.9107 30.914 16.863 30.7487 16.7796C30.5776 16.603 30.5096 16.4735 30.5447 16.3913C30.5922 16.2949 30.7487 16.2319 31.0141 16.2024C31.1863 16.1785 31.319 16.1638 31.4121 16.1581C31.5186 16.1516 31.6513 16.1369 31.8102 16.1138C31.9816 16.0767 32.2457 16.0272 32.6026 15.9654L33.6159 15.8235L33.6551 15.4805C33.751 15.301 33.8282 15.1427 33.8866 15.0056C33.9576 14.8543 34.0152 14.7039 34.0595 14.5542C34.1038 14.4046 34.1345 14.2491 34.1513 14.0878C34.1513 14.0878 34.2047 13.9777 34.3116 13.7574C34.4176 13.5239 34.4766 13.2865 34.4886 13.0454C34.6321 12.7695 34.7573 12.5214 34.8641 12.3012C34.9701 12.0676 35.0348 11.9234 35.0581 11.8686C35.1972 11.7399 35.2934 11.6739 35.3466 11.6707C35.4132 11.6666 35.5503 11.7251 35.7581 11.846C35.8819 11.9052 35.9932 11.9786 36.092 12.0661C36.1909 12.1536 36.2569 12.2497 36.29 12.3546C36.3222 12.4461 36.288 12.5417 36.1872 12.6414C36.1638 12.6962 36.13 12.7985 36.0856 12.9481C36.0405 13.0844 36.0075 13.2 35.9865 13.2948C35.9124 13.3928 35.8219 13.5519 35.715 13.7722C35.6207 13.9783 35.5601 14.189 35.5331 14.4044C35.4404 14.6371 35.3532 14.8495 35.2714 15.0415C35.1888 15.2202 35.1208 15.3111 35.0676 15.3144C35.1023 15.4458 35.1862 15.5075 35.3193 15.4994C35.4516 15.478 35.6704 15.4513 35.9757 15.4194C36.2269 15.3773 36.3983 15.3402 36.4898 15.3079C36.5939 15.2615 36.7145 15.2675 36.8516 15.3259C36.9238 15.4151 36.9835 15.5183 37.0307 15.6356C37.078 15.753 37.0915 15.8657 37.0714 15.9738C37.0637 16.0678 37.0146 16.1375 36.9238 16.1831C36.8573 16.1872 36.72 16.2356 36.5119 16.3284C36.3163 16.4071 36.0659 16.4625 35.7606 16.4944L34.7086 16.6587L34.4106 17.3581C34.328 17.5368 34.2578 17.7013 34.2002 17.8518C34.1418 17.9889 34.1001 18.0716 34.0751 18.0998C34.0799 18.1797 34.0406 18.3023 33.9572 18.4677C33.8871 18.6322 33.8111 18.8105 33.7293 19.0025C33.6632 19.2336 33.5826 19.4456 33.4875 19.6384C33.4057 19.8304 33.3648 19.9264 33.3648 19.9264C33.3115 19.9296 33.2873 19.9712 33.2922 20.051C33.3685 20.2067 33.3558 20.3277 33.2542 20.414C33.1901 20.458 33.1338 20.5215 33.0855 20.6046C33.0496 20.6736 33.0317 20.7081 33.0317 20.7081C33.0881 20.7581 33.0988 20.8242 33.0638 20.9065C33.042 20.988 33.0074 21.0769 32.9598 21.1733C32.9663 21.2798 32.9423 21.4349 32.888 21.6385C32.8469 21.8414 32.7983 22.0314 32.7423 22.2084C32.7702 22.4472 32.7928 22.5994 32.8102 22.6652C32.8276 22.7309 32.8625 22.7555 32.9149 22.7389C32.9822 22.7482 33.0421 22.7445 33.0946 22.728C33.147 22.7114 33.1998 22.7015 33.253 22.6983C33.4345 22.6071 33.363 23.079 33.0387 24.1139C32.846 24.4596 32.7142 24.7081 32.6433 24.8594C32.5731 25.0239 32.5048 25.1082 32.4383 25.1123ZM37.8427 22.6993C37.7503 22.7183 37.6505 22.7244 37.5432 22.7176C37.4485 22.6966 37.3525 22.6557 37.2552 22.5949C37.1423 22.4949 37.0642 22.4195 37.0211 22.3687C36.9771 22.3046 36.9577 22.2056 36.9629 22.0717C36.9814 21.9369 37.0154 21.7278 37.065 21.4443C37.1185 21.2273 37.1806 20.9296 37.251 20.5513C37.3207 20.1597 37.3974 19.7743 37.4812 19.3952C37.5081 19.1798 37.548 18.957 37.6008 18.7267C37.6668 18.4956 37.7341 18.2844 37.8026 18.0933C37.8703 17.8888 37.9209 17.7321 37.9544 17.6232C38.0381 17.244 38.1181 16.9119 38.1942 16.6267C38.2837 16.3408 38.3907 16.0137 38.5152 15.6454C38.6389 15.2639 38.7886 14.7605 38.9642 14.1353C39.2084 13.319 39.3911 12.7001 39.5124 12.2786C39.6462 11.843 39.7406 11.53 39.7958 11.3396C39.8635 11.1351 39.9074 10.9788 39.9276 10.8707C39.9211 10.7643 39.9429 10.6828 39.9928 10.6263C40.0561 10.569 40.1344 10.5376 40.2275 10.5319C40.4139 10.5205 40.5659 10.6048 40.6837 10.7846C40.8141 10.9503 40.9002 11.1588 40.9422 11.4101C40.9834 11.648 40.9573 11.8767 40.8638 12.0961C40.68 12.5882 40.4886 13.1742 40.2896 13.8543C40.0897 14.521 39.8961 15.1806 39.7088 15.8332C39.5206 16.4725 39.3401 17.0178 39.1672 17.4692C39.1705 17.5224 39.1562 17.6168 39.1244 17.7523C39.0925 17.8878 39.0533 18.0104 39.0065 18.1201C38.9598 18.2298 38.9126 18.3329 38.865 18.4293C38.8308 18.5249 38.8137 18.5727 38.8137 18.5727C38.8169 18.6259 38.803 18.727 38.772 18.8758C38.741 19.0246 38.6987 19.2075 38.6451 19.4245C38.6016 19.5875 38.5476 19.7978 38.4832 20.0555C38.432 20.3124 38.3984 20.5282 38.3823 20.7028C38.4416 20.579 38.5704 20.3908 38.7687 20.1383C38.9671 19.8858 39.1542 19.6674 39.3299 19.483C39.5315 19.2837 39.7585 19.0628 40.0109 18.8204C40.2633 18.5779 40.4661 18.3986 40.6193 18.2824C40.7726 18.1662 40.9066 18.0645 41.0216 17.9774C41.149 17.8761 41.2127 17.8255 41.2127 17.8255C41.2094 17.7723 41.2278 17.7444 41.2677 17.742C41.3201 17.7254 41.373 17.7156 41.4262 17.7123C41.4794 17.7091 41.5056 17.7008 41.5048 17.6875C41.5173 17.6734 41.522 17.6397 41.5187 17.5865C41.5147 17.5199 41.5842 17.4556 41.7274 17.3934C41.8838 17.3305 42.0611 17.2796 42.2591 17.2408C42.4696 17.1879 42.6414 17.1574 42.7745 17.1493C42.9342 17.1396 43.0626 17.1652 43.1598 17.226C43.2571 17.2869 43.3857 17.426 43.5459 17.6433C43.7186 17.8466 43.8342 18.1 43.8928 18.4037C43.9638 18.6932 43.9559 19.0009 43.8688 19.3268C43.8753 19.4333 43.8647 19.5876 43.8369 19.7896C43.8216 19.9776 43.8205 20.178 43.8335 20.3909L43.7526 21.0371L44.072 21.0176C44.1785 21.0111 44.2795 21.025 44.3751 21.0593C44.4699 21.0802 44.5172 21.0907 44.5172 21.0907C44.5737 21.1407 44.6302 21.1907 44.6867 21.2407C44.7423 21.2773 44.7968 21.2941 44.85 21.2908C45.0097 21.2811 45.0737 21.344 45.0419 21.4795C45.0092 21.6017 44.9163 21.7209 44.7631 21.8371C44.4566 22.0695 44.1703 22.1938 43.9041 22.21C43.6513 22.2254 43.4119 22.1331 43.186 21.9332C42.9593 21.7199 42.8108 21.4751 42.7405 21.1989C42.6703 20.9226 42.6754 20.5683 42.756 20.136C42.7735 19.5471 42.7742 19.1196 42.758 18.8535C42.7543 18.5732 42.6793 18.4375 42.5329 18.4464C42.3998 18.4545 42.1725 18.5619 41.8512 18.7684C41.529 18.9617 41.1709 19.224 40.777 19.5552C40.3831 19.8864 39.9978 20.2505 39.6213 20.6474C39.2447 21.0444 38.9355 21.4506 38.6936 21.8661C38.5461 22.0754 38.404 22.2644 38.2673 22.433C38.1298 22.5884 37.9883 22.6771 37.8427 22.6993ZM46.7696 22.2559C46.7163 22.2592 46.649 22.2499 46.5675 22.2282C46.4985 22.1923 46.4641 22.1744 46.4641 22.1744C46.4608 22.1211 46.4368 22.0558 46.392 21.9784C46.3605 21.9001 46.3432 21.8344 46.3399 21.7812C46.2435 21.7336 46.1871 21.6836 46.1705 21.6312C46.1531 21.5655 46.1666 21.4578 46.2109 21.3081C46.2827 21.1702 46.3762 20.9508 46.4914 20.6499C46.6059 20.3357 46.7258 20.0011 46.8511 19.6462C46.9756 19.2779 47.0939 18.9167 47.2059 18.5626C47.3179 18.2085 47.4132 17.9088 47.4918 17.6635C47.5695 17.405 47.6135 17.2487 47.6235 17.1947C47.6203 17.1414 47.6362 17.0737 47.6713 16.9914C47.7063 16.9091 47.7489 16.8397 47.7988 16.7833C47.8996 16.6836 48.0124 16.6701 48.137 16.7426C48.2608 16.8019 48.3679 16.9156 48.4583 17.0837C48.5612 17.2378 48.6187 17.4146 48.6309 17.6142C48.6366 17.7074 48.5846 17.951 48.475 18.345C48.3646 18.7258 48.2121 19.1826 48.0175 19.7154C47.8361 20.2474 47.6286 20.7877 47.3948 21.3362C47.2187 21.7343 47.1073 21.9882 47.0605 22.098C47.013 22.1944 46.916 22.247 46.7696 22.2559ZM49.2434 14.5113C49.0837 14.521 48.9071 14.4716 48.7134 14.3632C48.5323 14.2406 48.3696 14.0903 48.2251 13.912C48.0932 13.7197 48.0211 13.5237 48.009 13.3241C48.0049 13.2575 48.0392 13.162 48.1117 13.0373C48.1843 12.9127 48.2569 12.788 48.3294 12.6634C48.402 12.5387 48.4374 12.4631 48.4358 12.4365C48.5423 12.43 48.6225 12.4318 48.6766 12.4419C48.7431 12.4378 48.8246 12.4596 48.921 12.5071C49.0877 12.8309 49.284 13.0928 49.5099 13.2928C49.7491 13.492 49.8731 13.6647 49.882 13.8111C49.8999 14.1039 49.8846 14.2919 49.8362 14.375C49.7871 14.4448 49.5894 14.4902 49.2434 14.5113ZM56.3474 22.4141C56.2143 22.4222 56.0701 22.3575 55.9148 22.22C55.7728 22.0817 55.6421 21.9093 55.5226 21.7029C55.4157 21.4823 55.3561 21.2722 55.344 21.0726C55.3318 20.873 55.3557 20.4975 55.4156 19.9461C55.4889 19.394 55.5817 18.834 55.694 18.2661C55.7794 17.9136 55.8006 17.712 55.7574 17.6611C55.7142 17.6103 55.539 17.6945 55.2318 17.9136C55.0511 18.0181 54.8908 18.128 54.7509 18.2434C54.6102 18.3455 54.4902 18.4596 54.3911 18.5859C54.3278 18.6432 54.2332 18.7358 54.1074 18.8637C53.9816 18.9915 53.8488 19.1132 53.7089 19.2286C53.544 19.3722 53.3357 19.5719 53.0841 19.8276C52.8325 20.0834 52.581 20.3392 52.3294 20.5949C52.0911 20.8499 51.9095 21.048 51.7845 21.1891C51.7611 21.244 51.724 21.293 51.6732 21.3362C51.6224 21.3794 51.5641 21.4096 51.4984 21.427C51.4319 21.431 51.3579 21.4222 51.2764 21.4004C51.1276 21.3694 50.9825 21.2914 50.8414 21.1664C50.7135 21.0406 50.6443 20.8912 50.6337 20.7182C50.6256 20.5851 50.6651 20.3556 50.7521 20.0298C50.8383 19.6906 50.9537 19.2828 51.0984 18.8064C51.2563 18.3293 51.4393 17.8239 51.6472 17.2903C51.6831 17.2213 51.7115 17.1394 51.7325 17.0446C51.7526 16.9366 51.7657 16.8222 51.7717 16.7016C51.791 16.5802 51.7974 16.4663 51.791 16.3598C51.7869 16.2933 51.7895 16.2263 51.7988 16.159C51.8205 16.0775 51.8427 16.0027 51.8652 15.9345C51.9003 15.8522 51.9303 15.797 51.9553 15.7687C52.0021 15.659 52.0936 15.6267 52.23 15.6719C52.3655 15.7037 52.4843 15.79 52.5863 15.9307C52.7973 16.1049 52.9113 16.3317 52.9283 16.6112C52.9587 16.8898 52.9132 17.2399 52.7919 17.6614C52.7444 17.7578 52.7035 17.8538 52.6692 17.9494C52.6474 18.0309 52.6253 18.1057 52.6027 18.1738C52.5793 18.2287 52.5622 18.2765 52.5513 18.3172C52.5397 18.3447 52.5338 18.3584 52.5338 18.3584C52.587 18.3551 52.7032 18.2879 52.8822 18.1568C53.0612 18.0257 53.2727 17.8792 53.5167 17.7174C53.7074 17.5589 53.8723 17.4153 54.0114 17.2866C54.163 17.1438 54.29 17.0358 54.3924 16.9628C54.494 16.8765 54.5581 16.8325 54.5848 16.8309C54.638 16.8276 54.7033 16.8036 54.7807 16.7588C54.8582 16.7141 54.9219 16.6634 54.9719 16.6069C55.0219 16.5505 55.0602 16.5214 55.0868 16.5198C55.1259 16.5041 55.1455 16.4962 55.1455 16.4962C55.1455 16.4962 55.1721 16.4946 55.2253 16.4913C55.2777 16.4748 55.3289 16.4383 55.3789 16.3818C55.4805 16.2954 55.6191 16.267 55.7945 16.2964C55.9691 16.3124 56.1329 16.3693 56.2858 16.4668C56.4387 16.5644 56.5191 16.6797 56.5272 16.8128C56.5305 16.866 56.5466 16.9118 56.5757 16.9501C56.6172 16.9743 56.638 16.9864 56.638 16.9864C56.7445 16.9799 56.8211 17.1422 56.868 17.4733C56.9282 17.8036 56.9144 18.125 56.8266 18.4376C56.8387 18.6372 56.8134 18.8792 56.7505 19.1636C56.701 19.4471 56.6573 19.7169 56.6195 19.973C56.5333 20.3122 56.4779 20.6095 56.4534 20.8648C56.4289 21.1201 56.4352 21.3334 56.4723 21.5048C56.5095 21.6762 56.5646 21.8131 56.6376 21.9155C56.6965 22.0054 56.703 22.1119 56.6571 22.2349C56.6103 22.3446 56.5071 22.4043 56.3474 22.4141ZM64.3136 22.2095C64.2636 22.266 64.1184 22.2949 63.878 22.2961C63.651 22.2966 63.4348 22.2563 63.2295 22.1753C63.2004 22.137 63.1514 22.0999 63.0825 22.0641C63.0127 22.0149 62.9425 21.959 62.8719 21.8965C62.8146 21.8332 62.7644 21.7762 62.7212 21.7254C62.6922 21.6871 62.6212 21.6179 62.5082 21.518C62.3944 21.4047 62.2811 21.298 62.1681 21.198C62.0552 21.098 61.9775 21.0293 61.9352 20.9918C61.8754 20.8886 61.7609 20.762 61.5914 20.612C61.4212 20.4487 61.2584 20.2983 61.1031 20.1608C61.0018 20.0334 60.9018 19.926 60.803 19.8385C60.7041 19.751 60.6202 19.6893 60.5513 19.6535C60.4815 19.6043 60.4266 19.5809 60.3867 19.5833C60.3867 19.5833 60.3653 19.6715 60.3226 19.8477C60.2924 20.0098 60.2451 20.2198 60.1807 20.4775C60.1287 20.7211 60.0705 20.9718 60.006 21.2295C59.9541 21.4731 59.9126 21.6693 59.8816 21.8182C59.7998 22.0102 59.7276 22.1414 59.6651 22.212C59.6026 22.2826 59.5182 22.3212 59.4117 22.3277C59.2653 22.3366 59.1282 22.2781 59.0003 22.1523C58.8857 22.0257 58.8207 21.836 58.8053 21.5831C58.7407 21.4001 58.7826 20.9901 58.9308 20.3532C59.079 19.7164 59.3165 18.9004 59.6433 17.9054C59.6844 17.7025 59.7384 17.4922 59.8053 17.2744C59.8713 17.0433 59.9265 16.8529 59.9709 16.7033C60.0772 16.256 60.1922 15.8416 60.3159 15.46C60.4521 15.0643 60.595 14.6682 60.7445 14.2718C60.8932 13.862 61.0469 13.4251 61.2057 12.9613C61.3109 12.7145 61.3869 12.5362 61.4336 12.4265C61.4796 12.3034 61.5322 12.18 61.5914 12.0562C61.6498 11.919 61.7379 11.72 61.8556 11.459C62.1152 10.8955 62.3221 10.4555 62.4765 10.1388C62.6309 9.82221 62.7502 9.58786 62.8344 9.43579C62.9187 9.28372 62.992 9.17239 63.0545 9.10179C63.117 9.0312 63.194 8.97975 63.2856 8.94746C63.3771 8.91517 63.4703 8.9095 63.5651 8.93044C63.659 8.93808 63.7417 8.9798 63.8131 9.0556C63.9261 9.15558 63.9929 9.26506 64.0135 9.38403C64.0466 9.48888 64.0289 9.63689 63.9604 9.82808C63.9052 10.0185 63.7879 10.2861 63.6085 10.6309C63.5166 10.877 63.4407 11.0553 63.3806 11.1658C63.3205 11.2763 63.2605 11.3868 63.2004 11.4974C63.1404 11.6079 63.0452 11.8007 62.915 12.0758C62.8933 12.1572 62.8586 12.2462 62.8111 12.3426C62.7635 12.439 62.7065 12.4892 62.6399 12.4933C62.6423 12.5332 62.6272 12.6143 62.5946 12.7365C62.562 12.8587 62.5223 12.9746 62.4755 13.0843C62.4445 13.2332 62.3877 13.3969 62.3051 13.5756C62.235 13.7402 62.1832 13.8769 62.1497 13.9858C62.0929 14.1496 61.9998 14.3756 61.8704 14.664C61.7544 14.9516 61.6379 15.2326 61.521 15.5068C61.4166 15.767 61.3556 15.9711 61.3379 16.1191C61.3411 16.1723 61.3806 16.1633 61.4564 16.0918C61.5322 16.0204 61.6151 15.9553 61.705 15.8964C61.8949 15.7245 62.1115 15.551 62.3546 15.3759C62.6102 15.1867 62.8542 15.0249 63.0864 14.8906C63.3312 14.7421 63.5326 14.6497 63.6907 14.6133C63.8871 14.5479 64.0452 14.5116 64.165 14.5043C64.298 14.4962 64.4328 14.5147 64.5691 14.5598C64.6788 14.6066 64.7698 14.6745 64.842 14.7636C64.9275 14.8519 65.0005 14.9543 65.0611 15.0709C65.1349 15.1866 65.1904 15.3302 65.2275 15.5015C65.2348 15.6213 65.2004 15.8238 65.1243 16.1089C65.0481 16.3941 64.9516 16.6738 64.8347 16.9481C64.717 17.2091 64.5949 17.3968 64.4683 17.5114C64.3776 17.557 64.3068 17.6014 64.256 17.6446C64.2052 17.6877 64.1798 17.7093 64.1798 17.7093C64.183 17.7625 64.1605 17.8307 64.1121 17.9138C64.077 17.9961 64.0079 18.0671 63.9047 18.1268C63.8547 18.1833 63.7988 18.2535 63.7372 18.3374C63.6755 18.4213 63.6458 18.4832 63.6483 18.5231C63.6483 18.5231 63.6495 18.5431 63.6519 18.583C63.6535 18.6096 63.6544 18.6229 63.6544 18.6229C63.6011 18.6262 63.5237 18.671 63.4221 18.7573C63.3338 18.8428 63.2197 18.9433 63.0798 19.0587C62.9423 19.214 62.8407 19.3003 62.775 19.3177C62.7225 19.3342 62.6443 19.3657 62.5403 19.4121C62.5153 19.4404 62.4832 19.4623 62.4441 19.4781C62.4183 19.493 62.3858 19.5083 62.3467 19.5241C62.3209 19.539 62.2951 19.5539 62.2693 19.5689C62.2568 19.583 62.2514 19.6034 62.253 19.63C62.2562 19.6832 62.323 19.7927 62.4533 19.9584C62.5961 20.11 62.7601 20.2804 62.9453 20.4694C63.1438 20.6577 63.3281 20.8335 63.4984 20.9968C63.6811 21.146 63.814 21.2447 63.8971 21.2931C64.0334 21.3383 64.1323 21.4257 64.1936 21.5556C64.2674 21.6713 64.3151 21.7953 64.3365 21.9276C64.3571 22.0466 64.3494 22.1405 64.3136 22.2095ZM61.7028 18.8219C61.7661 18.7646 61.8994 18.6497 62.1026 18.477C62.305 18.291 62.5266 18.0905 62.7673 17.8755C63.0072 17.6471 63.2213 17.4337 63.4096 17.2353C63.6103 17.0227 63.7478 16.8673 63.822 16.7693C63.9095 16.6705 63.9929 16.5051 64.0723 16.2732C64.1517 16.0413 64.1541 15.8608 64.0794 15.7318C64.0629 15.6793 63.9447 15.7132 63.7249 15.8335C63.5052 15.9537 63.2534 16.096 62.9695 16.2602C62.7513 16.4071 62.4957 16.5963 62.2026 16.8279C61.9227 17.0586 61.657 17.3019 61.4054 17.5577C61.1672 17.8126 60.9884 18.0573 60.8691 18.2916C60.8481 18.3864 60.8812 18.4912 60.9684 18.6062C61.0555 18.7211 61.1677 18.8078 61.3048 18.8662C61.4411 18.9113 61.5738 18.8966 61.7028 18.8219ZM66.6326 21.387C66.5196 21.287 66.4316 21.1588 66.3687 21.0024C66.319 20.8451 66.296 20.6862 66.2996 20.5257C66.3032 20.3652 66.3283 20.23 66.3751 20.1203C66.3686 20.0139 66.377 19.9332 66.4004 19.8783C66.4363 19.8094 66.446 19.7487 66.4294 19.6963C66.4129 19.6438 66.4205 19.5499 66.4523 19.4143C66.4841 19.2788 66.5164 19.15 66.549 19.0277C66.6292 18.8091 66.7136 18.5502 66.8023 18.2509C66.8901 17.9383 66.9717 17.6328 67.047 17.3343C67.1223 17.0359 67.1868 16.7782 67.2404 16.5612C67.2939 16.3442 67.3258 16.2087 67.3358 16.1546C67.3261 15.9949 67.4273 15.9019 67.6394 15.8756C67.7959 15.8127 67.9157 15.8054 67.9988 15.8538C68.081 15.8888 68.1952 16.0088 68.3413 16.2136C68.4542 16.3136 68.5039 16.4709 68.4902 16.6854C68.4766 16.9 68.4063 17.1714 68.2793 17.4997C68.2326 17.6095 68.1753 17.7666 68.1077 17.9711C68.0533 18.1747 68.0176 18.3572 68.0007 18.5186C67.954 18.6283 67.8968 18.7854 67.8291 18.9899C67.7739 19.1802 67.7249 19.3636 67.6822 19.5398C67.6597 19.608 67.6391 19.7094 67.6206 19.8441C67.6013 19.9655 67.5761 20.1006 67.5451 20.2495C67.5133 20.385 67.4673 20.508 67.4073 20.6185C67.3207 21.1715 67.227 21.4978 67.1263 21.5974C67.0388 21.6962 66.8742 21.6261 66.6326 21.387ZM68.0754 13.1641C68.0048 13.1016 67.9393 13.0121 67.8787 12.8956C67.8174 12.7657 67.7768 12.648 67.757 12.5423C67.7364 12.4234 67.7461 12.3627 67.786 12.3602C67.8917 12.3404 68.0112 12.2196 68.1447 11.9978C68.2781 11.7759 68.3266 11.5859 68.2903 11.4279C68.287 11.3746 68.3042 11.3268 68.3417 11.2845C68.3784 11.2288 68.4229 11.1927 68.4753 11.1761C68.6286 11.0599 68.7808 11.0373 68.932 11.1083C69.0958 11.1651 69.2507 11.2959 69.3968 11.5007C69.5319 11.7463 69.5782 11.9572 69.5355 12.1335C69.492 12.2964 69.3593 12.5316 69.1376 12.839C68.9542 13.1173 68.7768 13.275 68.6054 13.3122C68.4473 13.3485 68.2707 13.2992 68.0754 13.1641ZM77.1864 20.4638C76.9202 20.4801 76.6974 20.4402 76.5179 20.3443C76.3376 20.235 76.1795 20.051 76.0435 19.7921C75.9789 19.609 75.9198 19.4055 75.8661 19.1817C75.8248 18.9438 75.7982 18.725 75.786 18.5254C75.773 18.3124 75.7845 18.1715 75.8204 18.1025C75.8704 18.046 75.8847 17.9517 75.8632 17.8194C75.8543 17.673 75.845 17.5199 75.8353 17.3602C75.8058 17.0949 75.7303 16.9525 75.6089 16.9332C75.5 16.8998 75.3427 16.9494 75.1371 17.0822C74.9064 17.2431 74.6059 17.4618 74.2353 17.7382C73.8639 18.0012 73.4742 18.2921 73.0662 18.6109C72.6714 18.9288 72.2975 19.2588 71.9443 19.6009C71.6709 19.9381 71.5063 20.1953 71.4503 20.3723C71.4067 20.5353 71.3318 20.62 71.2253 20.6265C71.1221 20.6862 71.0293 20.6985 70.947 20.6635C70.8772 20.6143 70.7726 20.5405 70.633 20.4421C70.5333 20.3413 70.4341 20.2472 70.3353 20.1597C70.2356 20.0589 70.1709 19.9827 70.141 19.9311C70.137 19.8645 70.1484 19.7236 70.1754 19.5082C70.2023 19.2928 70.2359 19.0771 70.2762 18.8609C70.3298 18.6439 70.3679 18.5013 70.3904 18.4332C70.457 18.4291 70.5062 18.3593 70.538 18.2238C70.5831 18.0875 70.654 17.9362 70.7508 17.77C70.7677 17.6087 70.8213 17.3917 70.9115 17.1191C71.0143 16.8323 71.1058 16.5796 71.186 16.361C71.3528 16.0302 71.463 15.7563 71.5166 15.5394C71.5835 15.3216 71.6205 15.0521 71.6277 14.7311C71.6112 14.6787 71.6216 14.6313 71.6591 14.5889C71.6958 14.5333 71.7408 14.5038 71.794 14.5006C71.894 14.3876 72.0188 14.3533 72.1684 14.3976C72.3173 14.4286 72.4564 14.5204 72.5859 14.6728C72.8449 14.9776 72.9584 15.3046 72.9262 15.6539C72.9065 15.989 72.7228 16.4811 72.3749 17.1301C72.2947 17.3487 72.2316 17.5196 72.1857 17.6426C72.1523 17.7515 72.1376 17.8392 72.1416 17.9057C72.1416 17.9057 72.2053 17.8551 72.3327 17.7538C72.4735 17.6518 72.6267 17.5356 72.7924 17.4053C72.9706 17.2608 73.1109 17.1521 73.2133 17.0791C73.2758 17.0085 73.4216 16.8794 73.6506 16.6918C73.8796 16.5042 74.1224 16.3224 74.3788 16.1465C74.6478 15.9565 74.848 15.8441 74.9794 15.8094C75.0827 15.7497 75.193 15.6962 75.3103 15.649C75.4268 15.5884 75.5117 15.5566 75.565 15.5533C75.6714 15.5468 75.8082 15.5986 75.9752 15.7087C76.1547 15.8046 76.3225 15.928 76.4786 16.0788C76.6339 16.2162 76.7281 16.3374 76.7612 16.4423C76.7644 16.4955 76.7677 16.5487 76.7709 16.602C76.7875 16.6544 76.804 16.7068 76.8206 16.7592C76.8843 16.929 76.9251 17.1603 76.943 17.4531C76.9741 17.7451 76.9837 18.0116 76.9716 18.2528C76.9596 18.494 76.9215 18.6366 76.8574 18.6805C76.8574 18.6805 76.8586 18.7005 76.8611 18.7404C76.876 18.7662 76.9101 18.7775 76.9633 18.7743C76.9666 18.8275 76.9686 18.8608 76.9694 18.8741C76.9029 18.8781 76.8799 18.9397 76.9005 19.0586C76.9203 19.1643 76.9675 19.2816 77.0421 19.4107C77.1301 19.5389 77.2164 19.6405 77.3011 19.7155C77.4706 19.8655 77.5464 20.0145 77.5287 20.1625C77.5102 20.2972 77.3961 20.3976 77.1864 20.4638ZM81.108 24.9137C80.9625 24.9359 80.7342 24.9164 80.4232 24.8552C80.1256 24.7932 79.9015 24.7334 79.7511 24.6757C79.57 24.5532 79.386 24.3841 79.1992 24.1684C79.0124 23.9526 78.8585 23.7282 78.7374 23.4952C78.6305 23.2746 78.58 23.104 78.5861 22.9834C78.5929 22.8762 78.6915 22.8501 78.8819 22.9053C79.0855 22.9597 79.2239 23.0381 79.2969 23.1405C79.4256 23.2796 79.5739 23.4108 79.7417 23.5342C79.9095 23.6576 80.0753 23.7477 80.239 23.8045C80.4036 23.8746 80.532 23.9002 80.6244 23.8812C80.9539 23.8077 81.2166 23.6247 81.4125 23.3323C81.6225 23.0523 81.8015 22.7008 81.9494 22.2777C82.038 21.9784 82.1029 21.7274 82.144 21.5245C82.1992 21.3341 82.2461 21.1175 82.2847 20.8747C82.3367 20.6311 82.3963 20.2935 82.4635 19.862C82.5541 19.3756 82.6133 19.0313 82.6411 18.8293C82.6813 18.6131 82.6994 18.4717 82.6954 18.4052C82.6913 18.3387 82.6685 18.2933 82.627 18.2691C82.627 18.2691 82.5433 18.3209 82.376 18.4246C82.2086 18.5283 82.0217 18.6399 81.8153 18.7593C81.6221 18.878 81.4744 18.9738 81.3719 19.0468C81.0066 19.1893 80.6451 19.2848 80.2873 19.3333C79.9296 19.3818 79.6489 19.3788 79.4453 19.3244C79.3497 19.2902 79.2442 19.2031 79.1288 19.0632C79.0267 18.9225 78.9371 18.7676 78.8601 18.5987C78.7955 18.4156 78.7658 18.2571 78.771 18.1232C78.7778 18.0159 78.828 17.8526 78.9215 17.6332C79.015 17.4137 79.121 17.1802 79.2395 16.9325C79.3713 16.6841 79.4856 16.4767 79.5823 16.3105C79.6916 16.1302 79.7595 16.0393 79.7861 16.0376C79.8393 16.0344 79.8647 16.0128 79.8623 15.9729C79.8732 15.9322 79.877 15.8852 79.8738 15.8319C79.8838 15.7779 79.9768 15.6587 80.1525 15.4743C80.3408 15.2759 80.5932 15.0334 80.9097 14.747C81.3496 14.2927 81.749 13.9411 82.1078 13.6922C82.4667 13.4433 82.805 13.2958 83.1228 13.2497C83.2168 13.2573 83.3037 13.2587 83.3836 13.2538C83.4767 13.2482 83.5233 13.2453 83.5233 13.2453C83.5233 13.2453 83.5648 13.2695 83.6479 13.3179C83.7435 13.3521 83.8665 13.3981 84.017 13.4557C84.2215 13.5234 84.4097 13.6522 84.5815 13.8421C84.7526 14.0187 84.8924 14.2306 85.0009 14.4778C85.122 14.7109 85.1965 14.9468 85.2244 15.1855C85.2289 15.4791 85.1798 15.7693 85.077 16.0561C84.9876 16.3421 84.8892 16.4816 84.7819 16.4748C84.6746 16.468 84.5444 16.5227 84.3912 16.6389C84.2512 16.7542 84.1829 16.8386 84.1862 16.8918C84.1894 16.945 84.1735 17.0128 84.1384 17.0951C84.1167 17.1765 84.0379 17.3082 83.902 17.4902C83.8927 17.5575 83.8638 17.7396 83.815 18.0365C83.7788 18.3192 83.7317 18.6426 83.6738 19.0068C83.6158 19.371 83.5625 19.7016 83.5137 19.9984C83.4775 20.2811 83.4552 20.4628 83.4467 20.5435C83.4367 20.5975 83.4107 20.7193 83.3688 20.9089C83.3394 21.0843 83.2917 21.2876 83.2256 21.5187C83.1728 21.749 83.1126 21.9664 83.0449 22.1709C83.0152 22.5601 82.9594 22.8507 82.8776 23.0427C82.8099 23.2472 82.6898 23.4682 82.5172 23.7058C82.3379 24.0507 82.1141 24.3248 81.846 24.5281C81.5787 24.7448 81.3327 24.8733 81.108 24.9137ZM79.8811 18.256C79.9158 18.3874 80.0983 18.4231 80.4286 18.3629C80.7581 18.2894 81.0839 18.156 81.4061 17.9627C81.69 17.7985 81.9489 17.6625 82.1827 17.5548C82.4166 17.447 82.5749 17.3038 82.6575 17.1251C82.7293 16.9872 82.7877 16.85 82.8328 16.7137C82.878 16.5774 82.9328 16.3804 82.9972 16.1226C83.0073 16.0686 83.0369 16.0067 83.0861 15.9369C83.1478 15.853 83.2048 15.8028 83.2572 15.7862C83.3097 15.7697 83.3629 15.7664 83.4169 15.7765C83.4843 15.7857 83.5658 15.8075 83.6614 15.8417C83.7263 15.8111 83.7688 15.7417 83.7889 15.6336C83.8224 15.5247 83.8218 15.4045 83.787 15.2731C83.768 15.1807 83.6938 15.0583 83.5643 14.9059C83.4348 14.7535 83.2741 14.6364 83.0821 14.5546C82.8759 14.4603 82.6471 14.541 82.3955 14.7968C82.1439 15.0525 81.8357 15.3652 81.4708 15.7347C81.1817 16.0328 80.9068 16.3434 80.6459 16.6666C80.3851 16.9897 80.1763 17.2896 80.0194 17.5663C79.876 17.8422 79.8298 18.0721 79.8811 18.256ZM90.2315 22.1741C90.0984 22.1822 90.0111 22.1742 89.9696 22.15C89.9421 22.1383 89.899 22.0875 89.8401 21.9976C89.8344 21.9044 89.8495 21.8233 89.8854 21.7544C89.9346 21.6846 90.0029 21.6003 90.0904 21.5014C90.2154 21.3603 90.3583 21.1846 90.5191 20.9744C90.6808 20.7776 90.8288 20.5749 90.963 20.3663C91.1105 20.157 91.2139 19.9904 91.2732 19.8665C91.3175 19.7169 91.3536 19.541 91.3813 19.339C91.4224 19.1361 91.4623 18.9133 91.5009 18.6705C91.4944 18.564 91.4888 18.4708 91.4839 18.391C91.4915 18.297 91.5203 18.2218 91.5703 18.1653C91.6578 18.0665 91.7352 18.0217 91.8026 18.031C91.8833 18.0394 91.9547 18.1152 92.0168 18.2584C92.0923 18.4007 92.1522 18.6175 92.1967 18.9086C92.2677 19.1982 92.2839 19.4643 92.2453 19.7071C92.2067 19.9499 92.1247 20.2488 91.9993 20.6038C91.9784 20.6985 91.9004 20.8435 91.7654 21.0388C91.6303 21.234 91.4944 21.4159 91.3578 21.5846C91.2211 21.7532 91.1328 21.8387 91.0929 21.8411C91.0396 21.8444 90.9939 21.8605 90.9556 21.8896C90.9181 21.9319 90.8743 21.9813 90.8243 22.0378C90.7743 22.0943 90.6961 22.1258 90.5896 22.1323C90.4973 22.1512 90.3779 22.1652 90.2315 22.1741ZM6.02989 50.4643C5.85688 50.4748 5.71511 50.4501 5.60459 50.39C5.50738 50.3291 5.38193 50.2433 5.22824 50.1324C4.95917 49.8816 4.7641 49.6397 4.64304 49.4066C4.52118 49.1603 4.47332 48.9227 4.49947 48.694C4.53291 48.5851 4.54014 48.4845 4.52116 48.3922C4.51467 48.2857 4.51143 48.2325 4.51143 48.2325C4.44084 48.17 4.41844 48.1313 4.44425 48.1163C4.46925 48.0881 4.49343 48.0465 4.51681 47.9917C4.59666 47.9868 4.61882 47.912 4.58329 47.7672C4.55019 47.6624 4.58924 47.4262 4.70045 47.0588C4.81165 46.6914 4.95734 46.3419 5.13752 46.0103C5.20927 45.8724 5.31852 45.692 5.46525 45.4694C5.61118 45.2334 5.77082 45.0033 5.94418 44.779C6.13003 44.5406 6.29876 44.35 6.45036 44.2072C6.76605 43.9074 7.04628 43.6833 7.29104 43.5348C7.5358 43.3863 7.80255 43.2699 8.09129 43.1855C8.38003 43.1012 8.57764 43.0557 8.68411 43.0493C8.80388 43.042 8.97007 43.1387 9.18267 43.3395C9.49687 43.4539 9.72619 43.6003 9.87062 43.7785C10.0284 43.9559 10.1381 44.2231 10.1999 44.58C10.2642 44.9768 10.2589 45.438 10.184 45.9635C10.1216 46.4749 9.84739 47.1261 9.36123 47.9171C9.05769 48.4165 8.77347 48.7945 8.50858 49.051C8.24287 49.2943 7.92393 49.5408 7.55176 49.7906C7.28362 49.9939 7.03926 50.149 6.81869 50.256C6.5973 50.3496 6.33437 50.419 6.02989 50.4643ZM7.81749 48.2315C8.11501 47.8527 8.34721 47.498 8.51409 47.1672C8.69427 46.8356 8.85587 46.4184 8.9989 45.9154C9.04322 45.7658 9.06555 45.5841 9.06589 45.3703C9.06542 45.1433 9.04621 44.9374 9.00824 44.7527C8.98278 44.5539 8.92931 44.4436 8.84784 44.4218C8.68246 44.3384 8.48786 44.3235 8.26405 44.3772C8.03942 44.4176 7.80091 44.5591 7.54851 44.8015C7.15701 45.1727 6.82402 45.6271 6.54952 46.1648C6.27422 46.6891 6.01003 47.2863 5.75695 47.9563C5.58649 48.4475 5.56341 48.8363 5.68771 49.1226C5.82451 49.3948 6.0768 49.4796 6.44458 49.3771C6.82486 49.2604 7.28249 48.8786 7.81749 48.2315ZM18.7194 49.0704C18.4532 49.0866 18.2304 49.0468 18.0509 48.9508C17.8706 48.8416 17.7125 48.6575 17.5765 48.3987C17.5119 48.2156 17.4527 48.0121 17.399 47.7883C17.3578 47.5504 17.3312 47.3316 17.319 47.132C17.306 46.919 17.3175 46.7781 17.3534 46.7091C17.4034 46.6526 17.4176 46.5582 17.3962 46.426C17.3873 46.2796 17.378 46.1265 17.3683 45.9668C17.3388 45.7015 17.2633 45.5591 17.1419 45.5398C17.033 45.5063 16.8757 45.556 16.6701 45.6887C16.4394 45.8497 16.1388 46.0684 15.7683 46.3448C15.3969 46.6078 15.0072 46.8987 14.5992 47.2174C14.2044 47.5354 13.8305 47.8654 13.4773 48.2075C13.2039 48.5447 13.0393 48.8019 12.9832 48.9789C12.9397 49.1419 12.8647 49.2266 12.7583 49.2331C12.6551 49.2928 12.5623 49.3051 12.48 49.27C12.4102 49.2209 12.3055 49.1471 12.166 49.0487C12.0663 48.9479 11.9671 48.8538 11.8683 48.7663C11.7686 48.6655 11.7039 48.5893 11.674 48.5377C11.67 48.4711 11.6814 48.3302 11.7084 48.1148C11.7353 47.8994 11.7689 47.6837 11.8092 47.4675C11.8628 47.2505 11.9009 47.1079 11.9234 47.0397C11.99 47.0357 12.0391 46.9659 12.071 46.8304C12.1161 46.6941 12.187 46.5428 12.2838 46.3766C12.3007 46.2153 12.3543 45.9983 12.4445 45.7256C12.5473 45.4389 12.6387 45.1862 12.7189 44.9676C12.8858 44.6368 12.996 44.3629 13.0496 44.1459C13.1165 43.9281 13.1535 43.6587 13.1607 43.3377C13.1441 43.2853 13.1546 43.2379 13.1921 43.1955C13.2288 43.1399 13.2738 43.1104 13.327 43.1072C13.427 42.9942 13.5518 42.9599 13.7014 43.0042C13.8503 43.0352 13.9894 43.1269 14.1189 43.2794C14.3779 43.5842 14.4913 43.9112 14.4592 44.2605C14.4395 44.5956 14.2558 45.0877 13.9079 45.7367C13.8277 45.9553 13.7646 46.1261 13.7187 46.2492C13.6852 46.3581 13.6706 46.4458 13.6746 46.5123C13.6746 46.5123 13.7383 46.4617 13.8657 46.3604C14.0064 46.2584 14.1597 46.1422 14.3254 46.0119C14.5036 45.8674 14.6439 45.7587 14.7463 45.6857C14.8088 45.6151 14.9546 45.486 15.1836 45.2984C15.4126 45.1108 15.6554 44.929 15.9118 44.7531C16.1808 44.5631 16.381 44.4507 16.5124 44.416C16.6157 44.3563 16.7259 44.3028 16.8433 44.2556C16.9598 44.195 17.0447 44.1632 17.0979 44.1599C17.2044 44.1534 17.3412 44.2052 17.5082 44.3153C17.6876 44.4112 17.8555 44.5346 18.0116 44.6854C18.1669 44.8228 18.2611 44.944 18.2942 45.0488C18.2974 45.1021 18.3007 45.1553 18.3039 45.2085C18.3205 45.261 18.337 45.3134 18.3536 45.3658C18.4173 45.5356 18.4581 45.7669 18.476 46.0597C18.5071 46.3516 18.5167 46.6182 18.5046 46.8594C18.4926 47.1006 18.4545 47.2432 18.3904 47.2871C18.3904 47.2871 18.3916 47.3071 18.3941 47.347C18.409 47.3728 18.4431 47.3841 18.4963 47.3809C18.4996 47.4341 18.5016 47.4674 18.5024 47.4807C18.4358 47.4847 18.4129 47.5462 18.4335 47.6652C18.4533 47.7709 18.5005 47.8882 18.5751 48.0173C18.6631 48.1455 18.7494 48.2471 18.8341 48.3221C19.0036 48.4721 19.0794 48.6211 19.0617 48.7691C19.0432 48.9038 18.9291 49.0042 18.7194 49.0704ZM22.6158 49.815C22.0302 49.8506 21.5377 49.6602 21.1383 49.2437C20.7381 48.8139 20.5244 48.2659 20.4972 47.5997C20.4947 47.1189 20.5566 46.6009 20.6831 46.0455C20.8221 45.476 21.0159 44.9299 21.2646 44.4071C21.5125 43.8711 21.791 43.3999 22.1002 42.9937C22.4094 42.5875 22.7388 42.2936 23.0885 42.112C23.2175 42.0374 23.354 41.9756 23.498 41.9268C23.6552 41.8771 23.8137 41.8474 23.9734 41.8377C24.1198 41.8288 24.2745 41.8461 24.4374 41.8896C24.5996 41.9198 24.7355 41.9583 24.8452 42.005C25.0771 42.0844 25.257 42.187 25.3849 42.3128C25.5128 42.4386 25.6318 42.6384 25.742 42.9122C25.7973 43.1626 25.8282 43.3411 25.8347 43.4476C25.8412 43.554 25.8176 43.7158 25.7641 43.9328C25.6335 44.4216 25.4524 44.8467 25.2206 45.2081C24.9888 45.5696 24.6673 45.883 24.256 46.1485C24.1535 46.2215 24.0304 46.2825 23.8864 46.3313C23.7549 46.366 23.616 46.3879 23.4696 46.3968C23.2034 46.413 22.9411 46.3822 22.6825 46.3044C22.4365 46.2126 22.2342 46.0713 22.0756 45.8805L21.9262 45.7293L21.876 45.8927C21.7648 46.2601 21.6786 46.5993 21.6174 46.9103C21.5695 47.2205 21.5532 47.502 21.5686 47.7548C21.5783 47.9145 21.601 48.0668 21.6365 48.2115C21.6854 48.3555 21.7463 48.4787 21.8193 48.5811C21.8774 48.6577 21.9676 48.7123 22.0898 48.745C22.2245 48.7635 22.365 48.7683 22.5114 48.7594C22.6046 48.7537 22.6977 48.748 22.7909 48.7424C22.8966 48.7226 22.9948 48.6899 23.0855 48.6443C23.3069 48.5506 23.4813 48.4532 23.6087 48.3519C23.7494 48.2499 23.8897 48.1411 24.0296 48.0257L24.1071 47.981L24.0871 47.9822C24.2419 47.8926 24.3768 47.8042 24.4917 47.7171C24.62 47.6291 24.6841 47.5851 24.6841 47.5851C24.7373 47.5819 24.7885 47.5454 24.8377 47.4756C24.9409 47.4159 25.0752 47.4277 25.2406 47.5112C25.4193 47.5938 25.5131 47.7083 25.522 47.8547C25.5127 47.9221 25.4593 48.0322 25.3618 48.1851C25.2634 48.3246 25.1513 48.4584 25.0256 48.5862C24.9131 48.7133 24.8173 48.7859 24.7383 48.8041C24.7258 48.8182 24.6808 48.8477 24.6034 48.8925C24.5252 48.924 24.4735 48.9538 24.4485 48.982L24.4685 48.9808C24.3585 49.1478 24.2435 49.235 24.1238 49.2423L23.9641 49.252C23.9165 49.3484 23.75 49.4654 23.4645 49.603C23.1782 49.7273 22.8953 49.798 22.6158 49.815ZM23.2467 45.3684C23.4862 45.3538 23.6885 45.2747 23.8534 45.1311C24.0308 44.9734 24.1808 44.8039 24.3033 44.6228C24.5476 44.2473 24.6796 43.8919 24.6993 43.5568C24.7314 43.2075 24.6769 42.9704 24.5357 42.8454C24.4534 42.8103 24.379 42.7948 24.3125 42.7989C24.2584 42.7888 24.1465 42.8157 23.9767 42.8794C23.8586 42.9134 23.6983 43.0233 23.4959 43.2093C23.2935 43.3953 23.0923 43.6012 22.8923 43.8271C22.7057 44.0522 22.5636 44.2412 22.466 44.3941L22.232 44.8291C22.3361 44.7827 22.4347 44.7566 22.5278 44.751C22.6335 44.7312 22.6938 44.7342 22.7087 44.76C22.716 44.8798 22.7428 44.9917 22.7893 45.0957C22.8482 45.1856 22.9125 45.2552 22.9823 45.3044C23.0654 45.3527 23.1535 45.3741 23.2467 45.3684ZM55.0251 47.06C54.9654 46.9568 54.894 46.881 54.8109 46.8326C54.727 46.7709 54.6834 46.7135 54.6802 46.6602C54.6769 46.607 54.6671 46.5542 54.6505 46.5017C54.6464 46.4352 54.6162 46.3769 54.5597 46.3269C54.4883 46.2511 54.484 46.0711 54.5468 45.7867C54.6089 45.4891 54.7205 45.1283 54.8817 44.7044C55.0421 44.2671 55.2345 43.8079 55.459 43.3267C55.559 43.2138 55.657 43.0676 55.7529 42.8881C55.8488 42.7086 55.9218 42.5906 55.9718 42.5341C55.9685 42.4809 55.9857 42.4331 56.0232 42.3907C56.0598 42.335 56.1048 42.3056 56.158 42.3024L56.1507 42.1826C56.1467 42.116 56.1997 41.9993 56.3097 41.8323C56.4331 41.6645 56.5823 41.4817 56.7573 41.284C56.9314 41.0731 57.1131 40.875 57.3021 40.6898C57.4904 40.4914 57.6487 40.3481 57.7769 40.2602C58.045 40.0568 58.3243 39.9263 58.6147 39.8685C58.9183 39.81 59.1819 39.8607 59.4054 40.0208C59.4477 40.0583 59.5183 40.1207 59.6172 40.2082C59.716 40.2957 59.8289 40.3957 59.956 40.5082C60.0956 40.6066 60.2356 40.7116 60.3759 40.8232L61.1547 41.4371L60.8561 42.4571C60.7155 43 60.6973 43.4686 60.8015 43.863C60.919 44.2566 61.0731 44.5945 61.264 44.8768C61.3394 45.0191 61.481 45.1507 61.6887 45.2717C61.9098 45.3918 62.1143 45.4595 62.3022 45.4748C62.4095 45.4816 62.5118 45.5154 62.609 45.5763C62.7062 45.6372 62.7592 45.7408 62.7682 45.8872C62.7763 46.0203 62.7561 46.1284 62.7078 46.2115C62.6594 46.2946 62.5695 46.3535 62.438 46.3882C62.0021 46.4682 61.583 46.3868 61.1808 46.1442C60.792 45.9007 60.4192 45.4826 60.0625 44.8898C60.0044 44.8132 59.9223 44.6713 59.8162 44.464C59.7226 44.2426 59.6671 44.0991 59.6497 44.0333C59.6005 44.1031 59.5084 44.2356 59.3734 44.4309C59.2375 44.6128 59.1321 44.7461 59.0571 44.8308C58.1705 45.8466 57.3913 46.5419 56.7195 46.9168C56.0603 47.2775 55.4954 47.3252 55.0251 47.06ZM55.6757 45.8983C55.6814 45.9915 55.8211 45.983 56.0949 45.8728C56.3812 45.7485 56.6827 45.5431 56.9992 45.2567C57.4282 44.8432 57.8547 44.3898 58.2789 43.8964C58.7163 43.4022 59.0626 42.947 59.3178 42.5307L59.7132 41.7853C59.5615 41.4873 59.4025 41.2899 59.2363 41.1932C59.0826 41.0823 58.9525 41.0301 58.8461 41.0366C58.6731 41.0472 58.4233 41.2227 58.0967 41.5632C57.7834 41.9028 57.45 42.3506 57.0965 42.9064C56.743 43.4623 56.4126 44.0701 56.1055 44.73C55.9886 45.0043 55.8846 45.2711 55.7936 45.5305C55.715 45.7757 55.6757 45.8983 55.6757 45.8983ZM65.212 47.0208C65.064 47.0031 64.9065 46.9392 64.7395 46.8291C64.585 46.705 64.443 46.5667 64.3135 46.4143C64.1965 46.2477 64.114 46.0991 64.066 45.9685C64.0643 45.9419 64.0424 45.9098 64 45.8723C63.9709 45.834 63.9564 45.8149 63.9564 45.8149C63.9008 45.7782 63.857 45.6072 63.825 45.3019C63.8056 44.9825 63.804 44.6286 63.8205 44.2402C63.8369 43.8518 63.8648 43.5429 63.9043 43.3134C63.9579 43.0964 64.0403 42.8042 64.1515 42.4368C64.2619 42.056 64.3547 41.7164 64.43 41.4179L64.8985 40.2273L64.0867 40.0563C63.9919 40.0353 63.9088 39.987 63.8374 39.9112C63.7793 39.8346 63.7486 39.7696 63.7454 39.7164C63.7389 39.6099 63.7911 39.4799 63.9019 39.3262C64.012 39.1592 64.0936 39.074 64.1469 39.0708C64.2142 39.0801 64.3344 39.0794 64.5074 39.0689C64.6937 39.0575 64.873 39.0399 65.0452 39.0161C65.2174 38.9923 65.3231 38.9725 65.3622 38.9567C65.4138 38.9269 65.465 38.8904 65.5158 38.8472C65.5658 38.7907 65.6013 38.7151 65.6222 38.6203C65.6798 38.4699 65.7316 38.3331 65.7776 38.2101C65.8227 38.0738 65.887 37.9229 65.9704 37.7575C66.053 37.5789 66.1173 37.428 66.1633 37.305C66.2225 37.1812 66.3122 37.0087 66.4323 36.7877C66.4932 36.6905 66.5595 36.5729 66.6312 36.4349C66.703 36.297 66.7959 36.1778 66.91 36.0773C67.0233 35.9636 67.1403 35.9097 67.2608 35.9157C67.3939 35.9076 67.5656 35.984 67.7757 36.1448C67.8903 36.2714 67.9563 36.3676 67.9736 36.4333C67.991 36.4991 67.9455 36.6287 67.837 36.8224C67.7443 37.0551 67.6317 37.289 67.4991 37.5242C67.3797 37.7585 67.2671 37.9925 67.1611 38.226C66.966 38.5318 66.9362 38.7006 67.0717 38.7324C67.2072 38.7642 67.5782 38.7149 68.1848 38.5845C68.5667 38.4944 68.8474 38.4974 69.0269 38.5933C69.2055 38.6759 69.3151 38.8296 69.3555 39.0542C69.4149 39.3712 69.3933 39.5662 69.2909 39.6392C69.1885 39.7122 68.8844 39.7641 68.3787 39.7949C68.0625 39.8676 67.7917 39.9175 67.5663 39.9446C67.34 39.9584 67.1737 39.9685 67.0672 39.975C66.895 39.9988 66.7823 40.0124 66.7291 40.0156C66.6758 40.0188 66.5968 40.037 66.4919 40.0701C66.3871 40.1032 66.3101 40.1547 66.2609 40.2244C66.2242 40.2801 66.1825 40.3628 66.1357 40.4725C66.0857 40.529 66.0144 40.6736 65.9217 40.9063C65.829 41.1391 65.7109 41.3934 65.5674 41.6693C65.4151 42.2396 65.2895 42.8083 65.1904 43.3753C65.0906 43.9291 65.0165 44.4679 64.9683 44.9918C64.9353 45.3278 64.9561 45.5603 65.0308 45.6893C65.1046 45.805 65.2821 45.8677 65.5632 45.8773C65.7104 45.8817 65.9433 45.8675 66.2619 45.8348C66.593 45.7879 66.8501 45.7322 67.0332 45.6676C67.1755 45.5921 67.3245 45.5162 67.4802 45.44C67.635 45.3504 67.7765 45.2616 67.9048 45.1737C68.0205 45.0998 68.1362 45.026 68.2519 44.9522C68.3668 44.865 68.4243 44.8215 68.4243 44.8215C68.4844 44.7109 68.5555 44.6732 68.6378 44.7083C68.7201 44.7433 68.7927 44.8391 68.8557 44.9956C68.8654 45.1553 68.8423 45.3236 68.7863 45.5007C68.7303 45.6778 68.4966 45.899 68.0853 46.1645C67.5091 46.5737 66.9706 46.8335 66.4697 46.9442C65.9813 47.0407 65.5621 47.0662 65.212 47.0208ZM76.7487 45.8774C76.6439 45.9105 76.5049 45.9324 76.3319 45.9429C76.1581 45.9401 76.0038 45.9295 75.8691 45.911C75.7469 45.8783 75.6846 45.842 75.6822 45.8021C75.6781 45.7356 75.6428 45.7043 75.5763 45.7084C75.5763 45.7084 75.5414 45.6838 75.4716 45.6346C75.4151 45.5846 75.3254 45.5366 75.2024 45.4907C75.0712 45.3117 74.9992 45.1157 74.9862 44.9028C74.9724 44.6765 75.0109 44.3202 75.1015 43.8338C75.1211 43.4986 75.2241 43.105 75.4103 42.6528C75.6089 42.1866 75.8538 41.7108 76.1449 41.2255C76.4359 40.7403 76.7431 40.3008 77.0664 39.9071C77.4031 39.5126 77.7125 39.2199 77.9948 39.029C78.1697 38.8314 78.3899 38.7178 78.6553 38.6883C78.9206 38.6587 79.1772 38.7032 79.4248 38.8217C79.562 38.8802 79.7015 38.9785 79.8435 39.1168C79.9855 39.2551 80.1217 39.4071 80.252 39.5728C80.3823 39.7386 80.4927 39.9055 80.583 40.0736C80.6319 40.2176 80.66 40.3495 80.6673 40.4693C80.687 40.5749 80.6951 40.708 80.6916 40.8685C80.7013 41.0282 80.6959 41.269 80.6754 41.5908C80.6235 41.8344 80.5814 42.1309 80.5493 42.4802C80.5304 42.8286 80.5287 43.1293 80.5441 43.3821C80.5329 43.6366 80.5704 43.8147 80.6567 43.9163C80.7564 44.0171 80.8899 44.0156 81.0572 43.9119C81.2121 43.8223 81.3631 43.7798 81.5103 43.7841C81.6567 43.7752 81.7722 43.8083 81.857 43.8833C81.955 43.9574 82.0089 44.0744 82.0186 44.2341C82.0283 44.3938 81.9586 44.565 81.8094 44.7477C81.6727 44.9164 81.4949 45.0675 81.276 45.201C81.0695 45.3204 80.8665 45.3862 80.6669 45.3984C80.5205 45.4073 80.3754 45.3293 80.2318 45.1644C80.0874 44.9862 79.9542 44.7739 79.8324 44.5275C79.723 44.267 79.6211 44.0194 79.5267 43.7847L79.3789 43.3329L78.5704 44.2036C78.4087 44.4005 78.2462 44.584 78.0829 44.7543C77.9321 44.9104 77.8388 45.0229 77.8029 45.0919C77.7437 45.2157 77.6245 45.3432 77.4455 45.4743C77.2798 45.6047 77.0475 45.739 76.7487 45.8774ZM76.7369 44.696C76.955 44.5491 77.2028 44.3403 77.4802 44.0696C77.7568 43.7856 78.0255 43.4821 78.2863 43.1589C78.5464 42.8225 78.7614 42.5155 78.9315 42.238C79.1392 41.9182 79.2947 41.6215 79.3983 41.348C79.5019 41.0745 79.573 40.8164 79.6116 40.5736C79.5495 40.4305 79.4537 40.2827 79.3242 40.1303C79.1939 39.9646 79.0817 39.8779 78.9877 39.8702C78.6949 39.8881 78.3935 40.0934 78.0835 40.4863C77.786 40.8651 77.4971 41.2768 77.217 41.7213C77.1678 41.7911 77.1011 41.902 77.0168 42.0541C76.9326 42.2061 76.8479 42.3516 76.7629 42.4903C76.6903 42.615 76.6419 42.698 76.6178 42.7396C76.5811 42.7953 76.5105 42.9532 76.4062 43.2133C76.3143 43.4594 76.2228 43.7121 76.1317 43.9714C76.0398 44.2175 75.9963 44.3804 76.0012 44.4602C76.0061 44.5401 76.018 44.6262 76.037 44.7186C76.0693 44.8101 76.1394 44.8659 76.2475 44.8861C76.3556 44.9062 76.5187 44.8428 76.7369 44.696ZM90.4274 45.5855C90.2378 45.5436 90.0811 45.493 89.9573 45.4338C89.8326 45.3612 89.6652 45.2445 89.4551 45.0837C89.2824 44.8804 89.1438 44.6885 89.0393 44.5079C88.9481 44.3264 88.8819 44.1167 88.8407 43.8788C88.7987 43.6275 88.7659 43.3089 88.7424 42.923C88.7327 42.7633 88.7447 42.5221 88.7785 42.1994C88.8256 41.876 88.8785 41.5388 88.9373 41.1879C89.0086 40.8229 89.069 40.4986 89.1185 40.2151C89.1814 39.9308 89.217 39.7483 89.2254 39.6676C89.2548 39.4922 89.1822 39.3964 89.0076 39.3803C88.8329 39.3642 88.6396 39.3693 88.4274 39.3956C88.2278 39.4078 88.0935 39.3959 88.0245 39.36C87.9705 39.35 87.9426 39.3316 87.941 39.305C87.9386 39.2651 87.9374 39.2451 87.9374 39.2451C87.9341 39.1919 87.9255 39.159 87.9113 39.1465C87.9097 39.1199 87.8869 39.0745 87.8429 39.0104C87.8131 38.9588 87.8219 38.8848 87.8695 38.7884C87.9296 38.6779 88.032 38.6048 88.1767 38.5693C88.2949 38.5354 88.4534 38.5057 88.6522 38.4802C88.8635 38.4407 89.0736 38.3811 89.2825 38.3016C89.4906 38.2088 89.6563 38.0785 89.7797 37.9107C89.8816 37.6106 90.0015 37.276 90.1393 36.9069C90.2772 36.5379 90.4108 36.2092 90.5401 35.9208C90.682 35.6182 90.7775 35.4321 90.8267 35.3623C91.0457 35.2288 91.2092 35.172 91.3173 35.1922C91.4246 35.199 91.5512 35.3048 91.6973 35.5097C91.7695 35.5988 91.8205 35.6691 91.8504 35.7208C91.8936 35.7716 91.9051 35.851 91.885 35.9591C91.8648 36.0672 91.8017 36.238 91.6957 36.4715C91.6031 36.7043 91.4566 37.0405 91.2562 37.4801C91.1978 37.6173 91.1452 37.7407 91.0985 37.8504C91.0509 37.9468 91.0271 37.995 91.0271 37.995C91.0812 38.0051 91.1614 38.0069 91.2679 38.0004C91.3744 37.9939 91.507 37.9791 91.6659 37.9561C91.8107 37.9206 91.9958 37.8893 92.2212 37.8622C92.4459 37.8218 92.6255 37.8108 92.7602 37.8294C93.0663 37.8107 93.2962 37.8568 93.4499 37.9677C93.6028 38.0652 93.694 38.2467 93.7235 38.5121C93.7591 38.6568 93.7311 38.7454 93.6395 38.7777C93.5613 38.8091 93.3425 38.8358 92.9832 38.8577C92.8634 38.865 92.6775 38.883 92.4254 38.9117C92.1734 38.9404 91.908 38.9699 91.6293 39.0003C91.364 39.0298 91.1323 39.0639 90.9343 39.1027C90.7488 39.1273 90.6568 39.153 90.6584 39.1796C90.6201 39.2086 90.5613 39.3391 90.4819 39.5711C90.4158 39.8022 90.3451 40.067 90.2698 40.3654C90.207 40.6498 90.1492 40.9071 90.0964 41.1374C90.0308 41.5955 89.9851 42.0525 89.9595 42.5082C89.9471 42.9632 89.9643 43.3562 90.0112 43.6873C90.0581 44.0184 90.1455 44.2468 90.2734 44.3726C90.4004 44.4851 90.6349 44.4975 90.9769 44.4099C91.3181 44.309 91.5899 44.1655 91.7923 43.9796C92.0197 43.7653 92.2066 43.6538 92.353 43.6449C92.5127 43.6351 92.6036 43.7031 92.6259 43.8486C92.6606 43.9801 92.5991 44.1775 92.4415 44.4409C92.2964 44.6902 92.1097 44.9153 91.8815 45.1162C91.6525 45.3038 91.4073 45.4457 91.146 45.5417C90.8972 45.6237 90.6577 45.6383 90.4274 45.5855ZM94.863 44.3736C94.8098 44.3769 94.7424 44.3676 94.6609 44.3459C94.592 44.31 94.5575 44.2921 94.5575 44.2921C94.5542 44.2388 94.5302 44.1735 94.4854 44.0961C94.4539 44.0178 94.4366 43.9521 94.4333 43.8989C94.3369 43.8513 94.2805 43.8013 94.2639 43.7489C94.2466 43.6832 94.26 43.5755 94.3044 43.4258C94.3761 43.2879 94.4696 43.0685 94.5849 42.7676C94.6993 42.4534 94.8192 42.1188 94.9445 41.7639C95.069 41.3956 95.1873 41.0344 95.2993 40.6803C95.4113 40.3262 95.5066 40.0265 95.5852 39.7813C95.663 39.5227 95.7069 39.3664 95.7169 39.3124C95.7137 39.2591 95.7296 39.1914 95.7647 39.1091C95.7997 39.0268 95.8423 38.9574 95.8923 38.901C95.9931 38.8013 96.1058 38.7878 96.2304 38.8603C96.3543 38.9196 96.4614 39.0333 96.5517 39.2014C96.6546 39.3555 96.7122 39.5323 96.7243 39.7319C96.73 39.8251 96.678 40.0687 96.5684 40.4628C96.458 40.8435 96.3055 41.3003 96.1109 41.8331C95.9296 42.3651 95.722 42.9054 95.4883 43.4539C95.3121 43.852 95.2007 44.106 95.1539 44.2157C95.1064 44.3121 95.0094 44.3647 94.863 44.3736ZM97.3368 36.629C97.1771 36.6387 97.0005 36.5893 96.8069 36.4809C96.6257 36.3583 96.463 36.208 96.3185 36.0297C96.1866 35.8374 96.1146 35.6414 96.1024 35.4418C96.0983 35.3753 96.1326 35.2797 96.2052 35.155C96.2777 35.0304 96.3503 34.9057 96.4228 34.7811C96.4954 34.6565 96.5309 34.5808 96.5292 34.5542C96.6357 34.5477 96.716 34.5495 96.77 34.5596C96.8366 34.5555 96.918 34.5773 97.0144 34.6249C97.1811 34.9487 97.3774 35.2105 97.6033 35.4105C97.8425 35.6097 97.9666 35.7825 97.9755 35.9289C97.9933 36.2216 97.978 36.4096 97.9297 36.4927C97.8805 36.5625 97.6829 36.6079 97.3368 36.629ZM99.1455 44.1129C98.9935 44.0286 98.8531 43.9169 98.7244 43.7778C98.5949 43.6254 98.5228 43.4294 98.5083 43.1899C98.5002 43.0568 98.513 42.8289 98.5468 42.5063C98.5806 42.1836 98.6319 41.8198 98.7007 41.4149C98.7696 41.01 98.84 40.6317 98.9121 40.28C99.0306 40.0323 99.1292 39.7859 99.2077 39.5406C99.2863 39.2954 99.324 39.1462 99.3207 39.0929C99.3376 38.9316 99.3596 38.7433 99.3865 38.5279C99.4268 38.3117 99.4683 38.1155 99.511 37.9392C99.5537 37.763 99.5875 37.6607 99.6125 37.6325C99.675 37.5619 99.7524 37.5171 99.8448 37.4981C99.9363 37.4658 100.03 37.4735 100.127 37.521C100.236 37.5545 100.321 37.6361 100.382 37.766C100.538 37.9168 100.623 38.1053 100.637 38.3315C100.65 38.5445 100.596 38.8683 100.476 39.3031C100.372 39.5766 100.271 39.8966 100.173 40.2633C100.076 40.6299 99.9893 40.9691 99.9148 41.2809C99.8528 41.5785 99.8184 41.781 99.8116 41.8883L99.4196 42.0324C99.6329 41.8056 99.8324 41.5731 100.018 41.3347C100.203 41.083 100.338 40.8877 100.423 40.749C100.631 40.4291 100.809 40.1645 100.956 39.9551C101.116 39.7316 101.32 39.4654 101.569 39.1564C101.816 38.8341 102.064 38.632 102.313 38.55C102.575 38.454 102.778 38.4015 102.925 38.3926C103.221 38.428 103.463 38.5668 103.651 38.8092C103.852 39.0374 103.994 39.3894 104.076 39.8653C104.088 40.0516 104.081 40.2724 104.057 40.5277C104.045 40.7822 104.04 40.9095 104.04 40.9095C104.04 40.9095 104.138 40.7632 104.334 40.4708C104.543 40.1775 104.824 39.8532 105.176 39.4978C105.418 39.2961 105.657 39.1746 105.895 39.1334C106.132 39.0789 106.35 39.1458 106.549 39.3341C106.906 39.4993 107.15 39.7717 107.28 40.1511C107.409 40.5173 107.465 40.9948 107.447 41.5836C107.428 41.9321 107.437 42.192 107.475 42.3634C107.511 42.5215 107.561 42.6787 107.624 42.8352C107.733 42.8819 107.76 42.9939 107.704 43.1709C107.647 43.3347 107.572 43.4194 107.479 43.4251C107.346 43.4332 107.191 43.4159 107.015 43.3732C106.852 43.3297 106.701 43.2521 106.56 43.1404C106.432 43.0146 106.361 42.8386 106.348 42.6123L106.272 41.3746C106.254 41.0818 106.227 40.8431 106.189 40.6584C106.164 40.4729 106.124 40.3618 106.068 40.3251C105.917 40.2542 105.709 40.3536 105.445 40.6235C105.181 40.8934 104.902 41.251 104.609 41.6963C104.315 42.1417 104.043 42.5991 103.791 43.0686C103.563 43.4966 103.418 43.7458 103.355 43.8164C103.305 43.8729 103.204 43.859 103.052 43.7748C102.754 43.6995 102.56 43.5844 102.47 43.4295C102.393 43.2606 102.375 43.068 102.415 42.8518C102.468 42.6215 102.529 42.3106 102.599 41.9189C102.682 41.5265 102.759 41.1478 102.83 40.7828C102.9 40.4044 102.944 40.1346 102.961 39.9733C102.901 39.8701 102.806 39.8425 102.675 39.8905C102.557 39.9244 102.434 39.992 102.307 40.0933C102.154 40.2095 101.973 40.4208 101.765 40.7274C101.556 41.034 101.344 41.3875 101.128 41.7881C100.984 42.0507 100.833 42.3137 100.675 42.5771C100.517 42.8272 100.37 43.0498 100.235 43.2451C100.1 43.4403 99.9818 43.5877 99.881 43.6874C99.7125 43.9915 99.5958 44.1589 99.5309 44.1896C99.466 44.2203 99.3375 44.1947 99.1455 44.1129ZM112.908 43.5553C112.644 43.8119 112.326 43.9715 111.956 44.0341C111.599 44.0959 111.243 44.0641 110.888 43.9388C110.532 43.8002 110.232 43.578 109.986 43.2724C109.742 42.9934 109.575 42.6696 109.486 42.301C109.396 41.9191 109.359 41.4204 109.375 40.805C109.383 40.2835 109.518 39.7544 109.779 39.2175C110.039 38.6673 110.363 38.1734 110.751 37.7357C111.152 37.2972 111.553 36.9855 111.956 36.8007C112.148 36.6555 112.31 36.5854 112.444 36.5906C112.591 36.5817 112.811 36.5817 113.106 36.5904C113.414 36.6117 113.644 36.6578 113.795 36.7288C113.96 36.7989 114.093 36.8977 114.194 37.0251C114.406 37.2126 114.551 37.4041 114.63 37.5997C114.708 37.7819 114.752 37.9662 114.764 38.1526C114.728 38.4486 114.55 38.8201 114.23 39.267C113.923 39.6999 113.504 40.066 112.975 40.3654C112.688 40.4764 112.371 40.5357 112.024 40.5435C111.677 40.5513 111.386 40.4822 111.15 40.3363C110.89 40.2452 110.725 40.2753 110.654 40.4265C110.582 40.5645 110.529 40.9017 110.495 41.4381C110.473 41.947 110.536 42.3172 110.683 42.5487C110.83 42.7668 111.018 42.889 111.247 42.9151C111.516 42.9522 111.725 42.9795 111.873 42.9972C112.033 43.0008 112.223 42.9292 112.441 42.7823C112.645 42.6363 112.774 42.555 112.827 42.5384C112.878 42.5085 112.916 42.4795 112.941 42.4513C112.979 42.4089 113.06 42.3171 113.185 42.1759C113.273 42.0771 113.342 42.0061 113.393 41.9629C113.443 41.9065 113.501 41.8762 113.567 41.8721C113.634 41.8681 113.696 41.8977 113.753 41.961C113.81 42.011 113.865 42.0477 113.92 42.0711C114.053 42.063 114.085 42.1412 114.015 42.3058C113.958 42.4695 113.83 42.671 113.631 42.9102C113.431 43.1361 113.19 43.3512 112.908 43.5553ZM112.631 39.3244C112.773 39.2489 112.921 39.1464 113.073 39.0169C113.225 38.8741 113.349 38.7263 113.447 38.5734C113.557 38.4064 113.609 38.2696 113.602 38.1632C113.591 37.9769 113.495 37.8291 113.315 37.7198C113.133 37.5973 112.873 37.5931 112.532 37.7074C112.388 37.7562 112.228 37.8661 112.052 38.0372C111.874 38.1949 111.705 38.3722 111.543 38.5691C111.395 38.7651 111.272 38.9396 111.174 39.0925C111.09 39.2445 111.062 39.3331 111.09 39.3581C111.134 39.4222 111.25 39.4685 111.439 39.4971C111.627 39.5124 111.834 39.5065 112.059 39.4794C112.298 39.4515 112.488 39.3998 112.631 39.3244ZM116.924 42.9701C116.677 43.0787 116.467 43.1382 116.294 43.1488C116.133 43.1452 115.949 43.0763 115.74 42.942C115.473 42.7179 115.372 42.4836 115.437 42.2392C115.515 41.9806 115.719 41.7211 116.051 41.4604C116.282 41.2994 116.45 41.2091 116.555 41.1893C116.674 41.1687 116.857 41.2043 117.103 41.2962C117.518 41.5247 117.708 41.7937 117.673 42.103C117.652 42.4116 117.402 42.7006 116.924 42.9701Z" fill="black"/>
<path d="M33.9079 48.8869C33.5768 48.9338 33.2562 48.9333 32.946 48.8854C32.6492 48.8367 32.3894 48.7389 32.1668 48.5922C31.9566 48.4313 31.8043 48.2336 31.7099 47.9989C31.6054 47.8182 31.5511 47.6946 31.547 47.6281C31.5422 47.5482 31.5847 47.4789 31.6746 47.4199C31.7811 47.4135 31.8763 47.4411 31.9602 47.5027C32.0566 47.5503 32.18 47.6029 32.3304 47.6605C32.5406 47.8214 32.7858 47.9 33.0661 47.8963C33.3597 47.8917 33.6231 47.8289 33.8561 47.7079C34.0892 47.5868 34.2142 47.4456 34.2311 47.2843C34.2279 47.2311 34.2022 47.1391 34.1542 47.0085C34.1062 46.8778 34.0511 46.7409 33.9889 46.5978C33.5988 46.1139 33.3022 45.631 33.0992 45.1492C32.9087 44.6532 32.8037 44.2454 32.7843 43.926C32.7697 43.6865 32.8275 43.4292 32.9577 43.1541C33.0871 42.8657 33.2725 42.6206 33.514 42.4189C33.7382 42.1514 33.9906 41.909 34.2712 41.6915C34.5519 41.4741 34.8341 41.2832 35.118 41.119C35.4152 40.954 35.6815 40.8309 35.917 40.7498C36.0634 40.7408 36.2576 40.7491 36.4996 40.7744C36.7416 40.7997 36.9108 40.8362 37.0072 40.8837C37.1568 40.9281 37.3055 41.0659 37.4532 41.2974C37.6 41.5155 37.6803 41.7377 37.6941 41.964C37.6998 42.0571 37.6805 42.1785 37.6361 42.3282C37.5918 42.4778 37.5159 42.6561 37.4082 42.863C37.3639 43.0127 37.3125 43.1561 37.2541 43.2932C37.1948 43.417 37.1668 43.5056 37.1701 43.5588C37.1125 43.7092 37.0238 43.7881 36.904 43.7954C36.7967 43.7886 36.6799 43.7356 36.5537 43.6364C36.4399 43.5231 36.3449 43.3886 36.2686 43.233C36.2032 43.0366 36.1735 42.8781 36.1796 42.7575C36.1848 42.6236 36.2295 42.4806 36.3137 42.3286C36.4512 42.1733 36.5183 42.069 36.5151 42.0157C36.5118 41.9625 36.437 41.9404 36.2906 41.9493C36.1975 41.9549 36.0281 42.0254 35.7825 42.1605C35.5495 42.2816 35.2989 42.4438 35.0307 42.6471C34.7751 42.8364 34.5535 43.0369 34.3661 43.2486C34.1278 43.5036 33.9853 43.6859 33.9385 43.7956C33.9051 43.9045 33.8952 44.0721 33.909 44.2984C33.9204 44.4847 33.9745 44.7152 34.0713 44.9898C34.1815 45.2636 34.286 45.4442 34.3849 45.5317C34.3849 45.5317 34.4371 45.6221 34.5416 45.8027C34.6453 45.97 34.7698 46.1495 34.915 46.341C35.3528 47.1693 35.4899 47.7754 35.3263 48.1594C35.1627 48.5434 34.6899 48.7859 33.9079 48.8869ZM39.1459 47.7665C39.0927 47.7697 39.0253 47.7605 38.9438 47.7387C38.8749 47.7028 38.8404 47.6849 38.8404 47.6849C38.8371 47.6317 38.8131 47.5663 38.7683 47.4889C38.7368 47.4107 38.7195 47.3449 38.7162 47.2917C38.6198 47.2442 38.5634 47.1942 38.5468 47.1417C38.5295 47.076 38.5429 46.9683 38.5873 46.8187C38.659 46.6807 38.7525 46.4613 38.8678 46.1604C38.9822 45.8462 39.1021 45.5116 39.2274 45.1567C39.3519 44.7884 39.4702 44.4273 39.5822 44.0731C39.6942 43.719 39.7895 43.4193 39.8681 43.1741C39.9459 42.9156 39.9898 42.7593 39.9998 42.7052C39.9966 42.652 40.0125 42.5842 40.0476 42.5019C40.0826 42.4197 40.1252 42.3503 40.1752 42.2938C40.276 42.1942 40.3887 42.1806 40.5133 42.2532C40.6371 42.3124 40.7443 42.4261 40.8346 42.5943C40.9375 42.7483 40.995 42.9251 41.0072 43.1248C41.0129 43.2179 40.9609 43.4615 40.8513 43.8556C40.7409 44.2363 40.5884 44.6931 40.3938 45.2259C40.2125 45.7579 40.0049 46.2982 39.7711 46.8468C39.595 47.2449 39.4836 47.4988 39.4368 47.6085C39.3893 47.7049 39.2923 47.7576 39.1459 47.7665ZM41.6197 40.0218C41.46 40.0315 41.2834 39.9822 41.0898 39.8737C40.9086 39.7512 40.7459 39.6008 40.6014 39.4226C40.4695 39.2302 40.3975 39.0343 40.3853 38.8346C40.3812 38.7681 40.4155 38.6725 40.4881 38.5479C40.5606 38.4232 40.6332 38.2986 40.7057 38.1739C40.7783 38.0493 40.8138 37.9737 40.8121 37.947C40.9186 37.9406 40.9989 37.9424 41.0529 37.9524C41.1195 37.9484 41.2009 37.9701 41.2973 38.0177C41.464 38.3415 41.6603 38.6034 41.8862 38.8033C42.1254 39.0025 42.2494 39.1753 42.2584 39.3217C42.2762 39.6145 42.2609 39.8024 42.2125 39.8855C42.1634 39.9553 41.9658 40.0007 41.6197 40.0218ZM41.9424 53.0463C41.8469 53.012 41.743 52.9515 41.6308 52.8649C41.5187 52.7782 41.4257 52.677 41.3519 52.5613C41.2788 52.4588 41.2399 52.3677 41.235 52.2879C41.2302 52.208 41.2505 51.993 41.296 51.643C41.3422 51.3062 41.4036 50.8884 41.4801 50.3894C41.5707 49.903 41.6672 49.4029 41.7694 48.8891C41.8859 48.3878 42.0055 47.9397 42.1284 47.5448C42.151 47.4766 42.2241 47.2518 42.3478 46.8702C42.484 46.4745 42.6087 45.9994 42.7219 45.4448C42.8073 45.0923 42.9231 44.6912 43.0694 44.2415C43.2156 43.7918 43.3686 43.3416 43.5281 42.8911C43.6869 42.4273 43.8156 42.0187 43.9143 41.6654C44.0131 41.312 44.0958 41.0265 44.1627 40.8087C44.2421 40.5768 44.2868 40.4338 44.2969 40.3797C44.3187 40.2983 44.3545 40.2293 44.4045 40.1728C44.467 40.1022 44.5303 40.0449 44.5944 40.0009C44.6577 39.9437 44.7089 39.9071 44.7481 39.8914C44.9836 39.8103 45.1959 39.8975 45.3852 40.1532C45.459 40.2689 45.4808 40.4078 45.4506 40.57C45.4204 40.7321 45.3594 40.9362 45.2675 41.1822L45.1521 41.59L45.861 41.3865C45.9808 41.3792 46.1276 41.377 46.3014 41.3797C46.4877 41.3684 46.6674 41.3575 46.8404 41.3469C47.0134 41.3364 47.1407 41.342 47.2221 41.3638C47.5423 41.3576 47.7656 41.4041 47.8918 41.5033C48.0314 41.6017 48.1531 41.7345 48.2567 41.9019C48.3273 41.9644 48.4129 42.0527 48.5133 42.1668C48.613 42.2676 48.6727 42.3708 48.6925 42.4764C48.7595 42.6994 48.7745 42.9457 48.7375 43.2151C48.7129 43.4704 48.6485 43.7281 48.5441 43.9883C48.453 44.2476 48.3208 44.4894 48.1475 44.7137C47.9866 44.9239 47.8104 45.1016 47.6189 45.2468C47.489 45.3082 47.3729 45.3753 47.2705 45.4484C47.1673 45.5081 47.1156 45.5379 47.1156 45.5379C47.1064 45.6053 46.9665 45.7207 46.6959 45.8841C46.4245 46.0342 46.1128 46.1801 45.7608 46.3217C45.4087 46.4634 45.1008 46.5623 44.8371 46.6184C44.7448 46.6374 44.6125 46.6588 44.4403 46.6827C44.2681 46.7065 44.1338 46.6947 44.0374 46.6471C43.8894 46.6294 43.7887 46.6222 43.7355 46.6254C43.6823 46.6286 43.6573 46.6569 43.6605 46.7101C43.6488 46.7375 43.5727 47.0227 43.4321 47.5656C43.2915 48.1085 43.1495 48.7383 43.0061 49.455C42.8003 50.2423 42.6313 50.867 42.4991 51.3293C42.3678 51.8048 42.2624 52.1585 42.183 52.3904C42.117 52.6215 42.0664 52.7782 42.0313 52.8605C41.9971 52.9561 41.9674 53.018 41.9424 53.0463ZM43.9893 45.528C44.034 45.6054 44.1621 45.6243 44.3734 45.5847C44.5972 45.531 44.8585 45.4349 45.1573 45.2965C45.4687 45.144 45.7725 44.9785 46.0689 44.8002C46.3644 44.6086 46.6068 44.4201 46.7959 44.235C47.0684 43.8844 47.2893 43.5637 47.4586 43.2729C47.6271 42.9688 47.642 42.7742 47.5032 42.6891C47.3438 42.4851 47.0649 42.4019 46.6665 42.4395C46.268 42.4771 45.7857 42.6735 45.2196 43.0285C44.9982 43.1222 44.8317 43.2392 44.72 43.3796C44.6208 43.5058 44.537 43.6645 44.4685 43.8557C44.4 44.0469 44.314 44.2792 44.2104 44.5527C44.1084 44.8528 44.042 45.0772 44.0109 45.2261C43.9799 45.3749 43.9727 45.4755 43.9893 45.528Z" fill="#FF3B30"/>
<path d="M262.354 28.7674C262.549 28.5721 262.549 28.2555 262.354 28.0603L259.172 24.8783C258.976 24.683 258.66 24.683 258.464 24.8783C258.269 25.0735 258.269 25.3901 258.464 25.5854L261.293 28.4138L258.464 31.2422C258.269 31.4375 258.269 31.7541 258.464 31.9494C258.66 32.1446 258.976 32.1446 259.172 31.9494L262.354 28.7674ZM148 28.4138V28.9138H262V28.4138V27.9138H148V28.4138Z" fill="#2E2E2E"/>
</svg>
