<svg width="117" height="88" viewBox="0 0 117 88" fill="none" xmlns="http://www.w3.org/2000/svg">
<path d="M24.9108 20.0094C24.5251 20.0813 24.1715 20.0661 23.8501 19.9638C23.5285 19.8482 23.2659 19.6584 23.0623 19.3944C22.8718 19.117 22.7737 18.765 22.7679 18.3383C22.7225 17.9389 22.7629 17.4783 22.8892 16.9566C23.0153 16.4215 23.2014 15.8856 23.4475 15.3489C23.7069 14.812 23.9873 14.3481 24.2887 13.9573C24.551 13.6337 24.8136 13.3368 25.0767 13.0666C25.3397 12.7963 25.5772 12.6131 25.7893 12.5168C25.9749 12.4343 26.1475 12.3853 26.3073 12.3698C26.4803 12.3408 26.6201 12.3256 26.7268 12.3241C26.9408 12.3746 27.1688 12.4715 27.4108 12.6149C27.6659 12.7448 27.7945 12.8897 27.7967 13.0497C27.7967 13.0497 27.8103 13.0695 27.8375 13.1091C27.8779 13.1353 27.898 13.1483 27.898 13.1483C27.978 13.1472 28.0459 13.233 28.1015 13.4056C28.1706 13.578 28.2133 13.7774 28.2297 14.0039C28.2459 14.217 28.215 14.3975 28.137 14.5452C28.0871 14.7992 27.9968 15.0205 27.866 15.2089C27.7352 15.3974 27.6165 15.4923 27.5098 15.4938C27.4565 15.4945 27.4032 15.5019 27.3501 15.516C27.3101 15.5165 27.2905 15.5501 27.2915 15.6168C27.2924 15.6834 27.2527 15.7106 27.1725 15.6984C27.1057 15.686 27.0318 15.647 26.9509 15.5814C26.8699 15.5025 26.8086 15.41 26.7672 15.3038C26.7663 15.2372 26.7914 15.1235 26.8425 14.9628C26.8937 14.8021 26.9442 14.5947 26.9941 14.3407C27.0691 13.9663 27.0591 13.7264 26.9644 13.621C26.8694 13.5023 26.6893 13.4981 26.4241 13.6083C26.0934 13.7995 25.7769 14.0638 25.4748 14.4013C25.186 14.7386 24.9186 15.1756 24.6725 15.7123C24.4262 16.2357 24.2085 16.892 24.0191 17.6813C23.9433 17.989 23.9136 18.2561 23.93 18.4826C23.9597 18.7089 23.9947 18.8284 24.0349 18.8412C24.2222 18.892 24.4757 18.9019 24.7953 18.8709C25.1148 18.8266 25.3473 18.7634 25.4928 18.6814C25.7047 18.5719 25.9428 18.4286 26.2071 18.2517C26.4712 18.0614 26.7022 17.8916 26.9002 17.7423C26.9663 17.7014 27.0454 17.6336 27.1375 17.539C27.2296 17.4444 27.3286 17.3698 27.4345 17.315C27.539 17.1536 27.631 17.059 27.7107 17.0312C27.7903 17.0035 27.9101 16.9885 28.0701 16.9863C28.1771 17.0116 28.2776 17.0502 28.3717 17.1023C28.4657 17.1543 28.5265 17.2068 28.5538 17.2598C28.5946 17.3126 28.5752 17.3595 28.4957 17.4006C28.4424 17.4013 28.4094 17.4218 28.3966 17.462C28.3969 17.4886 28.3971 17.5019 28.3971 17.5019C28.4245 17.5549 28.366 17.6691 28.2217 17.8444C28.0906 18.0062 27.9197 18.1885 27.7091 18.3914C27.4985 18.5942 27.2942 18.7704 27.0962 18.9197C26.9114 19.0556 26.779 19.124 26.699 19.1251C26.5656 19.1269 26.4995 19.1678 26.5006 19.2478C26.501 19.2745 26.4019 19.3425 26.2033 19.4519C26.0181 19.5611 25.7996 19.6707 25.5477 19.7808C25.3092 19.8907 25.0969 19.9669 24.9108 20.0094ZM34.6217 20.0578C34.4866 19.9263 34.3508 19.7481 34.2144 19.5233C34.0778 19.2851 33.9675 19.0132 33.8833 18.7077C33.8552 18.6014 33.8399 18.4549 33.8374 18.2683C33.8482 18.0814 33.8464 17.9481 33.832 17.8683C33.7932 17.9622 33.7279 18.0631 33.636 18.171C33.5573 18.2654 33.4784 18.3465 33.3993 18.4142C33.3467 18.4683 33.2282 18.5766 33.0437 18.7391C32.859 18.8883 32.674 19.0108 32.4886 19.1066C32.0525 19.3926 31.6879 19.5509 31.395 19.5815C31.1153 19.612 30.8467 19.4689 30.5891 19.1524C30.3734 18.982 30.2175 18.7907 30.1212 18.5787C30.0384 18.3664 30.0344 18.0731 30.1093 17.6988C30.1296 17.2318 30.1902 16.7776 30.2909 16.3362C30.3914 15.8814 30.6032 15.2785 30.9264 14.5274C31.199 13.977 31.4068 13.5741 31.5501 13.3188C31.6931 13.0502 31.7843 12.8889 31.8235 12.8351C32.0226 12.7657 32.1893 12.7701 32.3238 12.8483C32.458 12.9131 32.5397 13.0387 32.5689 13.225C32.6507 13.3572 32.6404 13.5841 32.5381 13.9055C32.4491 14.2267 32.2878 14.6223 32.0542 15.0921C31.8736 15.548 31.7065 16.0036 31.5526 16.4591C31.4121 16.9144 31.3307 17.3022 31.3084 17.6225C31.2861 17.9428 31.3687 18.1351 31.5562 18.1992C31.6771 18.2642 31.8835 18.2414 32.1754 18.1308C32.4806 18.02 32.8169 17.7487 33.1844 17.317C33.5653 16.8852 33.9298 16.2335 34.278 15.362C34.3811 15.0939 34.4579 14.8595 34.5085 14.6588C34.5589 14.4448 34.5891 14.211 34.599 13.9575C34.5702 13.7979 34.5749 13.6578 34.6133 13.5373C34.6648 13.4033 34.7699 13.2885 34.9287 13.193C34.9811 13.1256 35.0536 13.0646 35.1462 13.01C35.2386 12.9421 35.2986 12.9413 35.3262 13.0076L35.6459 12.9833C35.699 12.9692 35.7328 13.0021 35.7472 13.0819C35.7748 13.1482 35.8223 13.2076 35.8897 13.26C36.0379 13.378 36.0815 13.6374 36.0202 14.0383C35.959 14.4391 35.7799 15.0016 35.4831 15.7257C35.2372 16.2758 35.0694 16.6914 34.9799 16.9727C34.9037 17.2537 34.8608 17.5277 34.851 17.7945C34.8543 18.0345 34.904 18.2605 35.0003 18.4725C35.0965 18.6846 35.2457 18.8759 35.4481 19.0465C35.596 19.1378 35.6774 19.2434 35.6924 19.3632C35.7207 19.4828 35.7292 19.6227 35.7181 19.7829C35.693 19.9033 35.6144 20.0043 35.4822 20.0861C35.3631 20.1544 35.2236 20.1896 35.0636 20.1918C34.9036 20.194 34.7563 20.1493 34.6217 20.0578ZM38.4558 19.4258C38.416 19.4396 38.3493 19.4339 38.2556 19.4085C38.1619 19.3831 38.0681 19.351 37.9743 19.3123C37.8804 19.2735 37.8199 19.241 37.7929 19.2147C37.7389 19.1621 37.6844 19.0828 37.6297 18.9769C37.5882 18.8708 37.5862 18.7175 37.6234 18.517C37.6605 18.3031 37.7902 18.028 38.0123 17.6916C38.0771 17.5574 38.1544 17.3563 38.2441 17.0884C38.3338 16.8205 38.4234 16.5393 38.5127 16.2447C38.6152 15.9366 38.7048 15.662 38.7816 15.421C38.8716 15.1797 38.936 15.0122 38.9748 14.9183C38.9984 14.6913 38.9829 14.5315 38.9283 14.4389C38.8868 14.3328 38.7727 14.2743 38.5859 14.2635C38.4525 14.2653 38.3457 14.2534 38.2653 14.2279C38.1983 14.2021 38.1632 14.0692 38.1599 13.8293C38.1841 13.6422 38.229 13.515 38.2948 13.4474C38.3737 13.3663 38.4792 13.2782 38.6112 13.1831C38.7436 13.1146 38.8763 13.0661 39.0093 13.0377C39.1556 13.009 39.2955 13.0004 39.429 13.012C39.5625 13.0235 39.6698 13.0687 39.7508 13.1476C39.8449 13.1997 39.9065 13.3189 39.9357 13.5051C39.9647 13.6781 39.9805 13.8579 39.983 14.0446C39.9989 14.231 40.0141 14.3708 40.0287 14.464C40.1606 14.3555 40.3386 14.2064 40.5627 14.0167C40.8 13.8135 41.0041 13.624 41.175 13.4483C41.3864 13.2988 41.6377 13.1487 41.929 12.9981C42.2201 12.8341 42.4324 12.7512 42.5657 12.7494C42.7124 12.7474 42.8595 12.7854 43.0073 12.8634C43.1548 12.9281 43.256 13.0134 43.3108 13.1194C43.4472 13.3442 43.5099 13.5434 43.4989 13.7169C43.5013 13.8902 43.4304 14.0712 43.2862 14.2598C43.1553 14.4349 42.9902 14.5572 42.7912 14.6265C42.6054 14.6957 42.4859 14.7307 42.4326 14.7314C42.3526 14.7325 42.2518 14.6739 42.1301 14.5555C42.0085 14.4371 41.9405 14.338 41.9261 14.2582C41.9256 14.2182 41.8394 14.2594 41.6677 14.3817C41.5092 14.4906 41.3311 14.633 41.1335 14.809C40.9357 14.9717 40.771 15.1206 40.6395 15.2558C40.4167 15.5388 40.1818 15.922 39.935 16.4054C39.6882 16.8888 39.3961 17.4728 39.0587 18.1575C38.9032 18.4929 38.7938 18.7811 38.7304 19.022C38.6668 19.2495 38.5753 19.3841 38.4558 19.4258ZM46.1427 19.3615C46.0364 19.3896 45.8966 19.4049 45.7233 19.4072C45.5498 19.3962 45.3962 19.3783 45.2625 19.3535C45.142 19.3151 45.0814 19.2759 45.0809 19.2359C45.08 19.1693 45.0462 19.1364 44.9796 19.1373C44.9796 19.1373 44.9459 19.1111 44.8785 19.0586C44.8244 19.006 44.737 18.9539 44.6163 18.9022C44.4938 18.7172 44.4311 18.518 44.4282 18.3047C44.4251 18.078 44.4803 17.7239 44.5938 17.2423C44.6293 16.9085 44.7507 16.5201 44.9581 16.0773C45.1786 15.6209 45.4456 15.1573 45.7593 14.6863C46.0729 14.2153 46.4005 13.7909 46.7421 13.4129C47.097 13.0347 47.4199 12.7569 47.7109 12.5797C47.895 12.3905 48.1203 12.2874 48.3868 12.2705C48.6532 12.2535 48.9074 12.3101 49.1491 12.4401C49.2834 12.505 49.4181 12.6098 49.5534 12.7547C49.6888 12.8995 49.8176 13.0578 49.9399 13.2295C50.0623 13.4012 50.1646 13.5731 50.2469 13.7454C50.2889 13.8915 50.3107 14.0245 50.3124 14.1445C50.3271 14.251 50.3289 14.3843 50.3178 14.5445C50.3199 14.7045 50.3032 14.9447 50.2675 15.2652C50.2041 15.5061 50.1481 15.8002 50.0995 16.1476C50.0642 16.4948 50.0483 16.795 50.0517 17.0483C50.0285 17.302 50.0576 17.4816 50.139 17.5872C50.2338 17.6926 50.3672 17.6974 50.5392 17.6018C50.6981 17.5196 50.851 17.4842 50.9978 17.4955C51.1445 17.4936 51.2584 17.532 51.3394 17.6109C51.4339 17.6896 51.4821 17.809 51.4843 17.969C51.4865 18.129 51.4087 18.2967 51.2511 18.4722C51.1066 18.6342 50.9219 18.7767 50.6969 18.8998C50.485 19.0093 50.2791 19.0654 50.0791 19.0681C49.9324 19.0701 49.7913 18.9854 49.6556 18.8139C49.5197 18.629 49.3968 18.4107 49.2867 18.1588C49.1897 17.8934 49.0997 17.6413 49.0164 17.4024L48.8902 16.9441L48.0414 17.7756C47.8706 17.9646 47.6996 18.1403 47.5285 18.3027C47.3705 18.4515 47.2719 18.5595 47.2328 18.6267C47.1678 18.7476 47.0428 18.8693 46.8578 18.9918C46.6861 19.1141 46.4477 19.2374 46.1427 19.3615ZM46.1867 18.1808C46.4115 18.0444 46.6689 17.8476 46.9588 17.5903C47.2485 17.3197 47.5312 17.0292 47.807 16.7187C48.0827 16.395 48.312 16.0985 48.495 15.8293C48.7175 15.5196 48.8869 15.2306 49.0033 14.9623C49.1197 14.6941 49.2029 14.4396 49.253 14.1989C49.1977 14.053 49.1089 13.9008 48.9868 13.7425C48.8644 13.5708 48.7565 13.4789 48.663 13.4668C48.3697 13.4708 48.0589 13.6617 47.7307 14.0395C47.4156 14.4038 47.1076 14.8014 46.8068 15.2322C46.7544 15.2995 46.6825 15.4072 46.5911 15.5551C46.4998 15.703 46.4084 15.8443 46.3169 15.9789C46.2385 16.0999 46.1862 16.1807 46.1601 16.221C46.1209 16.2749 46.0429 16.4293 45.9264 16.6842C45.823 16.9256 45.7197 17.1737 45.6164 17.4285C45.513 17.6699 45.4619 17.8306 45.463 17.9106C45.4641 17.9906 45.4719 18.0772 45.4865 18.1703C45.5144 18.2633 45.5819 18.3224 45.6889 18.3476C45.7959 18.3728 45.9619 18.3172 46.1867 18.1808ZM54.2907 20.8312C53.8499 20.7705 53.5476 20.6079 53.384 20.3435C53.2339 20.0921 53.1953 19.6993 53.268 19.1649C53.3446 18.9105 53.3882 18.6832 53.3988 18.4831C53.4226 18.2694 53.4808 18.1353 53.5734 18.0807C53.5734 18.0807 53.5798 18.0606 53.5925 18.0204C53.6187 17.9801 53.6115 17.9401 53.5709 17.9007C53.5686 17.7274 53.6253 17.4866 53.7411 17.1783C53.7667 17.098 53.7988 17.0042 53.8373 16.897C53.889 16.7763 53.9149 16.7159 53.9149 16.7159C53.8468 16.6102 53.8456 16.5235 53.9114 16.4559C53.9771 16.3884 54.043 16.3275 54.1089 16.2733C54.188 16.2055 54.1937 16.1321 54.1259 16.053C54.0985 16 54.1302 15.8796 54.221 15.6917C54.3116 15.4904 54.4155 15.2823 54.5326 15.0674C54.6497 14.8525 54.7274 14.6847 54.7658 14.5642C54.7654 14.5375 54.7975 14.4437 54.862 14.2829C54.9265 14.122 55.0039 13.9342 55.0944 13.7197C55.1848 13.5051 55.2688 13.3106 55.3465 13.1362C55.4375 12.9616 55.4959 12.8475 55.5219 12.7938C55.6543 12.7253 55.6003 12.6794 55.36 12.656C55.1196 12.6325 54.8662 12.6293 54.5998 12.6463C54.1863 12.6385 53.8527 12.6231 53.5991 12.5998C53.3587 12.5764 53.1579 12.5191 52.9967 12.428C52.8342 12.2435 52.7724 12.111 52.8113 12.0305C52.8633 11.9364 53.0226 11.8809 53.2891 11.864C53.4622 11.8483 53.5954 11.8398 53.6887 11.8385C53.7954 11.8371 53.9286 11.8286 54.0884 11.8131C54.2614 11.7841 54.5276 11.7472 54.887 11.7023L55.9058 11.6085L55.9612 11.2677C56.0655 11.0929 56.1501 10.9384 56.215 10.8042C56.293 10.6565 56.3576 10.5089 56.409 10.3615C56.4603 10.2141 56.4982 10.0603 56.5227 9.89994C56.5227 9.89994 56.5813 9.79247 56.6984 9.57753C56.8153 9.34926 56.8854 9.11495 56.9089 8.87461C57.0652 8.6058 57.202 8.36392 57.3191 8.14898C57.436 7.92071 57.5074 7.77973 57.5333 7.72604C57.6784 7.60406 57.7775 7.54271 57.8309 7.54199C57.8975 7.54108 58.0318 7.60594 58.2336 7.73655C58.3544 7.80158 58.4622 7.88013 58.5568 7.97219C58.6514 8.06425 58.7127 8.16342 58.7408 8.26972C58.7688 8.36268 58.73 8.45655 58.6246 8.55132C58.5987 8.60501 58.5601 8.70554 58.5087 8.85292C58.4572 8.98696 58.4187 9.10083 58.3933 9.19452C58.3146 9.28892 58.2167 9.4436 58.0996 9.65854C57.9957 9.85997 57.9251 10.0676 57.888 10.2815C57.7844 10.5096 57.6872 10.7176 57.5965 10.9055C57.5055 11.0801 57.4333 11.1677 57.38 11.1684C57.4085 11.3014 57.4894 11.367 57.6227 11.3652C57.7558 11.35 57.9756 11.3337 58.2821 11.3162C58.535 11.2861 58.708 11.2571 58.801 11.2292C58.9071 11.1877 59.0272 11.1994 59.1615 11.2643C59.2294 11.3567 59.2842 11.4626 59.3258 11.5821C59.3674 11.7015 59.3756 11.8148 59.3504 11.9218C59.3383 12.0153 59.2859 12.0827 59.1931 12.1239C59.1265 12.1248 58.987 12.1667 58.7748 12.2496C58.5757 12.319 58.3229 12.3624 58.0165 12.3799L56.9579 12.4943L56.6272 13.1788C56.5362 13.3534 56.4584 13.5145 56.3937 13.662C56.3289 13.7963 56.2833 13.8769 56.257 13.9039C56.2581 13.9839 56.213 14.1045 56.1219 14.2658C56.0441 14.4268 55.9597 14.6013 55.869 14.7893C55.792 15.017 55.7015 15.2249 55.5974 15.413C55.5066 15.6009 55.4612 15.6949 55.4612 15.6949C55.4079 15.6956 55.3817 15.7359 55.3828 15.8159C55.4517 15.975 55.4333 16.0953 55.3277 16.1767C55.2616 16.2176 55.2024 16.2784 55.1502 16.3591C55.1111 16.4263 55.0915 16.4599 55.0915 16.4599C55.1456 16.5126 55.1532 16.5791 55.1142 16.6597C55.0887 16.74 55.0498 16.8272 54.9978 16.9213C54.9992 17.0279 54.968 17.1817 54.904 17.3826C54.8534 17.5833 54.7959 17.7707 54.7316 17.945C54.7482 18.1848 54.7636 18.3379 54.7779 18.4044C54.7921 18.4709 54.8258 18.4971 54.8789 18.483C54.9458 18.4954 55.0058 18.4946 55.0589 18.4806C55.1121 18.4665 55.1653 18.4591 55.2186 18.4584C55.4042 18.3759 55.3105 18.8439 54.9376 19.8623C54.7288 20.1985 54.5854 20.4405 54.5074 20.5882C54.4296 20.7493 54.3574 20.8303 54.2907 20.8312ZM60.4912 19.267C59.9683 19.0607 59.6244 18.772 59.4593 18.4009C59.3074 18.0163 59.2727 17.4233 59.3552 16.6222C59.3763 16.2085 59.3859 15.935 59.3841 15.8017C59.3823 15.6684 59.3072 15.536 59.1587 15.4047C59.118 15.3519 59.0437 15.2796 58.9357 15.1877C58.8411 15.0957 58.8001 15.0162 58.8125 14.9494C58.7979 14.8562 58.8032 14.7561 58.8284 14.6491C58.8535 14.5288 58.8926 14.4682 58.946 14.4675C58.9993 14.4668 59.0524 14.4527 59.1054 14.4253C59.1717 14.3978 59.2317 14.397 59.2854 14.4229C59.3387 14.4222 59.3988 14.428 59.4656 14.4405C59.5325 14.4529 59.5663 14.4858 59.567 14.5391C59.6216 14.6317 59.7084 14.6439 59.8275 14.5756C59.9464 14.4939 60.0707 14.3189 60.2004 14.0505C60.3309 13.8353 60.5013 13.6197 60.7117 13.4035C60.9355 13.1871 61.1528 12.9908 61.3638 12.8146C61.5879 12.6249 61.7727 12.489 61.9183 12.407C61.9846 12.3795 62.0841 12.3448 62.2169 12.303C62.3497 12.2612 62.4892 12.2259 62.6355 12.1973C62.7951 12.1684 62.9284 12.16 63.0352 12.1719C63.2754 12.1819 63.4763 12.2459 63.6379 12.3637C63.8128 12.4813 63.9747 12.6192 64.1235 12.7772C64.2985 12.8948 64.4073 13.0533 64.45 13.2528C64.506 13.452 64.5223 13.6652 64.4987 13.8922C64.4751 14.1192 64.4179 14.3266 64.3271 14.5146C64.2889 14.6484 64.1778 14.8099 63.9936 14.9991C63.8095 15.1883 63.5986 15.3712 63.361 15.5478C63.1234 15.7243 62.9051 15.854 62.7062 15.9367C62.5335 15.979 62.3073 16.0154 62.0276 16.0459C61.7614 16.0762 61.5082 16.0929 61.2683 16.0962C61.0414 16.0859 60.8878 16.0613 60.8072 16.0224C60.7132 15.9704 60.6408 16.0447 60.5902 16.2454C60.5396 16.4461 60.5035 16.7333 60.4819 17.1069C60.4592 17.4006 60.4621 17.6139 60.4906 17.7469C60.519 17.8798 60.547 17.9728 60.5744 18.0258C60.6689 18.1178 60.7972 18.2361 60.9592 18.3806C61.1343 18.5115 61.3746 18.5283 61.6799 18.4308C61.9324 18.3607 62.1766 18.184 62.4128 17.9008C62.6623 17.6174 62.8926 17.3876 63.1035 17.2114C63.1556 17.1173 63.2415 17.0628 63.3614 17.0479C63.4943 17.0194 63.6344 17.0242 63.7816 17.0622C63.9295 17.1535 63.991 17.266 63.9662 17.3997C63.9545 17.5199 63.8903 17.7074 63.7738 17.9624C63.7351 18.0562 63.6434 18.1775 63.4987 18.3261C63.3672 18.4613 63.2158 18.6033 63.0444 18.7523C62.8863 18.8878 62.741 18.9965 62.6088 19.0783C62.2117 19.297 61.84 19.4154 61.4935 19.4334C61.1469 19.4381 60.8128 19.3827 60.4912 19.267ZM61.616 15.1914C61.9084 15.1207 62.1411 15.0709 62.3141 15.0419C62.487 15.0129 62.6527 14.9373 62.811 14.8151C62.9692 14.6796 63.1658 14.4303 63.4009 14.0671C63.4523 13.9197 63.4636 13.7729 63.435 13.6266C63.4197 13.4801 63.385 13.3806 63.3309 13.328C63.2091 13.1963 63.0619 13.1583 62.8893 13.2139C62.7299 13.2561 62.5776 13.3315 62.4324 13.4401C62.3396 13.4814 62.2009 13.5833 62.0165 13.7458C61.8451 13.8948 61.6742 14.0705 61.5036 14.2728C61.3328 14.4618 61.1951 14.637 61.0906 14.7985C60.9862 14.9599 60.9608 15.0536 61.0145 15.0795C60.9885 15.1332 61.0623 15.1655 61.2358 15.1765C61.4226 15.1873 61.5494 15.1923 61.616 15.1914ZM70.8458 19.9867C70.673 20.029 70.526 20.0044 70.4047 19.9127C70.297 19.8341 70.2154 19.7152 70.1599 19.5559C70.0491 19.2508 69.9646 18.9185 69.9064 18.5593C69.8613 18.1865 69.8502 17.86 69.8731 17.5797L69.9074 17.1591L69.1358 17.7897C68.688 18.1958 68.2519 18.4884 67.8276 18.6675C67.4167 18.8464 67.0512 18.938 66.7313 18.9424C66.5842 18.9177 66.4369 18.8664 66.2891 18.7884C66.1414 18.7103 66.0067 18.6122 65.8851 18.4938C65.7768 18.3753 65.6884 18.2498 65.62 18.1174C65.5374 17.9318 65.5073 17.6788 65.5297 17.3585C65.5653 17.038 65.6406 16.6903 65.7555 16.3154C65.8836 15.9269 66.0386 15.5515 66.2203 15.189C66.4152 14.8129 66.6375 14.4832 66.887 14.1998C67.3179 13.5273 67.7857 13.1142 68.2903 12.9607C68.7949 12.8072 69.2959 12.8737 69.7931 13.1603C70.1418 13.3023 70.356 13.3661 70.4358 13.3516C70.5289 13.337 70.6069 13.1826 70.6695 12.8884C70.72 12.6744 70.7704 12.4603 70.8208 12.2463C70.8711 12.0189 70.9537 11.7178 71.0686 11.3429C71.3882 10.3251 71.6641 9.52796 71.8963 8.95143C72.1418 8.37471 72.3617 7.87169 72.5559 7.44235C72.6984 7.13372 72.8158 6.94544 72.9083 6.87752C73.0138 6.79608 73.12 6.7613 73.2269 6.77319C73.3735 6.7712 73.5076 6.82272 73.629 6.92775C73.7504 7.03278 73.8457 7.17817 73.9149 7.36392C73.9699 7.48318 73.9913 7.58957 73.9793 7.68307C73.9804 7.76307 73.9419 7.87693 73.8639 8.02467C73.6949 8.34699 73.4941 8.77642 73.2613 9.31296C73.0417 9.83598 72.8162 10.4124 72.5847 11.0423C72.3665 11.672 72.1616 12.2948 71.97 12.9108C71.7783 13.5268 71.619 14.069 71.492 14.5374C71.416 14.8318 71.3477 15.2061 71.2872 15.6603C71.24 16.1143 71.1997 16.5816 71.1662 17.0621C71.1325 17.5292 71.1115 17.9496 71.1033 18.323C71.1081 18.683 71.1246 18.9161 71.1527 19.0224C71.2364 19.288 71.2724 19.4875 71.2609 19.621C71.2627 19.7543 71.2305 19.8415 71.1644 19.8824C71.0985 19.9366 70.9923 19.9714 70.8458 19.9867ZM67.436 17.8127C67.6221 17.7702 67.8011 17.6944 67.973 17.5854C68.1582 17.4762 68.3498 17.3469 68.5478 17.1976C68.9436 16.8855 69.2864 16.6008 69.5763 16.3436C69.8662 16.0863 70.0542 15.697 70.1405 15.1758C70.1637 14.9221 70.1344 14.7225 70.0524 14.5769C69.9835 14.4179 69.8682 14.2727 69.7064 14.1416C69.545 14.0371 69.3245 14.0001 69.0449 14.0306C68.7784 14.0475 68.5003 14.1913 68.2106 14.4619C67.8947 14.7595 67.5867 15.1571 67.2867 15.6545C67.0001 16.1518 66.7884 16.7614 66.6515 17.4833C66.6266 17.617 66.6681 17.7231 66.7758 17.8017C66.8835 17.8802 67.1036 17.8839 67.436 17.8127Z" fill="black"/>
<path d="M80.3888 19.0172C80.0955 19.0212 79.8754 19.0108 79.7284 18.9862C79.5813 18.9615 79.4675 18.923 79.3868 18.8708C79.306 18.8185 79.2117 18.7465 79.1038 18.6546C79.049 18.5487 78.9808 18.4363 78.8992 18.3173C78.8176 18.1984 78.7498 18.1127 78.6957 18.0601C78.6397 17.8608 78.6095 17.6012 78.6051 17.2812C78.6141 16.9611 78.6494 16.6139 78.711 16.2397C78.786 15.8653 78.8879 15.5172 79.0169 15.1955C79.0688 15.0881 79.114 14.9808 79.1525 14.8736C79.1911 14.7664 79.2104 14.7128 79.2104 14.7128C79.2095 14.6461 79.2873 14.4851 79.4438 14.2296C79.6137 13.9739 79.7968 13.7048 79.9929 13.4221C80.2025 13.1392 80.3731 12.9369 80.5048 12.8151C80.5966 12.7072 80.7351 12.5919 80.9201 12.4694C81.1185 12.3467 81.2906 12.2577 81.4365 12.2024C81.5825 12.1471 81.7285 12.0984 81.8746 12.0564C82.034 12.0143 82.2138 11.9918 82.4137 11.9891C82.6004 11.9866 82.7742 12.0242 82.9353 12.1021C83.0964 12.1799 83.2516 12.3178 83.401 12.5158C83.6442 12.7525 83.7808 12.9907 83.8107 13.2303C83.8538 13.4564 83.8503 13.6898 83.8002 13.9305C83.7371 14.198 83.6533 14.4059 83.5486 14.554C83.4438 14.6887 83.3246 14.7504 83.1911 14.7388C83.0576 14.7273 82.9029 14.6294 82.7271 14.4451C82.6723 14.3392 82.6445 14.2529 82.6435 14.1862C82.6425 14.1062 82.6676 13.9925 82.7189 13.8452C82.7697 13.6578 82.7671 13.4645 82.7111 13.2652C82.655 13.0659 82.567 12.9671 82.447 12.9688C82.2737 12.9711 82.0815 13.0537 81.8703 13.2166C81.6723 13.366 81.4682 13.5554 81.258 13.785C81.1661 13.8929 81.035 14.0613 80.8648 14.2903C80.7077 14.5058 80.551 14.748 80.3946 15.0168C80.238 15.2723 80.1081 15.5207 80.0047 15.7621C79.864 16.2041 79.7488 16.559 79.6591 16.8269C79.5827 17.0946 79.5445 17.2285 79.5445 17.2285C79.5452 17.2818 79.5593 17.335 79.5867 17.3879C79.6272 17.4274 79.6478 17.4738 79.6486 17.5271C79.6507 17.6871 79.7458 17.8125 79.9337 17.9033C80.0816 17.9946 80.2557 18.0456 80.4558 18.0562C80.6558 18.0535 80.9015 17.9835 81.193 17.8462C81.4049 17.7367 81.603 17.594 81.7873 17.4181C81.9849 17.2421 82.1895 17.086 82.401 16.9497C82.5464 16.8544 82.6586 16.7729 82.7377 16.7052C82.8301 16.6372 82.8767 16.6299 82.8774 16.6833C82.8781 16.7366 82.8985 16.763 82.9385 16.7624C82.9785 16.7619 83.0248 16.7346 83.0774 16.6806C83.1559 16.5728 83.2417 16.505 83.3347 16.477C83.4275 16.4358 83.5073 16.4214 83.5741 16.4338C83.6541 16.4327 83.6944 16.4522 83.6949 16.4922C83.6699 16.6125 83.6979 16.7121 83.779 16.7911C83.7797 16.8444 83.7607 16.918 83.722 17.0118C83.6964 17.0922 83.6573 17.1594 83.6047 17.2135C83.5393 17.3077 83.4407 17.4157 83.309 17.5375C83.1907 17.6591 83.0788 17.7673 82.9734 17.8621C82.8678 17.9435 82.8151 17.9842 82.8151 17.9842C82.7615 17.9716 82.7084 17.9857 82.6556 18.0264C82.6162 18.0669 82.5701 18.1142 82.5175 18.1683C82.4121 18.2631 82.3131 18.3377 82.2205 18.3923C82.1277 18.4336 82.0547 18.4546 82.0014 18.4553C81.9088 18.5099 81.8359 18.5442 81.7827 18.5583C81.7429 18.5722 81.7234 18.6058 81.7241 18.6591C81.5926 18.7942 81.4272 18.8898 81.2279 18.9458C81.0418 18.9884 80.7621 19.0122 80.3888 19.0172ZM92.2597 18.8763C92.0073 18.9464 91.821 18.9756 91.7009 18.9639C91.5805 18.9388 91.419 18.8277 91.2163 18.6304C91.0938 18.4454 90.9849 18.2802 90.8896 18.1348C90.7942 17.9894 90.7307 17.7302 90.699 17.3573C90.6822 17.1042 90.6919 16.8307 90.7279 16.5368C90.777 16.2295 90.7941 16.0092 90.7789 15.8761C90.8789 15.3813 90.9136 14.9875 90.8829 14.6945C90.8654 14.3881 90.8233 14.2353 90.7567 14.2362C90.6097 14.2115 90.345 14.3618 89.9627 14.687C89.5936 14.9987 89.1658 15.4112 88.6794 15.9245C88.2061 16.4243 87.7332 16.9508 87.2607 17.5039C87.0121 17.854 86.8356 18.1164 86.7313 18.2912C86.6268 18.4526 86.5479 18.5337 86.4946 18.5344C86.4012 18.5357 86.2741 18.504 86.1132 18.4396C85.9524 18.3751 85.8113 18.297 85.69 18.2053C85.5686 18.1002 85.5007 18.0078 85.4863 17.928C85.4855 17.8747 85.517 17.7342 85.5806 17.5067C85.644 17.2658 85.7202 16.9914 85.8094 16.6835C85.9119 16.3754 86.0014 16.0875 86.0777 15.8198C86.1541 15.5521 86.2116 15.3646 86.2501 15.2574C86.3654 14.9091 86.4997 14.4873 86.653 13.9918C86.8194 13.4829 86.9667 13.0342 87.0948 12.6457C87.1458 12.4717 87.2357 12.2238 87.3647 11.902C87.4935 11.5669 87.6223 11.2318 87.7511 10.8967C87.8799 10.5615 87.9699 10.3136 88.0211 10.1529C88.0596 10.0457 88.1304 9.85809 88.2335 9.59C88.3363 9.30858 88.4455 9.0004 88.561 8.66547C88.6898 8.33036 88.8056 8.0221 88.9085 7.74068C89.0245 7.44574 89.1016 7.23135 89.1398 7.09748C89.1248 6.97767 89.13 6.87093 89.1554 6.77724C89.194 6.67004 89.2329 6.58951 89.2722 6.53564C89.3255 6.53491 89.3855 6.5341 89.4521 6.5332C89.5186 6.51896 89.5519 6.51184 89.5519 6.51184C89.5515 6.48518 89.6052 6.51112 89.7129 6.58967C89.8207 6.66821 89.922 6.76685 90.017 6.88557C90.1251 6.99078 90.1797 7.08338 90.1807 7.16338C90.2498 7.33579 90.2595 7.56234 90.21 7.84304C90.1603 8.11041 90.0258 8.51893 89.8065 9.06862C89.6628 9.28393 89.5205 9.60588 89.3796 10.0345C89.2521 10.4629 89.1236 10.8247 88.9943 11.1198C88.9422 11.2139 88.8449 11.4152 88.7024 11.7238C88.5733 12.0323 88.4182 12.3944 88.2371 12.8102C88.0694 13.2259 87.9085 13.6481 87.7543 14.0769C87.5999 14.4924 87.4783 14.8674 87.3895 15.202C87.2605 15.5237 87.2167 15.7377 87.2582 15.8438C87.2996 15.9499 87.458 15.8278 87.7332 15.4773C88.1011 15.0723 88.4889 14.6603 88.8966 14.2414C89.3043 13.8225 89.6862 13.4707 90.0424 13.1858C90.4117 12.8874 90.7099 12.75 90.9369 12.7736C91.0572 12.7987 91.185 12.877 91.3201 13.0085C91.4686 13.1398 91.6106 13.2912 91.7463 13.4627C91.882 13.6342 91.9775 13.7996 92.033 13.9589C92.0891 14.1581 92.1248 14.331 92.1401 14.4775C92.1687 14.6238 92.1784 14.8437 92.169 15.1372C92.1595 15.4173 92.1322 15.8644 92.0872 16.4784C92.0134 16.9328 91.9645 17.2601 91.9405 17.4605C91.9164 17.6475 91.9248 17.7807 91.9659 17.8602C92.0203 17.9394 92.1015 18.025 92.2094 18.1169C92.4116 18.2742 92.5135 18.4128 92.5151 18.5328C92.5301 18.6526 92.4449 18.7671 92.2597 18.8763ZM94.5178 18.5656C94.463 18.4597 94.3952 18.3806 94.3145 18.3284C94.2336 18.2628 94.1928 18.2033 94.1921 18.15C94.1914 18.0967 94.184 18.0434 94.1699 17.9903C94.169 17.9236 94.1415 17.864 94.0875 17.8114C94.0198 17.7323 94.024 17.5522 94.1002 17.2712C94.1762 16.9768 94.3047 16.6217 94.4858 16.2058C94.6666 15.7767 94.8806 15.3271 95.1275 14.857C95.2327 14.7489 95.3375 14.6075 95.4418 14.4327C95.5461 14.258 95.6246 14.1435 95.6772 14.0895C95.6765 14.0362 95.6958 13.9892 95.7353 13.9487C95.7746 13.8948 95.8209 13.8675 95.8742 13.8668L95.8726 13.7468C95.8717 13.6802 95.9301 13.566 96.0479 13.4044C96.1791 13.2426 96.3367 13.0671 96.5208 12.8779C96.7048 12.6754 96.8956 12.4862 97.0932 12.3101C97.2906 12.1208 97.4555 11.9852 97.5877 11.9034C97.8652 11.7129 98.1503 11.5957 98.443 11.5518C98.7491 11.5076 99.01 11.5707 99.2257 11.7412C99.2662 11.7806 99.3338 11.8464 99.4284 11.9384C99.523 12.0305 99.6311 12.1357 99.7527 12.2541C99.8874 12.3589 100.022 12.4704 100.157 12.5886L100.906 13.2385L100.56 14.2433C100.394 14.7789 100.353 15.2462 100.439 15.6451C100.537 16.0438 100.675 16.3886 100.853 16.6796C100.921 16.8253 101.057 16.9635 101.258 17.0941C101.474 17.2245 101.675 17.3018 101.862 17.3259C101.968 17.3378 102.069 17.3765 102.163 17.4419C102.257 17.5073 102.306 17.6133 102.308 17.7599C102.309 17.8933 102.284 18.0003 102.232 18.081C102.18 18.1617 102.087 18.2163 101.954 18.2448C101.515 18.3041 101.1 18.203 100.71 17.9416C100.333 17.68 99.9804 17.2448 99.6521 16.6358C99.5977 16.5566 99.5223 16.4109 99.4261 16.1989C99.3431 15.9733 99.2944 15.8273 99.2802 15.7608C99.2277 15.8282 99.1295 15.9562 98.9854 16.1448C98.841 16.3201 98.7294 16.4483 98.6505 16.5294C97.717 17.5022 96.9058 18.1599 96.2171 18.5026C95.5415 18.8318 94.975 18.8528 94.5178 18.5656ZM95.2225 17.436C95.2238 17.5293 95.3638 17.5274 95.6425 17.4303C95.9343 17.3196 96.2451 17.1287 96.5748 16.8576C97.0228 16.4648 97.4703 16.032 97.9173 15.5593C98.3776 15.0863 98.745 14.648 99.0196 14.2442L99.4498 13.5183C99.3123 13.2135 99.1629 13.0088 99.0014 12.9043C98.8531 12.7863 98.7257 12.728 98.619 12.7295C98.4457 12.7318 98.1879 12.8953 97.8456 13.22C97.5166 13.5445 97.1624 13.976 96.783 14.5145C96.4036 15.0531 96.045 15.6447 95.707 16.2893C95.5773 16.5577 95.4608 16.8193 95.3576 17.0741C95.2675 17.3153 95.2225 17.436 95.2225 17.436ZM105.207 18.3807C104.927 18.4378 104.748 18.4603 104.668 18.448C104.601 18.4222 104.493 18.3437 104.344 18.2124C104.13 18.1086 103.948 17.9777 103.799 17.8197C103.663 17.6615 103.561 17.4963 103.492 17.3238C103.436 17.1379 103.414 16.9849 103.426 16.8647C103.46 16.3975 103.566 15.896 103.746 15.3602C103.925 14.8244 104.145 14.3081 104.405 13.8111C104.665 13.3142 104.946 12.8904 105.248 12.5396C105.563 12.1753 105.866 11.9378 106.158 11.8272C106.423 11.7169 106.676 11.6735 106.916 11.6969C107.157 11.7203 107.332 11.8446 107.441 12.0698C107.647 12.4537 107.603 12.701 107.311 12.8116C107.271 12.8122 107.225 12.8328 107.172 12.8735C107.119 12.9009 107.093 12.9413 107.094 12.9946C107.148 13.0206 107.294 13.0252 107.534 13.0086C107.774 12.9787 108.013 12.9355 108.252 12.8789C108.505 12.8088 108.671 12.7399 108.75 12.6721C108.829 12.6311 108.889 12.6102 108.929 12.6097C108.969 12.6092 109.069 12.6211 109.229 12.6456C109.457 12.7092 109.571 12.7877 109.573 12.881C109.573 12.9343 109.594 12.9874 109.635 13.0402C109.675 13.0796 109.722 13.099 109.776 13.0983C109.869 13.1103 109.856 13.1705 109.738 13.2788C109.633 13.3869 109.448 13.5361 109.184 13.7263C108.933 13.8898 108.774 13.9986 108.708 14.0528C108.656 14.0935 108.65 14.187 108.692 14.3331C108.802 14.5849 108.813 14.8781 108.724 15.2127C108.635 15.5473 108.473 15.8895 108.238 16.2394C108.003 16.5893 107.714 16.9199 107.371 17.2312C107.042 17.5291 106.685 17.7873 106.302 18.0058C105.931 18.2109 105.566 18.3358 105.207 18.3807ZM104.855 17.5054C104.908 17.5047 105.001 17.4767 105.134 17.4216C105.266 17.3531 105.372 17.2984 105.451 17.2573C105.504 17.2032 105.57 17.1423 105.649 17.0746C105.741 16.9933 105.814 16.9457 105.867 16.9316C105.92 16.9309 105.987 16.91 106.066 16.8689C106.146 16.8145 106.258 16.713 106.402 16.5643C106.547 16.4023 106.737 16.1664 106.973 15.8565C107.235 15.5596 107.438 15.2902 107.582 15.0482C107.725 14.7929 107.762 14.559 107.692 14.3466C107.678 14.2935 107.638 14.2607 107.571 14.2483C107.517 14.2357 107.444 14.2033 107.35 14.1513C107.216 14.1531 107.089 14.1214 106.968 14.0564C106.86 13.9779 106.732 13.8796 106.584 13.7616L106.259 13.366L105.923 13.7105C105.713 13.9268 105.491 14.2498 105.257 14.6797C105.035 15.096 104.848 15.5253 104.694 15.9674C104.54 16.3962 104.451 16.7375 104.428 16.9911C104.417 17.1913 104.452 17.3242 104.533 17.3897C104.614 17.4553 104.721 17.4939 104.855 17.5054ZM111.388 19.137C111.134 19.0337 110.892 18.897 110.663 18.7268C110.434 18.5432 110.285 18.3918 110.216 18.2728C110.215 18.1528 110.234 18.0725 110.273 18.032C110.312 17.9781 110.426 17.9566 110.612 17.9674C110.812 17.9647 111.133 17.987 111.573 18.0343C111.733 18.0322 111.933 18.0161 112.173 17.9862C112.412 17.9563 112.632 17.9133 112.831 17.8573C113.044 17.8011 113.163 17.7328 113.188 17.6524C113.255 17.6515 113.268 17.6313 113.228 17.5919C113.187 17.5391 113.139 17.4864 113.085 17.4338C113.032 17.4345 112.972 17.4153 112.905 17.3762C112.837 17.3238 112.777 17.298 112.724 17.2987C112.723 17.232 112.655 17.1596 112.521 17.0814C112.399 16.9897 112.272 16.9181 112.138 16.8666C111.841 16.6306 111.585 16.4207 111.369 16.237C111.153 16.0399 111.071 15.9076 111.124 15.8402C111.123 15.7869 111.123 15.7602 111.123 15.7602C111.122 15.7469 111.122 15.7403 111.122 15.7403C111.029 15.7415 110.92 15.6096 110.797 15.3446C110.687 15.0794 110.63 14.8402 110.627 14.6269C110.625 14.4669 110.669 14.2663 110.759 14.025C110.849 13.7704 110.972 13.5088 111.128 13.2399C111.285 12.9711 111.448 12.7489 111.619 12.5732C111.856 12.3433 112.153 12.0993 112.509 11.8411C112.866 11.5696 113.216 11.3315 113.56 11.1268C113.917 10.9086 114.215 10.7645 114.454 10.6946C114.693 10.598 114.912 10.5484 115.112 10.5457C115.325 10.5428 115.513 10.5869 115.674 10.6781C115.808 10.7429 115.93 10.8413 116.038 10.9732C116.16 11.0915 116.261 11.2168 116.343 11.3491C116.438 11.4678 116.5 11.5736 116.527 11.6666C116.53 11.8266 116.519 12.0067 116.495 12.2071C116.471 12.3941 116.433 12.5613 116.382 12.7087C116.344 12.8559 116.278 12.9301 116.185 12.9314C116.185 12.9314 116.165 12.9383 116.125 12.9522C116.098 12.9525 116.085 12.986 116.086 13.0527C116.088 13.186 115.99 13.3407 115.793 13.5167C115.542 13.6935 115.323 13.8031 115.137 13.8456C114.951 13.8748 114.836 13.8031 114.794 13.6303C114.753 13.5775 114.726 13.5312 114.712 13.4914C114.698 13.4516 114.665 13.432 114.611 13.4327C114.611 13.4327 114.591 13.413 114.55 13.3736C114.51 13.3341 114.489 13.2677 114.488 13.1744C114.487 13.1211 114.506 13.0741 114.546 13.0336C114.585 12.9797 114.605 12.9528 114.605 12.9528C114.671 12.9519 114.757 12.8774 114.862 12.7293C114.966 12.5678 115.057 12.3999 115.135 12.2255C115.226 12.0376 115.271 11.9103 115.27 11.8437C115.269 11.7637 115.255 11.7172 115.228 11.7042C115.214 11.6911 115.154 11.6852 115.048 11.6867C114.862 11.7692 114.637 11.8789 114.372 12.0159C114.107 12.1528 113.856 12.2895 113.618 12.4261C113.393 12.5492 113.227 12.6648 113.122 12.7729C113.07 12.8669 113.038 12.9274 113.025 12.9542C113.011 12.9677 112.978 12.9748 112.925 12.9756C112.924 12.9222 112.878 12.9495 112.786 13.0574C112.707 13.1519 112.602 13.2866 112.471 13.4618C112.354 13.6367 112.236 13.8116 112.119 13.9866C112.014 14.148 111.936 14.2691 111.883 14.3498C111.857 14.3768 111.825 14.4573 111.787 14.5911C111.762 14.7115 111.75 14.825 111.751 14.9316C111.7 15.0924 111.708 15.2056 111.776 15.2713C111.843 15.3238 111.992 15.4418 112.221 15.6253C112.692 15.9657 113.063 16.2473 113.332 16.4704C113.602 16.6934 113.805 16.8773 113.94 17.0222C114.075 17.167 114.157 17.2993 114.185 17.4189C114.431 17.8156 114.508 18.1212 114.418 18.3358C114.327 18.5504 114.103 18.7401 113.745 18.905C113.613 18.9734 113.394 19.0298 113.088 19.0739C112.782 19.1181 112.468 19.1423 112.149 19.1467C111.829 19.1643 111.575 19.1611 111.388 19.137Z" fill="#FF3B30"/>
<path d="M0.0403102 79.96C-0.0681969 80.214 0.0496901 80.5078 0.303619 80.6163L4.44164 82.3846C4.69557 82.4931 4.98939 82.3752 5.0979 82.1212C5.20641 81.8673 5.08852 81.5735 4.83459 81.465L1.15635 79.8932L2.72814 76.215C2.83665 75.961 2.71876 75.6672 2.46483 75.5587C2.2109 75.4502 1.91709 75.5681 1.80858 75.822L0.0403102 79.96ZM46.5001 35.1565L46.0109 35.0531C43.6517 46.2141 39.9686 54.2402 33.0446 61.0332C26.1023 67.8442 15.8652 73.4529 0.313904 79.6925L0.500092 80.1565L0.68628 80.6206C16.2654 74.3698 26.656 68.7018 33.7449 61.7471C40.852 54.7744 44.6037 46.5456 46.9893 35.2599L46.5001 35.1565Z" fill="#2E2E2E"/>
</svg>
