<svg width="184" height="77" viewBox="0 0 184 77" fill="none" xmlns="http://www.w3.org/2000/svg">
<path d="M179.493 0.419538C179.449 0.146994 179.192 -0.037932 178.919 0.00649952L174.478 0.730531C174.205 0.774962 174.02 1.03192 174.065 1.30446C174.109 1.57701 174.366 1.76193 174.639 1.7175L178.587 1.07392L179.23 5.02181C179.275 5.29435 179.531 5.47927 179.804 5.43484C180.077 5.39041 180.261 5.13345 180.217 4.86091L179.493 0.419538ZM77.9995 60.5L77.9543 60.002C77.6137 60.033 77.3811 60.0451 77.239 60.0427C77.1634 60.0413 77.1419 60.0361 77.1511 60.0382C77.1536 60.0388 77.1982 60.0484 77.2541 60.0836C77.3125 60.1204 77.4343 60.2205 77.4624 60.4068C77.4889 60.5821 77.4117 60.7047 77.3823 60.745C77.3646 60.7692 77.3485 60.7856 77.3393 60.7943C77.3297 60.8033 77.3228 60.8087 77.3206 60.8104C77.3183 60.8121 77.34 60.7967 77.4066 60.7642C77.5332 60.7025 77.74 60.6183 78.0356 60.5097C79.2175 60.0755 81.5413 59.3506 84.7757 58.3015C91.224 56.2099 101.196 52.8596 112.519 48.0797C135.145 38.5286 163.254 23.2347 179.405 0.792046L179 0.499985L178.594 0.207925C162.611 22.4161 134.721 37.6221 112.13 47.1584C100.845 51.9221 90.9042 55.2623 84.4671 57.3503C81.2588 58.3909 78.8967 59.1281 77.6908 59.571C77.3895 59.6817 77.143 59.7802 76.9684 59.8653C76.8844 59.9063 76.7935 59.9553 76.7177 60.0126C76.681 60.0403 76.6246 60.0871 76.5752 60.1546C76.5287 60.2182 76.4443 60.362 76.4737 60.5562C76.5047 60.7615 76.6394 60.8782 76.7208 60.9296C76.7998 60.9793 76.8775 61.0013 76.9237 61.012C77.0199 61.0345 77.1266 61.0408 77.2216 61.0425C77.4205 61.046 77.6978 61.0295 78.0448 60.9979L77.9995 60.5Z" fill="#2E2E2E"/>
<path d="M5.31374 45.042C4.93184 45.132 4.57795 45.1336 4.25206 45.0465C3.92536 44.9462 3.65409 44.769 3.43825 44.515C3.23491 44.2469 3.12027 43.8999 3.09434 43.474C3.0301 43.0772 3.04872 42.6152 3.1502 42.088C3.25087 41.5476 3.41143 41.0035 3.63188 40.4557C3.86563 39.9072 4.12381 39.4306 4.40641 39.026C4.65313 38.6904 4.90148 38.3814 5.15144 38.099C5.40141 37.8166 5.63002 37.6224 5.83729 37.5163C6.01875 37.4251 6.18892 37.3679 6.34782 37.3449C6.51921 37.3078 6.65814 37.2859 6.76461 37.2795C6.98079 37.3197 7.21312 37.4058 7.46159 37.5376C7.72256 37.6553 7.8579 37.794 7.86763 37.9537C7.86763 37.9537 7.88215 37.9728 7.9112 38.0111C7.95275 38.0353 7.97352 38.0474 7.97352 38.0474C8.05337 38.0425 8.12518 38.125 8.18896 38.2948C8.26603 38.4637 8.31812 38.6609 8.3452 38.8864C8.37148 39.0985 8.34915 39.2802 8.27821 39.4314C8.24037 39.6875 8.16058 39.9128 8.03884 40.1072C7.9171 40.3017 7.803 40.4021 7.69653 40.4086C7.64329 40.4118 7.59046 40.4217 7.53804 40.4383C7.49811 40.4407 7.48018 40.4752 7.48423 40.5417C7.48828 40.6083 7.44997 40.6373 7.36931 40.6289C7.30196 40.6196 7.22633 40.5842 7.14242 40.5225C7.05771 40.4475 6.99215 40.358 6.94574 40.2539C6.94169 40.1874 6.96141 40.0727 7.00492 39.9097C7.04843 39.7468 7.08911 39.5372 7.12694 39.2811C7.1841 38.9036 7.16286 38.6645 7.06322 38.5637C6.96276 38.4496 6.78269 38.4539 6.523 38.5765C6.20163 38.7831 5.89803 39.0621 5.61219 39.4134C5.33966 39.764 5.09317 40.2131 4.87272 40.7609C4.65146 41.2953 4.46492 41.9612 4.31311 42.7586C4.25189 43.0696 4.23483 43.3378 4.26192 43.5632C4.30231 43.7878 4.34288 43.9056 4.38361 43.9164C4.57318 43.9583 4.82685 43.9562 5.14464 43.9102C5.46162 43.8508 5.69087 43.7767 5.8324 43.688C6.03886 43.5685 6.26991 43.4142 6.52554 43.225C6.78037 43.0224 7.00314 42.8419 7.19386 42.6834C7.25797 42.6394 7.33377 42.568 7.42126 42.4691C7.50875 42.3703 7.60411 42.291 7.70733 42.2313C7.80408 42.0651 7.89157 41.9663 7.9698 41.9348C8.04803 41.9033 8.167 41.8827 8.3267 41.873C8.43479 41.8931 8.53704 41.927 8.63344 41.9745C8.72984 42.0221 8.79297 42.0717 8.82283 42.1233C8.866 42.1741 8.84887 42.2219 8.77145 42.2667C8.71822 42.2699 8.68616 42.2919 8.67528 42.3327C8.6769 42.3593 8.67771 42.3726 8.67771 42.3726C8.70757 42.4242 8.65457 42.541 8.51871 42.7229C8.39535 42.8907 8.23328 43.0809 8.0325 43.2935C7.83171 43.5061 7.63596 43.6917 7.44525 43.8502C7.26703 43.9947 7.138 44.0693 7.05814 44.0742C6.92506 44.0823 6.86095 44.1263 6.86581 44.2061C6.86743 44.2327 6.77167 44.3053 6.57852 44.424C6.39868 44.5418 6.18557 44.6616 5.93919 44.7835C5.70612 44.9046 5.49763 44.9907 5.31374 45.042ZM16.498 43.9602C16.1751 44.1402 15.8784 44.205 15.6082 44.1546C15.3372 44.091 15.1133 43.9243 14.9366 43.6545C14.7732 43.384 14.6785 43.0357 14.6526 42.6099C14.6436 42.4635 14.6502 42.2427 14.6723 41.9474C14.7077 41.6514 14.749 41.3417 14.7961 41.0182C14.8424 40.6814 14.8981 40.3908 14.9634 40.1464C14.996 40.0242 15.017 39.9294 15.0262 39.8621C15.0488 39.7939 15.0335 39.7615 14.9802 39.7647C14.927 39.7679 14.8625 39.8053 14.7867 39.8767C14.7242 39.9473 14.6742 40.0037 14.6367 40.0461C14.3585 40.3035 14.0702 40.6149 13.7719 40.9804C13.4869 41.3451 13.2222 41.7152 12.9779 42.0907C12.7328 42.4529 12.5327 42.7857 12.3775 43.089C12.2356 43.3916 12.1687 43.6094 12.1768 43.7424C12.189 43.9421 12.0977 44.0879 11.9029 44.1799C11.7081 44.2719 11.5347 44.2758 11.3826 44.1915C11.1209 44.0605 10.9506 43.8973 10.8719 43.7017C10.8057 43.492 10.7776 43.1397 10.7875 42.6449C10.7894 42.0169 10.8086 41.4547 10.8451 40.9582C10.8817 40.4618 10.9557 39.9229 11.0673 39.3417C11.1913 38.7464 11.3543 38.0219 11.5561 37.168C11.7007 36.6917 11.8337 36.2428 11.955 35.8213C12.0754 35.3865 12.18 35.0195 12.2686 34.7202C12.3706 34.4201 12.4328 34.236 12.4554 34.1678C12.5179 34.0972 12.5946 33.9322 12.6857 33.6729C12.776 33.4002 12.8529 33.1284 12.9166 32.8574C12.9935 32.5855 13.0304 32.423 13.0271 32.3697C13.0207 32.2633 13.035 32.1689 13.07 32.0866C13.1043 31.991 13.1464 31.915 13.1964 31.8585C13.2464 31.802 13.2901 31.7526 13.3276 31.7103C13.3651 31.6679 13.3839 31.6467 13.3839 31.6467C13.4504 31.6427 13.5315 31.6578 13.6271 31.692C13.736 31.7255 13.8394 31.7793 13.9374 31.8534C14.0347 31.9143 14.0998 31.9972 14.1329 32.102C14.2374 32.2827 14.2958 32.4728 14.3079 32.6724C14.3193 32.8588 14.2736 33.0953 14.1708 33.3821C14.0813 33.6681 13.9185 34.0654 13.6823 34.574C13.4945 34.9995 13.3275 35.4371 13.1812 35.8869C13.0349 36.3366 12.8965 36.8059 12.766 37.2947C12.7116 37.4984 12.6355 37.7835 12.5376 38.1502C12.453 38.516 12.3626 38.8955 12.2663 39.2888C12.1833 39.6812 12.1112 40.0329 12.05 40.3439C12.0013 40.6407 11.9794 40.8291 11.9842 40.9089C11.9899 41.0021 12.046 41.0454 12.1525 41.0389C12.2581 41.0191 12.3597 40.9328 12.4573 40.7799C12.504 40.6702 12.609 40.5302 12.7723 40.36C12.9356 40.1898 13.0677 40.0548 13.1685 39.9552C13.2693 39.8555 13.4075 39.7135 13.5833 39.5292C13.7591 39.3448 13.9482 39.1596 14.1506 38.9737C14.3522 38.7744 14.5425 38.6092 14.7215 38.478C14.8998 38.3336 15.0421 38.2581 15.1486 38.2517C15.3216 38.2411 15.4853 38.2979 15.6398 38.4221C15.7935 38.533 15.9015 38.66 15.9636 38.8031C16.006 38.8406 16.0491 38.8914 16.0931 38.9556C16.1363 39.0064 16.1653 39.0447 16.1803 39.0705C16.25 39.1197 16.2642 39.3526 16.2228 39.7692C16.1939 40.1717 16.0924 40.6988 15.9184 41.3506C15.8286 41.8503 15.7543 42.2756 15.6955 42.6265C15.6492 42.9633 15.6793 43.1284 15.7858 43.1219C15.7858 43.1219 15.8499 43.078 15.9781 42.99C16.1196 42.9012 16.2674 42.8054 16.4215 42.7025C16.792 42.4262 17.1158 42.2595 17.3929 42.2026C17.6824 42.1315 17.8316 42.1692 17.8406 42.3156C17.8438 42.3688 17.8271 42.4232 17.7904 42.4789C17.7529 42.5213 17.7358 42.5691 17.739 42.6223C17.739 42.6223 17.7394 42.6289 17.7402 42.6423C17.7402 42.6423 17.7419 42.6689 17.7451 42.7221C17.7467 42.7487 17.6667 42.8605 17.505 43.0573C17.3426 43.2409 17.1605 43.4323 16.9589 43.6316C16.7698 43.8167 16.6162 43.9263 16.498 43.9602ZM19.4086 43.6828C19.3489 43.5795 19.2775 43.5037 19.1944 43.4554C19.1105 43.3937 19.0669 43.3362 19.0637 43.283C19.0604 43.2298 19.0505 43.1769 19.034 43.1245C19.0299 43.058 18.9997 42.9997 18.9432 42.9497C18.8718 42.8739 18.8675 42.6938 18.9303 42.4095C18.9923 42.1118 19.104 41.7511 19.2652 41.3271C19.4255 40.8899 19.618 40.4307 19.8425 39.9495C19.9425 39.8365 20.0404 39.6903 20.1364 39.5108C20.2323 39.3313 20.3053 39.2133 20.3553 39.1569C20.352 39.1036 20.3691 39.0558 20.4066 39.0135C20.4433 38.9578 20.4883 38.9284 20.5415 38.9251L20.5342 38.8053C20.5302 38.7388 20.5832 38.622 20.6932 38.455C20.8166 38.2872 20.9658 38.1045 21.1407 37.9068C21.3149 37.6958 21.4965 37.4978 21.6856 37.3126C21.8739 37.1141 22.0322 36.9709 22.1604 36.8829C22.4285 36.6796 22.7078 36.5491 22.9981 36.4913C23.3018 36.4327 23.5654 36.4835 23.7888 36.6435C23.8312 36.681 23.9018 36.7435 24.0006 36.831C24.0995 36.9185 24.2124 37.0185 24.3395 37.131C24.4791 37.2293 24.619 37.3343 24.7594 37.446L25.5382 38.0598L25.2396 39.0798C25.099 39.6227 25.0808 40.0914 25.185 40.4858C25.3024 40.8794 25.4566 41.2173 25.6474 41.4995C25.7229 41.6419 25.8645 41.7735 26.0722 41.8944C26.2933 42.0146 26.4978 42.0823 26.6857 42.0975C26.793 42.1044 26.8952 42.1382 26.9924 42.1991C27.0896 42.2599 27.1427 42.3636 27.1516 42.51C27.1597 42.6431 27.1396 42.7512 27.0912 42.8342C27.0429 42.9173 26.9529 42.9762 26.8215 43.011C26.3855 43.0909 25.9665 43.0096 25.5643 42.7669C25.1755 42.5234 24.8027 42.1053 24.446 41.5126C24.3879 41.436 24.3058 41.294 24.1997 41.0868C24.106 40.8654 24.0505 40.7218 24.0332 40.6561C23.984 40.7259 23.8919 40.8584 23.7568 41.0536C23.621 41.2356 23.5155 41.3689 23.4406 41.4536C22.554 42.4694 21.7748 43.1647 21.103 43.5395C20.4437 43.9003 19.8789 43.948 19.4086 43.6828ZM20.0592 42.5211C20.0649 42.6142 20.2046 42.6057 20.4784 42.4956C20.7647 42.3713 21.0661 42.1659 21.3826 41.8795C21.8116 41.466 22.2382 41.0125 22.6623 40.5192C23.0998 40.025 23.4461 39.5698 23.7012 39.1535L24.0967 38.4081C23.9449 38.1101 23.786 37.9127 23.6198 37.816C23.4661 37.7051 23.336 37.6529 23.2296 37.6594C23.0565 37.6699 22.8067 37.8454 22.4802 38.1859C22.1669 38.5256 21.8335 38.9733 21.48 39.5292C21.1264 40.085 20.7961 40.6929 20.489 41.3528C20.3721 41.6271 20.2681 41.8939 20.177 42.1532C20.0985 42.3985 20.0592 42.5211 20.0592 42.5211ZM28.9874 43.1997C28.7862 43.1852 28.6046 43.056 28.4428 42.8121C28.2935 42.554 28.1991 42.3193 28.1595 42.108C28.1663 42.0007 28.1703 41.8468 28.1715 41.6464C28.186 41.4451 28.2 41.2372 28.2137 41.0227C28.2515 40.7666 28.3061 40.456 28.3773 40.091C28.4478 39.7127 28.5183 39.3344 28.5887 38.9561C28.6725 38.5769 28.7462 38.2518 28.8099 37.9808C28.8735 37.7098 28.917 37.5468 28.9404 37.492C29.0005 37.3815 29.1053 37.3484 29.2549 37.3927C29.4046 37.437 29.5292 37.5096 29.6289 37.6103C29.7152 37.712 29.7695 37.8355 29.7917 37.9811C29.8272 38.1259 29.8202 38.3401 29.7707 38.6236C29.7345 38.9063 29.6532 39.3254 29.5267 39.8808C29.4127 40.422 29.3259 40.8614 29.2663 41.199C29.2192 41.5225 29.2133 41.8635 29.2485 42.222C29.2228 42.6777 29.1999 42.9596 29.1797 43.0677C29.1588 43.1625 29.0947 43.2065 28.9874 43.1997ZM30.7981 35.0946C30.7473 35.1378 30.6953 35.161 30.6421 35.1642C30.6013 35.1534 30.5257 35.1179 30.4152 35.0578C30.3212 35.0502 30.1978 34.9976 30.0449 34.9C29.9045 34.7884 29.7775 34.6759 29.6637 34.5626C29.5624 34.4352 29.511 34.3582 29.5094 34.3315C29.4879 34.1993 29.4845 34.0325 29.4989 33.8313C29.5259 33.6159 29.5877 33.4251 29.6845 33.2589C29.7804 33.0794 29.9278 32.9769 30.1266 32.9515C30.1799 32.9482 30.2268 32.9521 30.2676 32.9629C30.3083 32.9738 30.4309 33.0131 30.6354 33.0808C30.754 33.2739 30.8743 33.4937 30.9962 33.7401C31.1172 33.9732 31.1784 34.2099 31.1797 34.4502C31.1801 34.6773 31.053 34.8921 30.7981 35.0946Z" fill="#FF3B30"/>
<path d="M43.5057 42.4959C43.2569 42.5779 43.0722 42.6158 42.9516 42.6098C42.8302 42.5905 42.6636 42.4871 42.4518 42.2996C42.3207 42.1206 42.2041 41.9607 42.102 41.82C41.9999 41.6793 41.9242 41.4234 41.8749 41.0524C41.8462 40.8003 41.8429 40.5267 41.865 40.2315C41.8996 39.9221 41.9062 39.7013 41.8848 39.569C41.9613 39.0701 41.9773 38.6751 41.9329 38.3839C41.9009 38.0786 41.8517 37.928 41.7851 37.9321C41.6371 37.9144 41.3798 38.077 41.0133 38.4199C40.6593 38.7487 40.2515 39.1809 39.7899 39.7166C39.3408 40.2382 38.8933 40.7865 38.4474 41.3613C38.2156 41.7227 38.0517 41.9932 37.9558 42.1727C37.859 42.3388 37.7841 42.4236 37.7308 42.4268C37.6377 42.4325 37.5092 42.4069 37.3454 42.3501C37.1817 42.2933 37.0371 42.2219 36.9116 42.1361C36.7854 42.0369 36.7132 41.9478 36.695 41.8687C36.6917 41.8155 36.7165 41.6737 36.7693 41.4434C36.8212 41.1998 36.8845 40.9221 36.959 40.6104C37.0468 40.2978 37.1226 40.006 37.1862 39.7349C37.2498 39.4639 37.2984 39.2739 37.3318 39.165C37.4305 38.8117 37.5447 38.384 37.6745 37.8818C37.8167 37.3656 37.9426 36.9104 38.0522 36.5163C38.0949 36.3401 38.173 36.0882 38.2867 35.7607C38.3995 35.4199 38.5123 35.0791 38.6252 34.7382C38.738 34.3974 38.8161 34.1455 38.8597 33.9826C38.8931 33.8737 38.9549 33.6829 39.0452 33.4102C39.1347 33.1243 39.2291 32.8113 39.3287 32.4713C39.4415 32.1305 39.5426 31.8171 39.6321 31.5311C39.734 31.231 39.8009 31.0132 39.8327 30.8777C39.8121 30.7587 39.8123 30.6519 39.8332 30.5571C39.8667 30.4482 39.9018 30.3659 39.9384 30.3102C39.9917 30.307 40.0516 30.3033 40.1181 30.2993C40.1838 30.2819 40.2167 30.2732 40.2167 30.2732C40.2151 30.2466 40.2699 30.27 40.3813 30.3434C40.4926 30.4167 40.5985 30.5105 40.699 30.6246C40.8119 30.7246 40.8708 30.8145 40.8757 30.8943C40.9528 31.0633 40.9732 31.2891 40.937 31.5719C40.8999 31.8413 40.7849 32.2557 40.5919 32.8151C40.4585 33.037 40.3315 33.3653 40.2111 33.8001C40.1039 34.2341 39.9927 34.6015 39.8774 34.9024C39.8299 34.9988 39.7422 35.2045 39.6145 35.5195C39.5 35.8337 39.3622 36.2028 39.201 36.6267C39.0531 37.0498 38.9123 37.4792 38.7785 37.9148C38.6439 38.3371 38.5402 38.7174 38.4673 39.0558C38.3536 39.3833 38.32 39.5991 38.3664 39.7031C38.4129 39.8072 38.5653 39.6777 38.8237 39.3146C39.172 38.8927 39.5399 38.4629 39.9273 38.0252C40.3148 37.5875 40.6797 37.2179 41.022 36.9166C41.3768 36.6011 41.6681 36.4498 41.896 36.4626C42.0174 36.4819 42.1487 36.5541 42.2899 36.6791C42.4444 36.8032 42.5935 36.9478 42.7371 37.1127C42.8807 37.2776 42.984 37.4383 43.0469 37.5947C43.1123 37.7911 43.1561 37.9621 43.1784 38.1077C43.2139 38.2525 43.2339 38.4717 43.2384 38.7653C43.2422 39.0456 43.236 39.4934 43.2201 40.1089C43.1678 40.5662 43.1344 40.8955 43.1199 41.0968C43.1047 41.2847 43.1194 41.4174 43.1642 41.4948C43.2223 41.5714 43.3074 41.6531 43.4196 41.7398C43.6289 41.8873 43.7373 42.021 43.7446 42.1408C43.7652 42.2597 43.6855 42.3781 43.5057 42.4959ZM47.0188 42.2419C46.4868 42.0606 46.1296 41.7885 45.9472 41.4256C45.7773 41.0485 45.7146 40.4579 45.7591 39.6537C45.7606 39.2395 45.7573 38.9659 45.7492 38.8328C45.7411 38.6997 45.6598 38.5711 45.5053 38.4469C45.4622 38.3961 45.3845 38.3274 45.2724 38.2407C45.1735 38.1532 45.1287 38.0758 45.138 38.0084C45.119 37.9161 45.1196 37.8158 45.1397 37.7078C45.159 37.5864 45.1953 37.524 45.2486 37.5208C45.3018 37.5176 45.3542 37.501 45.4058 37.4711C45.4708 37.4405 45.5306 37.4368 45.5855 37.4602C45.6387 37.457 45.699 37.46 45.7664 37.4692C45.8337 37.4785 45.869 37.5097 45.8723 37.563C45.9312 37.6529 46.0185 37.6609 46.1342 37.5871C46.2491 37.4999 46.365 37.3192 46.4819 37.045C46.602 36.8239 46.7621 36.6004 46.9621 36.3745C47.1753 36.1478 47.3832 35.9415 47.5856 35.7555C47.8005 35.5554 47.9787 35.411 48.1202 35.3222C48.1852 35.2915 48.2829 35.2522 48.4136 35.2041C48.5443 35.1561 48.682 35.1143 48.8267 35.0788C48.9848 35.0425 49.1175 35.0277 49.2248 35.0345C49.4652 35.0332 49.6688 35.0876 49.8358 35.1977C50.0161 35.3069 50.1844 35.4369 50.3405 35.5877C50.5208 35.697 50.637 35.8502 50.6891 36.0474C50.7544 36.2438 50.7807 36.4559 50.7679 36.6838C50.755 36.9116 50.7077 37.1216 50.6259 37.3136C50.5941 37.4491 50.4907 37.6157 50.3157 37.8133C50.1407 38.011 49.9387 38.2037 49.7097 38.3913C49.4807 38.5789 49.2688 38.7187 49.074 38.8107C48.9034 38.8611 48.6792 38.9082 48.4014 38.9518C48.1368 38.9946 47.8848 39.0233 47.6452 39.0379C47.4181 39.0384 47.2635 39.0211 47.1812 38.986C47.0848 38.9385 47.016 39.0161 46.975 39.219C46.9339 39.4219 46.9114 39.7104 46.9075 40.0847C46.8987 40.3791 46.9116 40.5921 46.9464 40.7235C46.9811 40.855 47.0134 40.9465 47.0432 40.9981C47.1421 41.0856 47.2758 41.1977 47.4444 41.3344C47.6255 41.4569 47.8663 41.4623 48.1667 41.3505C48.4155 41.2686 48.6512 41.0806 48.8738 40.7865C49.1096 40.4916 49.3287 40.2512 49.5311 40.0652C49.5787 39.9688 49.662 39.9103 49.7809 39.8897C49.9124 39.855 50.0525 39.8531 50.2014 39.8841C50.3534 39.9684 50.4202 40.0779 50.4017 40.2126C50.3957 40.3331 50.3405 40.5235 50.2361 40.7837C50.2018 40.8793 50.116 41.0047 49.9785 41.16C49.8535 41.3012 49.709 41.4503 49.5449 41.6072C49.3933 41.75 49.2534 41.8654 49.1251 41.9534C48.7388 42.1906 48.3731 42.3264 48.0279 42.3608C47.6819 42.3819 47.3455 42.3423 47.0188 42.2419ZM47.9498 38.1177C48.2386 38.0333 48.4686 37.9726 48.64 37.9354C48.8114 37.8983 48.9733 37.8149 49.1257 37.6854C49.2773 37.5426 49.462 37.2843 49.6796 36.9103C49.724 36.7607 49.7284 36.6135 49.6928 36.4687C49.6706 36.3231 49.6313 36.2253 49.5748 36.1754C49.4469 36.0496 49.2981 36.0186 49.1283 36.0823C48.971 36.132 48.8224 36.2145 48.6825 36.3299C48.5918 36.3755 48.4581 36.4838 48.2815 36.6548C48.1174 36.8118 47.955 36.9953 47.7941 37.2055C47.6324 37.4023 47.5032 37.5839 47.4065 37.7501C47.3097 37.9162 47.2888 38.011 47.3436 38.0344C47.3203 38.0893 47.3955 38.1181 47.5693 38.1208C47.7564 38.1228 47.8833 38.1218 47.9498 38.1177ZM52.7413 42.3743C52.4925 42.4563 52.283 42.4156 52.1127 42.2523C51.9558 42.0882 51.8531 41.8273 51.8046 41.4696C51.7561 41.1119 51.7701 40.6836 51.8466 40.1847C51.9034 40.0209 51.9473 39.8646 51.9783 39.7158C52.0085 39.5537 52.0208 39.426 52.0151 39.3329C52.0336 39.1982 52.0751 39.0019 52.1396 38.7442C52.2032 38.4732 52.2731 38.1951 52.3492 37.9099C52.4254 37.6248 52.4969 37.3733 52.5638 37.1555C52.6432 36.9236 52.6945 36.7802 52.7179 36.7253C52.7712 36.7221 52.8149 36.6727 52.8492 36.5771C52.8834 36.4815 52.8977 36.3871 52.892 36.2939C52.8855 36.1875 52.8982 36.0665 52.93 35.931C52.9752 35.7946 53.0227 35.6982 53.0727 35.6418C53.0687 35.5752 53.0775 35.5012 53.0993 35.4197C53.1335 35.3241 53.149 35.2497 53.1458 35.1965C53.1425 35.1433 53.1526 35.0892 53.176 35.0344C53.2127 34.9787 53.2294 34.9242 53.2262 34.871C53.3088 34.6923 53.4119 34.4122 53.5356 34.0306C53.6718 33.635 53.8123 33.199 53.9569 32.7226C54.1149 32.2455 54.2599 31.7758 54.3921 31.3136C54.5242 30.8513 54.6276 30.4643 54.7021 30.1526C54.7891 29.8267 54.8306 29.6305 54.8265 29.5639C54.8201 29.4575 54.8418 29.376 54.8918 29.3195C54.9418 29.263 55.02 29.2315 55.1265 29.2251C55.164 29.1827 55.209 29.1533 55.2614 29.1367C55.3271 29.1193 55.3866 29.109 55.4398 29.1058C55.4398 29.1058 55.4681 29.1308 55.5245 29.1808C55.581 29.2308 55.6657 29.3058 55.7787 29.4058C55.8908 29.4924 55.9572 29.5953 55.9778 29.7142C56.0117 29.8324 56.0335 29.9713 56.0433 30.131C56.0538 30.304 56.0432 30.4583 56.0113 30.5938C55.9795 30.7293 55.9114 30.9272 55.807 31.1873C55.7026 31.4475 55.5402 31.8514 55.3198 32.3992C55.2295 32.6718 55.1318 32.9316 55.0266 33.1784C54.9206 33.412 54.8692 33.5554 54.8725 33.6086C54.8757 33.6618 54.854 33.7433 54.8072 33.853C54.7738 33.9619 54.7353 34.0979 54.6918 34.2608C54.645 34.3705 54.5815 34.5347 54.5014 34.7533C54.4204 34.9586 54.3339 35.1843 54.242 35.4303C54.1626 35.6622 54.0949 35.8667 54.0389 36.0438C53.9821 36.2075 53.9545 36.3027 53.9561 36.3293C53.9594 36.3826 53.956 36.4362 53.9459 36.4903C53.9491 36.5435 53.9258 36.5983 53.8758 36.6548C53.8225 36.6581 53.7917 36.7 53.7833 36.7807C53.7873 36.8472 53.7893 36.8805 53.7893 36.8805C53.7974 37.0136 53.7124 37.3727 53.5344 37.958C53.366 38.7029 53.2073 39.3872 53.0582 40.0107C52.9225 40.6335 52.866 41.1311 52.8887 41.5038C52.9081 41.8232 52.9144 42.0365 52.9076 42.1438C52.9 42.2378 52.8445 42.3146 52.7413 42.3743ZM55.8077 45.6941C55.6545 45.8103 55.4877 45.8138 55.3074 45.7045C55.1404 45.5945 55.0097 45.4221 54.9152 45.1874C54.8208 44.9527 54.812 44.6995 54.889 44.4276C54.9108 44.3461 54.9426 44.2106 54.9845 44.0211C55.0272 43.8448 55.0511 43.6897 55.0563 43.5558C55.064 43.4619 55.0942 43.2997 55.1469 43.0694C55.2005 42.8524 55.2607 42.635 55.3276 42.4172C55.4078 42.1986 55.4717 42.0411 55.5192 41.9447C55.591 41.8068 55.6349 41.6505 55.651 41.4758C55.6804 41.3004 55.6922 41.1661 55.6866 41.0729C55.7075 40.9781 55.7343 40.8697 55.7669 40.7474C55.8129 40.6244 55.8604 40.528 55.9096 40.4582C55.9298 40.3501 55.9628 40.2346 56.0087 40.1116C56.0539 39.9752 56.1069 39.8585 56.1677 39.7613C56.1887 39.6665 56.2018 39.5521 56.207 39.4182C56.2255 39.2835 56.2609 39.2079 56.3134 39.1914C56.3234 39.1373 56.3268 39.0837 56.3236 39.0304C56.3337 38.9764 56.3558 38.9016 56.3901 38.806C56.4078 38.658 56.4547 38.4414 56.5308 38.1562C56.607 37.8711 56.7015 37.5581 56.8143 37.2173C56.9372 36.8224 56.9815 36.4523 56.9471 36.1071C56.9252 35.7478 56.812 35.5343 56.6075 35.4666C56.4978 35.4198 56.4268 35.3507 56.3945 35.2591C56.3614 35.1543 56.3682 35.047 56.415 34.9373C56.4617 34.8276 56.5371 34.7495 56.6412 34.7031C56.7577 34.6426 56.8829 34.6149 57.0168 34.6201C57.164 34.6245 57.2921 34.6435 57.401 34.6769C57.5091 34.697 57.5573 34.7208 57.5456 34.7482C57.5496 34.8148 57.5853 34.8527 57.6527 34.8619C57.6769 34.8204 57.7329 34.8637 57.8209 34.992C57.9214 35.1061 58.0164 35.2405 58.106 35.3954C58.1955 35.5502 58.2423 35.6609 58.2464 35.7275C58.223 35.7823 58.2117 35.8164 58.2125 35.8297C58.2125 35.8297 58.2392 35.8281 58.2924 35.8248C58.2924 35.8248 58.3636 35.7871 58.5059 35.7117C58.6474 35.6229 58.7952 35.5271 58.9493 35.4242C59.1158 35.3072 59.2241 35.2204 59.274 35.164C59.274 35.164 59.3065 35.1486 59.3714 35.1179C59.4489 35.0732 59.5126 35.0225 59.5626 34.966C59.8222 34.8434 60.1072 34.806 60.4173 34.8539C60.7408 34.901 61.0009 35.0054 61.1978 35.167C61.4842 35.4835 61.6368 35.7948 61.6554 36.1009C61.6873 36.4062 61.6243 36.7975 61.4664 37.2746C61.4438 37.3428 61.3908 37.4595 61.3074 37.6249C61.2364 37.7762 61.1651 37.9208 61.0934 38.0587C61.0208 38.1834 60.9845 38.2457 60.9845 38.2457C60.7076 38.7434 60.3726 39.1646 59.9795 39.5091C59.5863 39.8536 59.1841 40.1587 58.7728 40.4241C58.6454 40.5254 58.5101 40.6071 58.367 40.6693C58.2363 40.7173 58.1182 40.7512 58.0125 40.771C57.906 40.7775 57.832 40.7686 57.7905 40.7444C57.6376 40.6469 57.4908 40.4287 57.3499 40.09C57.2939 40.2671 57.2379 40.4441 57.1819 40.6212C57.1384 40.7842 57.1116 40.8926 57.1015 40.9467C57.0939 41.0407 57.0854 41.1213 57.0762 41.1887C57.0661 41.2427 57.0357 41.2913 56.9849 41.3345C56.9849 41.3345 56.9798 41.3615 56.9698 41.4156C56.9597 41.4696 56.918 41.5523 56.8446 41.6636C56.735 42.0577 56.6355 42.3977 56.5461 42.6837C56.4574 42.9829 56.3859 43.2344 56.3315 43.4381C56.2779 43.6551 56.2361 43.8447 56.2059 44.0068C56.2011 44.3677 56.1494 44.7249 56.0507 45.0782C55.9528 45.4448 55.8718 45.6501 55.8077 45.6941ZM57.8368 39.86C57.8884 39.8301 57.9971 39.75 58.1628 39.6197C58.341 39.4753 58.538 39.3097 58.7537 39.1229C58.9686 38.9228 59.1644 38.7372 59.341 38.5662C59.5309 38.3943 59.6567 38.2664 59.7183 38.1825C59.8175 38.0563 59.9096 37.9238 59.9947 37.785C60.0789 37.6329 60.1424 37.4688 60.1851 37.2925C60.2186 37.1836 60.2578 37.061 60.303 36.9247C60.3481 36.7883 60.387 36.6591 60.4196 36.5369C60.4664 36.4271 60.4798 36.3195 60.4601 36.2138C60.4528 36.094 60.4068 35.9966 60.322 35.9217C60.268 35.9116 60.1107 35.9612 59.8502 36.0706C59.5889 36.1667 59.3046 36.3242 58.9974 36.5433C58.6893 36.7491 58.4248 37.0123 58.2039 37.333C57.9463 37.7094 57.7627 38.0946 57.6531 38.4886C57.5569 38.8819 57.5235 39.2112 57.553 39.4765C57.5958 39.7411 57.6904 39.8689 57.8368 39.86ZM64.8793 41.3547C64.2139 41.3952 63.7135 41.1852 63.3782 40.7248C63.277 40.5974 63.2223 40.4671 63.2142 40.334C63.2186 40.1868 63.2524 40.0846 63.3157 40.0273C63.3923 39.9692 63.4883 40.0101 63.6037 40.15C63.7965 40.2451 64.0659 40.2822 64.4119 40.2611C64.585 40.2506 64.7638 40.2263 64.9485 40.1883C65.1324 40.1371 65.3155 40.0725 65.4978 39.9946C65.6917 39.8893 65.8199 39.8013 65.8824 39.7307C65.9441 39.6468 65.9268 39.5811 65.8304 39.5335L65.8503 39.5323C65.4986 39.4602 65.137 39.3353 64.7655 39.1576C64.4065 38.9657 64.0933 38.7577 63.8259 38.5335C63.5576 38.296 63.3974 38.0787 63.3453 37.8815C63.2138 37.4754 63.2148 37.0546 63.3486 36.619C63.4816 36.1701 63.6843 35.7703 63.9568 35.4198C64.0593 35.3468 64.1875 35.2588 64.3415 35.1559C64.4947 35.0397 64.6175 34.9721 64.7099 34.9532L64.7111 34.9731C64.9478 34.6916 65.2409 34.46 65.5905 34.2784C65.9534 34.096 66.3371 33.9257 66.7416 33.7675L67.0386 33.7093C67.1967 33.673 67.3289 33.6516 67.4354 33.6451C67.4221 33.6459 67.4495 33.6576 67.5177 33.6801C67.585 33.6894 67.6457 33.6991 67.6998 33.7091C67.7821 33.7442 67.8498 33.7601 67.9031 33.7569C68.0777 33.7729 68.2423 33.8431 68.3968 33.9672C68.5513 34.0914 68.6741 34.2442 68.7653 34.4257C68.869 34.593 68.9124 34.7574 68.8955 34.9187C68.8843 35.1732 68.8182 35.4043 68.6973 35.612C68.5897 35.8189 68.4502 35.941 68.2788 35.9781C68.3046 35.9632 68.2834 35.9445 68.2152 35.9219C68.1596 35.8852 68.0973 35.8489 68.0283 35.8131L67.9708 35.8566C67.9708 35.8566 67.9634 35.8437 67.9484 35.8179C67.946 35.778 67.9299 35.7322 67.9 35.6806C67.8552 35.6032 67.83 35.5179 67.8243 35.4247C67.8178 35.3183 67.8176 35.2047 67.8236 35.0842C67.8413 34.9361 67.836 34.8496 67.8078 34.8246C67.7929 34.7988 67.7051 34.7841 67.5446 34.7805C67.3559 34.752 67.0851 34.8019 66.7322 34.9302C66.3927 35.0577 66.1088 35.222 65.8806 35.4229C65.5991 35.627 65.3639 35.8217 65.1748 36.0069C64.9849 36.1787 64.8349 36.3481 64.7248 36.5151C64.614 36.6688 64.518 36.8483 64.437 37.0536C64.3762 37.1508 64.322 37.2477 64.2744 37.3441C64.2393 37.4263 64.2238 37.5008 64.2279 37.5673C64.2368 37.7137 64.3526 37.8603 64.5752 38.007C64.8104 38.1396 65.1537 38.2924 65.605 38.4653C65.9599 38.5906 66.2625 38.7325 66.5126 38.8909C66.7626 39.0493 66.9412 39.2388 67.0481 39.4594C67.078 39.511 67.0887 39.5771 67.0802 39.6578C67.0843 39.7243 67.0738 39.7717 67.0488 39.8C67.077 39.825 67.0916 39.8441 67.0924 39.8574L67.0912 39.8375C67.2073 39.9907 67.2175 40.157 67.1215 40.3365C67.0389 40.5152 66.8819 40.6784 66.6504 40.8261C66.4315 40.9596 66.1577 41.0698 65.829 41.1566L65.849 41.1554C65.6792 41.2192 65.5086 41.2696 65.3372 41.3068C65.1783 41.3298 65.0257 41.3458 64.8793 41.3547ZM69.0013 42.9671C68.8682 42.9752 68.7809 42.9672 68.7394 42.943C68.7119 42.9313 68.6688 42.8805 68.6099 42.7906C68.6042 42.6974 68.6193 42.6164 68.6552 42.5474C68.7043 42.4776 68.7727 42.3933 68.8602 42.2945C68.9852 42.1533 69.1281 41.9776 69.2889 41.7674C69.4506 41.5706 69.5986 41.3679 69.7328 41.1593C69.8803 40.95 69.9837 40.7834 70.043 40.6596C70.0873 40.5099 70.1234 40.3341 70.1511 40.132C70.1922 39.9291 70.2321 39.7063 70.2707 39.4635C70.2642 39.357 70.2586 39.2639 70.2537 39.184C70.2613 39.0901 70.2901 39.0148 70.3401 38.9584C70.4276 38.8595 70.505 38.8147 70.5724 38.824C70.6531 38.8324 70.7245 38.9082 70.7866 39.0514C70.8621 39.1937 70.922 39.4105 70.9665 39.7017C71.0375 39.9912 71.0537 40.2574 71.0151 40.5002C70.9764 40.743 70.8945 41.0418 70.7691 41.3968C70.7482 41.4916 70.6702 41.6366 70.5351 41.8318C70.4001 42.0271 70.2642 42.209 70.1276 42.3776C69.9909 42.5462 69.9026 42.6317 69.8627 42.6342C69.8094 42.6374 69.7637 42.6536 69.7254 42.6826C69.6879 42.725 69.6441 42.7744 69.5941 42.8309C69.5441 42.8873 69.4659 42.9188 69.3594 42.9253C69.2671 42.9443 69.1477 42.9582 69.0013 42.9671ZM4.76666 69.6207C4.70694 69.5175 4.63553 69.4417 4.55244 69.3933C4.46854 69.3316 4.42496 69.2741 4.42172 69.2209C4.41848 69.1677 4.40858 69.1148 4.39203 69.0624C4.38798 68.9959 4.35772 68.9376 4.30124 68.8876C4.22984 68.8118 4.22555 68.6317 4.28838 68.3474C4.35041 68.0497 4.46202 67.689 4.62321 67.2651C4.7836 66.8278 4.97605 66.3686 5.20055 65.8874C5.30053 65.7745 5.39849 65.6282 5.49443 65.4487C5.59036 65.2692 5.66333 65.1513 5.71332 65.0948C5.71008 65.0415 5.7272 64.9937 5.7647 64.9514C5.80138 64.8957 5.84634 64.8663 5.89958 64.863L5.89228 64.7433C5.88823 64.6767 5.94123 64.5599 6.05128 64.3929C6.17465 64.2251 6.32381 64.0424 6.49879 63.8447C6.67296 63.6338 6.85459 63.4357 7.04368 63.2505C7.23197 63.052 7.39022 62.9088 7.51844 62.8209C7.78658 62.6175 8.06583 62.487 8.35619 62.4292C8.65986 62.3706 8.92343 62.4214 9.1469 62.5814C9.18926 62.6189 9.25986 62.6814 9.35869 62.7689C9.45752 62.8564 9.57048 62.9564 9.69755 63.0689C9.83712 63.1672 9.97709 63.2723 10.1175 63.3839L10.8962 63.9977L10.5977 65.0178C10.4571 65.5606 10.4389 66.0293 10.543 66.4237C10.6605 66.8173 10.8147 67.1552 11.0055 67.4374C11.081 67.5798 11.2225 67.7114 11.4303 67.8324C11.6513 67.9525 11.8558 68.0202 12.0438 68.0354C12.151 68.0423 12.2533 68.0761 12.3505 68.137C12.4477 68.1979 12.5008 68.3015 12.5097 68.4479C12.5178 68.581 12.4977 68.6891 12.4493 68.7722C12.4009 68.8553 12.311 68.9142 12.1795 68.9489C11.7436 69.0289 11.3245 68.9475 10.9224 68.7048C10.5335 68.4614 10.1608 68.0432 9.80406 67.4505C9.74597 67.3739 9.66386 67.2319 9.55773 67.0247C9.4641 66.8033 9.4086 66.6597 9.39124 66.594C9.34206 66.6638 9.24994 66.7963 9.11489 66.9915C8.97903 67.1735 8.87361 67.3068 8.79862 67.3915C7.91205 68.4073 7.13288 69.1026 6.46108 69.4774C5.80179 69.8382 5.23698 69.8859 4.76666 69.6207ZM5.41725 68.459C5.42293 68.5522 5.56267 68.5436 5.83648 68.4335C6.12278 68.3092 6.42419 68.1038 6.7407 67.8174C7.16969 67.4039 7.59626 66.9504 8.02039 66.4571C8.45782 65.9629 8.80413 65.5077 9.0593 65.0914L9.45472 64.346C9.303 64.048 9.14404 63.8506 8.97785 63.7539C8.82416 63.643 8.69408 63.5908 8.58761 63.5973C8.4146 63.6078 8.16481 63.7834 7.83823 64.1238C7.52496 64.4635 7.19156 64.9113 6.83803 65.4671C6.48449 66.023 6.15416 66.6308 5.84704 67.2907C5.73016 67.565 5.62618 67.8318 5.53511 68.0912C5.45654 68.3364 5.41725 68.459 5.41725 68.459ZM13.9839 69.7807C13.7351 69.8627 13.5256 69.822 13.3553 69.6587C13.1984 69.4946 13.0957 69.2337 13.0472 68.876C12.9987 68.5183 13.0127 68.09 13.0892 67.5911C13.146 67.4273 13.1899 67.271 13.2209 67.1222C13.2511 66.9601 13.2634 66.8324 13.2577 66.7393C13.2762 66.6046 13.3177 66.4083 13.3821 66.1506C13.4458 65.8796 13.5157 65.6015 13.5918 65.3163C13.668 65.0312 13.7395 64.7797 13.8064 64.5619C13.8857 64.33 13.9371 64.1866 13.9605 64.1317C14.0137 64.1285 14.0575 64.0791 14.0917 63.9835C14.126 63.8879 14.1403 63.7935 14.1346 63.7003C14.1281 63.5939 14.1408 63.4729 14.1726 63.3374C14.2177 63.201 14.2653 63.1046 14.3153 63.0482C14.3112 62.9816 14.3201 62.9076 14.3418 62.8261C14.3761 62.7305 14.3916 62.6561 14.3884 62.6029C14.3851 62.5497 14.3952 62.4956 14.4186 62.4408C14.4553 62.3851 14.472 62.3306 14.4687 62.2774C14.5514 62.0987 14.6545 61.8186 14.7782 61.437C14.9144 61.0414 15.0549 60.6054 15.1995 60.129C15.3575 59.6519 15.5025 59.1822 15.6347 58.72C15.7668 58.2577 15.8701 57.8707 15.9447 57.559C16.0317 57.2331 16.0732 57.0369 16.0691 56.9703C16.0626 56.8639 16.0844 56.7824 16.1344 56.7259C16.1844 56.6694 16.2626 56.6379 16.3691 56.6315C16.4066 56.5891 16.4515 56.5597 16.504 56.5431C16.5697 56.5257 16.6292 56.5154 16.6824 56.5122C16.6824 56.5122 16.7106 56.5372 16.7671 56.5872C16.8236 56.6372 16.9083 56.7122 17.0213 56.8122C17.1334 56.8988 17.1998 57.0017 17.2204 57.1206C17.2543 57.2388 17.2761 57.3777 17.2858 57.5374C17.2964 57.7104 17.2857 57.8647 17.2539 58.0002C17.2221 58.1357 17.154 58.3336 17.0496 58.5937C16.9452 58.8539 16.7828 59.2578 16.5624 59.8056C16.4721 60.0782 16.3744 60.338 16.2692 60.5848C16.1632 60.8184 16.1118 60.9618 16.115 61.015C16.1183 61.0682 16.0965 61.1497 16.0498 61.2594C16.0163 61.3683 15.9779 61.5042 15.9344 61.6672C15.8876 61.7769 15.8241 61.9411 15.7439 62.1597C15.6629 62.365 15.5765 62.5907 15.4846 62.8367C15.4052 63.0686 15.3375 63.2731 15.2815 63.4502C15.2247 63.6139 15.1971 63.7091 15.1987 63.7357C15.202 63.789 15.1985 63.8426 15.1885 63.8967C15.1917 63.9499 15.1683 64.0047 15.1184 64.0612C15.0651 64.0645 15.0343 64.1064 15.0258 64.1871C15.0299 64.2536 15.0319 64.2869 15.0319 64.2869C15.04 64.42 14.955 64.7791 14.7769 65.3644C14.6086 66.1093 14.4499 66.7936 14.3008 67.4171C14.1651 68.0398 14.1086 68.5375 14.1313 68.9102C14.1507 69.2296 14.157 69.4429 14.1502 69.5502C14.1426 69.6442 14.0871 69.721 13.9839 69.7807ZM21.5814 69.1979C21.3886 69.1028 21.2271 68.9723 21.0967 68.8066C20.9656 68.6276 20.8645 68.3933 20.7935 68.1038C20.7349 67.8001 20.6918 67.422 20.6643 66.9695C20.6497 66.73 20.6363 66.5104 20.6242 66.3107C20.612 66.1111 20.6059 66.0113 20.6059 66.0113C20.6059 66.0113 20.5447 66.1018 20.4221 66.283C20.2996 66.4641 20.154 66.7067 19.9855 67.0108C19.726 67.5743 19.4541 68.0451 19.1699 68.423C18.8848 68.7877 18.6707 69.0011 18.5276 69.0632C18.4627 69.0939 18.3633 69.1067 18.2294 69.1014C18.0947 69.0829 17.9529 69.0582 17.8041 69.0272C17.6677 68.982 17.5443 68.9294 17.4338 68.8694C17.3233 68.8093 17.2523 68.7402 17.2208 68.6619C17.1901 68.597 17.1679 68.4514 17.1541 68.2252C17.1395 67.9856 17.1304 67.7257 17.1267 67.4454C17.1355 67.151 17.1525 66.8828 17.1779 66.6408C17.2024 66.3855 17.238 66.203 17.2848 66.0933C17.2823 66.0534 17.2866 66.013 17.2974 65.9723C17.3208 65.9174 17.3109 65.8646 17.2678 65.8138C17.2678 65.8138 17.2988 65.665 17.3608 65.3673C17.4361 65.0689 17.5215 64.7164 17.617 64.3098C17.7258 63.9024 17.8229 63.5225 17.9082 63.17C18.0061 62.8034 18.0781 62.5585 18.124 62.4355C18.1175 62.3291 18.1239 62.2151 18.1433 62.0937C18.1759 61.9715 18.1906 61.8838 18.1874 61.8306C18.1801 61.7108 18.2389 61.5803 18.3639 61.4391C18.5054 61.3503 18.6177 61.3301 18.7008 61.3785C18.7964 61.4128 18.914 61.4791 19.0536 61.5774C19.1948 61.7024 19.2877 61.8036 19.3325 61.881C19.3906 61.9577 19.3975 62.0708 19.3532 62.2204C19.3222 62.3692 19.2503 62.6141 19.1374 62.9549C19.0222 63.2558 18.9148 63.5762 18.8153 63.9162C18.715 64.2429 18.6267 64.5489 18.5506 64.834C18.4869 65.1051 18.4396 65.315 18.4086 65.4638C18.4143 65.557 18.4 65.6514 18.3657 65.747C18.344 65.8284 18.3347 65.8958 18.338 65.949C18.3005 65.9914 18.2767 66.0396 18.2666 66.0936C18.2699 66.1469 18.2731 66.2001 18.2763 66.2533C18.2796 66.3066 18.2653 66.4009 18.2335 66.5365C18.2008 66.6587 18.189 66.793 18.1979 66.9394C18.1601 67.1955 18.1956 67.3402 18.3045 67.3737C18.4259 67.393 18.5382 67.3728 18.6414 67.3131C18.6781 67.2574 18.7589 67.159 18.8839 67.0178C19.0222 66.8758 19.1335 66.7288 19.2177 66.5767C19.2612 66.4138 19.308 66.304 19.358 66.2476C19.4213 66.1903 19.4717 66.1405 19.5092 66.0981C19.5467 66.0557 19.5622 65.9813 19.5557 65.8749C19.5525 65.8216 19.6059 65.7115 19.7159 65.5445C19.8385 65.3634 19.9665 65.1619 20.0999 64.9401C20.3502 64.4439 20.5046 64.1273 20.563 63.9902C20.6581 63.7973 20.7549 63.6312 20.8532 63.4916C20.9641 63.3379 21.0596 63.1518 21.1398 62.9331C21.1866 62.8234 21.222 62.7478 21.2462 62.7063C21.2829 62.6506 21.3745 62.6183 21.5209 62.6094C21.6672 62.6005 21.7745 62.6073 21.8427 62.6299C21.9109 62.6524 21.9694 62.7357 22.0182 62.8797C22.1303 62.9663 22.1963 63.0625 22.2161 63.1682C22.2351 63.2605 22.2474 63.3533 22.2531 63.4464C22.2031 63.5029 22.1739 63.5715 22.1654 63.6521C22.1695 63.7187 22.1715 63.7519 22.1715 63.7519C22.1739 63.7919 22.1546 63.9133 22.1135 64.1161C22.0858 64.3182 22.031 64.5152 21.9492 64.7072C21.8702 65.1662 21.8133 65.6572 21.7784 66.1803C21.7426 66.6901 21.7361 67.1313 21.7588 67.504C21.794 67.8625 21.8465 68.0663 21.9163 68.1155C21.9993 68.1639 22.1447 68.0281 22.3523 67.7083C22.5732 67.3876 22.8167 66.9987 23.0828 66.5417C23.1428 66.4312 23.272 66.2497 23.4704 65.9972C23.6687 65.7446 23.8022 65.5228 23.8707 65.3316C23.8666 65.265 23.9 65.1561 23.971 65.0049C24.0411 64.8403 24.1108 64.6691 24.1802 64.4912C24.2487 64.3 24.2793 64.1446 24.272 64.0248C24.257 63.999 24.3163 63.8751 24.4497 63.6533C24.5831 63.4314 24.7063 63.1501 24.8191 62.8093C24.8694 62.5391 24.9775 62.3388 25.1432 62.2085C25.3222 62.0773 25.4861 62.0273 25.635 62.0583C25.783 62.076 25.8439 62.1992 25.8178 62.4279C25.7788 62.8844 25.6577 63.4194 25.4547 64.0329C25.2641 64.6323 25.034 65.2407 24.7643 65.8582C24.5072 66.4617 24.246 66.9985 23.9808 67.4689C23.88 67.5685 23.7937 67.6873 23.7219 67.8252C23.6494 67.9499 23.6147 68.0388 23.618 68.0921C23.6196 68.1187 23.5638 68.1889 23.4505 68.3026C23.3497 68.4023 23.2235 68.5235 23.0719 68.6663C22.9195 68.7958 22.76 68.9191 22.5935 69.0361C22.4286 69.1797 22.2733 69.2626 22.1277 69.2848C21.9821 69.3071 21.8 69.2781 21.5814 69.1979ZM28.7322 68.3016C28.6273 68.3347 28.4884 68.3565 28.3154 68.367C28.1416 68.3643 27.9873 68.3536 27.8526 68.3351C27.7304 68.3025 27.6681 68.2662 27.6656 68.2263C27.6616 68.1597 27.6263 68.1285 27.5598 68.1325C27.5598 68.1325 27.5249 68.108 27.4551 68.0588C27.3986 68.0088 27.3089 67.9608 27.1858 67.9149C27.0547 67.7358 26.9827 67.5399 26.9697 67.3269C26.9559 67.1007 26.9943 66.7443 27.0849 66.2579C27.1046 65.9228 27.2075 65.5291 27.3937 65.077C27.5924 64.6107 27.8373 64.1349 28.1283 63.6497C28.4194 63.1644 28.7266 62.725 29.0499 62.3312C29.3865 61.9367 29.696 61.644 29.9782 61.4532C30.1532 61.2555 30.3734 61.1419 30.6388 61.1124C30.9041 61.0829 31.1606 61.1274 31.4083 61.2459C31.5454 61.3043 31.685 61.4027 31.827 61.541C31.969 61.6793 32.1052 61.8313 32.2355 61.997C32.3658 62.1627 32.4761 62.3297 32.5665 62.4978C32.6154 62.6418 32.6434 62.7736 32.6507 62.8934C32.6705 62.9991 32.6786 63.1322 32.675 63.2927C32.6848 63.4524 32.6794 63.6932 32.6589 64.015C32.607 64.2586 32.5649 64.555 32.5327 64.9043C32.5139 65.2528 32.5121 65.5534 32.5275 65.8063C32.5163 66.0608 32.5539 66.2388 32.6402 66.3404C32.7399 66.4412 32.8734 66.4398 33.0407 66.3361C33.1955 66.2465 33.3466 66.2039 33.4938 66.2083C33.6402 66.1994 33.7557 66.2324 33.8404 66.3074C33.9385 66.3816 33.9923 66.4985 34.0021 66.6582C34.0118 66.8179 33.9421 66.9892 33.7929 67.1719C33.6562 67.3405 33.4784 67.4916 33.2595 67.6252C33.053 67.7446 32.85 67.8104 32.6503 67.8226C32.5039 67.8315 32.3589 67.7535 32.2153 67.5886C32.0709 67.4103 31.9377 67.198 31.8158 66.9517C31.7065 66.6912 31.6046 66.4436 31.5101 66.2089L31.3624 65.757L30.5538 66.6278C30.3922 66.8246 30.2297 67.0082 30.0664 67.1784C29.9156 67.3345 29.8223 67.4471 29.7864 67.5161C29.7272 67.6399 29.608 67.7674 29.429 67.8985C29.2633 68.0288 29.031 68.1632 28.7322 68.3016ZM28.7204 67.1201C28.9385 66.9733 29.1863 66.7645 29.4637 66.4938C29.7403 66.2098 30.009 65.9062 30.2698 65.5831C30.5298 65.2467 30.7449 64.9397 30.915 64.6622C31.1226 64.3423 31.2782 64.0456 31.3818 63.7722C31.4854 63.4987 31.5565 63.2406 31.5951 62.9978C31.533 62.8546 31.4371 62.7068 31.3076 62.5544C31.1773 62.3887 31.0652 62.302 30.9712 62.2944C30.6784 62.3122 30.377 62.5176 30.067 62.9105C29.7695 63.2893 29.4806 63.7009 29.2004 64.1454C29.1513 64.2152 29.0845 64.3262 29.0003 64.4782C28.9161 64.6303 28.8314 64.7757 28.7463 64.9145C28.6738 65.0391 28.6254 65.1222 28.6012 65.1638C28.5645 65.2194 28.494 65.3773 28.3896 65.6375C28.2978 65.8835 28.2063 66.1362 28.1152 66.3956C28.0233 66.6416 27.9798 66.8046 27.9847 66.8844C27.9895 66.9643 28.0015 67.0504 28.0204 67.1427C28.0527 67.2343 28.1229 67.2901 28.231 67.3102C28.3391 67.3304 28.5022 67.267 28.7204 67.1201ZM36.7601 73.0023C36.7484 73.0298 36.6869 73.0068 36.5756 72.9334C36.4775 72.8592 36.3783 72.7651 36.2779 72.651C36.1782 72.5502 36.1326 72.4595 36.1411 72.3788C36.0765 72.1957 36.0689 71.9624 36.1185 71.6789C36.1821 71.4079 36.3242 70.9985 36.5446 70.4507C36.6647 70.2297 36.7691 69.9695 36.8578 69.6702C36.9597 69.3702 37.075 69.0693 37.2035 68.7676C37.2628 68.6437 37.3934 68.3753 37.5953 67.9623C37.7972 67.5492 38.0092 67.0821 38.2313 66.561C38.4667 66.0391 38.6571 65.5466 38.8026 65.0836C38.4784 65.464 38.1813 65.8494 37.9112 66.2399C37.6403 66.617 37.3853 66.9264 37.1462 67.1681C36.9204 67.4089 36.7007 67.5292 36.4869 67.5288C36.3115 67.4994 36.1215 67.4509 35.917 67.3832C35.725 67.3014 35.5889 67.1494 35.5085 66.9272C35.4375 66.6376 35.3948 66.2662 35.3806 65.8129C35.3796 65.3588 35.4244 64.6681 35.5149 63.7409C35.5938 63.2819 35.6326 62.9322 35.6313 62.6919C35.6426 62.4374 35.6245 62.2515 35.5773 62.1341C35.5301 62.0168 35.4504 61.9148 35.3383 61.8281C35.1555 61.6789 35.0539 61.5449 35.0333 61.4259C35.0252 61.2928 35.1114 61.174 35.2921 61.0695C35.5675 60.9859 35.7659 60.9538 35.8873 60.9731C36.0079 60.9792 36.1608 61.0767 36.346 61.2658C36.463 61.4323 36.5663 61.593 36.6558 61.7479C36.7579 61.8886 36.8203 62.1453 36.843 62.5179C36.8527 62.6776 36.8391 62.8922 36.802 63.1616C36.7783 63.4302 36.7538 63.6855 36.7285 63.9275C36.7156 64.1553 36.7054 64.3163 36.6977 64.4102C36.5946 64.9108 36.5341 65.3419 36.516 65.7037C36.5113 66.0646 36.5422 66.2431 36.6087 66.239C36.8619 66.0099 37.1002 65.7549 37.3236 65.4742C37.5594 65.1793 37.7999 64.8507 38.045 64.4885C38.3026 64.1121 38.584 63.6876 38.8891 63.2148C38.9951 62.9813 39.1015 62.7544 39.2084 62.5342C39.3152 62.3139 39.4016 62.0883 39.4677 61.8572C39.537 61.6793 39.6083 61.5347 39.6817 61.4233C39.7551 61.312 39.818 61.2481 39.8704 61.2315C39.9353 61.2009 40.0156 61.2026 40.1112 61.2369C40.2201 61.2703 40.3161 61.3113 40.3992 61.3596C40.4948 61.3939 40.5434 61.4243 40.545 61.4509C40.5591 61.4634 40.5932 61.4747 40.6472 61.4848C40.7013 61.4948 40.7553 61.5049 40.8094 61.515C40.8759 61.5109 40.9104 61.5289 40.9128 61.5688C40.9145 61.5954 40.8864 61.6839 40.8288 61.8344C40.7845 61.984 40.7281 62.1544 40.6596 62.3456C40.6036 62.5227 40.5534 62.686 40.5091 62.8357C40.464 62.972 40.4489 63.0531 40.4638 63.0789C40.492 63.1039 40.4781 63.2049 40.4221 63.382C40.3653 63.5457 40.2964 63.7303 40.2154 63.9356C40.1477 64.14 40.0854 64.3242 40.0286 64.4879C39.9223 64.9352 39.796 65.3837 39.6497 65.8334C39.5026 66.2699 39.3223 66.7083 39.1087 67.1488C39.0385 67.3133 38.9337 67.5668 38.7943 67.9093C38.6682 68.2509 38.5416 68.5859 38.4147 68.9142C38.3019 69.255 38.2108 69.5144 38.1415 69.6923C38.0947 69.802 38.025 69.9732 37.9323 70.2059C37.8537 70.4511 37.7631 70.7171 37.6603 71.0039C37.5708 71.2899 37.4802 71.5559 37.3883 71.8019C37.2972 72.0613 37.2291 72.2591 37.184 72.3954C37.1728 72.6499 37.1242 72.8399 37.0384 72.9654C36.9851 72.9686 36.9252 72.9722 36.8587 72.9763C36.793 72.9937 36.7601 73.0023 36.7601 73.0023ZM43.1095 68.0873C42.8502 67.9963 42.6021 67.8711 42.3653 67.7119C42.1277 67.5393 41.972 67.3952 41.8982 67.2795C41.8909 67.1597 41.906 67.0786 41.9435 67.0363C41.9801 66.9806 42.0921 66.9537 42.2792 66.9557C42.4788 66.9435 42.7998 66.9507 43.2423 66.9772C43.402 66.9675 43.6008 66.942 43.8387 66.9008C44.0767 66.8596 44.2938 66.8063 44.4902 66.7409C44.6999 66.6747 44.8156 66.6009 44.8374 66.5194C44.9039 66.5153 44.916 66.4946 44.8737 66.4571C44.8305 66.4063 44.7807 66.3559 44.7242 66.3059C44.671 66.3091 44.6099 66.2928 44.5409 66.2569C44.4711 66.2078 44.4096 66.1848 44.3564 66.188C44.3523 66.1215 44.2813 66.0523 44.1434 65.9806C44.0179 65.8947 43.887 65.8292 43.7507 65.7841C43.4433 65.5624 43.1775 65.3648 42.9532 65.1915C42.7281 65.0048 42.6402 64.8766 42.6893 64.8068C42.6861 64.7536 42.6845 64.7269 42.6845 64.7269C42.6837 64.7136 42.6833 64.707 42.6833 64.707C42.5901 64.7127 42.4755 64.5861 42.3395 64.3272C42.2169 64.0675 42.149 63.8312 42.1361 63.6182C42.1263 63.4585 42.1608 63.2561 42.2393 63.0108C42.3171 62.7523 42.4277 62.4851 42.5712 62.2092C42.7147 61.9333 42.8677 61.7036 43.0302 61.52C43.256 61.2792 43.5408 61.0214 43.8848 60.7466C44.2279 60.4586 44.5664 60.2042 44.9003 59.9835C45.2466 59.7487 45.5376 59.5907 45.7731 59.5096C46.0069 59.4018 46.2237 59.3419 46.4233 59.3297C46.6363 59.3167 46.8254 59.352 46.9908 59.4354C47.1279 59.4939 47.2538 59.5864 47.3684 59.713C47.4954 59.8255 47.603 59.9458 47.6909 60.074C47.7914 60.1881 47.8577 60.291 47.89 60.3825C47.8998 60.5422 47.8974 60.7227 47.8829 60.9239C47.8677 61.1119 47.8379 61.2807 47.7935 61.4303C47.7625 61.5791 47.7004 61.6564 47.6073 61.6621C47.6073 61.6621 47.5877 61.6699 47.5486 61.6857C47.522 61.6873 47.5107 61.7214 47.5148 61.7879C47.5229 61.921 47.4324 62.0801 47.2433 62.2653C47.0009 62.4537 46.7878 62.5736 46.6039 62.6248C46.4192 62.6628 46.3017 62.5965 46.2512 62.4259C46.208 62.3751 46.1786 62.3301 46.1628 62.291C46.1471 62.2519 46.1126 62.234 46.0594 62.2372C46.0594 62.2372 46.0382 62.2185 45.9958 62.181C45.9535 62.1435 45.9295 62.0781 45.9238 61.985C45.9206 61.9317 45.9377 61.884 45.9752 61.8416C46.0119 61.7859 46.0302 61.7581 46.0302 61.7581C46.0968 61.754 46.1788 61.6756 46.2764 61.5227C46.3731 61.3565 46.4561 61.1845 46.5254 61.0066C46.6073 60.8146 46.6461 60.6853 46.6421 60.6188C46.6372 60.5389 46.6211 60.4932 46.5937 60.4815C46.5795 60.469 46.5192 60.466 46.4128 60.4725C46.2313 60.5637 46.0115 60.6839 45.7535 60.8332C45.4954 60.9825 45.2506 61.131 45.0192 61.2787C44.8002 61.4122 44.6408 61.5355 44.5408 61.6484C44.4932 61.7448 44.4636 61.8067 44.4519 61.8342C44.4394 61.8483 44.4065 61.857 44.3533 61.8602C44.3501 61.807 44.3051 61.8364 44.2184 61.9486C44.1443 62.0466 44.0459 62.1862 43.9233 62.3673C43.8141 62.5476 43.7049 62.7279 43.5956 62.9082C43.4989 63.0744 43.4263 63.199 43.3779 63.2821C43.3529 63.3104 43.3245 63.3922 43.2927 63.5278C43.2734 63.6492 43.267 63.7631 43.2734 63.8696C43.2299 64.0325 43.2435 64.1452 43.3141 64.2077C43.3839 64.2569 43.5376 64.3678 43.7751 64.5403C44.262 64.858 44.6454 65.1218 44.9254 65.3319C45.2053 65.5419 45.4163 65.7161 45.5583 65.8544C45.7003 65.9926 45.7883 66.1209 45.8222 66.239C46.086 66.6237 46.1779 66.9253 46.0977 67.144C46.0175 67.3626 45.8026 67.5627 45.453 67.7442C45.324 67.8189 45.1076 67.8855 44.8039 67.9441C44.5003 68.0026 44.1887 68.0416 43.8693 68.0611C43.5507 68.0939 43.2974 68.1026 43.1095 68.0873Z" fill="black"/>
</svg>
