<svg width="143" height="123" viewBox="0 0 143 123" fill="none" xmlns="http://www.w3.org/2000/svg">
<path d="M85.0948 18.9308C85.0278 18.905 84.9269 18.8397 84.7921 18.7349C84.6573 18.63 84.5416 18.4516 84.4448 18.1995C84.3479 17.9342 84.2962 17.5682 84.2899 17.1015C84.2978 16.7014 84.3002 16.388 84.2972 16.1614C84.3074 15.9345 84.2592 15.8218 84.1526 15.8233C84.0459 15.8247 83.8407 15.9342 83.537 16.1517C83.2464 16.3556 82.9101 16.6335 82.5282 16.9854C82.1462 17.3373 81.7582 17.7293 81.364 18.1613C81.2327 18.3098 81.1012 18.4516 80.9697 18.5867C80.8514 18.7083 80.7325 18.7899 80.613 18.8316C80.4934 18.8598 80.3528 18.8151 80.1912 18.6973L79.9687 18.5203C79.9012 18.4545 79.8603 18.3884 79.846 18.3219C79.8316 18.2421 79.8371 18.1553 79.8625 18.0617L80.3046 16.7355C80.5114 16.2527 80.6533 15.9041 80.7304 15.6897C80.8074 15.4619 80.8455 15.3214 80.8447 15.2681C80.8438 15.2014 80.8235 15.175 80.7837 15.1889C80.6772 15.2037 80.5181 15.2725 80.3064 15.3954C80.0945 15.5049 79.956 15.6135 79.8908 15.7211C79.8375 15.7218 79.7583 15.7829 79.6532 15.9043C79.5482 16.0257 79.4164 16.1409 79.2579 16.2497C79.1667 16.4109 78.9829 16.6201 78.7064 16.8772C78.4431 17.1341 78.18 17.3977 77.917 17.668C77.7457 17.817 77.5748 17.9993 77.4044 18.215C77.2473 18.4305 77.1098 18.619 76.992 18.7806C76.8875 18.9421 76.8153 19.0231 76.7753 19.0236C76.602 19.026 76.4413 18.9815 76.2934 18.8901C76.1588 18.7986 76.0568 18.6466 75.9872 18.4342C75.8775 18.209 75.8732 17.8957 75.9745 17.4943C76.0755 17.0796 76.1883 16.5447 76.3127 15.8896C76.3634 15.6889 76.3947 15.5418 76.4068 15.4483C76.4188 15.3548 76.4376 15.2612 76.463 15.1675C76.5015 15.0603 76.5593 14.8995 76.6364 14.6851C76.7269 14.4705 76.8625 14.1486 77.0434 13.7195C77.1333 13.4649 77.1841 13.2775 77.1958 13.1574C77.2206 13.0237 77.2327 12.9302 77.232 12.8768C77.2302 12.7435 77.262 12.6297 77.3274 12.5355C77.4061 12.4411 77.4985 12.3732 77.6046 12.3317C77.7107 12.2903 77.8106 12.2823 77.9043 12.3077C78.0513 12.3324 78.179 12.404 78.2873 12.5225C78.4089 12.6409 78.4778 12.8066 78.494 13.0197C78.5095 13.1796 78.4982 13.3264 78.46 13.4602C78.4216 13.5808 78.3832 13.6946 78.3446 13.8018L78.132 14.3448C78.0673 14.4923 77.9835 14.7068 77.8807 14.9882C77.7778 15.2697 77.688 15.5309 77.6113 15.772C77.5343 15.9997 77.4962 16.1336 77.4967 16.1736C77.5106 16.2134 77.5571 16.2061 77.6364 16.1517C77.7155 16.0839 77.8143 15.9959 77.9329 15.8876C78.0646 15.7658 78.1963 15.6507 78.3282 15.5422C78.6046 15.2718 78.9144 15.0142 79.2578 14.7696C79.6144 14.5114 79.9514 14.2934 80.2691 14.1158C80.5867 13.9381 80.8318 13.8215 81.0044 13.7658C81.231 13.7627 81.3849 13.8006 81.466 13.8795C81.5604 13.9583 81.7157 14.1028 81.9319 14.3133C82.0265 14.4053 82.0814 14.5246 82.0968 14.6711C82.1121 14.8175 82.1073 14.9576 82.0824 15.0913C82.0698 15.1448 82.0317 15.2787 81.9679 15.4929C81.9039 15.6938 81.8399 15.888 81.7758 16.0755C81.725 16.2629 81.6996 16.3566 81.6996 16.3566C81.6996 16.3566 81.772 16.2889 81.9168 16.1536C82.075 16.0181 82.2464 15.8758 82.4311 15.7266C82.6156 15.5641 82.7539 15.4422 82.8462 15.361C83.3607 14.9539 83.8106 14.6945 84.1957 14.5826C84.5809 14.4707 84.8961 14.6064 85.1414 14.9898C85.3033 15.1343 85.3855 15.2932 85.3878 15.4665C85.4035 15.6396 85.4143 15.9395 85.42 16.3662C85.4357 16.5393 85.4519 16.7458 85.4684 16.9856C85.485 17.2254 85.5013 17.4452 85.5174 17.645C85.5466 17.8312 85.5748 17.9442 85.602 17.9838C85.6427 18.0366 85.7167 18.0823 85.8239 18.1208C85.9442 18.1459 86.0979 18.1705 86.2849 18.1946C86.4853 18.2186 86.6064 18.3036 86.6484 18.4497C86.6904 18.5958 86.6056 18.737 86.3941 18.8732C86.1958 18.9959 85.9765 19.0522 85.7363 19.0421C85.4962 19.032 85.2823 18.9949 85.0948 18.9308ZM87.0227 24.5652C86.7302 24.6225 86.5303 24.6319 86.4231 24.5933C86.3159 24.5548 86.1683 24.4901 85.9804 24.3993C85.8323 24.2946 85.7179 24.2162 85.6372 24.1639C85.5565 24.1117 85.5157 24.0589 85.515 24.0056C85.5145 23.9656 85.5272 23.9187 85.5531 23.865C85.5792 23.8247 85.6254 23.7841 85.6915 23.7432C85.7711 23.7154 85.8776 23.7006 86.0109 23.6988C86.105 23.7509 86.2586 23.7755 86.472 23.7726C86.6986 23.7695 86.8382 23.7409 86.8908 23.6869C86.8908 23.6869 86.9503 23.6461 87.0692 23.5645C87.2016 23.496 87.3742 23.4403 87.587 23.3974C87.9976 23.1918 88.3608 22.9336 88.6766 22.6226C88.9924 22.3116 89.2936 21.9075 89.5802 21.4102C89.6977 21.2219 89.8213 21.0002 89.9512 20.7451C90.0813 20.5033 90.1714 20.2621 90.2214 20.0214C90.3245 19.7533 90.4396 19.3917 90.5668 18.9366C90.7073 18.4813 90.8279 18.033 90.9286 17.5916C91.0291 17.1369 91.0845 16.7961 91.0947 16.5692C91.1646 15.8216 91.2819 15.1332 91.4468 14.5043C91.6247 13.8618 91.775 13.1464 91.8977 12.358C91.9752 12.1702 92.0337 12.0628 92.0733 12.0356C92.1128 11.995 92.1992 11.9738 92.3325 11.972C92.4792 11.9701 92.586 11.9819 92.653 12.0077C92.7332 12.0199 92.8209 12.0988 92.9162 12.2441C93.053 12.4957 93.1037 12.795 93.0684 13.1422C93.0463 13.4758 92.9503 13.7705 92.7804 14.0262C92.6496 14.2146 92.5336 14.5095 92.4324 14.911C92.3443 15.2989 92.2576 15.7867 92.1722 16.3746C92.1095 16.6688 92.0409 17.0165 91.9663 17.4175C91.9049 17.805 91.8374 18.2393 91.7639 18.7204C91.7124 18.8544 91.6419 19.0621 91.5524 19.3433C91.4627 19.6112 91.4056 19.8253 91.3811 19.9857C91.3685 20.0392 91.3299 20.1464 91.2654 20.3073C91.2009 20.4682 91.1363 20.6224 91.0717 20.7699C91.0072 20.9308 90.962 21.0381 90.936 21.0918C90.4307 22.1788 89.8486 23.0134 89.1898 23.5957C88.531 24.178 87.8086 24.5012 87.0227 24.5652ZM88.464 18.7451C88.3173 18.7471 88.1629 18.6692 88.0008 18.5114C87.8519 18.3534 87.7502 18.2281 87.6956 18.1355C87.6405 18.0029 87.5721 17.8771 87.4905 17.7582C87.4089 17.6393 87.3469 17.4935 87.3046 17.3207C87.2755 17.1477 87.286 16.9342 87.3359 16.6802C87.3869 16.5062 87.4568 16.2585 87.5458 15.9373C87.648 15.6025 87.7564 15.241 87.8712 14.8528C87.9992 14.4643 88.1274 14.0826 88.2557 13.7075C88.3971 13.3188 88.5258 12.9771 88.6418 12.6821C88.7576 12.3739 88.8613 12.1524 88.9528 12.0179C89.0314 11.9101 89.1171 11.8423 89.2101 11.8144C89.3164 11.7862 89.4232 11.7981 89.5306 11.85C89.6378 11.8886 89.7323 11.974 89.8141 12.1062C89.9633 12.2909 90.0254 12.45 90.0006 12.5837C89.9757 12.7174 89.8593 12.979 89.6512 13.3685C89.5999 13.5159 89.5354 13.6768 89.4577 13.8512C89.3799 14.0123 89.3413 14.1195 89.3421 14.1728C89.3291 14.1996 89.3037 14.2933 89.2659 14.4538C89.2412 14.6009 89.2098 14.7413 89.1716 14.8752C89.1334 15.009 89.0943 15.0762 89.0543 15.0768C89.0017 15.1308 88.9438 15.285 88.8806 15.5392C88.8171 15.78 88.7609 16.0542 88.7117 16.3615C88.6623 16.6556 88.6325 16.916 88.6223 17.1428C88.6118 17.3563 88.6333 17.4627 88.6866 17.462C89.0999 17.4564 89.5244 17.2906 89.96 16.9647C90.4089 16.6385 90.8559 16.1658 91.3009 15.5464L91.6601 16.9616C91.4747 17.0575 91.3027 17.1598 91.1442 17.2686C90.9855 17.3641 90.8404 17.4794 90.7089 17.6146C90.6696 17.6684 90.5773 17.743 90.4319 17.8383C90.2865 17.9337 90.141 18.0223 89.9954 18.1043C89.863 18.1728 89.7768 18.2073 89.7368 18.2078C89.7368 18.2078 89.7169 18.2147 89.6771 18.2286C89.6504 18.229 89.6375 18.2558 89.6382 18.3091C89.6385 18.3358 89.5526 18.3903 89.3804 18.4727C89.208 18.5417 89.0288 18.6041 88.8429 18.66C88.6569 18.7158 88.5306 18.7442 88.464 18.7451ZM134.147 20.6859C134.014 20.6878 133.927 20.6756 133.886 20.6495C133.86 20.6365 133.819 20.5837 133.764 20.4911C133.763 20.3978 133.782 20.3175 133.821 20.2503C133.873 20.1829 133.946 20.102 134.038 20.0074C134.169 19.8722 134.32 19.7035 134.491 19.5012C134.662 19.3122 134.819 19.1167 134.963 18.9147C135.12 18.7126 135.231 18.551 135.297 18.4302C135.348 18.2828 135.392 18.1088 135.429 17.9083C135.48 17.7076 135.53 17.4869 135.58 17.2462C135.579 17.1395 135.578 17.0462 135.577 16.9662C135.589 16.8727 135.621 16.7989 135.674 16.7449C135.766 16.6503 135.845 16.6092 135.912 16.6216C135.992 16.6339 136.06 16.713 136.115 16.8589C136.184 17.0047 136.234 17.224 136.264 17.5169C136.322 17.8095 136.325 18.0762 136.275 18.3169C136.225 18.5576 136.129 18.8522 135.987 19.2009C135.962 19.2945 135.877 19.4357 135.733 19.6243C135.589 19.813 135.444 19.9883 135.3 20.1503C135.155 20.3122 135.063 20.3935 135.023 20.394C134.97 20.3948 134.923 20.4087 134.884 20.4359C134.844 20.4765 134.798 20.5238 134.746 20.5778C134.693 20.6319 134.613 20.6596 134.507 20.6611C134.414 20.6757 134.294 20.684 134.147 20.6859ZM85.4337 43.9285C85.3667 43.9027 85.2658 43.8374 85.131 43.7326C84.9963 43.6277 84.8805 43.4493 84.7837 43.1972C84.6868 42.9319 84.6352 42.5659 84.6288 42.0992C84.6367 41.6991 84.6392 41.3857 84.6361 41.1591C84.6464 40.9322 84.5982 40.8195 84.4915 40.821C84.3848 40.8224 84.1796 40.9319 83.8759 41.1494C83.5853 41.3533 83.249 41.6312 82.8671 41.9831C82.4852 42.335 82.0971 42.727 81.7029 43.159C81.5716 43.3075 81.4402 43.4493 81.3087 43.5844C81.1903 43.706 81.0714 43.7876 80.952 43.8293C80.8323 43.8575 80.6917 43.8128 80.5301 43.695L80.3077 43.518C80.2401 43.4522 80.1992 43.3861 80.185 43.3196C80.1706 43.2398 80.1761 43.153 80.2014 43.0594L80.6435 41.7332C80.8503 41.2504 80.9923 40.9018 81.0694 40.6874C81.1463 40.4596 81.1844 40.3191 81.1837 40.2658C81.1828 40.1991 81.1624 40.1727 81.1226 40.1866C81.0161 40.2014 80.857 40.2702 80.6453 40.3931C80.4335 40.5026 80.2949 40.6112 80.2297 40.7188C80.1764 40.7195 80.0972 40.7806 79.9922 40.902C79.8872 41.0234 79.7554 41.1386 79.5968 41.2474C79.5057 41.4086 79.3218 41.6178 79.0453 41.8749C78.7821 42.1319 78.519 42.3954 78.2559 42.6657C78.0846 42.8147 77.9137 42.997 77.7433 43.2127C77.5862 43.4282 77.4488 43.6167 77.3309 43.7783C77.2264 43.9398 77.1542 44.0208 77.1142 44.0213C76.9409 44.0237 76.7803 43.9792 76.6324 43.8878C76.4978 43.7963 76.3957 43.6443 76.3261 43.4319C76.2164 43.2067 76.2122 42.8934 76.3134 42.492C76.4145 42.0773 76.5272 41.5424 76.6517 40.8873C76.7023 40.6866 76.7336 40.5395 76.7457 40.446C76.7578 40.3525 76.7765 40.2589 76.8019 40.1652C76.8404 40.058 76.8983 39.8972 76.9754 39.6828C77.0658 39.4682 77.2015 39.1463 77.3823 38.7172C77.4722 38.4626 77.523 38.2752 77.5347 38.1551C77.5596 38.0214 77.5716 37.9279 77.5709 37.8745C77.5691 37.7412 77.6009 37.6275 77.6663 37.5332C77.745 37.4388 77.8374 37.3709 77.9436 37.3294C78.0497 37.288 78.1496 37.28 78.2433 37.3054C78.3903 37.3301 78.5179 37.4017 78.6262 37.5202C78.7478 37.6386 78.8167 37.8043 78.833 38.0174C78.8485 38.1773 78.8371 38.3241 78.7989 38.458C78.7606 38.5785 78.7221 38.6923 78.6836 38.7995L78.4709 39.3425C78.4062 39.49 78.3225 39.7045 78.2196 39.9859C78.1167 40.2674 78.0269 40.5286 77.9502 40.7697C77.8733 40.9974 77.8351 41.1313 77.8356 41.1713C77.8495 41.2111 77.8961 41.2038 77.9753 41.1494C78.0544 41.0816 78.1533 40.9936 78.2718 40.8853C78.4035 40.7635 78.5353 40.6484 78.6672 40.5399C78.9435 40.2695 79.2534 40.0119 79.5968 39.7673C79.9533 39.5091 80.2904 39.2911 80.608 39.1135C80.9256 38.9358 81.1707 38.8192 81.3433 38.7635C81.57 38.7604 81.7238 38.7983 81.8049 38.8772C81.8993 38.956 82.0546 39.1005 82.2708 39.311C82.3654 39.403 82.4204 39.5223 82.4357 39.6688C82.451 39.8152 82.4462 39.9553 82.4214 40.089C82.4088 40.1425 82.3706 40.2764 82.3068 40.4906C82.2429 40.6915 82.1788 40.8857 82.1147 41.0732C82.0639 41.2606 82.0385 41.3543 82.0385 41.3543C82.0385 41.3543 82.1109 41.2866 82.2558 41.1513C82.4139 41.0158 82.5854 40.8735 82.77 40.7243C82.9545 40.5618 83.0929 40.4399 83.1851 40.3587C83.6996 39.9516 84.1495 39.6922 84.5347 39.5803C84.9199 39.4684 85.2351 39.6041 85.4803 39.9875C85.6423 40.132 85.7244 40.2909 85.7268 40.4642C85.7425 40.6373 85.7532 40.9372 85.759 41.3639C85.7747 41.537 85.7908 41.7435 85.8074 41.9833C85.824 42.2231 85.8403 42.4429 85.8563 42.6427C85.8855 42.8289 85.9137 42.9419 85.9409 42.9815C85.9816 43.0343 86.0556 43.08 86.1628 43.1185C86.2831 43.1436 86.4368 43.1682 86.6238 43.1923C86.8242 43.2163 86.9453 43.3013 86.9873 43.4474C87.0293 43.5935 86.9446 43.7347 86.7331 43.8709C86.5347 43.9936 86.3154 44.0499 86.0753 44.0398C85.8351 44.0297 85.6213 43.9926 85.4337 43.9285ZM87.3617 49.5629C87.0691 49.6202 86.8692 49.6296 86.762 49.591C86.6548 49.5525 86.5073 49.4878 86.3193 49.397C86.1712 49.2923 86.0568 49.2139 85.9761 49.1616C85.8954 49.1094 85.8547 49.0566 85.854 49.0033C85.8534 48.9633 85.8661 48.9164 85.8921 48.8627C85.9182 48.8224 85.9643 48.7818 86.0304 48.7409C86.11 48.7131 86.2165 48.6983 86.3498 48.6965C86.4439 48.7486 86.5976 48.7732 86.8109 48.7703C87.0375 48.7672 87.1772 48.7386 87.2298 48.6846C87.2298 48.6846 87.2892 48.6438 87.4081 48.5622C87.5405 48.4937 87.7131 48.438 87.9259 48.3951C88.3365 48.1895 88.6997 47.9313 89.0155 47.6203C89.3313 47.3093 89.6325 46.9052 89.9191 46.4079C90.0366 46.2196 90.1603 45.9979 90.2902 45.7428C90.4202 45.501 90.5103 45.2598 90.5604 45.0191C90.6634 44.751 90.7785 44.3894 90.9057 43.9343C91.0462 43.479 91.1668 43.0307 91.2675 42.5893C91.368 42.1346 91.4234 41.7938 91.4337 41.5669C91.5035 40.8193 91.6209 40.1309 91.7857 39.502C91.9637 38.8595 92.114 38.1441 92.2366 37.3557C92.3141 37.1679 92.3726 37.0605 92.4123 37.0333C92.4517 36.9927 92.5381 36.9715 92.6714 36.9697C92.8181 36.9678 92.9249 36.9796 92.992 37.0054C93.0721 37.0176 93.1599 37.0965 93.2552 37.2419C93.3919 37.4934 93.4427 37.7927 93.4074 38.1399C93.3852 38.4735 93.2892 38.7682 93.1193 39.0239C92.9885 39.2123 92.8725 39.5072 92.7713 39.9087C92.6832 40.2966 92.5965 40.7844 92.5111 41.3723C92.4484 41.6665 92.3798 42.0142 92.3052 42.4152C92.2438 42.8027 92.1764 43.237 92.1029 43.7181C92.0514 43.8521 91.9808 44.0598 91.8913 44.341C91.8016 44.6089 91.7445 44.823 91.72 44.9834C91.7074 45.0369 91.6688 45.1441 91.6043 45.305C91.5399 45.4659 91.4753 45.6201 91.4106 45.7676C91.3461 45.9285 91.3009 46.0358 91.275 46.0895C90.7696 47.1765 90.1876 48.0111 89.5287 48.5934C88.8699 49.1757 88.1476 49.4989 87.3617 49.5629ZM88.8029 43.7428C88.6563 43.7448 88.5019 43.6669 88.3397 43.5091C88.1909 43.3511 88.0892 43.2258 88.0346 43.1332C87.9794 43.0006 87.9111 42.8748 87.8294 42.7559C87.7478 42.637 87.6858 42.4912 87.6435 42.3184C87.6145 42.1454 87.6249 41.9319 87.6748 41.6779C87.7258 41.5039 87.7958 41.2562 87.8848 40.935C87.9869 40.6002 88.0953 40.2387 88.2101 39.8505C88.3382 39.462 88.4663 39.0803 88.5946 38.7052C88.736 38.3166 88.8647 37.9748 88.9807 37.6798C89.0966 37.3716 89.2002 37.1501 89.2918 37.0156C89.3703 36.9078 89.4561 36.84 89.549 36.8121C89.6553 36.7839 89.7621 36.7958 89.8695 36.8477C89.9767 36.8863 90.0712 36.9717 90.153 37.1039C90.3022 37.2886 90.3644 37.4477 90.3395 37.5814C90.3147 37.7151 90.1982 37.9767 89.9901 38.3662C89.9388 38.5136 89.8743 38.6745 89.7967 38.8489C89.7188 39.01 89.6803 39.1172 89.681 39.1705C89.668 39.1973 89.6426 39.291 89.6048 39.4515C89.5801 39.5986 89.5487 39.739 89.5105 39.8729C89.4723 40.0067 89.4332 40.0739 89.3932 40.0745C89.3406 40.1285 89.2827 40.2827 89.2195 40.5369C89.1561 40.7777 89.0998 41.0519 89.0506 41.3592C89.0013 41.6533 88.9715 41.9137 88.9612 42.1405C88.9508 42.354 88.9722 42.4604 89.0255 42.4597C89.4388 42.4541 89.8633 42.2883 90.2989 41.9624C90.7479 41.6362 91.1948 41.1635 91.6398 40.5441L91.999 41.9593C91.8136 42.0552 91.6417 42.1575 91.4831 42.2663C91.3244 42.3618 91.1793 42.4771 91.0478 42.6123C91.0085 42.6661 90.9162 42.7407 90.7708 42.836C90.6254 42.9314 90.4799 43.02 90.3344 43.102C90.2019 43.1705 90.1157 43.205 90.0757 43.2055C90.0757 43.2055 90.0558 43.2124 90.016 43.2263C89.9894 43.2267 89.9764 43.2535 89.9771 43.3068C89.9775 43.3335 89.8915 43.388 89.7193 43.4704C89.5469 43.5394 89.3677 43.6018 89.1818 43.6577C88.9959 43.7135 88.8696 43.7419 88.8029 43.7428ZM100.202 43.5883C100.054 43.4969 99.9192 43.3787 99.7972 43.2337C99.675 43.0754 99.6123 42.8762 99.6091 42.6362C99.6072 42.5029 99.6308 42.2759 99.6798 41.9552C99.7288 41.6345 99.7973 41.2735 99.8852 40.8723C99.9731 40.4711 100.061 40.0965 100.15 39.7486C100.28 39.5068 100.39 39.2653 100.48 39.0241C100.57 38.7828 100.615 38.6355 100.614 38.5822C100.639 38.4219 100.669 38.2348 100.707 38.0209C100.757 37.8069 100.808 37.6128 100.859 37.4388C100.91 37.2647 100.948 37.1642 100.975 37.1372C101.04 37.0696 101.12 37.0285 101.213 37.0139C101.306 36.986 101.399 36.9981 101.493 37.0501C101.601 37.0887 101.682 37.1743 101.737 37.3069C101.886 37.4649 101.962 37.6572 101.965 37.8838C101.968 38.0971 101.899 38.4181 101.758 38.8467C101.642 39.115 101.526 39.4299 101.411 39.7915C101.296 40.1531 101.193 40.4879 101.104 40.7958C101.028 41.0902 100.984 41.2908 100.972 41.3976L100.574 41.523C100.798 41.3066 101.008 41.0838 101.205 40.8544C101.402 40.6117 101.546 40.4231 101.637 40.2885C101.86 39.9788 102.05 39.7228 102.207 39.5207C102.377 39.305 102.594 39.0487 102.857 38.7518C103.119 38.4416 103.377 38.2514 103.629 38.1813C103.895 38.0977 104.101 38.0549 104.247 38.0529C104.541 38.1023 104.777 38.2524 104.954 38.5034C105.143 38.7408 105.268 39.0992 105.328 39.5784C105.331 39.765 105.314 39.9853 105.277 40.2391C105.254 40.4928 105.242 40.6196 105.242 40.6196C105.242 40.6196 105.347 40.4782 105.557 40.1953C105.779 39.9123 106.075 39.6016 106.444 39.2632C106.695 39.0731 106.94 38.9631 107.18 38.9332C107.419 38.89 107.633 38.9671 107.823 39.1645C108.172 39.3465 108.402 39.63 108.514 40.0152C108.626 40.3871 108.659 40.8667 108.614 41.454C108.579 41.8012 108.575 42.0613 108.604 42.2342C108.633 42.3938 108.675 42.5533 108.731 42.7125C108.838 42.7644 108.86 42.8775 108.796 43.0517C108.731 43.2126 108.652 43.2937 108.559 43.2949C108.425 43.2967 108.272 43.2722 108.098 43.2212C107.937 43.17 107.789 43.0853 107.654 42.9672C107.532 42.8355 107.47 42.6563 107.467 42.4297L107.45 41.1898C107.446 40.8965 107.43 40.6567 107.4 40.4704C107.385 40.2839 107.35 40.171 107.296 40.1318C107.148 40.0538 106.936 40.1433 106.659 40.4004C106.383 40.6575 106.087 41.0016 105.773 41.4325C105.459 41.8635 105.165 42.3075 104.891 42.7646C104.644 43.1813 104.487 43.4235 104.421 43.491C104.368 43.5451 104.268 43.5265 104.12 43.4351C103.826 43.3458 103.637 43.2216 103.555 43.0627C103.486 42.8903 103.477 42.6971 103.527 42.4831C103.591 42.2555 103.667 41.9478 103.755 41.5599C103.856 41.1718 103.951 40.7972 104.04 40.4359C104.128 40.0614 104.184 39.7939 104.209 39.6336C104.154 39.5276 104.06 39.4956 103.927 39.5374C103.808 39.5657 103.682 39.6274 103.55 39.7225C103.391 39.8313 103.201 40.0339 102.978 40.3303C102.755 40.6267 102.527 40.9698 102.292 41.3597C102.135 41.6152 101.972 41.8708 101.802 42.1264C101.632 42.3687 101.475 42.5842 101.331 42.7729C101.187 42.9615 101.062 43.1032 100.957 43.198C100.774 43.4938 100.65 43.6555 100.583 43.6831C100.517 43.7107 100.39 43.679 100.202 43.5883ZM111.842 44.1105C111.668 44.1128 111.528 44.0814 111.42 44.0162C111.326 43.9508 111.205 43.8591 111.056 43.7411C110.8 43.4779 110.616 43.227 110.506 42.9885C110.396 42.7366 110.36 42.4971 110.396 42.2699C110.435 42.1627 110.447 42.0626 110.432 41.9694C110.431 41.8627 110.43 41.8094 110.43 41.8094C110.363 41.7437 110.342 41.7039 110.369 41.6902C110.395 41.6632 110.421 41.6229 110.447 41.5692C110.527 41.5681 110.553 41.4944 110.524 41.3481C110.496 41.2418 110.546 41.0078 110.674 40.646C110.803 40.2842 110.965 39.942 111.161 39.6193C111.239 39.4849 111.356 39.31 111.514 39.0945C111.67 38.8657 111.841 38.6433 112.025 38.4275C112.221 38.1981 112.399 38.0157 112.557 37.8802C112.887 37.5957 113.177 37.3851 113.429 37.2484C113.68 37.1116 113.952 37.0079 114.245 36.9373C114.537 36.8666 114.736 36.8306 114.843 36.8291C114.963 36.8275 115.125 36.932 115.327 37.1426C115.636 37.2718 115.858 37.4288 115.994 37.6136C116.143 37.7983 116.24 38.0703 116.285 38.4297C116.33 38.8292 116.303 39.2896 116.204 39.811C116.117 40.3189 115.813 40.9564 115.29 41.7235C114.963 42.208 114.661 42.5721 114.384 42.8159C114.107 43.0463 113.777 43.2775 113.394 43.5094C113.116 43.6998 112.865 43.8433 112.639 43.9397C112.414 44.0227 112.148 44.0797 111.842 44.1105ZM113.733 41.9647C114.048 41.6004 114.296 41.257 114.479 40.9345C114.674 40.6118 114.856 40.2026 115.022 39.707C115.074 39.5596 115.104 39.3792 115.115 39.1657C115.125 38.9388 115.116 38.7323 115.086 38.546C115.07 38.3462 115.022 38.2335 114.942 38.2079C114.781 38.1168 114.587 38.0927 114.361 38.1358C114.135 38.1655 113.89 38.2955 113.626 38.5258C113.217 38.878 112.863 39.3162 112.564 39.8403C112.264 40.3511 111.972 40.9351 111.687 41.5924C111.494 42.075 111.453 42.4623 111.563 42.7541C111.687 43.0325 111.935 43.1291 112.307 43.0441C112.693 42.9455 113.168 42.5857 113.733 41.9647ZM119.605 43.5452C119.326 43.6023 119.146 43.6248 119.066 43.6125C118.999 43.5867 118.892 43.5082 118.743 43.3769C118.528 43.2731 118.346 43.1422 118.198 42.9842C118.062 42.826 117.96 42.6607 117.891 42.4883C117.835 42.3024 117.813 42.1494 117.825 42.0292C117.858 41.562 117.965 41.0605 118.144 40.5247C118.324 39.9889 118.543 39.4725 118.803 38.9756C119.063 38.4787 119.344 38.0549 119.646 37.7041C119.961 37.3398 120.265 37.1023 120.557 36.9917C120.822 36.8814 121.075 36.838 121.315 36.8614C121.555 36.8848 121.73 37.0091 121.84 37.2343C122.045 37.6182 122.002 37.8655 121.71 37.9761C121.67 37.9767 121.624 37.9973 121.571 38.038C121.518 38.0654 121.492 38.1058 121.493 38.1591C121.546 38.1851 121.693 38.1897 121.933 38.1731C122.172 38.1432 122.412 38.1 122.651 38.0434C122.904 37.9733 123.069 37.9044 123.148 37.8366C123.228 37.7956 123.288 37.7747 123.328 37.7742C123.368 37.7737 123.468 37.7856 123.628 37.8101C123.856 37.8737 123.97 37.9522 123.971 38.0455C123.972 38.0988 123.993 38.1519 124.033 38.2047C124.074 38.2441 124.121 38.2635 124.174 38.2628C124.268 38.2748 124.255 38.335 124.137 38.4433C124.031 38.5514 123.847 38.7006 123.583 38.8908C123.332 39.0543 123.173 39.1631 123.107 39.2173C123.054 39.258 123.049 39.3515 123.091 39.4976C123.201 39.7494 123.212 40.0426 123.123 40.3772C123.034 40.7118 122.872 41.054 122.637 41.4039C122.401 41.7538 122.112 42.0844 121.77 42.3957C121.441 42.6936 121.084 42.9518 120.7 43.1703C120.33 43.3754 119.965 43.5003 119.605 43.5452ZM119.254 42.6699C119.307 42.6692 119.4 42.6412 119.532 42.5861C119.665 42.5176 119.771 42.4628 119.85 42.4218C119.903 42.3677 119.969 42.3068 120.048 42.2391C120.14 42.1578 120.213 42.1102 120.266 42.0961C120.319 42.0954 120.386 42.0745 120.465 42.0334C120.544 41.979 120.656 41.8775 120.801 41.7288C120.945 41.5668 121.136 41.3309 121.371 41.021C121.634 40.7241 121.837 40.4547 121.98 40.2127C122.124 39.9574 122.16 39.7235 122.091 39.5111C122.077 39.458 122.036 39.4252 121.97 39.4128C121.916 39.4001 121.842 39.3678 121.748 39.3157C121.615 39.3176 121.488 39.2859 121.367 39.2209C121.259 39.1424 121.131 39.0441 120.983 38.9261L120.658 38.5305L120.322 38.875C120.112 39.0912 119.889 39.4143 119.655 39.8442C119.434 40.2605 119.247 40.6898 119.093 41.1319C118.938 41.5607 118.85 41.902 118.826 42.1556C118.816 42.3558 118.851 42.4887 118.932 42.5542C119.013 42.6198 119.12 42.6584 119.254 42.6699ZM129.811 44.5469C129.638 44.5893 129.491 44.5646 129.37 44.4729C129.262 44.3944 129.18 44.2754 129.125 44.1162C129.014 43.811 128.929 43.4788 128.871 43.1195C128.826 42.7468 128.815 42.4202 128.838 42.1399L128.872 41.7194L128.101 42.3499C127.653 42.756 127.217 43.0486 126.793 43.2277C126.382 43.4066 126.016 43.4983 125.696 43.5026C125.549 43.4779 125.402 43.4266 125.254 43.3486C125.106 43.2706 124.972 43.1724 124.85 43.054C124.742 42.9355 124.653 42.81 124.585 42.6776C124.502 42.492 124.472 42.2391 124.495 41.9188C124.53 41.5982 124.606 41.2505 124.72 40.8756C124.849 40.4872 125.003 40.1117 125.185 39.7492C125.38 39.3732 125.602 39.0435 125.852 38.7601C126.283 38.0875 126.751 37.6744 127.255 37.5209C127.76 37.3674 128.261 37.434 128.758 37.7206C129.107 37.8625 129.321 37.9263 129.401 37.9119C129.494 37.8973 129.572 37.7429 129.634 37.4487C129.685 37.2346 129.735 37.0206 129.786 36.8066C129.836 36.5792 129.919 36.278 130.034 35.9031C130.353 34.8854 130.629 34.0882 130.861 33.5117C131.107 32.935 131.327 32.4319 131.521 32.0026C131.663 31.694 131.781 31.5057 131.873 31.4378C131.979 31.3563 132.085 31.3215 132.192 31.3334C132.338 31.3314 132.472 31.383 132.594 31.488C132.715 31.593 132.811 31.7384 132.88 31.9242C132.935 32.0434 132.956 32.1498 132.944 32.2433C132.945 32.3233 132.907 32.4372 132.829 32.5849C132.66 32.9072 132.459 33.3367 132.226 33.8732C132.007 34.3962 131.781 34.9727 131.55 35.6025C131.331 36.2322 131.127 36.855 130.935 37.471C130.743 38.087 130.584 38.6292 130.457 39.0977C130.381 39.3921 130.313 39.7663 130.252 40.2205C130.205 40.6746 130.165 41.1418 130.131 41.6223C130.097 42.0895 130.076 42.5098 130.068 42.8833C130.073 43.2432 130.09 43.4764 130.118 43.5827C130.201 43.8482 130.237 44.0478 130.226 44.1813C130.228 44.3146 130.195 44.4017 130.129 44.4426C130.063 44.4968 129.957 44.5316 129.811 44.5469ZM126.401 42.373C126.587 42.3304 126.766 42.2547 126.938 42.1457C127.123 42.0365 127.315 41.9072 127.513 41.7578C127.908 41.4458 128.251 41.1611 128.541 40.9038C128.831 40.6465 129.019 40.2573 129.105 39.736C129.129 39.4824 129.099 39.2828 129.017 39.1372C128.948 38.9781 128.833 38.833 128.671 38.7018C128.51 38.5973 128.289 38.5603 128.01 38.5908C127.743 38.6077 127.465 38.7515 127.176 39.0221C126.86 39.3198 126.552 39.7173 126.252 40.2148C125.965 40.712 125.753 41.3216 125.616 42.0436C125.592 42.1772 125.633 42.2834 125.741 42.3619C125.848 42.4404 126.069 42.4441 126.401 42.373ZM136.322 45.6588C136.188 45.6606 136.102 45.6484 136.061 45.6223C136.034 45.6093 135.994 45.5565 135.939 45.4639C135.938 45.3706 135.957 45.2903 135.996 45.2231C136.048 45.1558 136.12 45.0748 136.212 44.9802C136.344 44.845 136.495 44.6763 136.666 44.474C136.836 44.285 136.994 44.0895 137.138 43.8875C137.295 43.6854 137.406 43.5239 137.471 43.403C137.523 43.2556 137.567 43.0816 137.604 42.8811C137.655 42.6804 137.705 42.4597 137.755 42.219C137.754 42.1123 137.752 42.019 137.751 41.939C137.763 41.8455 137.796 41.7717 137.848 41.7177C137.94 41.6231 138.02 41.582 138.087 41.5945C138.167 41.6067 138.235 41.6858 138.29 41.8317C138.359 41.9775 138.408 42.1968 138.439 42.4898C138.496 42.7823 138.5 43.049 138.45 43.2897C138.4 43.5304 138.304 43.825 138.162 44.1737C138.136 44.2674 138.052 44.4085 137.907 44.5972C137.763 44.7858 137.619 44.9611 137.475 45.1231C137.33 45.285 137.238 45.3663 137.198 45.3669C137.144 45.3676 137.098 45.3815 137.058 45.4087C137.019 45.4493 136.973 45.4966 136.92 45.5506C136.868 45.6047 136.788 45.6324 136.681 45.6339C136.588 45.6485 136.468 45.6568 136.322 45.6588ZM85.7726 68.9262C85.7056 68.9004 85.6047 68.8351 85.47 68.7303C85.3352 68.6254 85.2194 68.447 85.1227 68.1949C85.0257 67.9296 84.9741 67.5636 84.9678 67.0969C84.9757 66.6968 84.9781 66.3834 84.975 66.1568C84.9853 65.9299 84.9371 65.8172 84.8304 65.8187C84.7238 65.8201 84.5186 65.9296 84.2148 66.1471C83.9242 66.351 83.588 66.6289 83.206 66.9808C82.8241 67.3327 82.4361 67.7247 82.0419 68.1567C81.9105 68.3052 81.7791 68.447 81.6476 68.5821C81.5292 68.7037 81.4103 68.7853 81.2909 68.827C81.1713 68.8552 81.0306 68.8105 80.869 68.6927L80.6466 68.5157C80.579 68.4499 80.5381 68.3838 80.5239 68.3173C80.5095 68.2375 80.515 68.1507 80.5404 68.0571L80.9824 66.7309C81.1893 66.2481 81.3312 65.8995 81.4083 65.6851C81.4852 65.4573 81.5233 65.3168 81.5226 65.2635C81.5217 65.1968 81.5013 65.1704 81.4615 65.1843C81.355 65.1991 81.196 65.2679 80.9843 65.3908C80.7724 65.5003 80.6339 65.6089 80.5687 65.7165C80.5153 65.7172 80.4361 65.7783 80.3311 65.8997C80.2261 66.0211 80.0943 66.1363 79.9358 66.2451C79.8446 66.4063 79.6608 66.6155 79.3842 66.8726C79.121 67.1296 78.8579 67.3931 78.5949 67.6634C78.4235 67.8124 78.2527 67.9947 78.0822 68.2104C77.9251 68.4259 77.7877 68.6144 77.6699 68.776C77.5654 68.9375 77.4931 69.0185 77.4531 69.019C77.2798 69.0214 77.1192 68.9769 76.9713 68.8855C76.8367 68.794 76.7346 68.642 76.6651 68.4296C76.5553 68.2044 76.5511 67.8911 76.6523 67.4897C76.7534 67.075 76.8661 66.5401 76.9906 65.885C77.0412 65.6843 77.0726 65.5372 77.0846 65.4437C77.0967 65.3502 77.1154 65.2566 77.1408 65.1629C77.1794 65.0557 77.2372 64.8949 77.3143 64.6805C77.4047 64.4659 77.5404 64.144 77.7213 63.7149C77.8111 63.4603 77.8619 63.2729 77.8736 63.1528C77.8985 63.0191 77.9106 62.9256 77.9098 62.8722C77.908 62.7389 77.9398 62.6252 78.0052 62.5309C78.084 62.4365 78.1764 62.3686 78.2825 62.3271C78.3886 62.2857 78.4885 62.2777 78.5822 62.3031C78.7292 62.3278 78.8569 62.3994 78.9651 62.5179C79.0868 62.6363 79.1557 62.802 79.1719 63.0151C79.1874 63.175 79.1761 63.3218 79.1379 63.4557C79.0995 63.5762 79.061 63.69 79.0225 63.7972L78.8098 64.3402C78.7452 64.4877 78.6614 64.7022 78.5585 64.9836C78.4557 65.2651 78.3659 65.5263 78.2891 65.7674C78.2122 65.9951 78.174 66.129 78.1746 66.169C78.1884 66.2088 78.235 66.2015 78.3143 66.1471C78.3934 66.0793 78.4922 65.9913 78.6107 65.883C78.7424 65.7612 78.8742 65.6461 79.0061 65.5376C79.2824 65.2672 79.5923 65.0096 79.9357 64.765C80.2922 64.5068 80.6293 64.2888 80.9469 64.1112C81.2645 63.9335 81.5097 63.8169 81.6822 63.7612C81.9089 63.7581 82.0628 63.796 82.1438 63.8749C82.2382 63.9537 82.3935 64.0982 82.6098 64.3087C82.7043 64.4007 82.7593 64.52 82.7746 64.6665C82.7899 64.8129 82.7852 64.953 82.7603 65.0867C82.7477 65.1402 82.7095 65.2741 82.6458 65.4883C82.5818 65.6892 82.5178 65.8834 82.4536 66.0709C82.4028 66.2583 82.3774 66.352 82.3774 66.352C82.3774 66.352 82.4499 66.2843 82.5947 66.149C82.7529 66.0135 82.9243 65.8712 83.109 65.722C83.2934 65.5595 83.4318 65.4376 83.524 65.3564C84.0386 64.9493 84.4884 64.6899 84.8736 64.578C85.2588 64.4661 85.574 64.6018 85.8192 64.9852C85.9812 65.1297 86.0634 65.2886 86.0657 65.4619C86.0814 65.635 86.0921 65.9349 86.0979 66.3616C86.1136 66.5347 86.1297 66.7412 86.1463 66.981C86.1629 67.2208 86.1792 67.4406 86.1953 67.6404C86.2244 67.8266 86.2526 67.9396 86.2799 67.9792C86.3206 68.032 86.3945 68.0777 86.5017 68.1162C86.6221 68.1413 86.7758 68.1659 86.9628 68.19C87.1631 68.214 87.2843 68.299 87.3263 68.4451C87.3683 68.5912 87.2835 68.7324 87.072 68.8686C86.8736 68.9913 86.6544 69.0476 86.4142 69.0375C86.1741 69.0274 85.9602 68.9903 85.7726 68.9262ZM87.7006 74.5606C87.408 74.6179 87.2081 74.6273 87.1009 74.5887C86.9937 74.5502 86.8462 74.4855 86.6583 74.3947C86.5102 74.29 86.3958 74.2116 86.3151 74.1593C86.2343 74.1071 86.1936 74.0543 86.1929 74.001C86.1924 73.961 86.205 73.9141 86.231 73.8604C86.2571 73.8201 86.3032 73.7795 86.3694 73.7386C86.449 73.7108 86.5555 73.696 86.6888 73.6942C86.7828 73.7463 86.9365 73.7709 87.1498 73.768C87.3765 73.7649 87.5161 73.7363 87.5687 73.6823C87.5687 73.6823 87.6282 73.6415 87.7471 73.5599C87.8795 73.4914 88.0521 73.4357 88.2648 73.3928C88.6754 73.1872 89.0386 72.929 89.3544 72.618C89.6702 72.307 89.9715 71.9029 90.2581 71.4056C90.3755 71.2173 90.4992 70.9956 90.6291 70.7405C90.7592 70.4987 90.8492 70.2575 90.8993 70.0168C91.0024 69.7487 91.1175 69.3871 91.2446 68.932C91.3851 68.4767 91.5057 68.0284 91.6064 67.587C91.7069 67.1323 91.7623 66.7915 91.7726 66.5646C91.8425 65.817 91.9598 65.1286 92.1246 64.4997C92.3026 63.8572 92.4529 63.1418 92.5756 62.3534C92.653 62.1656 92.7116 62.0582 92.7512 62.031C92.7907 61.9904 92.8771 61.9692 93.0104 61.9674C93.157 61.9655 93.2639 61.9773 93.3309 62.0031C93.4111 62.0153 93.4988 62.0942 93.5941 62.2396C93.7309 62.4911 93.7816 62.7904 93.7463 63.1376C93.7242 63.4712 93.6281 63.7659 93.4583 64.0216C93.3275 64.21 93.2115 64.5049 93.1102 64.9064C93.0221 65.2943 92.9354 65.7821 92.85 66.37C92.7874 66.6642 92.7187 67.0119 92.6442 67.4129C92.5828 67.8004 92.5153 68.2347 92.4418 68.7158C92.3903 68.8498 92.3198 69.0575 92.2302 69.3387C92.1405 69.6066 92.0834 69.8207 92.0589 69.9811C92.0463 70.0346 92.0078 70.1418 91.9433 70.3027C91.8788 70.4636 91.8142 70.6178 91.7495 70.7653C91.685 70.9262 91.6398 71.0335 91.6139 71.0872C91.1086 72.1742 90.5265 73.0088 89.8677 73.5911C89.2088 74.1734 88.4865 74.4966 87.7006 74.5606ZM89.1418 68.7405C88.9952 68.7425 88.8408 68.6646 88.6786 68.5068C88.5298 68.3488 88.4281 68.2235 88.3735 68.1309C88.3184 67.9983 88.25 67.8725 88.1684 67.7536C88.0868 67.6347 88.0248 67.4889 87.9824 67.3161C87.9534 67.1431 87.9639 66.9296 88.0137 66.6756C88.0647 66.5016 88.1347 66.2539 88.2237 65.9327C88.3258 65.598 88.4343 65.2364 88.549 64.8482C88.6771 64.4598 88.8053 64.078 88.9335 63.7029C89.0749 63.3143 89.2037 62.9725 89.3197 62.6775C89.4355 62.3693 89.5392 62.1479 89.6307 62.0133C89.7092 61.9055 89.795 61.8377 89.888 61.8098C89.9942 61.7816 90.1011 61.7935 90.2085 61.8454C90.3157 61.884 90.4102 61.9694 90.492 62.1016C90.6411 62.2863 90.7033 62.4454 90.6785 62.5791C90.6536 62.7128 90.5371 62.9744 90.3291 63.3639C90.2777 63.5113 90.2132 63.6722 90.1356 63.8466C90.0578 64.0077 90.0192 64.1149 90.0199 64.1682C90.007 64.195 89.9816 64.2887 89.9437 64.4492C89.9191 64.5963 89.8876 64.7367 89.8494 64.8706C89.8113 65.0044 89.7722 65.0716 89.7322 65.0722C89.6796 65.1262 89.6216 65.2804 89.5584 65.5346C89.495 65.7754 89.4387 66.0496 89.3896 66.3569C89.3402 66.651 89.3104 66.9114 89.3001 67.1382C89.2897 67.3517 89.3111 67.4581 89.3645 67.4574C89.7778 67.4518 90.2022 67.286 90.6378 66.9601C91.0868 66.6339 91.5338 66.1612 91.9787 65.5418L92.338 66.957C92.1526 67.0529 91.9806 67.1552 91.8221 67.264C91.6634 67.3595 91.5182 67.4748 91.3867 67.61C91.3475 67.6638 91.2551 67.7384 91.1097 67.8337C90.9643 67.9291 90.8189 68.0177 90.6733 68.0997C90.5409 68.1682 90.4547 68.2027 90.4147 68.2032C90.4147 68.2032 90.3948 68.2101 90.355 68.224C90.3283 68.2244 90.3153 68.2512 90.316 68.3046C90.3164 68.3312 90.2305 68.3857 90.0582 68.4681C89.8858 68.5371 89.7067 68.5995 89.5207 68.6554C89.3348 68.7112 89.2085 68.7396 89.1418 68.7405ZM105.406 68.92C105.299 68.9348 105.159 68.8767 104.984 68.7457C104.808 68.6148 104.64 68.4637 104.477 68.2926C104.355 68.1075 104.251 67.8023 104.165 67.3767C104.092 66.951 104.04 66.5117 104.007 66.0587C103.628 66.6506 103.288 67.1352 102.987 67.5127C102.685 67.8902 102.409 68.1873 102.159 68.404C101.921 68.6072 101.697 68.7436 101.484 68.8132C101.365 68.8548 101.265 68.8562 101.184 68.8173C101.103 68.765 101.036 68.6926 100.981 68.6C100.927 68.5074 100.865 68.3615 100.795 68.1625C100.739 67.9499 100.716 67.7302 100.726 67.5033C100.696 67.2237 100.665 66.9041 100.633 66.5445C100.615 66.1847 100.597 65.8316 100.579 65.4852C100.574 65.1252 100.576 64.8051 100.586 64.525C100.595 64.2448 100.62 64.0578 100.658 63.9639C100.644 63.9108 100.637 63.8576 100.636 63.8042C100.635 63.7509 100.635 63.7242 100.635 63.7242C100.594 63.6581 100.572 63.5117 100.569 63.2851C100.579 63.0449 100.603 62.8113 100.64 62.5841C100.677 62.3569 100.708 62.2164 100.734 62.1627C100.76 62.1091 100.793 62.0686 100.832 62.0414C100.885 62.014 100.945 61.9932 101.011 61.979C101.212 62.0163 101.32 62.0948 101.335 62.2146C101.375 62.2407 101.416 62.2802 101.456 62.333C101.497 62.3724 101.544 62.3851 101.597 62.3711C101.637 62.3972 101.665 62.5168 101.682 62.73C101.711 62.9429 101.728 63.1894 101.732 63.4693C101.72 63.6028 101.722 63.7295 101.737 63.8493C101.752 63.9691 101.747 64.0759 101.721 64.1695C101.722 64.2362 101.731 64.3828 101.747 64.6092C101.763 64.8224 101.78 65.0422 101.796 65.2686C101.798 65.4419 101.795 65.6754 101.786 65.9688C101.776 66.249 101.773 66.4824 101.775 66.669C101.819 66.9351 101.854 67.108 101.882 67.1876C101.923 67.2538 101.983 67.2596 102.062 67.2052C102.142 67.1775 102.28 67.0022 102.475 66.6796C102.684 66.3567 102.925 65.9534 103.199 65.4696C103.408 65.1468 103.584 64.871 103.728 64.6424C103.885 64.4002 104.015 64.2118 104.12 64.077C104.156 63.7565 104.192 63.4693 104.228 63.2155C104.278 62.9614 104.309 62.781 104.321 62.6742C104.505 62.485 104.67 62.3761 104.817 62.3474C104.963 62.3054 105.084 62.3771 105.18 62.5625C105.314 62.614 105.395 62.6996 105.423 62.8192C105.465 62.9253 105.473 63.0519 105.448 63.1989C105.398 63.3863 105.347 63.567 105.296 63.741C105.258 63.9149 105.214 64.0955 105.163 64.2829C105.112 64.4703 105.076 64.7708 105.055 65.1844C105.048 65.5979 105.053 66.0112 105.072 66.4243C105.091 66.8241 105.128 67.1236 105.184 67.3229C105.199 67.4427 105.267 67.5018 105.387 67.5002C105.52 67.485 105.685 67.3894 105.883 67.2134C106.08 66.9974 106.296 66.7278 106.532 66.4045C106.781 66.0678 106.99 65.7583 107.159 65.4759C107.342 65.1934 107.433 65.0189 107.432 64.9522C107.431 64.8455 107.456 64.7318 107.508 64.6111C107.559 64.4771 107.625 64.3762 107.704 64.3085C107.769 64.2276 107.808 64.147 107.82 64.0668C107.832 63.9733 107.858 63.8797 107.897 63.7858C107.91 63.7589 107.929 63.7187 107.955 63.665C107.981 63.6113 108 63.5577 108.013 63.5042C107.971 63.4114 107.997 63.3311 108.089 63.2631C108.195 63.1817 108.261 63.1008 108.286 63.0204C108.311 62.8468 108.382 62.7458 108.502 62.7175C108.635 62.6757 108.762 62.7006 108.883 62.7923C109.018 62.8705 109.093 62.9962 109.108 63.1693C109.11 63.3293 109.06 63.5633 108.958 63.8714C108.869 64.1793 108.74 64.5078 108.571 64.8567C108.416 65.2055 108.24 65.5213 108.044 65.804C107.992 65.9114 107.94 66.0187 107.888 66.1261C107.85 66.2333 107.778 66.3743 107.674 66.5491C107.57 66.7238 107.386 66.9797 107.124 67.3166C107.046 67.4243 106.954 67.5389 106.849 67.6603C106.757 67.7683 106.658 67.8696 106.553 67.9644C106.33 68.2608 106.127 68.4902 105.942 68.6527C105.771 68.8151 105.592 68.9042 105.406 68.92ZM111.321 69.1199C111.148 69.1222 111.007 69.0908 110.9 69.0256C110.806 68.9602 110.684 68.8685 110.536 68.7505C110.279 68.4873 110.096 68.2364 109.986 67.9979C109.876 67.746 109.839 67.5065 109.876 67.2793C109.915 67.1721 109.927 67.0719 109.912 66.9788C109.911 66.8721 109.91 66.8188 109.91 66.8188C109.842 66.753 109.822 66.7133 109.848 66.6996C109.875 66.6726 109.901 66.6322 109.927 66.5785C110.007 66.5774 110.032 66.5038 110.004 66.3575C109.976 66.2512 110.026 66.0171 110.154 65.6554C110.283 65.2936 110.445 64.9514 110.64 64.6287C110.718 64.4943 110.836 64.3193 110.993 64.1038C111.15 63.875 111.32 63.6527 111.504 63.4368C111.701 63.2075 111.879 63.0251 112.037 62.8896C112.366 62.6051 112.657 62.3945 112.908 62.2577C113.16 62.1209 113.432 62.0173 113.724 61.9466C114.017 61.876 114.216 61.8399 114.323 61.8385C114.443 61.8369 114.604 61.9413 114.807 62.152C115.116 62.2811 115.338 62.4381 115.474 62.623C115.623 62.8076 115.72 63.0797 115.765 63.4391C115.81 63.8385 115.783 64.2989 115.683 64.8203C115.597 65.3282 115.292 65.9657 114.769 66.7329C114.442 67.2174 114.141 67.5815 113.864 67.8253C113.587 68.0557 113.257 68.2869 112.873 68.5188C112.596 68.7092 112.344 68.8526 112.119 68.949C111.893 69.0321 111.627 69.089 111.321 69.1199ZM113.212 66.974C113.527 66.6097 113.776 66.2663 113.958 65.9438C114.154 65.6211 114.335 65.212 114.502 64.7163C114.553 64.5689 114.584 64.3885 114.594 64.175C114.605 63.9482 114.595 63.7416 114.566 63.5553C114.55 63.3555 114.502 63.2429 114.421 63.2173C114.26 63.1261 114.067 63.1021 113.84 63.1451C113.614 63.1749 113.369 63.3049 113.106 63.5351C112.697 63.8874 112.343 64.3256 112.043 64.8497C111.744 65.3604 111.452 65.9445 111.167 66.6017C110.974 67.0844 110.932 67.4716 111.043 67.7635C111.167 68.0418 111.415 68.1385 111.787 68.0534C112.172 67.9549 112.647 67.5951 113.212 66.974ZM117.366 68.6379C117.245 68.5462 117.157 68.454 117.102 68.3614C117.061 68.2686 117.059 68.0886 117.095 67.8215C117.13 67.4476 117.179 67.1203 117.242 66.8394C117.304 66.5452 117.38 66.2108 117.468 65.8362C117.493 65.6759 117.562 65.4016 117.677 65.0133C117.805 64.6249 117.959 64.2027 118.14 63.7469C118.32 63.2911 118.501 62.8619 118.682 62.4594C118.863 62.0436 119.019 61.7348 119.15 61.533C119.255 61.4516 119.382 61.4165 119.528 61.4279C119.689 61.439 119.823 61.4972 119.931 61.6024C120.079 61.7204 120.102 61.9335 120 62.2416C119.91 62.5361 119.717 63.0055 119.419 63.6496C119.263 64.0117 119.147 64.2866 119.07 64.4744C118.992 64.6488 118.96 64.7559 118.974 64.7957C118.988 64.8222 119.047 64.8014 119.153 64.7333C119.231 64.5855 119.376 64.4169 119.586 64.2273C119.797 64.0245 120.021 63.8281 120.258 63.6382C120.496 63.4483 120.72 63.2786 120.932 63.129C121.143 62.9795 121.288 62.8841 121.368 62.8431C121.474 62.775 121.593 62.72 121.726 62.6782C121.872 62.6229 121.971 62.5815 122.024 62.5541C122.329 62.4033 122.641 62.3458 122.962 62.3814C123.282 62.4171 123.484 62.5344 123.567 62.7332C123.581 62.8397 123.622 62.9192 123.69 62.9716C123.77 63.0238 123.811 63.05 123.811 63.05C123.864 63.0492 123.891 63.0689 123.892 63.1089C123.906 63.1487 123.912 63.1686 123.912 63.1686C123.914 63.2619 123.841 63.3229 123.695 63.3516C123.562 63.3667 123.389 63.3824 123.176 63.3986C123.002 63.4143 122.85 63.4497 122.717 63.5048C122.584 63.56 122.425 63.6288 122.24 63.7113C121.737 64.0115 121.254 64.3047 120.791 64.591C120.342 64.8772 119.907 65.2564 119.487 65.7288C119.395 65.8368 119.303 65.9647 119.212 66.1126C119.121 66.2605 119.023 66.4219 118.918 66.5966C118.853 66.6642 118.788 66.8117 118.724 67.0393C118.661 67.2668 118.604 67.4876 118.553 67.7017C118.516 67.9022 118.498 68.0225 118.498 68.0625C118.498 68.0625 118.479 68.1294 118.441 68.2632C118.403 68.3838 118.338 68.5047 118.246 68.6259C118.089 68.8414 117.957 68.9499 117.85 68.9513C117.744 68.9528 117.582 68.8483 117.366 68.6379ZM124.509 68.301C124.375 68.2228 124.274 68.1442 124.206 68.0651C124.138 67.986 124.103 67.8731 124.101 67.7265C124.099 67.5265 124.122 67.3195 124.173 67.1054C124.223 66.8781 124.273 66.6574 124.324 66.4433C124.347 66.203 124.377 65.9626 124.414 65.722C124.464 65.468 124.554 65.2334 124.685 65.0183C124.824 64.5097 124.971 64.0077 125.124 63.5122C125.277 63.0034 125.41 62.4816 125.523 61.9467C125.69 61.451 125.837 61.0156 125.965 60.6405C126.107 60.2519 126.28 59.7629 126.486 59.1733C126.601 58.8384 126.696 58.4838 126.771 58.1094C126.859 57.7215 126.995 57.3729 127.177 57.0638C127.255 56.9427 127.314 56.8419 127.353 56.7614C127.405 56.6673 127.457 56.5799 127.509 56.4992C127.522 56.4457 127.562 56.4118 127.628 56.3976C127.708 56.3832 127.795 56.3887 127.888 56.4141C127.982 56.4395 128.056 56.4851 128.11 56.5511C128.15 56.5372 128.197 56.5766 128.252 56.6692C128.32 56.7483 128.381 56.8408 128.436 56.9467C128.49 57.0526 128.512 57.1457 128.499 57.2259C128.5 57.2792 128.488 57.3527 128.462 57.4464C128.45 57.5399 128.418 57.627 128.366 57.7077C128.313 57.7618 128.261 57.8425 128.209 57.9499C128.17 58.0437 128.106 58.178 128.015 58.3525C127.964 58.5266 127.919 58.7072 127.882 58.8944C127.844 59.0683 127.793 59.229 127.728 59.3765C127.677 59.5372 127.613 59.6914 127.535 59.8392C127.47 59.9867 127.425 60.1074 127.4 60.2011C127.31 60.509 127.201 60.8105 127.072 61.1056C126.956 61.4005 126.853 61.7153 126.765 62.0498C126.676 62.3711 126.587 62.7056 126.498 63.0535C126.409 63.3881 126.28 63.7099 126.111 64.0189C126.02 64.1668 125.956 64.3543 125.919 64.5815C125.882 64.8087 125.845 65.0359 125.808 65.2631C125.731 65.5042 125.661 65.7318 125.597 65.946C125.547 66.1467 125.522 66.2737 125.522 66.3271C125.446 66.6215 125.39 66.9156 125.354 67.2094C125.332 67.4898 125.268 67.7373 125.164 67.9521C125.153 68.0856 125.128 68.1926 125.089 68.2731C125.05 68.3537 124.984 68.4012 124.891 68.4158C124.797 68.4171 124.67 68.3788 124.509 68.301ZM132.039 69.079C131.893 69.1343 131.787 69.1557 131.72 69.1433C131.666 69.1174 131.525 69.0193 131.296 68.849C131.201 68.6903 131.139 68.5511 131.11 68.4315C131.095 68.2984 131.085 68.0651 131.081 67.7318C131.105 67.5315 131.154 67.2441 131.229 66.8697C131.318 66.4952 131.419 66.1004 131.533 65.6855C131.648 65.2706 131.749 64.8958 131.838 64.5613C131.94 64.2265 132.017 63.9988 132.069 63.8781C132.158 63.5569 132.175 63.3633 132.121 63.2973C132.066 63.2181 131.906 63.1669 131.639 63.1438C131.105 63.0844 130.627 63.2642 130.206 63.6833C129.785 64.1024 129.366 64.6481 128.948 65.3205C128.635 65.8182 128.447 66.2474 128.385 66.6083C128.337 66.9556 128.333 67.1957 128.375 67.3285C128.417 67.4346 128.511 67.4933 128.658 67.5047C128.804 67.5027 128.964 67.4672 129.136 67.3982C129.322 67.329 129.481 67.2601 129.613 67.1917C129.706 67.1371 129.819 67.0822 129.951 67.0271C130.097 66.9584 130.236 66.8965 130.369 66.8414C130.449 66.8403 130.502 66.8663 130.53 66.9192C130.57 66.9587 130.592 67.0451 130.593 67.1784C130.594 67.2317 130.615 67.2781 130.655 67.3176C130.696 67.357 130.743 67.3897 130.797 67.4157C130.851 67.4683 130.772 67.5893 130.562 67.7789C130.364 67.9682 130.054 68.1858 129.63 68.4316C129.232 68.5303 128.906 68.5814 128.652 68.5848C128.412 68.5881 128.178 68.5046 127.949 68.3344C127.572 68.1128 127.354 67.749 127.294 67.2431C127.247 66.7237 127.345 66.089 127.588 65.339C127.833 64.7356 128.107 64.2452 128.408 63.8677C128.71 63.4769 129.031 63.0992 129.373 62.7345C129.426 62.6805 129.545 62.5989 129.73 62.4897C129.928 62.367 130.173 62.257 130.465 62.1597C130.797 62.0485 131.11 61.9776 131.403 61.9469C131.695 61.9163 131.95 61.9729 132.165 62.1166C132.406 62.1667 132.559 62.158 132.625 62.0904C132.69 62.0095 132.8 61.768 132.955 61.3658C133.212 60.6956 133.463 60.0188 133.707 59.3355C133.951 58.6388 134.215 57.9351 134.499 57.2245C134.629 56.9694 134.706 56.775 134.731 56.6413C134.769 56.4941 134.814 56.3935 134.867 56.3395L135.247 56.3343C135.3 56.3336 135.394 56.379 135.529 56.4705C135.663 56.562 135.758 56.6874 135.814 56.8467C135.815 56.9667 135.766 57.234 135.665 57.6488C135.563 58.0502 135.397 58.5325 135.164 59.0957C134.958 59.5919 134.751 60.0947 134.545 60.6042C134.351 61.1002 134.165 61.6295 133.986 62.1919C133.845 62.6072 133.716 62.9423 133.6 63.1973C133.483 63.4522 133.406 63.6733 133.369 63.8605C133.293 64.2082 133.198 64.5228 133.081 64.8044C132.978 65.0725 132.908 65.2602 132.869 65.3674C132.703 65.8763 132.568 66.2915 132.466 66.613C132.363 66.921 132.287 67.1821 132.236 67.3961C132.186 67.5968 132.155 67.8039 132.145 68.0174C132.148 68.2174 132.171 68.4571 132.215 68.7366C132.215 68.7899 132.209 68.8433 132.197 68.8968C132.184 68.9503 132.132 69.011 132.039 69.079Z" fill="black"/>
<path d="M99.8631 18.5906C99.7152 18.4992 99.5802 18.381 99.4582 18.236C99.3361 18.0776 99.2734 17.8785 99.2701 17.6385C99.2683 17.5052 99.2919 17.2782 99.3409 16.9575C99.3899 16.6368 99.4583 16.2758 99.5462 15.8746C99.6341 15.4734 99.7224 15.0988 99.811 14.7509C99.9411 14.5091 100.051 14.2676 100.141 14.0264C100.231 13.7851 100.276 13.6378 100.275 13.5845C100.3 13.4242 100.331 13.2371 100.368 13.0232C100.418 12.8092 100.469 12.6151 100.52 12.4411C100.571 12.267 100.609 12.1665 100.636 12.1395C100.701 12.0719 100.781 12.0308 100.874 12.0162C100.967 11.9883 101.061 12.0004 101.155 12.0524C101.262 12.091 101.343 12.1766 101.398 12.3092C101.547 12.4672 101.623 12.6595 101.626 12.8861C101.629 13.0994 101.56 13.4204 101.419 13.849C101.303 14.1173 101.187 14.4322 101.072 14.7938C100.957 15.1554 100.854 15.4902 100.765 15.7981C100.689 16.0925 100.645 16.2931 100.633 16.3999L100.235 16.5253C100.459 16.3089 100.669 16.0861 100.866 15.8567C101.063 15.614 101.207 15.4254 101.298 15.2908C101.521 14.9811 101.711 14.7251 101.868 14.523C102.039 14.3073 102.255 14.051 102.518 13.7541C102.78 13.4439 103.038 13.2537 103.29 13.1836C103.556 13.1 103.762 13.0572 103.908 13.0552C104.202 13.1046 104.438 13.2547 104.615 13.5057C104.804 13.7431 104.929 14.1015 104.989 14.5807C104.992 14.7673 104.975 14.9876 104.938 15.2414C104.915 15.4951 104.903 15.6219 104.903 15.6219C104.903 15.6219 105.008 15.4805 105.218 15.1976C105.44 14.9146 105.736 14.6039 106.105 14.2655C106.356 14.0754 106.601 13.9654 106.841 13.9355C107.08 13.8923 107.294 13.9694 107.484 14.1668C107.833 14.3488 108.064 14.6323 108.175 15.0175C108.287 15.3894 108.32 15.869 108.275 16.4563C108.24 16.8035 108.236 17.0636 108.265 17.2365C108.294 17.3961 108.336 17.5556 108.392 17.7148C108.499 17.7667 108.521 17.8798 108.457 18.054C108.392 18.2149 108.313 18.296 108.22 18.2972C108.087 18.299 107.933 18.2745 107.759 18.2235C107.598 18.1723 107.45 18.0876 107.315 17.9695C107.194 17.8378 107.131 17.6586 107.128 17.432L107.111 16.1921C107.107 15.8988 107.091 15.659 107.061 15.4727C107.046 15.2862 107.011 15.1733 106.957 15.1341C106.809 15.0561 106.597 15.1456 106.32 15.4027C106.044 15.6598 105.749 16.0039 105.434 16.4348C105.12 16.8658 104.826 17.3098 104.552 17.7669C104.305 18.1836 104.148 18.4258 104.082 18.4933C104.03 18.5474 103.929 18.5288 103.781 18.4374C103.487 18.3481 103.298 18.2239 103.216 18.065C103.147 17.8926 103.138 17.6994 103.188 17.4854C103.252 17.2578 103.328 16.9501 103.416 16.5622C103.517 16.1741 103.612 15.7995 103.701 15.4382C103.789 15.0637 103.845 14.7962 103.87 14.6359C103.815 14.5299 103.721 14.4979 103.589 14.5397C103.469 14.568 103.343 14.6297 103.211 14.7248C103.052 14.8336 102.862 15.0362 102.639 15.3326C102.417 15.629 102.188 15.9721 101.953 16.362C101.797 16.6175 101.633 16.8731 101.463 17.1287C101.293 17.371 101.136 17.5865 100.992 17.7752C100.848 17.9638 100.723 18.1055 100.618 18.2003C100.435 18.4961 100.311 18.6578 100.244 18.6854C100.178 18.713 100.051 18.6813 99.8631 18.5906ZM114.906 19.3267C114.771 19.1952 114.635 19.017 114.499 18.7922C114.362 18.554 114.252 18.2821 114.167 17.9766C114.139 17.8703 114.124 17.7238 114.122 17.5371C114.132 17.3503 114.131 17.217 114.116 17.1372C114.077 17.2311 114.012 17.3319 113.92 17.4399C113.841 17.5343 113.763 17.6154 113.683 17.6831C113.631 17.7372 113.512 17.8454 113.328 18.008C113.143 18.1571 112.958 18.2797 112.773 18.3755C112.337 18.6615 111.972 18.8197 111.679 18.8504C111.399 18.8808 111.131 18.7378 110.873 18.4213C110.658 18.2508 110.502 18.0596 110.405 17.8476C110.323 17.6353 110.319 17.342 110.393 16.9676C110.414 16.5007 110.474 16.0465 110.575 15.6051C110.676 15.1503 110.887 14.5474 111.211 13.7963C111.483 13.2459 111.691 12.843 111.834 12.5877C111.977 12.3191 112.068 12.1578 112.108 12.104C112.307 12.0346 112.473 12.039 112.608 12.1172C112.742 12.182 112.824 12.3076 112.853 12.4939C112.935 12.6261 112.925 12.8529 112.822 13.1744C112.733 13.4956 112.572 13.8912 112.338 14.361C112.158 14.8169 111.991 15.2725 111.837 15.728C111.696 16.1832 111.615 16.571 111.593 16.8914C111.57 17.2117 111.653 17.4039 111.84 17.4681C111.961 17.5331 112.168 17.5103 112.46 17.3997C112.765 17.2889 113.101 17.0176 113.469 16.5859C113.849 16.154 114.214 15.5024 114.562 14.6309C114.665 14.3628 114.742 14.1284 114.793 13.9277C114.843 13.7137 114.873 13.4799 114.883 13.2264C114.854 13.0668 114.859 12.9267 114.897 12.8062C114.949 12.6721 115.054 12.5574 115.213 12.4619C115.265 12.3945 115.338 12.3335 115.43 12.2789C115.523 12.211 115.583 12.2102 115.61 12.2765L115.93 12.2521C115.983 12.2381 116.017 12.271 116.031 12.3508C116.059 12.4171 116.106 12.4764 116.174 12.5289C116.322 12.6469 116.366 12.9063 116.304 13.3072C116.243 13.708 116.064 14.2705 115.767 14.9946C115.521 15.5447 115.354 15.9603 115.264 16.2415C115.188 16.5226 115.145 16.7965 115.135 17.0634C115.138 17.3033 115.188 17.5294 115.284 17.7414C115.381 17.9534 115.53 18.1448 115.732 18.3154C115.88 18.4067 115.962 18.5123 115.977 18.6321C116.005 18.7517 116.013 18.8916 116.002 19.0518C115.977 19.1721 115.899 19.2732 115.766 19.355C115.647 19.4233 115.508 19.4585 115.348 19.4607C115.188 19.4629 115.04 19.4182 114.906 19.3267ZM118.749 19.3946C118.495 19.2914 118.253 19.1546 118.024 18.9844C117.795 18.8008 117.646 18.6495 117.578 18.5304C117.576 18.4104 117.595 18.3301 117.634 18.2896C117.674 18.2357 117.787 18.2142 117.974 18.225C118.174 18.2223 118.494 18.2446 118.935 18.292C119.095 18.2898 119.294 18.2738 119.534 18.2438C119.774 18.2139 119.993 18.1709 120.192 18.1149C120.405 18.0587 120.524 17.9904 120.55 17.91C120.616 17.9091 120.629 17.889 120.589 17.8495C120.548 17.7967 120.501 17.744 120.447 17.6914C120.393 17.6921 120.333 17.6729 120.266 17.6339C120.198 17.5814 120.138 17.5556 120.085 17.5563C120.084 17.4896 120.016 17.4172 119.882 17.339C119.76 17.2473 119.633 17.1757 119.499 17.1242C119.202 16.8882 118.946 16.6783 118.73 16.4946C118.514 16.2975 118.432 16.1652 118.485 16.0979C118.484 16.0445 118.484 16.0179 118.484 16.0179C118.483 16.0045 118.483 15.9979 118.483 15.9979C118.39 15.9991 118.282 15.8673 118.158 15.6022C118.048 15.3371 117.991 15.0978 117.988 14.8845C117.986 14.7245 118.03 14.5239 118.12 14.2826C118.21 14.0281 118.333 13.7664 118.489 13.4976C118.646 13.2287 118.81 13.0065 118.981 12.8308C119.217 12.6009 119.514 12.3569 119.871 12.0987C120.227 11.8272 120.577 11.5891 120.921 11.3844C121.278 11.1662 121.576 11.0222 121.815 10.9522C122.054 10.8557 122.273 10.806 122.473 10.8033C122.687 10.8004 122.874 10.8445 123.035 10.9357C123.169 11.0005 123.291 11.0989 123.399 11.2308C123.521 11.3491 123.623 11.4744 123.704 11.6067C123.799 11.7254 123.861 11.8313 123.889 11.9242C123.891 12.0842 123.88 12.2644 123.856 12.4647C123.832 12.6517 123.794 12.8189 123.743 12.9663C123.705 13.1135 123.639 13.1877 123.546 13.189C123.546 13.189 123.526 13.1959 123.486 13.2098C123.459 13.2102 123.447 13.2437 123.447 13.3103C123.449 13.4436 123.351 13.5983 123.154 13.7743C122.903 13.9511 122.684 14.0607 122.498 14.1033C122.312 14.1325 122.197 14.0607 122.155 13.8879C122.114 13.8351 122.087 13.7888 122.073 13.749C122.059 13.7092 122.026 13.6896 121.972 13.6904C121.972 13.6904 121.952 13.6706 121.912 13.6312C121.871 13.5917 121.85 13.5253 121.849 13.432C121.848 13.3787 121.868 13.3317 121.907 13.2912C121.946 13.2373 121.966 13.2104 121.966 13.2104C122.033 13.2095 122.118 13.135 122.223 12.9869C122.327 12.8255 122.418 12.6575 122.496 12.4831C122.587 12.2952 122.632 12.1679 122.631 12.1013C122.63 12.0213 122.616 11.9748 122.589 11.9618C122.576 11.9487 122.515 11.9428 122.409 11.9443C122.223 12.0268 121.998 12.1365 121.733 12.2735C121.468 12.4104 121.217 12.5472 120.979 12.6837C120.754 12.8068 120.589 12.9224 120.483 13.0305C120.431 13.1245 120.399 13.185 120.386 13.2118C120.373 13.2253 120.339 13.2325 120.286 13.2332C120.285 13.1798 120.239 13.2071 120.147 13.3151C120.068 13.4095 119.964 13.5442 119.833 13.7194C119.715 13.8943 119.597 14.0693 119.48 14.2442C119.375 14.4056 119.297 14.5267 119.245 14.6074C119.218 14.6344 119.186 14.7149 119.148 14.8488C119.123 14.9691 119.111 15.0826 119.112 15.1893C119.061 15.35 119.07 15.4632 119.137 15.529C119.204 15.5814 119.353 15.6994 119.582 15.883C120.053 16.2233 120.424 16.5049 120.693 16.728C120.963 16.951 121.166 17.1349 121.301 17.2798C121.436 17.4246 121.518 17.5569 121.546 17.6765C121.792 18.0732 121.869 18.3789 121.779 18.5934C121.688 18.808 121.464 18.9977 121.107 19.1626C120.974 19.2311 120.755 19.2874 120.449 19.3315C120.143 19.3757 119.83 19.3999 119.51 19.4043C119.19 19.4219 118.936 19.4187 118.749 19.3946ZM125.336 18.6052C125.135 18.5813 124.96 18.4436 124.81 18.1923C124.673 17.9275 124.59 17.6886 124.56 17.4756C124.572 17.3688 124.584 17.2153 124.594 17.0151C124.618 16.8148 124.642 16.6078 124.666 16.3941C124.716 16.1401 124.785 15.8324 124.873 15.4712C124.962 15.0966 125.05 14.7221 125.138 14.3475C125.24 13.9728 125.329 13.6515 125.405 13.3838C125.481 13.1161 125.533 12.9554 125.558 12.9017C125.624 12.7941 125.73 12.766 125.877 12.8173C126.025 12.8687 126.146 12.947 126.241 13.0524C126.322 13.158 126.37 13.284 126.386 13.4305C126.414 13.5768 126.397 13.7904 126.334 14.0713C126.285 14.352 126.184 14.7667 126.031 15.3155C125.892 15.8508 125.784 16.2856 125.709 16.62C125.647 16.9408 125.625 17.2812 125.643 17.641C125.596 18.095 125.559 18.3755 125.534 18.4825C125.509 18.5762 125.443 18.6171 125.336 18.6052ZM127.527 10.5948C127.475 10.6355 127.422 10.6562 127.368 10.6569C127.328 10.6441 127.254 10.6051 127.147 10.5399C127.053 10.5279 126.932 10.4695 126.784 10.3648C126.649 10.2466 126.528 10.1283 126.419 10.0097C126.324 9.87767 126.276 9.79831 126.276 9.77165C126.261 9.63851 126.265 9.47177 126.289 9.27143C126.326 9.05757 126.397 8.86993 126.502 8.70849C126.606 8.53373 126.758 8.43833 126.958 8.42228C127.011 8.42156 127.058 8.42759 127.098 8.44038C127.138 8.45317 127.259 8.49821 127.46 8.57549C127.569 8.77403 127.679 8.99923 127.789 9.25109C127.899 9.48962 127.949 9.72897 127.939 9.96912C127.929 10.196 127.791 10.4045 127.527 10.5948ZM130.168 18.6997C129.875 18.7037 129.655 18.6933 129.507 18.6687C129.36 18.644 129.247 18.6055 129.166 18.5533C129.085 18.501 128.991 18.429 128.883 18.3371C128.828 18.2312 128.76 18.1187 128.678 17.9998C128.597 17.8809 128.529 17.7952 128.475 17.7426C128.419 17.5433 128.389 17.2837 128.384 16.9637C128.393 16.6436 128.429 16.2964 128.49 15.9222C128.565 15.5478 128.667 15.1997 128.796 14.878C128.848 14.7706 128.893 14.6633 128.932 14.5561C128.97 14.4489 128.99 14.3953 128.99 14.3953C128.989 14.3286 129.066 14.1676 129.223 13.9121C129.393 13.6564 129.576 13.3872 129.772 13.1046C129.982 12.8217 130.152 12.6194 130.284 12.4976C130.376 12.3896 130.514 12.2744 130.699 12.1519C130.898 12.0292 131.07 11.9402 131.216 11.8849C131.362 11.8296 131.508 11.7809 131.654 11.7389C131.813 11.6968 131.993 11.6743 132.193 11.6716C132.38 11.6691 132.553 11.7067 132.714 11.7845C132.876 11.8624 133.031 12.0003 133.18 12.1983C133.423 12.435 133.56 12.6732 133.59 12.9128C133.633 13.1389 133.629 13.3723 133.579 13.613C133.516 13.8805 133.432 14.0884 133.328 14.2365C133.223 14.3712 133.104 14.4328 132.97 14.4213C132.837 14.4098 132.682 14.3119 132.506 14.1276C132.451 14.0217 132.424 13.9354 132.423 13.8687C132.422 13.7887 132.447 13.675 132.498 13.5276C132.549 13.3403 132.546 13.147 132.49 12.9477C132.434 12.7484 132.346 12.6496 132.226 12.6512C132.053 12.6536 131.861 12.7362 131.649 12.8991C131.451 13.0485 131.247 13.2379 131.037 13.4674C130.945 13.5754 130.814 13.7438 130.644 13.9728C130.487 14.1883 130.33 14.4305 130.174 14.6993C130.017 14.9547 129.887 15.2032 129.784 15.4446C129.643 15.8866 129.528 16.2415 129.438 16.5094C129.362 16.7771 129.324 16.911 129.324 16.911C129.324 16.9643 129.338 17.0175 129.366 17.0704C129.406 17.1099 129.427 17.1563 129.428 17.2096C129.43 17.3696 129.525 17.495 129.713 17.5858C129.861 17.6771 130.035 17.7281 130.235 17.7387C130.435 17.736 130.681 17.666 130.972 17.5287C131.184 17.4191 131.382 17.2764 131.566 17.1006C131.764 16.9246 131.969 16.7685 132.18 16.6322C132.326 16.5369 132.438 16.4554 132.517 16.3877C132.609 16.3197 132.656 16.3124 132.657 16.3658C132.657 16.4191 132.678 16.4455 132.718 16.4449C132.758 16.4444 132.804 16.4171 132.857 16.363C132.935 16.2553 133.021 16.1875 133.114 16.1595C133.207 16.1183 133.286 16.1039 133.353 16.1163C133.433 16.1152 133.474 16.1347 133.474 16.1747C133.449 16.295 133.477 16.3946 133.558 16.4735C133.559 16.5269 133.54 16.6005 133.501 16.6943C133.476 16.7747 133.436 16.8419 133.384 16.8959C133.318 16.9902 133.22 17.0982 133.088 17.22C132.97 17.3416 132.858 17.4498 132.753 17.5446C132.647 17.626 132.594 17.6667 132.594 17.6667C132.541 17.6541 132.488 17.6682 132.435 17.7089C132.395 17.7494 132.349 17.7967 132.297 17.8508C132.191 17.9455 132.092 18.0202 132 18.0748C131.907 18.1161 131.834 18.1371 131.781 18.1378C131.688 18.1924 131.615 18.2267 131.562 18.2408C131.522 18.2546 131.503 18.2882 131.503 18.3416C131.372 18.4767 131.206 18.5723 131.007 18.6283C130.821 18.6709 130.541 18.6946 130.168 18.6997Z" fill="#FF3B30"/>
<path d="M32.6908 122.48C32.956 122.557 33.2333 122.404 33.3099 122.139L34.5594 117.816C34.636 117.55 34.4831 117.273 34.2178 117.197C33.9526 117.12 33.6753 117.273 33.5987 117.538L32.4881 121.381L28.6453 120.27C28.3801 120.194 28.1029 120.346 28.0262 120.612C27.9495 120.877 28.1024 121.154 28.3677 121.231L32.6908 122.48ZM59.8296 43L59.748 42.5067C45.0034 44.9457 34.2749 48.1941 26.8934 52.4529C19.4934 56.7224 15.4343 62.0229 14.0954 68.5391C12.763 75.0231 14.1417 82.6319 17.4304 91.4975C20.7216 100.37 25.9508 110.564 32.3918 122.241L32.8296 122L33.2674 121.759C26.8284 110.085 21.6312 99.9463 18.368 91.1497C15.1024 82.3465 13.7988 74.9508 15.0749 68.7403C16.3444 62.562 20.1846 57.4781 27.3932 53.3191C34.6203 49.1493 45.2097 45.9252 59.9112 43.4933L59.8296 43Z" fill="#2E2E2E"/>
</svg>
